<?xml version="1.0" encoding="UTF-8"?>
<svg width="1624px" height="1200px" viewBox="0 0 1624 1200px" version="1.1" xmlns="http://www.w3.org/2000/svg" xmlns:xlink="http://www.w3.org/1999/xlink">
    <!-- Generator: Sketch 52.6 (67491) - http://www.bohemiancoding.com/sketch -->
    <title>tx-arrows</title>
    <desc>Created with Sketch.</desc>
    <g id="Page-1" stroke="none" stroke-width="1" fill="none" fill-rule="evenodd">
        <path d="M353.941,650 C367.195834,650 377.941,660.745166 377.941,674 L377.941,706 C377.941,719.254834 367.195834,730 353.941,730 L134.059,730 L134.059,776.058 C134.059,797.44 108.207,808.148 93.088,793.029 L7.029,706.97 C-2.344,697.597 -2.344,682.402 7.029,673.029 L93.088,586.97 C108.208,571.851 134.059,582.559 134.059,603.941 L134.059,650 L353.941,650 Z M851.941,353.941 C851.941,367.195834 841.195834,377.941 827.941,377.941 L795.941,377.941 C782.686166,377.941 771.941,367.195834 771.941,353.941 L771.941,24.059 C771.941,10.804166 782.686166,0.059 795.941,0.059 L827.941,0.059 C841.195834,0.059 851.941,10.804166 851.941,24.059 L851.941,353.941 Z M1270.059,650 L1489.941,650 L1489.941,603.941 C1489.941,582.559 1515.792,571.851 1530.912,586.97 L1616.971,673.029 C1626.344,682.402 1626.344,697.597 1616.971,706.97 L1530.912,793.029 C1515.793,808.148 1489.941,797.44 1489.941,776.058 L1489.941,730 L1270.059,730 C1256.80417,730 1246.059,719.254834 1246.059,706 L1246.059,674 C1246.059,660.745166 1256.80417,650 1270.059,650 Z M766.6,530 C773.2,530 778.6,535.4 778.5,542 L778.5,585.1 C778.5,591.7 773.1,597.1 766.5,597.1 L681.4,597.1 L681.4,838 C681.4,844.6 676,850 669.4,850 L615.1,850 C608.5,850 603.1,844.6 603.1,838 L603.1,597.1 L518,597.1 C511.4,597.1 506,591.7 506,585.1 L506,542 C506,535.4 511.4,530 518,530 L766.6,530 Z M1097.94488,530 C1113.28859,530 1122.9618,546.666667 1115.12317,560 C1088.43845,605.833333 1039.07173,688.166667 1037.90427,690 L1115.28995,820 C1122.9618,833.333333 1113.45537,850 1097.94488,850 L1049.91239,850 C1042.57409,850 1035.73614,846 1032.23377,839.5 C994.374826,769.833333 1009.38498,793.666667 984.534836,743.333333 C975.195186,764.5 973.027053,772.833333 936.835906,839.5 C933.333537,846 926.662358,850 919.324061,850 L871.124792,850 C855.614301,850 845.941091,833.333333 853.779727,820 L930.998624,690 L853.779727,560 C846.107871,546.666667 855.614301,530 871.124792,530 L919.324061,530 C926.662358,530 933.500317,534 937.002686,540.5 C973.193832,607.833333 961.519269,588.166667 984.701616,636.666667 C995.375502,611.166667 1002.38024,595.666667 1032.40055,540.5 C1035.90292,534 1042.57409,530 1049.91239,530 L1097.94488,530 Z" fill="#A380BC"></path>
    </g>
</svg>
