
<svg fill="#000000" xmlns="http://www.w3.org/2000/svg" viewBox="0 0 80 80" width="480px" height="480px">
<style type="text/css">
	.st0{opacity:0.286;enable-background:new    ;}
</style>
<path class="st0" d="M 30.5 6 C 28.578125 6 27 7.578125 27 9.5 C 27 11.246094 28.324219 12.644531 30 12.898438 L 30 27.730469 L 8.769531 64.402344 C 8.265625 65.273438 8 66.261719 8 67.269531 C 8 70.421875 10.578125 73 13.730469 73 L 66.269531 73 C 69.421875 73 72 70.421875 72 67.269531 C 72 66.261719 71.734375 65.273438 71.230469 64.402344 L 50 27.730469 L 50 12.898438 C 51.675781 12.644531 53 11.246094 53 9.5 C 53 7.578125 51.421875 6 49.5 6 Z M 30.5 8 L 49.5 8 C 50.339844 8 51 8.660156 51 9.5 C 51 10.339844 50.339844 11 49.5 11 L 48 11 C 47.449219 11 47 11.449219 47 12 C 47 12.550781 47.449219 13 48 13 L 48 28.269531 L 53.667969 38.058594 C 53.269531 38.199219 53 38.578125 53 39 C 53 39.550781 53.449219 40 54 40 C 54.238281 40 54.46875 39.914063 54.652344 39.761719 L 69.5 65.402344 C 69.824219 65.96875 70 66.613281 70 67.269531 C 70 69.339844 68.339844 71 66.269531 71 L 13.730469 71 C 11.660156 71 10 69.339844 10 67.269531 C 10 66.613281 10.175781 65.96875 10.5 65.402344 L 25.347656 39.757813 C 25.53125 39.914063 25.761719 40 26 40 C 26.550781 40 27 39.550781 27 39 C 27 38.578125 26.730469 38.199219 26.332031 38.058594 L 32 28.269531 L 32 13 C 32.550781 13 33 12.550781 33 12 C 33 11.449219 32.550781 11 32 11 L 30.5 11 C 29.660156 11 29 10.339844 29 9.5 C 29 8.660156 29.660156 8 30.5 8 Z M 36 11 C 35.449219 11 35 11.449219 35 12 C 35 12.550781 35.449219 13 36 13 C 36.550781 13 37 12.550781 37 12 C 37 11.449219 36.550781 11 36 11 Z M 40 11 C 39.449219 11 39 11.449219 39 12 C 39 12.550781 39.449219 13 40 13 C 40.550781 13 41 12.550781 41 12 C 41 11.449219 40.550781 11 40 11 Z M 44 11 C 43.449219 11 43 11.449219 43 12 C 43 12.550781 43.449219 13 44 13 C 44.550781 13 45 12.550781 45 12 C 45 11.449219 44.550781 11 44 11 Z M 41 22 C 38.800781 22 37 23.800781 37 26 C 37 28.199219 38.800781 30 41 30 C 43.199219 30 45 28.199219 45 26 C 45 23.800781 43.199219 22 41 22 Z M 41 24 C 42.117188 24 43 24.882813 43 26 C 43 27.117188 42.117188 28 41 28 C 39.882813 28 39 27.117188 39 26 C 39 24.882813 39.882813 24 41 24 Z M 30 38 C 29.449219 38 29 38.449219 29 39 C 29 39.550781 29.449219 40 30 40 C 30.550781 40 31 39.550781 31 39 C 31 38.449219 30.550781 38 30 38 Z M 34 38 C 33.449219 38 33 38.449219 33 39 C 33 39.550781 33.449219 40 34 40 C 34.550781 40 35 39.550781 35 39 C 35 38.449219 34.550781 38 34 38 Z M 38 38 C 37.449219 38 37 38.449219 37 39 C 37 39.550781 37.449219 40 38 40 C 38.550781 40 39 39.550781 39 39 C 39 38.449219 38.550781 38 38 38 Z M 42 38 C 41.449219 38 41 38.449219 41 39 C 41 39.550781 41.449219 40 42 40 C 42.550781 40 43 39.550781 43 39 C 43 38.449219 42.550781 38 42 38 Z M 46 38 C 45.449219 38 45 38.449219 45 39 C 45 39.550781 45.449219 40 46 40 C 46.550781 40 47 39.550781 47 39 C 47 38.449219 46.550781 38 46 38 Z M 50 38 C 49.449219 38 49 38.449219 49 39 C 49 39.550781 49.449219 40 50 40 C 50.550781 40 51 39.550781 51 39 C 51 38.449219 50.550781 38 50 38 Z M 35 43 C 32.800781 43 31 44.800781 31 47 C 31 49.199219 32.800781 51 35 51 C 37.199219 51 39 49.199219 39 47 C 39 44.800781 37.199219 43 35 43 Z M 35 45 C 36.117188 45 37 45.882813 37 47 C 37 48.117188 36.117188 49 35 49 C 33.882813 49 33 48.117188 33 47 C 33 45.882813 33.882813 45 35 45 Z M 48 53 C 45.800781 53 44 54.800781 44 57 C 44 59.199219 45.800781 61 48 61 C 50.199219 61 52 59.199219 52 57 C 52 54.800781 50.199219 53 48 53 Z M 48 55 C 49.117188 55 50 55.882813 50 57 C 50 58.117188 49.117188 59 48 59 C 46.882813 59 46 58.117188 46 57 C 46 55.882813 46.882813 55 48 55 Z"/>
</svg>