<?xml version="1.0" encoding="utf-8"?>
<!-- Generator: Adobe Illustrator 24.0.1, SVG Export Plug-In . SVG Version: 6.00 Build 0)  -->
<svg version="1.1" id="Layer_2" xmlns="http://www.w3.org/2000/svg" xmlns:xlink="http://www.w3.org/1999/xlink" x="0px" y="0px"
	 viewBox="0 0 50 50" style="enable-background:new 0 0 50 50;" xml:space="preserve">
<g id="ADA_Currency_Symbol-01" transform="translate(-66.797 -52.3)">
	<path id="Path_610" d="M98.5,79.3c0-0.3-0.3-0.6-0.7-0.6h-1.9l-0.5-1.3c0,0,0,0,0,0c0,0,0,0,0,0h1.2c0.3,0,0.6-0.2,0.7-0.6
		c0-0.3-0.3-0.6-0.6-0.6c0,0,0,0,0,0h-1.7l-2.1-5.3c-0.1-0.2-0.3-0.4-0.6-0.4c-0.3,0-0.5,0.2-0.6,0.4l-2.1,5.3H88
		c-0.3,0-0.6,0.2-0.7,0.6c0,0.3,0.3,0.6,0.6,0.6c0,0,0,0,0,0h1.2c0,0,0,0,0,0c0,0,0,0,0,0l-0.5,1.3h-1.9c-0.3,0-0.6,0.2-0.7,0.6
		c0,0.3,0.3,0.6,0.6,0.6c0,0,0,0,0,0h1.4c0,0,0,0,0,0c0,0,0,0,0,0l-1.7,4.3c-0.1,0.3,0,0.7,0.3,0.8c0.1,0,0.1,0,0.2,0
		c0.3,0,0.5-0.2,0.6-0.4l1.8-4.8h5.6l1.9,4.8c0.1,0.2,0.3,0.4,0.6,0.4c0.1,0,0.2,0,0.2,0c0.3-0.1,0.5-0.5,0.3-0.8L96.4,80
		c0,0,0,0,0,0c0,0,0,0,0,0h1.4C98.2,79.9,98.5,79.6,98.5,79.3z M92.3,72.8l1.3,3.4c0,0,0,0,0,0c0,0,0,0,0,0h-2.6c0,0,0,0,0,0
		c0,0,0,0,0,0L92.3,72.8L92.3,72.8z M90,78.7l0.5-1.3h3.6l0.5,1.3c0,0,0,0,0,0c0,0,0,0,0,0L90,78.7L90,78.7z"/>
</g>
</svg>
