<svg xmlns="http://www.w3.org/2000/svg" xmlns:xlink="http://www.w3.org/1999/xlink" width="73" height="10" viewBox="0 0 73 10">
    <defs>
        <path id="ncme52b0na" d="M0 0.106L72.823 0.106 72.823 8.442 0 8.442z"/>
    </defs>
    <g fill="none" fill-rule="evenodd">
        <g>
            <g transform="translate(-954 -382) translate(954 382.082)">
                <mask id="hfsb8a6web" fill="#fff">
                    <use xlink:href="#ncme52b0na"/>
                </mask>
                <path fill="#273245" d="M72.669 3.419c-.068-.268-.287-.459-.57-.487-3.872-.382-7.225-1.567-10.272-2.789-.284-.114-.578.055-.697.284-.121.235-.056.488.163.63 1.367.886 2.926 1.585 4.741 2.124-.573.03-1.123.055-1.67.069-2.952.074-6.122.156-9.31.251L19.165 4.58c-1.756.053-3.564.068-5.314.082-4.397.036-8.943.073-13.294.706-.372.054-.564.388-.556.675.01.305.226.527.538.553 4.132.346 8.405.118 12.537-.102 1.612-.086 3.279-.175 4.901-.227L53.86 5.112c3.342-.107 6.384-.212 9.302-.32.78-.03 1.566-.035 2.398-.041l.464-.004c-1.638.569-3.247 1.32-4.523 2.559-.181.176-.251.388-.198.598.058.231.27.43.54.506.078.021.157.032.234.032.211 0 .412-.08.566-.23 1.664-1.63 4.196-2.346 6.645-3.04 1.053-.297 2.047-.579 2.961-.927.042-.016.075-.037.1-.054l.027-.006.094-.022c.198-.05.34-.212.353-.403.01-.138-.047-.26-.153-.341" mask="url(#hfsb8a6web)"/>
            </g>
        </g>
    </g>
</svg>
