<svg xmlns="http://www.w3.org/2000/svg" xmlns:xlink="http://www.w3.org/1999/xlink" width="73" height="10" viewBox="0 0 73 10">
    <defs>
        <path id="usx006rlra" d="M0 0.152L72.823 0.152 72.823 8.488 0 8.488z"/>
    </defs>
    <g fill="none" fill-rule="evenodd">
        <g>
            <g transform="translate(-954 -406) translate(954 406.793)">
                <mask id="tvk5dlx8zb" fill="#fff">
                    <use xlink:href="#usx006rlra"/>
                </mask>
                <path fill="#273245" d="M72.267 5.413c-4.35-.633-8.898-.67-13.296-.706-1.749-.014-3.557-.029-5.312-.082L17.77 3.547c-3.262-.097-6.536-.181-9.31-.251-.547-.014-1.096-.04-1.67-.068 1.815-.54 3.375-1.24 4.742-2.125.218-.142.284-.395.162-.63-.119-.229-.412-.398-.696-.284C7.95 1.412 4.597 2.596.726 2.98c-.284.027-.504.218-.571.486-.107.08-.164.204-.154.34.014.192.156.354.353.404l.09.021.032.007c.025.017.058.038.1.054.914.348 1.908.63 2.96.928 2.449.693 4.981 1.41 6.646 3.04.153.15.354.23.565.23.078 0 .156-.011.234-.033.27-.076.482-.274.541-.506.053-.21-.017-.422-.199-.598-1.276-1.24-2.884-1.99-4.522-2.559l.458.004c.834.006 1.62.012 2.404.041 2.917.108 5.96.213 9.302.32l35.882 1.154c1.624.052 3.291.141 4.904.227 4.13.22 8.403.447 12.535.102.312-.026.528-.248.537-.553.009-.287-.183-.62-.556-.675" mask="url(#tvk5dlx8zb)"/>
            </g>
        </g>
    </g>
</svg>
