<svg xmlns="http://www.w3.org/2000/svg" xmlns:xlink="http://www.w3.org/1999/xlink" width="130" height="127" viewBox="0 0 130 127">
    <defs>
        <path id="2rrrdp8qka" d="M0 0L103.406 0 103.406 98.055 0 98.055z"/>
    </defs>
    <g fill="none" fill-rule="evenodd">
        <g>
            <g transform="translate(-862 -470) rotate(-162 527.829 222.207)">
                <mask id="ntxjeq168b" fill="#fff">
                    <use xlink:href="#2rrrdp8qka"/>
                </mask>
                <path fill="#283346" d="M101.893.018c-.615-.028-1.262.132-1.92.422-2.264.46-4.589.772-6.85 1.156-4.1.697-8.551.55-12.544 1.622-.611.164-.76 1.172-.059 1.349 4.248 1.07 8.608.318 12.944-.485-10.104 3.36-19.858 8.785-28.87 14.168-9.93 5.931-19.21 12.958-27.618 20.899-8.194 7.74-15.86 16.305-21.933 25.82C8.713 74.884 3.777 85.88.047 97.02c-.317.946 1.05 1.48 1.462.552 4.72-10.65 9.319-21.296 15.627-31.132 5.965-9.303 13.687-17.555 21.696-25.13 8.237-7.788 17.4-14.49 27.098-20.341 8.121-4.9 16.828-8.553 25.3-12.684-2.038 2.225-4.07 4.888-4.35 7.659-.174 1.723 2.595 2.536 3.028.715.722-3.033 3.46-5.739 5.523-7.92 1.281-1.354 2.637-2.633 4.073-3.823 1.032-.855 2.653-1.369 3.521-2.322.825-.905.248-2.803-1.132-2.577" mask="url(#ntxjeq168b)"/>
            </g>
        </g>
    </g>
</svg>
