<svg xmlns="http://www.w3.org/2000/svg" width="15.898" height="17.727" viewBox="0 0 15.898 17.727">
    <g id="prefix__blockly" transform="translate(-9.393 -61.769)">
        <path id="prefix__path906" d="M11.067 61.771a1.592 1.592 0 00-1.675 1.5v12.902a1.592 1.592 0 001.675 1.5h.652a2.723 2.723 0 002.662 1.827 2.722 2.722 0 002.659-1.828h2.837a1.05 1.05 0 001.1-.986V62.757l-1.1-.986z" transform="translate(0 -.001)" style="opacity:.504;fill:#fff"/>
        <path id="prefix__path908" d="M25.658 61.769v6.456l-2.294-1.142a.5.5 0 00-.741.38V72.4a.5.5 0 00.741.38l2.294-1.143v5.813h6.274a1.5 1.5 0 001.589-1.4V63.166a1.5 1.5 0 00-1.589-1.4z" transform="translate(-8.229)" style="fill:#fff"/>
    </g>
</svg>
