<?xml version="1.0" encoding="utf-8"?>
<!-- Generator: Adobe Illustrator 24.0.1, SVG Export Plug-In . SVG Version: 6.00 Build 0)  -->
<svg version="1.1" id="Layer_1" xmlns="http://www.w3.org/2000/svg" xmlns:xlink="http://www.w3.org/1999/xlink" x="0px" y="0px"
	 viewBox="0 0 50 50" style="enable-background:new 0 0 50 50;" xml:space="preserve">
<style type="text/css">
	.st0{opacity:0.504;fill:#FFFFFF;enable-background:new    ;}
	.st1{fill:#FFFFFF;}
</style>
<g id="blockly" transform="translate(-9.393 -61.769)">
	<path id="path906" class="st0" d="M27.8,79.2c-0.9,0-1.6,0.6-1.7,1.5v12.9c0,0.9,0.8,1.5,1.7,1.5h0.7c0.4,1.1,1.5,1.9,2.7,1.8
		c1.2,0,2.3-0.7,2.7-1.8h2.8c0.6,0,1.1-0.4,1.1-1V80.2l-1.1-1H27.8z"/>
	<path id="path908" class="st1" d="M34.2,79.2c0,2.2,0,4.3,0,6.5l-2.3-1.1c-0.2-0.1-0.5,0-0.7,0.2c0,0.1-0.1,0.1-0.1,0.2v4.9
		c0,0.3,0.3,0.5,0.6,0.4c0.1,0,0.1,0,0.2-0.1l2.3-1.1v5.8h6.3c0.8,0.1,1.5-0.6,1.6-1.4V80.6c-0.1-0.8-0.8-1.5-1.6-1.4L34.2,79.2z"/>
</g>
</svg>
