<?xml version="1.0" encoding="utf-8"?>
<!-- Generator: Adobe Illustrator 24.0.1, SVG Export Plug-In . SVG Version: 6.00 Build 0)  -->
<svg version="1.1" id="Layer_1" xmlns="http://www.w3.org/2000/svg" xmlns:xlink="http://www.w3.org/1999/xlink" x="0px" y="0px"
	 viewBox="0 0 50 50" style="enable-background:new 0 0 50 50;" xml:space="preserve">
<style type="text/css">
	.st0{opacity:0.696;}
	.st1{fill:#999999;}
	.st2{fill:#CCCCCC;}
</style>
<g id="layer1" transform="translate(-9.393 -61.769)" class="st0">
	<path id="path906_1_" class="st1" d="M22,70c-1.7-0.1-3.1,1.2-3.2,2.9v24.8c0.1,1.7,1.5,3,3.2,2.9h1.3c0.7,2.2,2.8,3.6,5.1,3.5
		c2.3,0.1,4.4-1.3,5.1-3.5h5.4c1.1,0.1,2.1-0.8,2.1-1.9V71.9L38.9,70H22z"/>
	<path id="path908_1_" class="st2" d="M34.3,70c0,4.1,0,8.3,0,12.4l-4.4-2.2c-0.5-0.3-1-0.1-1.3,0.4c-0.1,0.1-0.1,0.2-0.1,0.4v9.5
		c0.1,0.5,0.5,0.9,1.1,0.8c0.1,0,0.3-0.1,0.4-0.1l4.4-2.2v11.1h12c1.6,0.1,2.9-1.1,3-2.7V72.7c-0.1-1.6-1.5-2.8-3-2.7L34.3,70z"/>
</g>
</svg>
