<svg xmlns="http://www.w3.org/2000/svg" width="30.493" height="34" viewBox="0 0 30.493 34">
    <g id="prefix__layer1" transform="translate(-9.393 -61.769)" style="opacity:.696">
        <path id="prefix__path906" d="M12.6 61.771a3.053 3.053 0 00-3.212 2.87v24.753a3.053 3.053 0 003.212 2.87h1.251a5.222 5.222 0 005.1 3.506 5.222 5.222 0 005.1-3.506H29.5a2.013 2.013 0 002.117-1.891V63.662L29.5 61.771z" style="fill:#999"/>
        <path id="prefix__path908" d="M28.445 61.769v12.383l-4.4-2.191a.958.958 0 00-1.421.729v9.47a.958.958 0 001.421.729l4.4-2.192v11.149h12.031a2.884 2.884 0 003.048-2.686V64.447a2.886 2.886 0 00-3.048-2.677z" transform="translate(-3.638)" style="fill:#ccc"/>
    </g>
</svg>
