<?xml version="1.0" encoding="utf-8"?>
<!-- Generator: Adobe Illustrator 24.0.1, SVG Export Plug-In . SVG Version: 6.00 Build 0)  -->
<svg version="1.1" id="Layer_1" xmlns="http://www.w3.org/2000/svg" xmlns:xlink="http://www.w3.org/1999/xlink" x="0px" y="0px"
	 viewBox="0 0 50 50" style="enable-background:new 0 0 50 50;" xml:space="preserve">
<style type="text/css">
	.st0{fill:#832DC4;}
</style>
<g id="close_tab" transform="translate(-1376.893 -889)">
	<path id="Path_607" class="st0" d="M1402.3,919.4c-0.2,0-0.4-0.1-0.5-0.4c-0.1-0.2,0-0.5,0.2-0.6l6.5-5.6c0.2-0.2,0.6-0.2,0.8,0.1
		c0,0,0,0,0,0c0.2,0.2,0.2,0.6-0.1,0.8l-6.5,5.6C1402.6,919.4,1402.4,919.4,1402.3,919.4z"/>
	<path id="Path_608" class="st0" d="M1402.2,919.4c-0.1,0-0.2,0-0.3-0.1l-6.3-5.6c-0.2-0.2-0.3-0.5-0.1-0.8c0.2-0.2,0.5-0.3,0.7-0.1
		c0,0,0,0,0,0l6.3,5.6c0.2,0.2,0.2,0.4,0.2,0.6C1402.7,919.3,1402.5,919.4,1402.2,919.4z"/>
</g>
</svg>
