<svg xmlns="http://www.w3.org/2000/svg" id="prefix__download" width="30" height="30" viewBox="0 0 30 30">
    <defs>
        <style>
            .prefix__cls-3{fill:#1746a0}
        </style>
    </defs>
    <path id="prefix__Path_571" d="M70 59a11 11 0 11-11-11 11 11 0 0111 11zm0 0" data-name="Path 571" transform="translate(-44 -44)" style="opacity:.195;fill:#1746a0"/>
    <path id="prefix__Path_572" d="M15 30a15 15 0 1115-15 15 15 0 01-15 15zm0-29a14 14 0 1014 14A14 14 0 0015 1zm0 0" data-name="Path 572" style="opacity:.566;fill:#1746a0"/>
    <g id="prefix__Group_1016" data-name="Group 1016" transform="translate(8.5 7.5)">
        <path id="prefix__Path_573" d="M232.4 131a.384.384 0 01-.4-.367v-10.266a.4.4 0 01.8 0v10.267a.384.384 0 01-.4.366zm0 0" class="prefix__cls-3" data-name="Path 573" transform="translate(-226 -118.5)"/>
        <path id="prefix__Path_574" d="M232.381 268.912a.394.394 0 01-.37-.27.421.421 0 01.118-.454l4.714-4.1a.382.382 0 01.554.052.422.422 0 01-.05.577l-4.714 4.1a.383.383 0 01-.252.095zm0 0" class="prefix__cls-3" data-name="Path 574" transform="translate(-225.987 -255.997)"/>
        <path id="prefix__Path_575" d="M140.926 268.912a.362.362 0 01-.242-.095l-4.542-4.1a.433.433 0 01-.048-.577.359.359 0 01.533-.052l4.543 4.1a.431.431 0 01.113.454.381.381 0 01-.357.27zm0 0" class="prefix__cls-3" data-name="Path 575" transform="translate(-134.505 -255.997)"/>
    </g>
</svg>
