<?xml version="1.0" encoding="utf-8"?>
<!-- Generator: Adobe Illustrator 24.0.1, SVG Export Plug-In . SVG Version: 6.00 Build 0)  -->
<svg version="1.1" id="Layer_1" xmlns="http://www.w3.org/2000/svg" xmlns:xlink="http://www.w3.org/1999/xlink" x="0px" y="0px"
	 viewBox="0 0 50 50" style="enable-background:new 0 0 50 50;" xml:space="preserve">
<style type="text/css">
	.st0{fill:#FFFFFF;}
</style>
<g id="Group_1026" transform="translate(0 0)">
	<path id="Path_573_1_" class="st0" d="M25.7,31.9c-0.2,0-0.4-0.1-0.4-0.3V22c0-0.2,0.2-0.4,0.4-0.3c0.2,0,0.3,0.2,0.3,0.3v9.6
		C26.1,31.7,25.9,31.9,25.7,31.9z"/>
	<path id="Path_574_1_" class="st0" d="M25.7,32.3c-0.2,0-0.3-0.1-0.3-0.3c-0.1-0.2,0-0.3,0.1-0.4l4.4-3.8c0.1-0.1,0.4-0.1,0.5,0
		c0,0,0,0,0,0c0.1,0.2,0.1,0.4,0,0.5l-4.4,3.8C25.8,32.2,25.7,32.3,25.7,32.3z"/>
	<path id="Path_575_1_" class="st0" d="M25.7,32.3c-0.1,0-0.2,0-0.2-0.1l-4.2-3.8c-0.2-0.1-0.2-0.4,0-0.5c0.1-0.1,0.3-0.2,0.5-0.1
		c0,0,0,0,0,0l4.2,3.8c0.1,0.1,0.2,0.3,0.1,0.4C26,32.2,25.9,32.3,25.7,32.3z"/>
	<path id="Path_581_1_" class="st0" d="M30.8,18.6c0,0.2-0.1,0.4-0.3,0.4h-9.5c-0.2,0-0.3-0.2-0.3-0.4c0-0.2,0.1-0.4,0.3-0.4h9.5
		C30.6,18.3,30.8,18.4,30.8,18.6z"/>
</g>
</svg>
