<?xml version="1.0" encoding="utf-8"?>
<!-- Generator: Adobe Illustrator 24.0.1, SVG Export Plug-In . SVG Version: 6.00 Build 0)  -->
<svg version="1.1" xmlns="http://www.w3.org/2000/svg" xmlns:xlink="http://www.w3.org/1999/xlink" x="0px" y="0px"
	 viewBox="0 0 50 50" style="enable-background:new 0 0 50 50;" xml:space="preserve">
<style type="text/css">
	.st0{fill:#FF0000;}
</style>
<g id="Layer_1">
</g>
<g id="Layer_2">
	<g id="danger" transform="translate(0 -35.857)">
		<g id="Group_1018" transform="translate(0 35.857)">
			<g id="Group_1017" transform="translate(0 0)">
				<path id="Path_576" class="st0" d="M31.8,28.8l-5.7-9.5c-0.4-0.6-1.1-0.8-1.7-0.4c-0.2,0.1-0.3,0.3-0.4,0.4l-5.7,9.5
					c-0.4,0.6-0.2,1.4,0.4,1.7c0.2,0.1,0.4,0.2,0.6,0.2h11.4c0.7,0,1.3-0.6,1.3-1.3C32,29.2,31.9,29,31.8,28.8z M31,29.6
					c-0.1,0.1-0.2,0.2-0.3,0.2H19.3c-0.2,0-0.3-0.1-0.3-0.3c0-0.1,0-0.1,0-0.2l5.7-9.5c0.1-0.2,0.3-0.2,0.5-0.1c0,0,0.1,0.1,0.1,0.1
					l5.7,9.5C31.1,29.4,31.1,29.5,31,29.6z"/>
			</g>
		</g>
		<g id="Group_1020" transform="translate(6.137 38.803)">
			<g id="Group_1019" transform="translate(0 0)">
				<path id="Path_577" class="st0" d="M18.7,18.7c-0.4,0-0.6,0.2-0.6,0.5c0,1,0.1,2.5,0.1,3.6c0,0.3,0.2,0.4,0.5,0.4
					c0.2,0,0.5-0.1,0.5-0.4c0-1,0.1-2.5,0.1-3.6C19.3,18.9,19,18.7,18.7,18.7C18.7,18.7,18.7,18.7,18.7,18.7z"/>
			</g>
		</g>
		<g id="Group_1022" transform="translate(6.098 44.116)">
			<g id="Group_1021" transform="translate(0 0)">
				<path id="Path_578" class="st0" d="M18.9,18.7c-0.5,0-0.9,0.4-0.9,0.9c0,0.5,0.4,0.9,0.9,0.9c0.5,0,0.9-0.4,0.9-0.9
					C19.8,19.1,19.4,18.7,18.9,18.7z"/>
			</g>
		</g>
	</g>
</g>
</svg>
