<svg xmlns="http://www.w3.org/2000/svg" id="prefix__github" width="30" height="30" viewBox="0 0 30 30">
    <path id="prefix__Path_572" d="M15 30a15 15 0 1115-15 15 15 0 01-15 15zm0-29a14 14 0 1014 14A14 14 0 0015 1zm0 0" data-name="Path 572" style="opacity:.566;fill:#1746a0"/>
    <g id="prefix__github-2" data-name="github" transform="translate(4 -1.329)" style="opacity:.202">
        <g id="prefix__Group_1025" data-name="Group 1025" transform="translate(0 5.329)">
            <path id="prefix__Path_580" d="M11 5.329a11.05 11.05 0 00-3.476 21.523c.55.1.751-.239.751-.532 0-.263-.01-.957-.015-1.878-3.059.667-3.706-1.481-3.706-1.481a2.916 2.916 0 00-1.221-1.616c-1-.685.074-.671.074-.671a2.31 2.31 0 011.684 1.139 2.338 2.338 0 003.2.917 2.357 2.357 0 01.7-1.477c-2.441-.279-5.009-1.227-5.009-5.453a4.281 4.281 0 011.133-2.965 3.98 3.98 0 01.107-2.922s.924-.3 3.025 1.132a10.383 10.383 0 015.508 0c2.1-1.429 3.022-1.132 3.022-1.132a3.985 3.985 0 01.11 2.922 4.272 4.272 0 011.13 2.965c0 4.242-2.571 5.175-5.022 5.449a2.642 2.642 0 01.747 2.045c0 1.477-.014 2.668-.014 3.029 0 .3.2.639.756.531A11.051 11.051 0 0011 5.329z" data-name="Path 580" transform="translate(0 -5.329)" style="fill:#1746a0"/>
        </g>
    </g>
</svg>
