<?xml version="1.0" encoding="utf-8"?>
<!-- Generator: Adobe Illustrator 24.0.1, SVG Export Plug-In . SVG Version: 6.00 Build 0)  -->
<svg version="1.1" id="Layer_1" xmlns="http://www.w3.org/2000/svg" xmlns:xlink="http://www.w3.org/1999/xlink" x="0px" y="0px"
	 viewBox="0 0 50 50" style="enable-background:new 0 0 50 50;" xml:space="preserve">
<style type="text/css">
	.st0{opacity:0.566;fill:#1746A0;enable-background:new    ;}
	.st1{fill:#1746A0;}
</style>
<path id="Path_572" class="st0" d="M24.7,40.3c-8.3,0-15-6.7-15-15s6.7-15,15-15s15,6.7,15,15S33,40.3,24.7,40.3z M24.7,11.3
	c-7.7,0-14,6.3-14,14s6.3,14,14,14s14-6.3,14-14S32.4,11.3,24.7,11.3z"/>
<g id="github-2" transform="translate(4 -1.329)">
	<g id="Group_1025" transform="translate(0 5.329)">
		<path id="Path_580" class="st1" d="M20.7,10.3c-6.1,0-11,5-11,11.1c0,4.7,3,8.9,7.5,10.4c0.6,0.1,0.8-0.2,0.8-0.5c0-0.3,0-1,0-1.9
			c-3.1,0.7-3.7-1.5-3.7-1.5c-0.2-0.7-0.6-1.2-1.2-1.6c-1-0.7,0.1-0.7,0.1-0.7c0.7,0.1,1.3,0.5,1.7,1.1c0.6,1.1,2,1.6,3.2,0.9
			c0,0,0,0,0,0c0-0.6,0.3-1.1,0.7-1.5c-2.4-0.3-5-1.2-5-5.5c0-1.1,0.4-2.2,1.1-3c-0.3-1-0.3-2,0.1-2.9c0,0,0.9-0.3,3,1.1
			c1.8-0.5,3.7-0.5,5.5,0c2.1-1.4,3-1.1,3-1.1c0.4,0.9,0.4,2,0.1,2.9c0.7,0.8,1.1,1.9,1.1,3c0,4.2-2.6,5.2-5,5.4
			c0.5,0.5,0.8,1.3,0.7,2c0,1.5,0,2.7,0,3c0,0.3,0.2,0.6,0.8,0.5c5.8-1.9,8.9-8.2,7-14C29.6,13.3,25.4,10.3,20.7,10.3z"/>
	</g>
</g>
</svg>
