<?xml version="1.0" encoding="utf-8"?>
<!-- Generator: Adobe Illustrator 24.0.1, SVG Export Plug-In . SVG Version: 6.00 Build 0)  -->
<svg version="1.1" id="Layer_2" xmlns="http://www.w3.org/2000/svg" xmlns:xlink="http://www.w3.org/1999/xlink" x="0px" y="0px"
	 viewBox="0 0 50 50" style="enable-background:new 0 0 50 50;" xml:space="preserve">
<style type="text/css">
	.st0{opacity:0.195;fill:#1746A0;enable-background:new    ;}
	.st1{opacity:0.566;fill:#1746A0;enable-background:new    ;}
	.st2{opacity:0.182;enable-background:new    ;}
</style>
<path id="Path_571_1_" class="st0" d="M36.5,25.5c0,6.1-4.9,11-11,11s-11-4.9-11-11s4.9-11,11-11S36.5,19.4,36.5,25.5z"/>
<path id="Path_572_1_" class="st1" d="M25.5,40.5c-8.3,0-15-6.7-15-15s6.7-15,15-15s15,6.7,15,15S33.8,40.5,25.5,40.5z M25.5,11.5
	c-7.7,0-14,6.3-14,14s6.3,14,14,14s14-6.3,14-14S33.2,11.5,25.5,11.5z"/>
<path id="Path_614_1_" class="st2" d="M32.5,25.5c0,3.9-3.1,7-7,7s-7-3.1-7-7s3.1-7,7-7S32.5,21.6,32.5,25.5z"/>
</svg>
