<svg fill="#000000" xmlns="http://www.w3.org/2000/svg" viewBox="0 0 50 50" width="50px" height="50px"><path d="M 6.667969 4 C 5.207031 4 4 5.207031 4 6.667969 L 4 43.332031 C 4 44.792969 5.207031 46 6.667969 46 L 43.332031 46 C 44.792969 46 46 44.796875 46 43.332031 L 46 6.667969 C 46 5.207031 44.796875 4 43.332031 4 Z M 6.667969 6 L 43.332031 6 C 43.703125 6 44 6.296875 44 6.667969 L 44 43.332031 C 44 43.703125 43.703125 44 43.332031 44 L 6.667969 44 C 6.296875 44 6 43.703125 6 43.332031 L 6 6.667969 C 6 6.296875 6.296875 6 6.667969 6 Z M 23 23 L 23 35.574219 C 23 37.503906 22.269531 38 21 38 C 19.671875 38 18.75 37.171875 18.140625 36.097656 L 15 38 C 15.910156 39.925781 18.140625 42 21.234375 42 C 24.65625 42 27 40.179688 27 36.183594 L 27 23 Z M 35.453125 23 C 32.046875 23 29.863281 25.179688 29.863281 28.042969 C 29.863281 31.148438 31.695313 32.617188 34.449219 33.789063 L 35.402344 34.199219 C 37.140625 34.960938 38 35.425781 38 36.734375 C 38 37.824219 37.171875 38.613281 35.589844 38.613281 C 33.707031 38.613281 32.816406 37.335938 32 36 L 29 38 C 30.121094 40.214844 32.132813 42 35.675781 42 C 39.300781 42 42 40.117188 42 36.683594 C 42 33.496094 40.171875 32.078125 36.925781 30.6875 L 35.972656 30.28125 C 34.335938 29.570313 33.625 29.109375 33.625 27.964844 C 33.625 27.039063 34.335938 26.328125 35.453125 26.328125 C 36.550781 26.328125 37.253906 26.792969 37.90625 27.964844 L 40.878906 26.058594 C 39.625 23.84375 37.878906 23 35.453125 23 Z"/></svg>