<svg xmlns="http://www.w3.org/2000/svg" id="prefix__info" width="24" height="24" viewBox="0 0 24 24">
    <path id="prefix__Path_571" d="M66 57a9 9 0 11-9-9 9 9 0 019 9zm0 0" data-name="Path 571" transform="translate(-45 -45)" style="fill:#709cf0"/>
    <path id="prefix__Path_572" d="M12 24a12 12 0 1112-12 12 12 0 01-12 12zM12 .8A11.2 11.2 0 1023.2 12 11.2 11.2 0 0012 .8zm0 0" data-name="Path 572" style="opacity:.566;fill:#709cf0"/>
    <g id="prefix__book" transform="translate(6.557 -49.311)">
        <g id="prefix__Group_1023" data-name="Group 1023" transform="translate(0 57.303)">
            <path id="prefix__Path_579" d="M10.787 58.96h-.725v-.247a.213.213 0 00-.154-.213 6.006 6.006 0 00-1.537-.2A3.965 3.965 0 005.5 59.369 3.923 3.923 0 002.623 58.3a6.006 6.006 0 00-1.537.2.213.213 0 00-.154.213v.245H.213a.213.213 0 00-.213.213v6.81a.213.213 0 00.318.185 7.518 7.518 0 015.13-.426H5.5a.213.213 0 00.051 0 7.39 7.39 0 015.13.426.213.213 0 00.32-.183v-6.81a.213.213 0 00-.214-.213zM.426 65.642v-6.256h.51v5.348a.213.213 0 00.211.216h.034a9.329 9.329 0 011.333-.107 5.531 5.531 0 011.821.275 7.838 7.838 0 00-3.909.524zm2.087-1.226a9.381 9.381 0 00-1.16.075v-5.61a5.881 5.881 0 011.264-.141 3.481 3.481 0 012.661 1.045l.008 5.315a4.984 4.984 0 00-2.772-.684zm3.2-4.631a3.513 3.513 0 012.66-1.045 5.906 5.906 0 011.264.141v5.61a9.379 9.379 0 00-1.154-.077 5.026 5.026 0 00-2.772.68zm4.859 5.857a7.84 7.84 0 00-3.917-.527 5.544 5.544 0 011.829-.275 9.324 9.324 0 011.341.1.213.213 0 00.245-.213v-5.341h.51z" data-name="Path 579" transform="translate(0 -58.303)" style="fill:#fff"/>
        </g>
    </g>
</svg>
