<svg xmlns="http://www.w3.org/2000/svg" width="70" height="16.417" viewBox="0 0 70 16.417">
    <defs>
        <style>
            .prefix__cls-1{fill:#ec1c24}
        </style>
    </defs>
    <g id="prefix__Page-1" transform="translate(5856.374 926.369)">
        <g id="prefix__Artboard" transform="translate(-5856.374 -926.369)">
            <g id="prefix__IOHK-logo">
                <g id="prefix__iohk">
                    <path id="prefix__Fill-27" d="M-2042.593-22.662h.454v-3.789h-.454z" class="prefix__cls-1" transform="translate(2069.291 32.765)"/>
                    <path id="prefix__Fill-29" d="M593.382-338.629h.454V-347h-.454z" class="prefix__cls-1" transform="translate(-548.231 351.023)"/>
                    <path id="prefix__Fill-30" d="M-1779.894-23.337l.016-.005a.917.917 0 01-.038-.259v-2.821h.454v3.788h-.454l-1.982-3.042-.016.005a.915.915 0 01.038.259v2.777h-.456v-3.788h.456z" class="prefix__cls-1" transform="translate(1810.859 32.736)"/>
                    <path id="prefix__Fill-31" d="M-1173.723-26.092v1.516h1.349a.52.52 0 00.124-.009.273.273 0 00.076-.046.164.164 0 00.057-.063.419.419 0 00.008-.1v-1.076a.426.426 0 00-.008-.106.167.167 0 00-.057-.063.274.274 0 00-.076-.045.568.568 0 00-.124-.008zm0 1.894v1.515h-.454v-3.789h2a.41.41 0 01.26.108l.13.108a.341.341 0 01.13.271v1.3a.338.338 0 01-.13.271l-.13.109a.407.407 0 01-.26.107z" class="prefix__cls-1" transform="translate(1206.962 32.785)"/>
                    <path id="prefix__Fill-32" d="M-633.139-26.451h.455v3.3a.339.339 0 01-.13.271l-.13.108a.409.409 0 01-.26.108h-1.841a.407.407 0 01-.26-.108l-.13-.108a.338.338 0 01-.13-.271v-3.3h.455v3.189a.407.407 0 00.008.1.158.158 0 00.057.063.3.3 0 00.076.046.658.658 0 00.125.007h1.44a.644.644 0 00.124-.007.289.289 0 00.076-.046.158.158 0 00.057-.063.429.429 0 00.008-.1z" class="prefix__cls-1" transform="translate(672.122 32.765)"/>
                    <path id="prefix__Fill-33" d="M-108.632-26.451h2.859v.379h-1.2v3.41h-.455v-3.41h-1.2z" class="prefix__cls-1" transform="translate(148.88 32.765)"/>
                    <path id="prefix__Fill-34" d="M987.568-23.283v-2.587a.5.5 0 00-.008-.106.185.185 0 00-.057-.062.253.253 0 00-.077-.045.519.519 0 00-.124-.009h-1.581a.529.529 0 00-.125.009.247.247 0 00-.076.045.181.181 0 00-.057.062.446.446 0 00-.008.106v2.587a.439.439 0 00.008.105.161.161 0 00.057.063.287.287 0 00.076.046.624.624 0 00.125.007h1.579a.613.613 0 00.124-.007.294.294 0 00.077-.046.164.164 0 00.057-.063.491.491 0 00.008-.105m-2.047-3.188h1.981a.41.41 0 01.26.108l.13.109a.338.338 0 01.13.271v2.815a.34.34 0 01-.13.271l-.13.108a.4.4 0 01-.26.108h-1.981a.407.407 0 01-.26-.108l-.13-.108a.341.341 0 01-.129-.271v-2.815a.339.339 0 01.129-.271l.13-.109a.412.412 0 01.26-.108" transform="translate(-937.095 32.785)"/>
                    <path id="prefix__Fill-35" d="M1617.275-26.451h.456v3.3a.338.338 0 01-.131.271l-.129.108a.409.409 0 01-.261.108h-1.84a.41.41 0 01-.26-.108l-.13-.108a.339.339 0 01-.13-.271v-3.3h.455v3.189a.416.416 0 00.008.1.164.164 0 00.056.063.291.291 0 00.076.046.648.648 0 00.125.007h1.441a.632.632 0 00.123-.007.268.268 0 00.076-.046.152.152 0 00.057-.063.412.412 0 00.008-.1z" transform="translate(-1562.533 32.765)"/>
                    <path id="prefix__Fill-36" d="M2141.834-26.451h2.858v.379h-1.2v3.41h-.455v-3.41h-1.2z" transform="translate(-2085.827 32.765)"/>
                    <path id="prefix__Fill-37" d="M2666.93-26.092v1.516h1.349a.517.517 0 00.124-.009.257.257 0 00.075-.046.153.153 0 00.057-.063.387.387 0 00.009-.1v-1.076a.393.393 0 00-.009-.106.156.156 0 00-.057-.063.258.258 0 00-.075-.045.564.564 0 00-.124-.008zm0 1.894v1.515h-.454v-3.789h2a.407.407 0 01.26.108l.13.108a.34.34 0 01.131.271v1.3a.338.338 0 01-.131.271l-.13.109a.4.4 0 01-.26.107z" transform="translate(-2606.734 32.785)"/>
                    <path id="prefix__Fill-38" d="M3207.482-26.451h.456v3.3a.337.337 0 01-.13.271l-.13.108a.407.407 0 01-.26.108h-1.841a.408.408 0 01-.259-.108l-.13-.108a.34.34 0 01-.13-.271v-3.3h.455v3.189a.416.416 0 00.008.1.158.158 0 00.056.063.293.293 0 00.077.046.641.641 0 00.124.007h1.44a.638.638 0 00.124-.007.275.275 0 00.076-.046.165.165 0 00.058-.063.505.505 0 00.007-.1z" transform="translate(-3141.575 32.765)"/>
                    <path id="prefix__Fill-39" d="M3732.043-26.451h2.858v.379h-1.2v3.41h-.454v-3.41h-1.2z" transform="translate(-3664.901 32.765)"/>
                    <path id="prefix__Fill-40" d="M-5855.682-910.059a.478.478 0 01-.477-.48.478.478 0 01.477-.479.476.476 0 01.458.353v.009a.1.1 0 00.013.05.6.6 0 010 .067.478.478 0 01-.475.48m1.239-2.118a.479.479 0 01-.476-.48.478.478 0 01.476-.479.478.478 0 01.476.479.478.478 0 01-.476.48m1.347-2.01a.478.478 0 01-.476-.479.478.478 0 01.476-.48.479.479 0 01.477.48.478.478 0 01-.477.479m1.239-1.9a.478.478 0 01-.476-.479.479.479 0 01.476-.481.478.478 0 01.467.386.1.1 0 00-.009.042.109.109 0 00.018.06.478.478 0 01-.476.472m1.723-1.5a.478.478 0 01-.475-.479.479.479 0 01.475-.481.479.479 0 01.477.481.479.479 0 01-.477.479m-1.256-1.852a.478.478 0 01-.467.385.478.478 0 01-.476-.48.477.477 0 01.476-.479.477.477 0 01.476.471.11.11 0 00-.018.06.091.091 0 00.009.042m-1.706-1.515a.478.478 0 01-.476-.479.478.478 0 01.476-.481.479.479 0 01.477.481.478.478 0 01-.477.479m-1.347-2.01a.478.478 0 01-.476-.479.479.479 0 01.476-.48.478.478 0 01.476.48.477.477 0 01-.476.479m-.77-2.522a.478.478 0 01-.469.4.479.479 0 01-.477-.48.479.479 0 01.477-.48.479.479 0 01.474.45.108.108 0 00-.016.058.115.115 0 00.011.048m.23-.156a.7.7 0 00-.693-.616.7.7 0 00-.694.7.693.693 0 00.689.7.693.693 0 00.678-.56c5.051.044 9.181 3.055 9.508 6.844a9.593 9.593 0 00-1.609-2.243 8.932 8.932 0 00-6.621-2.742.093.093 0 00-.037.007.692.692 0 00-.681-.582.7.7 0 00-.691.7.7.7 0 00.691.7.7.7 0 00.685-.608.094.094 0 00.033.006 8.725 8.725 0 016.459 2.669 9.526 9.526 0 011.518 2.087 13.577 13.577 0 00-1.613-1.251 9.483 9.483 0 00-5.053-1.7.693.693 0 00-.682-.59.7.7 0 00-.692.7.694.694 0 00.692.7.694.694 0 00.682-.587c3.069 0 5.669 2.108 6.6 2.966a19.535 19.535 0 00-5.355-1.23.694.694 0 00-.689-.641.694.694 0 00-.691.7.694.694 0 00.691.7.711.711 0 00.671-.554 20.507 20.507 0 015.312 1.2h-3.574a.682.682 0 00-.687-.6.7.7 0 00-.69.707.686.686 0 00.69.686.686.686 0 00.679-.571h3.53a16.749 16.749 0 01-5.261 1.219.686.686 0 00-.671-.528.7.7 0 00-.691.7.7.7 0 00.691.7.694.694 0 00.689-.64 19.536 19.536 0 005.355-1.231c-.933.858-3.533 2.962-6.6 2.966a.693.693 0 00-.682-.586.694.694 0 00-.692.7.694.694 0 00.692.7.693.693 0 00.682-.59 9.484 9.484 0 005.053-1.7 13.423 13.423 0 001.632-1.269 9.448 9.448 0 01-1.531 2.116 8.723 8.723 0 01-6.465 2.675.113.113 0 00-.031.005.694.694 0 00-.687-.625.7.7 0 00-.691.7.7.7 0 00.691.7.693.693 0 00.678-.565.1.1 0 00.041.008 8.929 8.929 0 006.62-2.742 9.594 9.594 0 001.6-2.217c-.413 3.73-4.517 6.675-9.52 6.71a.693.693 0 00-.653-.471.7.7 0 00-.692.7.7.7 0 00.692.7.7.7 0 00.691-.7s.015-.005.015-.01c5.341-.05 9.63-3.37 9.742-7.461v-.085c0-4.13-4.37-7.5-9.75-7.547" class="prefix__cls-1" transform="translate(5856.374 926.259)"/>
                    <path id="prefix__Fill-41" d="M-4197.685-916.558a.107.107 0 00.019-.06.1.1 0 00-.009-.042.478.478 0 01.467-.386.479.479 0 01.475.481.478.478 0 01-.475.479.479.479 0 01-.477-.472zm.009-2.882a.1.1 0 00.009-.042.109.109 0 00-.019-.06.478.478 0 01.477-.471.478.478 0 01.475.479.478.478 0 01-.475.48.478.478 0 01-.467-.386zm3.815 8.9a.494.494 0 010-.066.1.1 0 00.013-.05v-.009a.476.476 0 01.458-.353.478.478 0 01.477.478.479.479 0 01-.477.481.478.478 0 01-.476-.481zm-1.238-2.117a.477.477 0 01.476-.479.478.478 0 01.476.479.478.478 0 01-.476.48.478.478 0 01-.476-.48zm-1.347-2.008a.478.478 0 01.476-.48.478.478 0 01.477.48.479.479 0 01-.477.479.478.478 0 01-.476-.479zm-2.963-3.4a.478.478 0 01.476-.48.479.479 0 01.477.48.479.479 0 01-.477.48.478.478 0 01-.476-.48zm2.963-3.367a.478.478 0 01.476-.48.479.479 0 01.477.48.479.479 0 01-.477.48.478.478 0 01-.476-.48zm1.347-2.009a.478.478 0 01.476-.48.479.479 0 01.476.48.478.478 0 01-.476.48.477.477 0 01-.476-.48zm1.245-2.042a.109.109 0 00.011-.048.1.1 0 00-.017-.058.479.479 0 01.475-.45.478.478 0 01.477.48.478.478 0 01-.477.479.478.478 0 01-.469-.4zm-9.925 7.476c.112 4.091 4.374 7.41 9.716 7.461 0 .005-.007.008-.007.01a.693.693 0 00.688.7.694.694 0 00.69-.7.7.7 0 00-.692-.7.694.694 0 00-.654.471c-5-.035-9.108-2.979-9.52-6.71a9.607 9.607 0 001.6 2.218 8.934 8.934 0 006.621 2.741.091.091 0 00.039-.008.694.694 0 00.679.566.7.7 0 00.691-.7.7.7 0 00-.691-.7.7.7 0 00-.688.625.108.108 0 00-.03 0 8.722 8.722 0 01-6.466-2.675 9.454 9.454 0 01-1.531-2.116 13.55 13.55 0 001.632 1.269 9.5 9.5 0 005.053 1.7.692.692 0 00.682.59.7.7 0 00.692-.7.7.7 0 00-.692-.7.693.693 0 00-.682.586c-3.068 0-5.669-2.108-6.6-2.967a19.52 19.52 0 005.356 1.23.694.694 0 00.689.641.7.7 0 00.691-.7.7.7 0 00-.691-.705.693.693 0 00-.672.536 16.748 16.748 0 01-5.26-1.22h3.53a.682.682 0 00.678.569.683.683 0 00.691-.683.7.7 0 00-.691-.7.681.681 0 00-.687.593h-3.573a20.5 20.5 0 015.311-1.2.718.718 0 00.672.562.7.7 0 00.691-.7.7.7 0 00-.691-.7.694.694 0 00-.689.641 19.564 19.564 0 00-5.356 1.232c.933-.859 3.534-2.963 6.6-2.967a.694.694 0 00.682.587.7.7 0 00.692-.7.7.7 0 00-.692-.7.693.693 0 00-.682.591 9.494 9.494 0 00-5.053 1.7 13.579 13.579 0 00-1.613 1.251 9.51 9.51 0 011.519-2.087 8.721 8.721 0 016.459-2.668.124.124 0 00.033-.005.7.7 0 00.685.607.7.7 0 00.691-.7.7.7 0 00-.691-.7.693.693 0 00-.681.582.114.114 0 00-.037-.007 8.934 8.934 0 00-6.621 2.741 9.584 9.584 0 00-1.608 2.244c.327-3.789 4.458-6.8 9.508-6.844a.694.694 0 00.678.56.7.7 0 00.692-.7.694.694 0 00-.691-.7.682.682 0 00-.673.616c-5.38.05-9.723 3.417-9.723 7.548z" transform="translate(4215.364 926.258)"/>
                </g>
            </g>
        </g>
    </g>
</svg>
