<svg width="145" height="35" viewBox="0 0 145 35" fill="none" xmlns="http://www.w3.org/2000/svg">
<path d="M55.475 21.658H56.404V13.912H55.475V21.658Z" fill="#EC1C24"/>
<path d="M93.199 26.339H94.127V9.224H93.199V26.339Z" fill="#EC1C24"/>
<path d="M64.199 20.215L64.232 20.204C64.1812 20.0319 64.1552 19.8534 64.155 19.674V13.908H65.084V21.652H64.155L60.104 15.434L60.072 15.445C60.1234 15.617 60.1496 15.7955 60.15 15.975V21.652H59.218V13.908H60.15L64.199 20.215Z" fill="#EC1C24"/>
<path fill-rule="evenodd" clip-rule="evenodd" d="M68.8489 21.651V18.551L72.0139 18.554C72.2115 18.5462 72.3997 18.4682 72.5449 18.334L72.8099 18.112C72.9796 17.979 73.0775 17.7746 73.0749 17.559V14.902C73.0766 14.6864 72.9789 14.482 72.8099 14.348L72.5449 14.128C72.3997 13.9936 72.2116 13.915 72.0139 13.906H67.9199V21.651H68.8489ZM68.8489 17.778V14.678H71.6059C71.6906 14.6741 71.7754 14.6794 71.8589 14.694C71.9153 14.7164 71.9676 14.7478 72.0139 14.787C72.0629 14.819 72.1029 14.8631 72.1299 14.915C72.1447 14.9863 72.1504 15.0592 72.1469 15.132V17.323C72.1504 17.3951 72.1447 17.4673 72.1299 17.538C72.1031 17.5901 72.0631 17.6342 72.0139 17.666C71.9676 17.7052 71.9153 17.7366 71.8589 17.759C71.7757 17.7754 71.6907 17.7818 71.6059 17.778H68.8489Z" fill="#EC1C24"/>
<path d="M80.591 13.907H81.521V20.658C81.5233 20.8735 81.4254 21.0778 81.256 21.211L80.991 21.432C80.8458 21.5662 80.6576 21.6446 80.46 21.653H76.698C76.5004 21.6448 76.3121 21.5665 76.167 21.432L75.902 21.211C75.732 21.0782 75.6336 20.8737 75.636 20.658V13.907H76.566V20.426C76.5621 20.4977 76.5675 20.5697 76.582 20.64C76.6082 20.6928 76.6483 20.7374 76.698 20.769C76.7448 20.8079 76.797 20.8395 76.853 20.863C76.9374 20.8761 77.0227 20.8811 77.108 20.878H80.053C80.1376 20.8812 80.2224 20.8761 80.306 20.863C80.3626 20.8399 80.4152 20.8082 80.462 20.769C80.5117 20.7374 80.5518 20.6928 80.578 20.64C80.5921 20.5696 80.5975 20.4977 80.594 20.426L80.591 13.907Z" fill="#EC1C24"/>
<path d="M83.176 13.907H89.02V14.682H86.562V21.658H85.632V14.687H83.176L83.176 13.907Z" fill="#EC1C24"/>
<path fill-rule="evenodd" clip-rule="evenodd" d="M103.946 13.907H99.896H99.895C99.6972 13.9158 99.5088 13.9941 99.363 14.128L99.097 14.35C98.9275 14.4831 98.8295 14.6875 98.832 14.903V20.658C98.8308 20.8735 98.929 21.0774 99.098 21.211L99.364 21.432C99.5093 21.5668 99.698 21.6451 99.896 21.653H103.946C104.144 21.6453 104.332 21.5668 104.477 21.432L104.743 21.211C104.912 21.0772 105.009 20.8733 105.008 20.658V14.903C105.011 14.6874 104.913 14.4829 104.743 14.35L104.477 14.128C104.332 13.9941 104.144 13.9158 103.946 13.907ZM104.08 15.135V20.424C104.082 20.496 104.077 20.5681 104.064 20.639C104.037 20.6915 103.997 20.736 103.947 20.768C103.9 20.8071 103.847 20.8388 103.791 20.862C103.707 20.8756 103.623 20.8806 103.538 20.877H100.306C100.221 20.8806 100.135 20.8755 100.051 20.862C99.9948 20.8389 99.9425 20.8072 99.896 20.768C99.8461 20.7363 99.8057 20.6917 99.779 20.639C99.7651 20.5682 99.7597 20.4961 99.763 20.424V15.135C99.7597 15.0626 99.7651 14.9901 99.779 14.919C99.8074 14.868 99.8475 14.8245 99.896 14.792C99.9416 14.7519 99.9941 14.7203 100.051 14.699C100.135 14.683 100.221 14.6769 100.306 14.681H103.538C103.623 14.6769 103.708 14.6829 103.791 14.699C103.848 14.7205 103.901 14.752 103.947 14.792C103.995 14.8248 104.035 14.8682 104.064 14.919C104.077 14.9902 104.082 15.0627 104.08 15.135Z" fill="black"/>
<path d="M112.806 13.907H113.738V20.658C113.74 20.874 113.642 21.0786 113.471 21.211L113.207 21.432C113.061 21.5667 112.872 21.6451 112.673 21.653H108.911C108.713 21.6442 108.525 21.5659 108.38 21.432L108.115 21.211C107.945 21.0781 107.847 20.8737 107.849 20.658V13.907H108.779V20.426C108.776 20.4978 108.781 20.5697 108.796 20.64C108.822 20.6923 108.862 20.7367 108.911 20.769C108.958 20.8081 109.01 20.8398 109.067 20.863C109.151 20.8762 109.237 20.8812 109.322 20.878H112.267C112.351 20.8812 112.436 20.8762 112.519 20.863C112.575 20.8405 112.628 20.8087 112.674 20.769C112.724 20.738 112.765 20.6932 112.791 20.64C112.805 20.5696 112.811 20.4977 112.807 20.426L112.806 13.907Z" fill="black"/>
<path d="M115.392 13.907H121.234V14.682H118.777V21.658H117.848V14.687H115.391L115.392 13.907Z" fill="black"/>
<path fill-rule="evenodd" clip-rule="evenodd" d="M123.953 21.651V18.551L127.117 18.554C127.314 18.5465 127.502 18.4684 127.647 18.334L127.914 18.112C128.085 17.9796 128.183 17.775 128.181 17.559V14.902C128.182 14.686 128.084 14.4816 127.914 14.348L127.647 14.128C127.502 13.9933 127.314 13.9146 127.117 13.906H123.024V21.651H123.953ZM123.953 17.778V14.678H126.71C126.795 14.674 126.879 14.6794 126.963 14.694C127.019 14.716 127.071 14.7474 127.117 14.787C127.167 14.8182 127.207 14.8625 127.233 14.915C127.249 14.9862 127.255 15.0592 127.251 15.132V17.323C127.255 17.3952 127.249 17.4675 127.233 17.538C127.207 17.5906 127.167 17.635 127.117 17.666C127.071 17.7056 127.019 17.7371 126.963 17.759C126.88 17.7755 126.795 17.7818 126.71 17.778H123.953Z" fill="black"/>
<path d="M135.632 13.907H136.563V20.658C136.566 20.874 136.467 21.0788 136.296 21.211L136.03 21.432C135.885 21.5668 135.696 21.6451 135.498 21.653H131.735C131.538 21.6444 131.35 21.5661 131.205 21.432L130.939 21.211C130.77 21.0772 130.673 20.8733 130.674 20.658V13.907H131.604V20.426C131.6 20.4978 131.606 20.5697 131.621 20.64C131.646 20.6926 131.686 20.7372 131.735 20.769C131.782 20.8083 131.836 20.84 131.893 20.863C131.977 20.8762 132.061 20.8812 132.146 20.878H135.091C135.175 20.8812 135.26 20.8761 135.343 20.863C135.399 20.8402 135.452 20.8084 135.498 20.769C135.548 20.7372 135.589 20.6927 135.617 20.64C135.629 20.5693 135.634 20.4976 135.631 20.426L135.632 13.907Z" fill="black"/>
<path d="M138.156 13.907H143.999V14.682H141.541V21.658H140.614V14.687H138.156L138.156 13.907Z" fill="black"/>
<path fill-rule="evenodd" clip-rule="evenodd" d="M2.32398 1.00299C3.0464 1.00577 3.65378 1.54586 3.74098 2.26299L3.73898 2.26799C14.736 2.37099 23.67 9.25199 23.67 17.696V17.87C23.441 26.233 14.673 33.023 3.75398 33.123C3.75398 33.1288 3.74403 33.1333 3.73579 33.137C3.72996 33.1397 3.72498 33.1419 3.72498 33.144C3.72665 33.9276 3.09454 34.565 2.31098 34.57C1.5272 34.5656 0.894767 33.9278 0.896984 33.144C0.895319 32.3606 1.52759 31.7234 2.31098 31.719C2.91576 31.7217 3.45208 32.1081 3.64598 32.681C13.874 32.611 22.264 26.59 23.108 18.964C22.2421 20.6232 21.143 22.1497 19.844 23.497C16.3127 27.1707 11.4066 29.201 6.31198 29.097C6.28342 29.0973 6.25512 29.0915 6.22898 29.08C6.10385 29.7478 5.52237 30.2327 4.84298 30.236C4.05897 30.2316 3.42666 29.593 3.42998 28.809C3.42777 28.0259 4.05991 27.3888 4.84298 27.385C5.56922 27.389 6.17537 27.9404 6.24798 28.663C6.2684 28.6567 6.28961 28.6533 6.31098 28.653C11.2865 28.7541 16.0779 26.7714 19.527 23.184C20.7656 21.8939 21.819 20.438 22.657 18.858C21.6133 19.8071 20.498 20.6743 19.321 21.452C16.2797 23.5719 12.6944 24.7755 8.98998 24.92C8.88678 25.6116 8.29422 26.1243 7.59498 26.127C7.21864 26.1257 6.85824 25.9749 6.59306 25.7078C6.32788 25.4408 6.17966 25.0793 6.18098 24.703C6.17939 24.3265 6.3275 23.9648 6.59271 23.6975C6.85791 23.4302 7.21847 23.2793 7.59498 23.278C8.2914 23.2811 8.88234 23.7898 8.98898 24.478C15.267 24.471 20.583 20.17 22.489 18.415C20.374 19.181 15.323 20.859 11.541 20.932C11.4833 21.6678 10.8711 22.2365 10.133 22.24C9.34825 22.235 8.71566 21.5957 8.71898 20.811C8.71565 20.0258 9.34777 19.3856 10.133 19.379C10.786 19.3747 11.3553 19.8224 11.505 20.458C15.2012 20.2142 18.8334 19.3722 22.26 17.965H15.044C14.9297 18.6419 14.3415 19.1362 13.655 19.132C13.2818 19.1349 12.9229 18.9887 12.6579 18.7258C12.393 18.463 12.244 18.1052 12.244 17.732C12.24 16.9457 12.8688 16.3022 13.655 16.288C14.3627 16.2821 14.9635 16.8052 15.055 17.507H22.361C22.3212 17.4937 22.2804 17.4801 22.2385 17.4662C20.0887 16.7494 15.1675 15.1088 11.502 15.047C11.3564 15.6933 10.7921 16.1593 10.13 16.18C9.34613 16.1767 8.71322 15.5388 8.71598 14.755C8.71466 14.3787 8.86292 14.0174 9.12812 13.7505C9.39333 13.4836 9.75373 13.333 10.13 13.332C10.8693 13.3351 11.4822 13.9058 11.538 14.643C15.32 14.714 20.371 16.394 22.486 17.158C20.576 15.405 15.26 11.104 8.98598 11.095C8.87895 11.783 8.28825 12.2915 7.59198 12.295C6.80868 12.2922 6.17577 11.6553 6.17798 10.872C6.17612 10.4952 6.32409 10.1331 6.58929 9.86549C6.8545 9.59785 7.2152 9.44658 7.59198 9.44499C8.29106 9.44813 8.88339 9.96063 8.98698 10.652C12.6915 10.7967 16.2769 12.0006 19.318 14.121C20.4806 14.8897 21.5837 15.7448 22.618 16.679C21.7826 15.1232 20.7397 13.6881 19.518 12.413C16.0689 8.83365 11.2826 6.85606 6.31298 6.95699C6.28985 6.95728 6.26684 6.95356 6.24498 6.94599C6.1562 7.65285 5.55739 8.18451 4.84498 8.18899C4.06175 8.18458 3.42977 7.54723 3.43198 6.76399C3.42921 5.98036 4.06136 5.3424 4.84498 5.33799C5.5381 5.33995 6.12777 5.84369 6.23798 6.52799C6.26203 6.51785 6.28789 6.51275 6.31398 6.51299C11.4091 6.40915 16.3158 8.4394 19.848 12.113C21.1598 13.475 22.2676 15.0197 23.137 16.699C22.468 8.95299 14.025 2.79699 3.69898 2.70699C3.56923 3.37039 2.98895 3.84977 2.31298 3.85199C1.93726 3.84988 1.57778 3.69852 1.3137 3.43125C1.04962 3.16398 0.90259 2.80271 0.904984 2.42699C0.905528 1.64271 1.53971 1.00629 2.32398 1.00299ZM3.26998 2.57899L3.26964 2.58122C3.25577 2.54999 3.24873 2.51616 3.24898 2.48199C3.24836 2.4403 3.25982 2.39931 3.28198 2.36399C3.25096 1.84993 2.82697 1.44779 2.31198 1.44399C1.77224 1.4462 1.33632 1.88524 1.33798 2.42499C1.33632 2.96474 1.77224 3.40379 2.31198 3.40599C2.79024 3.40277 3.19559 3.0535 3.26964 2.58122L3.26998 2.58199V2.57899ZM3.87098 6.74799C3.86932 7.28718 4.30479 7.72579 4.84398 7.72799C5.10301 7.7272 5.3511 7.62347 5.5336 7.43965C5.7161 7.25584 5.81805 7.00702 5.81698 6.74799C5.8192 6.20824 5.38373 5.76875 4.84398 5.76599C4.30447 5.76929 3.86932 6.20847 3.87098 6.74799ZM7.59698 11.836C7.05857 11.8332 6.62387 11.3954 6.62498 10.857C6.62221 10.3172 7.05724 9.8773 7.59698 9.87399C7.85663 9.87505 8.10522 9.97921 8.28807 10.1636C8.47092 10.3479 8.57305 10.5973 8.57198 10.857C8.57254 11.3963 8.13634 11.8343 7.59698 11.836ZM10.129 15.724C10.5942 15.7219 10.9936 15.3924 11.084 14.936H11.085C11.0717 14.9093 11.0648 14.8798 11.065 14.85C11.065 14.8064 11.0775 14.7637 11.101 14.727C11.0939 14.1946 10.6614 13.7661 10.129 13.764C9.87013 13.7648 9.6222 13.8684 9.43972 14.052C9.25725 14.2356 9.15519 14.4841 9.15598 14.743C9.15432 15.2823 9.58963 15.7212 10.129 15.724ZM13.651 18.722C13.1128 18.7187 12.6784 18.2812 12.679 17.743C12.6768 17.2035 13.1115 16.7638 13.651 16.76C14.1914 16.7627 14.6276 17.2025 14.626 17.743C14.626 18.2821 14.1901 18.7198 13.651 18.722ZM9.15698 20.813C9.15588 21.3516 9.59089 21.7895 10.1294 21.792C10.6622 21.7891 11.0944 21.3598 11.101 20.827C11.0777 20.7906 11.0652 20.7482 11.065 20.705C11.0652 20.6752 11.072 20.6458 11.085 20.619C10.9954 20.1618 10.5958 19.8313 10.13 19.829C9.58992 19.8328 9.15477 20.2729 9.15698 20.813ZM7.59698 25.677C7.05857 25.6742 6.62387 25.2364 6.62498 24.698C6.62277 24.1586 7.05763 23.7193 7.59698 23.716C8.13728 23.7182 8.57364 24.1577 8.57198 24.698C8.57254 25.2373 8.13634 25.6753 7.59698 25.677ZM3.87098 28.803C3.86877 29.3427 4.30424 29.7822 4.84398 29.785C5.10328 29.7839 5.35151 29.6798 5.53401 29.4957C5.71652 29.3115 5.81831 29.0623 5.81698 28.803C5.81809 28.2642 5.38278 27.8262 4.84398 27.824C4.30518 27.8262 3.86988 28.2642 3.87098 28.803ZM1.62131 33.828C1.80403 34.0122 2.05252 34.1162 2.31198 34.117V34.114C2.5711 34.1127 2.81908 34.0085 3.00137 33.8243C3.18365 33.6401 3.28531 33.3911 3.28398 33.132C3.28361 33.0865 3.28027 33.0411 3.27398 32.996C3.25763 32.9652 3.24905 32.9309 3.24898 32.896V32.878C3.13529 32.4535 2.75143 32.1577 2.31198 32.156C1.77279 32.1576 1.33688 32.5958 1.33798 33.135C1.33666 33.3945 1.43859 33.6438 1.62131 33.828Z" fill="#EC1C24"/>
<path fill-rule="evenodd" clip-rule="evenodd" d="M44.445 33.118C33.524 33.014 24.812 26.228 24.583 17.865L24.584 17.688C24.584 9.24299 33.46 2.35799 44.46 2.25799C44.5266 1.54688 45.1198 1.00113 45.834 0.993988C46.6173 0.997845 47.2493 1.63568 47.246 2.41899C47.2477 3.20262 46.6146 3.83968 45.831 3.84299C45.1552 3.84038 44.5751 3.36118 44.445 2.69799C34.12 2.78999 25.676 8.94399 25.007 16.69C25.876 15.0101 26.9835 13.4648 28.295 12.102C31.8281 8.4285 36.7353 6.39832 41.831 6.50199C41.8569 6.50248 41.8826 6.50721 41.907 6.51599C42.0175 5.83283 42.606 5.32984 43.298 5.32699C44.0812 5.33084 44.7137 5.96775 44.712 6.75099C44.7137 7.53456 44.0816 8.17203 43.298 8.17699C42.5861 8.17214 41.9877 7.64123 41.898 6.93499C41.8766 6.9416 41.8544 6.9453 41.832 6.94599C36.8623 6.84381 32.0757 8.82119 28.627 12.401C27.4046 13.6755 26.3617 15.1107 25.527 16.667C26.5611 15.7325 27.6642 14.8774 28.827 14.109C31.8684 11.9899 35.453 10.7861 39.157 10.64C39.261 9.94884 39.8531 9.43655 40.552 9.43299C41.336 9.4363 41.9692 10.074 41.967 10.858C41.9692 11.642 41.336 12.2797 40.552 12.283C39.8559 12.2791 39.2654 11.7708 39.158 11.083C32.882 11.093 27.564 15.394 25.658 17.149C27.772 16.383 32.825 14.706 36.607 14.631C36.6633 13.8941 37.276 13.3241 38.015 13.321C38.7991 13.327 39.4308 13.9659 39.428 14.75C39.4308 15.5346 38.7996 16.1743 38.015 16.182C37.3494 16.1559 36.785 15.6844 36.641 15.034C32.9822 15.0927 28.0733 16.7303 25.9183 17.4492C25.8723 17.4646 25.8275 17.4795 25.784 17.494H33.084C33.1744 16.7925 33.7768 16.2706 34.484 16.281C35.2702 16.292 35.9005 16.9347 35.896 17.721C35.896 18.0944 35.7469 18.4523 35.4817 18.7152C35.2166 18.9781 34.8574 19.1242 34.484 19.121C33.7999 19.1246 33.2133 18.6332 33.097 17.959H25.88C29.3061 19.3669 32.938 20.2096 36.634 20.454C36.7828 19.8146 37.3516 19.3614 38.008 19.359C38.7944 19.3716 39.4244 20.0145 39.421 20.801C39.4233 21.5856 38.7925 22.2252 38.008 22.234C37.269 22.2309 36.6563 21.6608 36.6 20.924C32.818 20.853 27.765 19.175 25.651 18.41C27.562 20.165 32.88 24.466 39.151 24.475C39.258 23.787 39.8487 23.2785 40.545 23.275C41.3294 23.2783 41.9628 23.9166 41.96 24.701C41.9617 25.4845 41.3285 26.1212 40.545 26.124C39.8461 26.1213 39.2537 25.6092 39.15 24.918C35.4463 24.7714 31.8618 23.5681 28.82 21.45C27.6433 20.6715 26.5277 19.8043 25.483 18.856C26.3211 20.4353 27.3741 21.8909 28.612 23.181C32.0623 26.7691 36.8552 28.7519 41.832 28.65C41.8527 28.6501 41.8732 28.6531 41.893 28.659C41.9661 27.9362 42.5726 27.385 43.299 27.381C44.0826 27.3848 44.7152 28.0224 44.713 28.806C44.7152 29.5899 44.083 30.228 43.299 30.233C42.6191 30.2297 42.0372 29.7443 41.912 29.076C41.8868 29.087 41.8595 29.0925 41.832 29.092C36.7363 29.1957 31.8291 27.1655 28.296 23.492C26.9985 22.1438 25.9004 20.617 25.035 18.958C25.878 26.585 34.271 32.605 44.497 32.676C44.6917 32.1028 45.2287 31.7164 45.834 31.714C46.6172 31.7184 47.2496 32.3548 47.249 33.138C47.2529 33.9213 46.6213 34.5596 45.838 34.564C45.4623 34.5616 45.1029 34.41 44.839 34.1425C44.5751 33.8751 44.4283 33.5137 44.431 33.138C44.431 33.1359 44.4334 33.1338 44.4362 33.1314C44.4402 33.128 44.445 33.1238 44.445 33.118ZM44.872 2.58199L44.8723 2.5815C44.9478 3.05366 45.3537 3.40207 45.832 3.40499C46.3712 3.40333 46.8071 2.96518 46.806 2.42599C46.8071 2.1667 46.705 1.91762 46.5223 1.73362C46.3396 1.54962 46.0913 1.44578 45.832 1.44499C45.317 1.44823 44.8926 1.84994 44.861 2.36399C44.8844 2.39878 44.8963 2.44006 44.895 2.48199C44.8956 2.51651 44.8878 2.55066 44.8723 2.5815L44.872 2.57999V2.58199ZM43.3 5.77399C42.7607 5.77729 42.3258 6.21663 42.328 6.75599C42.3267 7.01501 42.4284 7.26394 42.6107 7.44795C42.793 7.63195 43.041 7.73593 43.3 7.73699C43.8398 7.73478 44.2757 7.29573 44.274 6.75599C44.2751 6.2163 43.8397 5.77729 43.3 5.77399ZM39.574 10.864C39.5718 10.3248 40.0068 9.88574 40.546 9.88299C41.0859 9.88519 41.5221 10.3241 41.521 10.864C41.5221 11.4039 41.0859 11.8428 40.546 11.845C40.007 11.8417 39.5723 11.403 39.574 10.864ZM37.078 14.852C37.0781 14.8817 37.0717 14.9111 37.059 14.938L37.06 14.937C37.15 15.3938 37.5495 15.7238 38.015 15.726C38.554 15.7227 38.9887 15.284 38.987 14.745C38.9887 14.2062 38.5538 13.7677 38.015 13.765C37.4817 13.7671 37.0482 14.1957 37.04 14.729C37.0647 14.7653 37.0779 14.8081 37.078 14.852ZM37.077 20.708C37.077 20.7516 37.0637 20.7941 37.039 20.83H37.038C37.0462 21.3634 37.4795 21.7923 38.013 21.795C38.5516 21.7917 38.9861 21.3536 38.985 20.815C38.9872 20.2755 38.5525 19.8358 38.013 19.832C37.5471 19.8343 37.1476 20.1648 37.058 20.622C37.0707 20.6489 37.0771 20.6783 37.077 20.708ZM44.859 33.138C44.8594 33.0928 44.8627 33.0477 44.869 33.003C44.8867 32.9727 44.8957 32.9381 44.895 32.903V32.885C45.0084 32.4603 45.3924 32.1644 45.832 32.163C46.0909 32.1635 46.3389 32.2669 46.5216 32.4503C46.7042 32.6337 46.8065 32.8821 46.806 33.141C46.8073 33.4005 46.7054 33.65 46.5227 33.8344C46.3401 34.0187 46.0916 34.1229 45.832 34.124C45.5726 34.1227 45.3244 34.0184 45.1419 33.834C44.9594 33.6497 44.8577 33.4004 44.859 33.141V33.138ZM43.3 27.83C42.7614 27.8322 42.3263 28.2703 42.328 28.809C42.3264 29.0682 42.428 29.3174 42.6103 29.5016C42.7927 29.6858 43.0408 29.7899 43.3 29.791C43.5594 29.7899 43.8077 29.6859 43.9904 29.5017C44.173 29.3176 44.2751 29.0684 44.274 28.809C44.2746 28.27 43.839 27.8322 43.3 27.83ZM39.574 24.704C39.5727 24.4449 39.6743 24.1958 39.8566 24.0117C40.0389 23.8275 40.2869 23.7233 40.546 23.722C40.8056 23.7228 41.0542 23.8267 41.237 24.0109C41.4199 24.1951 41.5221 24.4444 41.521 24.704C41.521 25.2431 41.0851 25.6808 40.546 25.683C40.0076 25.6802 39.5729 25.2424 39.574 24.704ZM34.49 16.765C33.9503 16.7672 33.5143 17.2062 33.516 17.746C33.5143 18.2857 33.9503 18.7248 34.49 18.727C35.0295 18.7242 35.4651 18.2855 35.464 17.746C35.4651 17.2065 35.0295 16.7677 34.49 16.765Z" fill="black"/>
</svg>
