<svg xmlns="http://www.w3.org/2000/svg" width="60" height="41.628" viewBox="0 0 60 41.628">
    <defs>
        <linearGradient id="prefix__linear-gradient" x1=".5" x2=".5" y2="1" gradientUnits="objectBoundingBox">
            <stop offset=".221" stop-color="#832dc4"/>
            <stop offset=".377" stop-color="#5e35b8"/>
            <stop offset=".543" stop-color="#3f3dad"/>
            <stop offset=".704" stop-color="#2942a6"/>
            <stop offset=".857" stop-color="#1c45a2"/>
            <stop offset=".994" stop-color="#1746a0"/>
        </linearGradient>
    </defs>
    <path id="prefix__marlowe-logo" d="M90.464 35.544c1.02 0 2.232.024 2.736.072V30.4a42.042 42.042 0 00-30.06 10.124c-8.88-7.68-20.784-10.992-29.916-9.96v4.884c.516-.036 1.308-.06 2.208-.06h.048l.156-.012.2.012a19.663 19.663 0 012.264.112h.1c12.324 1.488 21.984 7.212 28.7 17.556a236 236 0 00-3.792 6.3c-.756-1.236-2.832-5.04-3.672-6.444a44.98 44.98 0 012.028-3.06c-1.284-1.26-2.484-2.4-3.732-3.588-.9 1.116-1.62 1.992-2.412 2.964-3.36-2.28-6.576-4.476-10.392-5.628A29.291 29.291 0 0033.2 42.228v29.688h4.98V47.424c5.028.876 10.332 2.736 14.472 6.672a46.733 46.733 0 00-3.9 17.832h5.172a34.82 34.82 0 012.628-13.644 43.568 43.568 0 013.24 7.884 44.62 44.62 0 01.864 5.736h2.3v-8.268h.072a.77.77 0 11.84-.768.759.759 0 01-.684.768h.072V71.9h-.3l.072.012h.228V71.9h2.4a24.792 24.792 0 014.128-13.728 42.589 42.589 0 012.7 13.74h5.296c0-5.088-1.992-14.6-4.092-18.552a22.176 22.176 0 0114.244-5.616c0 4-.012 8 0 12.012.012 4.032-.084 8.076.072 12.144h5.2V42.144a35.632 35.632 0 00-12.012 1.512 33.507 33.507 0 00-10.468 5.664c-1.092-1.9-2.316-3.432-3.564-5.244a37.471 37.471 0 0120.892-8.46c.504-.048 1.392-.072 2.412-.072z" transform="translate(-33.2 -30.301)"/>
</svg>
