<svg xmlns="http://www.w3.org/2000/svg" xmlns:xlink="http://www.w3.org/1999/xlink" width="81" height="43" viewBox="0 0 81 43">
    <defs>
        <path id="8vfk29f7ka" d="M0 0.146L34.481 0.146 34.481 41.451 0 41.451z"/>
        <path id="sb35jtotqc" d="M0.344 0.306L10.368 0.306 10.368 14.921 0.344 14.921z"/>
    </defs>
    <g fill="none" fill-rule="evenodd">
        <g>
            <g>
                <g transform="translate(-75 -9) translate(75 9) translate(0 .27)">
                    <mask id="fc0ia8lhyb" fill="#fff">
                        <use xlink:href="#8vfk29f7ka"/>
                    </mask>
                    <path fill="#00E39C" d="M4.075 41.45c-.385 0-.77-.055-1.143-.163-1.044-.306-1.907-.999-2.43-1.953-.522-.954-.642-2.054-.337-3.098l7.559-25.87c.248-.85.753-1.58 1.46-2.111.706-.532 1.547-.815 2.432-.82h.017c.88 0 1.72.279 2.428.805.708.525 1.216 1.25 1.47 2.094l1.654 5.492 3.73-12.752c.249-.85.754-1.579 1.46-2.11.708-.532 1.55-.815 2.434-.818h.015c.882 0 1.721.278 2.43.804.707.526 1.216 1.25 1.47 2.095l5.583 18.58c.313 1.042.202 2.143-.314 3.1-.515.959-1.372 1.658-2.414 1.972-.382.115-.777.173-1.173.173-.857 0-1.712-.28-2.407-.79-.719-.526-1.234-1.256-1.491-2.111l-1.632-5.43-3.727 12.74c-.249.85-.754 1.58-1.46 2.11-.707.533-1.548.816-2.433.82h-.015c-.882 0-1.722-.279-2.43-.805-.707-.525-1.215-1.25-1.47-2.094l-1.65-5.483L7.982 38.52c-.252.862-.766 1.6-1.487 2.132-.697.515-1.557.799-2.42.799" mask="url(#fc0ia8lhyb)"/>
                </g>
                <path fill="#273245" d="M47.307 20.053c-.37.211-.806.318-1.3.318H43.66v-5.088h2.347c.491 0 .926.112 1.295.333.369.222.663.53.875.915.213.39.32.85.32 1.367 0 .481-.106.912-.318 1.282-.213.374-.499.66-.872.873m2.937-4.693c-.41-.74-.99-1.325-1.723-1.742-.73-.416-1.576-.626-2.514-.626h-3.564c-.338 0-.628.114-.862.34-.236.228-.355.523-.355.877v12.067c0 .34.118.63.352.864.234.234.525.353.865.353.353 0 .648-.12.877-.357.225-.233.34-.523.34-.86v-3.614h2.347c.937 0 1.782-.204 2.511-.606.733-.405 1.314-.975 1.725-1.697.41-.719.617-1.547.617-2.46 0-.949-.207-1.803-.616-2.54M56.89 25.476c-.202-.226-.477-.346-.794-.346h-.446c-.097 0-.243-.03-.391-.284-.14-.238-.21-.555-.21-.941v-9.732c0-.34-.112-.624-.335-.847-.222-.222-.507-.334-.846-.334-.34 0-.625.112-.847.334-.222.223-.335.508-.335.847v9.732c0 .681.123 1.295.365 1.823.246.538.596.97 1.041 1.284.452.319.976.48 1.558.48h.036c.418 0 .77-.102 1.045-.306.299-.22.457-.522.457-.875 0-.333-.1-.614-.297-.835M64.786 24.986c-.427.26-.921.393-1.47.393-.538 0-1.03-.132-1.463-.394-.436-.264-.784-.63-1.037-1.087-.254-.459-.383-.984-.383-1.562 0-.589.129-1.12.383-1.58.253-.456.602-.822 1.037-1.085.433-.263.925-.395 1.463-.395.548 0 1.043.132 1.47.394.429.263.772.627 1.02 1.084.248.46.374.993.374 1.582 0 .578-.126 1.105-.375 1.564-.247.458-.59.823-1.02 1.086zm3.718-2.841c-.028-.912-.259-1.746-.686-2.485-.458-.788-1.083-1.42-1.86-1.878-.779-.458-1.668-.69-2.642-.69-.975 0-1.867.231-2.65.69-.785.457-1.413 1.09-1.87 1.878-.458.79-.69 1.69-.69 2.676 0 .984.212 1.879.631 2.66.42.784 1.003 1.414 1.733 1.873.732.461 1.57.695 2.49.695.918 0 1.756-.234 2.489-.695.235-.149.456-.315.661-.5.013.316.128.584.342.798.228.228.516.343.856.343.34 0 .628-.115.856-.343.228-.228.343-.516.343-.856v-4.165l-.003-.001z" transform="translate(-75 -9) translate(75 9)"/>
                <g transform="translate(-75 -9) translate(75 9) translate(69.223 16.85)">
                    <mask id="94h4x62otd" fill="#fff">
                        <use xlink:href="#sb35jtotqc"/>
                    </mask>
                    <path fill="#273245" d="M10.307 1.04c-.103-.263-.329-.47-.671-.615-.65-.272-1.196-.064-1.501.578l-2.616 5.91L2.53.977C2.39.684 2.18.481 1.909.377c-.274-.105-.562-.094-.858.03-.297.125-.507.33-.626.608-.124.288-.105.599.054.9l3.94 7.483-1.719 3.88c-.15.325-.178.621-.082.881.098.265.317.476.66.632.204.087.381.13.541.13.31 0 .73-.128.96-.725l5.453-12.26c.152-.333.177-.635.075-.896" mask="url(#94h4x62otd)"/>
                </g>
            </g>
        </g>
    </g>
</svg>
