<svg width="41" height="30" viewBox="0 0 41 30" fill="none" xmlns="http://www.w3.org/2000/svg">
<path d="M38.176 3.745C38.856 3.745 39.664 3.76215 40 3.79643V0.0707177C32.695 -0.41472 25.5025 2.18068 19.96 7.30215C14.04 1.81643 6.104 -0.549282 0.016 0.187861V3.67643C0.36 3.65072 0.888 3.63357 1.488 3.63357H1.52L1.624 3.625L1.75733 3.63357C2.26146 3.62912 2.76541 3.65583 3.26667 3.71357H3.33333C11.5493 4.77643 17.9893 8.865 22.4667 16.2536C21.5787 17.7879 20.8347 19.0993 19.9387 20.7536C19.4347 19.8707 18.0507 17.1536 17.4907 16.1507C17.9067 15.405 18.3627 14.685 18.8427 13.965C17.9867 13.065 17.1867 12.2507 16.3547 11.4021C15.7547 12.1993 15.2747 12.825 14.7467 13.5193C12.5067 11.8907 10.3627 10.3221 7.81867 9.49929C5.30156 8.60733 2.64129 8.27389 0 8.51929V29.725H3.32V12.2307C6.672 12.8564 10.208 14.185 12.968 16.9964C11.3283 21.0178 10.4448 25.346 10.368 29.7336H13.816C13.783 26.3919 14.3788 23.0773 15.568 19.9879C16.4581 21.7848 17.1815 23.671 17.728 25.6193C18.0027 26.9702 18.1951 28.3388 18.304 29.7164H19.8373V23.8107H19.8853C19.6091 23.7837 19.4029 23.5265 19.4196 23.2299C19.4363 22.9333 19.6698 22.7045 19.947 22.7132C20.2243 22.7219 20.4449 22.965 20.4453 23.2621C20.4497 23.5443 20.2514 23.7829 19.9893 23.8107H20.0373V29.7136H19.8373L19.8853 29.7221H20.0373V29.7136H21.6373C21.6334 26.226 22.5908 22.8148 24.3893 19.9079C25.4906 23.0505 26.0988 26.3667 26.1893 29.7221H29.72C29.72 26.0879 28.392 19.2936 26.992 16.4707C29.6125 13.9681 32.9786 12.5461 36.488 12.4593C36.488 15.3164 36.48 18.1736 36.488 21.0393C36.496 23.9193 36.432 26.8079 36.536 29.7136H40.0027V8.45929C37.2954 8.32722 34.587 8.69249 31.9947 9.53929C29.4617 10.4308 27.0982 11.801 25.016 13.585C24.288 12.2279 23.472 11.1336 22.64 9.83929C26.5938 6.34119 31.4565 4.23143 36.568 3.79643C36.904 3.76215 37.496 3.745 38.176 3.745Z" fill="url(#paint0_linear)"/>
<defs>
<linearGradient id="paint0_linear" x1="0" y1="0.0130768" x2="0" y2="29.7336" gradientUnits="userSpaceOnUse">
<stop offset="0.221" stop-color="#832DC4"/>
<stop offset="0.377" stop-color="#5E35B8"/>
<stop offset="0.543" stop-color="#3F3DAD"/>
<stop offset="0.704" stop-color="#2942A6"/>
<stop offset="0.857" stop-color="#1C45A2"/>
<stop offset="0.994" stop-color="#1746A0"/>
</linearGradient>
</defs>
</svg>
