<svg xmlns="http://www.w3.org/2000/svg" xmlns:xlink="http://www.w3.org/1999/xlink" width="50" height="60" viewBox="0 0 50 60">
    <defs>
        <path id="to674u86aa" d="M0 0L50 0 50 60 0 60z"/>
    </defs>
    <g fill="none" fill-rule="evenodd">
        <g>
            <g transform="translate(-849 -368) translate(849 368)">
                <mask id="l997q3ml8b" fill="#fff">
                    <use xlink:href="#to674u86aa"/>
                </mask>
                <path fill="#00E39C" d="M5.91 60c-.56 0-1.117-.08-1.659-.239-1.513-.443-2.765-1.45-3.522-2.836-.758-1.385-.932-2.983-.49-4.5L11.2 14.846c.36-1.233 1.092-2.294 2.117-3.067 1.024-.772 2.244-1.184 3.527-1.189h.024c1.278 0 2.496.404 3.522 1.167 1.026.764 1.763 1.816 2.132 3.043l2.397 7.977 5.41-18.523c.36-1.233 1.092-2.294 2.118-3.066C33.472.416 34.692.005 35.974 0h.022c1.279 0 2.497.404 3.523 1.168 1.026.765 1.763 1.817 2.132 3.045L49.747 31.2c.454 1.513.293 3.113-.454 4.504-.747 1.392-1.99 2.408-3.501 2.863-.554.167-1.127.252-1.701.252-1.243 0-2.483-.407-3.49-1.146-1.043-.765-1.79-1.826-2.163-3.068l-2.366-7.887-5.405 18.506c-.36 1.234-1.092 2.294-2.117 3.066-1.025.772-2.244 1.183-3.527 1.188H25c-1.278 0-2.496-.403-3.522-1.167-1.026-.764-1.763-1.816-2.132-3.042l-2.393-7.965-5.378 18.438c-.365 1.252-1.111 2.323-2.157 3.097C8.407 59.588 7.161 60 5.91 60" mask="url(#l997q3ml8b)"/>
            </g>
        </g>
    </g>
</svg>
