<?xml version="1.0" encoding="utf-8"?>
<!-- Generator: Adobe Illustrator 24.0.1, SVG Export Plug-In . SVG Version: 6.00 Build 0)  -->
<svg version="1.1" id="Layer_1" xmlns="http://www.w3.org/2000/svg" xmlns:xlink="http://www.w3.org/1999/xlink" x="0px" y="0px"
	 viewBox="0 0 50 50" style="enable-background:new 0 0 50 50;" xml:space="preserve">
<style type="text/css">
	.st0{fill:#1746A0;}
	.st1{opacity:0.566;fill:#1746A0;enable-background:new    ;}
	.st2{fill:#FFFFFF;}
</style>
<path id="Path_571_1_" class="st0" d="M35.7,25.3c0,6.1-4.9,11-11,11s-11-4.9-11-11s4.9-11,11-11S35.7,19.2,35.7,25.3z"/>
<path id="Path_572_1_" class="st1" d="M24.7,40.3c-8.3,0-15-6.7-15-15s6.7-15,15-15s15,6.7,15,15S33,40.3,24.7,40.3z M24.7,11.3
	c-7.7,0-14,6.3-14,14s6.3,14,14,14s14-6.3,14-14S32.4,11.3,24.7,11.3z"/>
<g id="Group_1016_1_" transform="translate(8.5 7.5)">
	<path id="Path_585_1_" class="st2" d="M21.6,17.3c0,0.2-0.2,0.4-0.4,0.4H11c-0.2,0-0.4-0.2-0.4-0.4c0-0.2,0.2-0.4,0.4-0.4h10.3
		C21.4,16.9,21.6,17.1,21.6,17.3z"/>
</g>
</svg>
