<svg xmlns="http://www.w3.org/2000/svg" width="40" height="40" viewBox="0 0 40 40">
    <g fill="none" fill-rule="evenodd">
        <g fill-rule="nonzero">
            <g>
                <g>
                    <g>
                        <g>
                            <g>
                                <g>
                                    <path fill="#CDCDCD" d="M0 0L40 0 40 40 0 40z" transform="translate(-401 -376) translate(134 209) translate(22 78) translate(0 42) translate(184) translate(51 47) translate(10)"/>
                                    <path fill="#646464" d="M10.518 33.427l3.06-1.853c.591 1.047 1.128 1.933 2.417 1.933 1.235 0 2.014-.483 2.014-2.362V18.364h3.759v12.834c0 3.893-2.282 5.665-5.612 5.665-3.007 0-4.753-1.557-5.639-3.436m13.293-.403l3.06-1.772c.806 1.316 1.853 2.282 3.706 2.282 1.557 0 2.55-.778 2.55-1.852 0-1.29-1.02-1.746-2.738-2.497l-.94-.403c-2.712-1.155-4.51-2.605-4.51-5.666 0-2.819 2.147-4.967 5.504-4.967 2.39 0 4.108.832 5.343 3.007l-2.927 1.88c-.645-1.155-1.343-1.611-2.417-1.611-1.1 0-1.799.698-1.799 1.61 0 1.129.698 1.585 2.31 2.283l.94.403c3.194 1.37 4.993 2.766 4.993 5.907 0 3.383-2.658 5.236-6.229 5.236-3.49 0-5.746-1.665-6.847-3.84" transform="translate(-401 -376) translate(134 209) translate(22 78) translate(0 42) translate(184) translate(51 47) translate(10)"/>
                                </g>
                            </g>
                        </g>
                    </g>
                </g>
            </g>
        </g>
    </g>
</svg>
