<svg xmlns="http://www.w3.org/2000/svg" width="35" height="39" viewBox="0 0 35 39">
    <g fill="none" fill-rule="evenodd">
        <g fill-rule="nonzero">
            <g>
                <g>
                    <g>
                        <g>
                            <g>
                                <g>
                                    <path fill="#4285F4" d="M3.212.596C1.438.594 0 2.033 0 3.808v27.707c-.001 1.774 1.438 3.213 3.212 3.212h1.25c.617 2.313 2.712 3.923 5.105 3.924 2.393-.003 4.485-1.613 5.1-3.924h5.442c1.17 0 2.118-.948 2.118-2.117V2.712L20.11.596H3.212z" transform="translate(-771 -377) translate(134 209) translate(22 78) translate(0 42) translate(552) translate(55 48) translate(8)"/>
                                    <path fill="#C8D1DB" d="M19.052.594c-.003 4.684-.002 9.367-.002 14.054l-4.4-2.487c-.635-.358-1.42.1-1.42.828v10.747c0 .729.785 1.186 1.42.828l4.4-2.487V34.727H31.084c1.683 0 3.047-1.365 3.047-3.048V3.633C34.126 1.954 32.763.596 31.083.596L19.053.594z" transform="translate(-771 -377) translate(134 209) translate(22 78) translate(0 42) translate(552) translate(55 48) translate(8)"/>
                                </g>
                            </g>
                        </g>
                    </g>
                </g>
            </g>
        </g>
    </g>
</svg>
