<svg xmlns="http://www.w3.org/2000/svg" width="43" height="32" viewBox="0 0 43 32">
    <defs>
        <linearGradient id="cqg6h8r3ia" x1="0%" x2="0%" y1="0%" y2="100%">
            <stop offset="22.1%" stop-color="#832DC4"/>
            <stop offset="37.7%" stop-color="#5E35B8"/>
            <stop offset="54.3%" stop-color="#3F3DAD"/>
            <stop offset="70.4%" stop-color="#2942A6"/>
            <stop offset="85.7%" stop-color="#1C45A2"/>
            <stop offset="99.4%" stop-color="#1746A0"/>
        </linearGradient>
    </defs>
    <g fill="none" fill-rule="evenodd">
        <g fill="url(#cqg6h8r3ia)" fill-rule="nonzero" transform="translate(-583 -380)">
            <g>
                <g>
                    <g>
                        <g>
                            <g>
                                <g>
                                    <path d="M40.721 3.995c.725 0 1.587.018 1.946.055V.075C34.875-.442 27.203 2.326 21.29 7.79 14.976 1.938 6.51-.586.017.2v3.722c.367-.028.93-.046 1.57-.046h.034l.111-.01.142.01c.538-.005 1.076.024 1.61.085h.072c8.763 1.134 15.633 5.495 20.408 13.376-.947 1.637-1.74 3.036-2.696 4.8-.538-.942-2.014-3.84-2.611-4.91.443-.795.93-1.563 1.442-2.331-.913-.96-1.767-1.829-2.654-2.734-.64.85-1.152 1.518-1.715 2.259-2.39-1.738-4.676-3.41-7.39-4.288C5.655 9.18 2.817 8.825 0 9.087v22.62h3.541v-18.66c3.576.666 7.348 2.084 10.292 5.082-1.75 4.29-2.692 8.907-2.774 13.587h3.678c-.035-3.565.6-7.1 1.869-10.396.95 1.917 1.72 3.93 2.304 6.007.293 1.441.498 2.901.614 4.37h1.636v-6.299h.051c-.295-.029-.515-.303-.497-.62.018-.316.267-.56.563-.55.296.009.53.268.531.585.005.3-.207.555-.486.585h.051v6.297h-.213l.051.009h.162v-.01h1.707c-.004-3.72 1.017-7.358 2.935-10.459 1.175 3.352 1.824 6.89 1.92 10.469h3.766c0-3.877-1.416-11.124-2.91-14.135 2.796-2.67 6.386-4.186 10.13-4.28 0 3.048-.009 6.096 0 9.153.008 3.072-.06 6.153.05 9.253h3.699V9.023c-2.888-.14-5.777.249-8.542 1.152-2.702.951-5.223 2.413-7.444 4.316-.777-1.448-1.647-2.615-2.535-3.996 4.218-3.731 9.405-5.981 14.857-6.445.358-.037.99-.055 1.715-.055z" transform="translate(134 209) translate(22 78) translate(0 42) translate(368) translate(50 51) translate(9)"/>
                                </g>
                            </g>
                        </g>
                    </g>
                </g>
            </g>
        </g>
    </g>
</svg>
