<?xml version="1.0" encoding="utf-8"?>
<!-- Generator: Adobe Illustrator 24.0.1, SVG Export Plug-In . SVG Version: 6.00 Build 0)  -->
<svg version="1.1" id="Layer_1" xmlns="http://www.w3.org/2000/svg" xmlns:xlink="http://www.w3.org/1999/xlink" x="0px" y="0px"
	 viewBox="0 0 50 50" style="enable-background:new 0 0 50 50;" xml:space="preserve">
<style type="text/css">
	.st0{fill:#FFFFFF;}
</style>
<g id="Group_1028" transform="translate(4.337)">
	<g id="Group_1027">
		<path id="Path_582" class="st0" d="M26.8,19.3h-4.4c-0.3,0-0.5,0.2-0.5,0.5s0.2,0.5,0.5,0.5h3.1L19.9,26c-0.2,0.2-0.2,0.6,0,0.8
			s0.6,0.2,0.8,0l0,0l5.6-5.6v3.1c0,0.3,0.2,0.5,0.5,0.5s0.5-0.2,0.5-0.5v-4.4C27.4,19.5,27.1,19.3,26.8,19.3
			C26.8,19.3,26.8,19.3,26.8,19.3z"/>
	</g>
</g>
<g id="Group_1030" transform="translate(0 2.147)">
	<g id="Group_1029">
		<path id="Path_583" class="st0" d="M29,22.6c-0.3,0-0.5,0.2-0.5,0.5V28h-7.7v-7.7h4.9c0.3,0,0.5-0.2,0.5-0.5s-0.2-0.5-0.5-0.5
			h-5.5c-0.3,0-0.5,0.2-0.5,0.5c0,0,0,0,0,0v8.8c0,0.3,0.2,0.5,0.5,0.5H29c0.3,0,0.5-0.2,0.5-0.5v-5.5C29.5,22.8,29.3,22.6,29,22.6
			C29,22.6,29,22.6,29,22.6z"/>
	</g>
</g>
</svg>
