<?xml version="1.0" encoding="utf-8"?>
<!-- Generator: Adobe Illustrator 24.0.1, SVG Export Plug-In . SVG Version: 6.00 Build 0)  -->
<svg version="1.1" id="Layer_1" xmlns="http://www.w3.org/2000/svg" xmlns:xlink="http://www.w3.org/1999/xlink" x="0px" y="0px"
	 viewBox="0 0 50 50" style="enable-background:new 0 0 50 50;" xml:space="preserve">
<style type="text/css">
	.st0{fill:url(#Path_596_1_);}
	.st1{fill:url(#Path_597_1_);}
	.st2{fill:url(#Path_598_1_);}
	.st3{fill:url(#Path_599_1_);}
	.st4{fill:url(#Path_600_1_);}
	.st5{fill:url(#Path_601_1_);}
	.st6{fill:url(#Path_602_1_);}
	.st7{fill:url(#Path_603_1_);}
	.st8{fill:url(#Path_604_1_);}
	.st9{fill:url(#Path_605_1_);}
	.st10{fill:url(#Path_606_1_);}
</style>
<linearGradient id="Path_596_1_" gradientUnits="userSpaceOnUse" x1="-640.8481" y1="83.3398" x2="-641.0352" y2="87.8388" gradientTransform="matrix(24.0016 0 0 -0.912 15410.5537 95.832)">
	<stop  offset="0" style="stop-color:#832DC4"/>
	<stop  offset="1" style="stop-color:#1746A0"/>
</linearGradient>
<path id="Path_596" class="st0" d="M36.3,16.2H13.1c-0.2,0-0.4-0.2-0.4-0.5c0-0.2,0.2-0.4,0.4-0.5h23.2c0.2,0,0.4,0.2,0.4,0.5
	C36.7,16,36.5,16.2,36.3,16.2z"/>
<g id="Group_1031" transform="translate(0)">
	
		<linearGradient id="Path_597_1_" gradientUnits="userSpaceOnUse" x1="-640.8464" y1="83.3353" x2="-641.0334" y2="87.8343" gradientTransform="matrix(23.9989 0 0 -0.912 15408.8086 114.9148)">
		<stop  offset="0" style="stop-color:#832DC4"/>
		<stop  offset="1" style="stop-color:#1746A0"/>
	</linearGradient>
	<path id="Path_597" class="st1" d="M36.3,35.3H13.1c-0.3,0-0.4-0.3-0.4-0.5c0-0.2,0.2-0.4,0.4-0.4h23.2c0.3,0,0.4,0.3,0.4,0.5
		C36.7,35.1,36.5,35.2,36.3,35.3z"/>
	
		<linearGradient id="Path_598_1_" gradientUnits="userSpaceOnUse" x1="-631.3244" y1="83.3353" x2="-631.5114" y2="87.8343" gradientTransform="matrix(15.0335 0 0 -0.912 9523.0107 110.1428)">
		<stop  offset="0" style="stop-color:#832DC4"/>
		<stop  offset="1" style="stop-color:#1746A0"/>
	</linearGradient>
	<path id="Path_598" class="st2" d="M36.3,30.5H22c-0.3,0-0.4-0.3-0.4-0.5c0-0.2,0.2-0.3,0.4-0.4h14.3c0.3,0,0.4,0.3,0.4,0.5
		C36.6,30.3,36.5,30.5,36.3,30.5L36.3,30.5z"/>
	
		<linearGradient id="Path_599_1_" gradientUnits="userSpaceOnUse" x1="-631.3246" y1="83.3407" x2="-631.5116" y2="87.8397" gradientTransform="matrix(15.0336 0 0 -0.912 9523.0703 105.377)">
		<stop  offset="0" style="stop-color:#832DC4"/>
		<stop  offset="1" style="stop-color:#1746A0"/>
	</linearGradient>
	<path id="Path_599" class="st3" d="M36.3,25.7H22c-0.3,0-0.4-0.3-0.4-0.5c0-0.2,0.2-0.3,0.4-0.4h14.3c0.3,0,0.4,0.3,0.4,0.5
		C36.6,25.5,36.5,25.7,36.3,25.7L36.3,25.7z"/>
	
		<linearGradient id="Path_600_1_" gradientUnits="userSpaceOnUse" x1="-631.3246" y1="83.3407" x2="-631.5116" y2="87.8397" gradientTransform="matrix(15.0336 0 0 -0.912 9523.0703 100.605)">
		<stop  offset="0" style="stop-color:#832DC4"/>
		<stop  offset="1" style="stop-color:#1746A0"/>
	</linearGradient>
	<path id="Path_600" class="st4" d="M36.3,21H22c-0.3,0-0.4-0.3-0.4-0.5c0-0.2,0.2-0.3,0.4-0.4h14.3c0.3,0,0.4,0.3,0.4,0.5
		C36.6,20.8,36.5,20.9,36.3,21L36.3,21z"/>
	
		<linearGradient id="Path_601_1_" gradientUnits="userSpaceOnUse" x1="-640.8481" y1="83.3398" x2="-641.0352" y2="87.8388" gradientTransform="matrix(24.0016 0 0 -0.912 15410.5537 95.832)">
		<stop  offset="0" style="stop-color:#832DC4"/>
		<stop  offset="1" style="stop-color:#1746A0"/>
	</linearGradient>
	<path id="Path_601" class="st5" d="M36.3,16.2H13.1c-0.2,0-0.4-0.2-0.4-0.5c0-0.2,0.2-0.4,0.4-0.5h23.2c0.2,0,0.4,0.2,0.4,0.5
		C36.7,16,36.5,16.2,36.3,16.2z"/>
	
		<linearGradient id="Path_602_1_" gradientUnits="userSpaceOnUse" x1="-640.8481" y1="83.3398" x2="-641.0352" y2="87.8388" gradientTransform="matrix(24.0016 0 0 -0.912 15410.5537 95.832)">
		<stop  offset="0" style="stop-color:#832DC4"/>
		<stop  offset="1" style="stop-color:#1746A0"/>
	</linearGradient>
	<path id="Path_602" class="st6" d="M36.3,16.2H13.1c-0.2,0-0.4-0.2-0.4-0.5c0-0.2,0.2-0.4,0.4-0.5h23.2c0.2,0,0.4,0.2,0.4,0.5
		C36.7,16,36.5,16.2,36.3,16.2z"/>
	
		<linearGradient id="Path_603_1_" gradientUnits="userSpaceOnUse" x1="-236.6528" y1="386.9489" x2="-236.8398" y2="391.4478" gradientTransform="matrix(0.912 0 0 -15.4441 238.1077 6070.811)">
		<stop  offset="0" style="stop-color:#832DC4"/>
		<stop  offset="1" style="stop-color:#1746A0"/>
	</linearGradient>
	<path id="Path_603" class="st7" d="M22.1,33c-0.2,0-0.4-0.2-0.5-0.4V17.9c0-0.3,0.3-0.4,0.5-0.4c0.2,0,0.3,0.2,0.4,0.4v14.7
		C22.5,32.8,22.3,33,22.1,33z"/>
	
		<linearGradient id="Path_604_1_" gradientUnits="userSpaceOnUse" x1="-131.6148" y1="386.3409" x2="-131.8018" y2="390.8399" gradientTransform="matrix(0.7898 0.456 1.6085 -2.786 -510.6861 1172.9816)">
		<stop  offset="0" style="stop-color:#832DC4"/>
		<stop  offset="1" style="stop-color:#1746A0"/>
	</linearGradient>
	<path id="Path_604" class="st8" d="M13.1,25.4c-0.2-0.1-0.3-0.3-0.3-0.5l1.3-2.2c0.1-0.2,0.4-0.2,0.6-0.1c0.2,0.1,0.3,0.3,0.2,0.5
		l-1.3,2.3C13.5,25.5,13.3,25.5,13.1,25.4z"/>
	
		<linearGradient id="Path_605_1_" gradientUnits="userSpaceOnUse" x1="-604.1541" y1="86.8595" x2="-604.3411" y2="91.3585" gradientTransform="matrix(7.2768 0 0 -0.9221 4413.9736 109.5048)">
		<stop  offset="0" style="stop-color:#832DC4"/>
		<stop  offset="1" style="stop-color:#1746A0"/>
	</linearGradient>
	<path id="Path_605" class="st9" d="M19.4,25.7h-6.1c-0.3,0-0.6-0.2-0.6-0.5s0.3-0.5,0.6-0.5h6.1c0.3,0,0.5,0.1,0.5,0.4
		c0,0.3-0.1,0.5-0.4,0.5C19.5,25.7,19.5,25.7,19.4,25.7L19.4,25.7z"/>
	
		<linearGradient id="Path_606_1_" gradientUnits="userSpaceOnUse" x1="-725.7532" y1="554.126" x2="-725.9402" y2="558.6251" gradientTransform="matrix(-0.6449 0.6449 2.2868 2.2868 -1731.4495 -782.9804)">
		<stop  offset="0" style="stop-color:#832DC4"/>
		<stop  offset="1" style="stop-color:#1746A0"/>
	</linearGradient>
	<path id="Path_606" class="st10" d="M15.3,27.5c0.2-0.2,0.2-0.4,0.1-0.6L13.5,25c-0.1-0.1-0.3,0-0.5,0.1c-0.2,0.2-0.2,0.4-0.1,0.5
		l1.8,1.8C14.9,27.6,15.1,27.6,15.3,27.5z"/>
</g>
</svg>
