<svg width="312" height="460" viewBox="0 0 312 460" fill="none" xmlns="http://www.w3.org/2000/svg">
<g clip-path="url(#clip0)">
<g filter="url(#filter0_d)">
<rect width="312" height="460" rx="8" fill="white"/>
</g>
<rect opacity="0.04" x="36" y="217" width="240" height="98" rx="8" fill="black"/>
<path fill-rule="evenodd" clip-rule="evenodd" d="M156.862 357.226L171.828 365.959C172.407 366.36 172.793 367.063 172.793 367.765V386.335C172.793 387.038 172.407 387.64 171.828 388.041L156.862 396.774C156.186 397.075 155.51 397.075 154.931 396.774L139.966 388.041C139.386 387.74 139 387.038 139 386.335V367.665C139 366.962 139.386 366.26 140.062 365.959L154.931 357.226C155.607 356.925 156.283 356.925 156.862 357.226ZM167.193 364.754L165.648 363.851V365.858L167.193 364.754ZM160.434 360.94L163.428 362.646L160.434 364.252V360.94ZM157.152 366.159L159.083 365.055L159.179 361.341L153.29 364.654C152.903 364.854 152.421 364.854 152.034 364.654L151.359 364.353L146.724 367.364V370.375L150.007 372.282V370.074C150.007 369.673 150.2 369.171 150.586 368.97L155.221 365.959C155.607 365.657 156.09 365.657 156.476 365.858L157.152 366.159ZM151.359 370.074L155.993 367.063L156.669 367.364C157.055 367.565 157.538 367.565 157.924 367.364L164.393 363.55V366.561L161.11 368.769L160.434 368.468C160.048 368.267 159.566 368.267 159.179 368.568L154.545 371.58C154.159 371.78 153.966 372.282 153.966 372.684V374.39L151.359 372.885V370.074ZM155.51 375.394C155.703 375.494 155.993 375.494 156.186 375.394L168.255 368.267V365.557L161.786 369.873C161.4 370.174 160.917 370.174 160.531 369.974L159.855 369.673L155.221 372.684V375.193L155.51 375.394ZM169.51 366.159L170.766 366.862L169.51 367.665V366.159ZM156.186 358.43C155.993 358.33 155.703 358.33 155.51 358.43L140.931 366.962L145.469 369.572V367.364C145.469 366.962 145.662 366.46 146.048 366.26L150.683 363.248C151.069 362.947 151.552 362.947 151.938 363.148L152.614 363.449L158.793 359.936L156.186 358.43ZM140.641 386.937C140.448 386.837 140.352 386.536 140.352 386.335V372.082L142.572 373.186C142.766 373.286 142.959 373.587 142.959 373.788V374.39C141.993 374.792 141.414 375.896 141.8 377C142.186 378.004 143.248 378.606 144.31 378.205C145.276 377.803 145.855 376.699 145.469 375.595C145.276 374.992 144.89 374.591 144.31 374.39V373.788C144.31 372.985 143.924 372.282 143.248 371.981L140.255 370.576V368.066L154.931 376.598C155.028 376.699 155.124 376.699 155.221 376.699V384.026L149.717 380.915C149.524 380.814 149.428 380.513 149.428 380.312V379.008C150.393 378.706 150.972 377.502 150.586 376.498V376.398C150.2 375.394 149.138 374.792 148.076 375.193C147.11 375.595 146.531 376.699 146.917 377.803C147.11 378.405 147.497 378.807 148.076 379.008V380.312C148.076 381.015 148.462 381.718 149.138 382.019L155.221 385.432V391.956L149.717 388.844C149.524 388.744 149.428 388.443 149.428 388.242V385.733C149.428 385.03 149.041 384.327 148.462 384.026L146.145 382.721V382.42C146.145 381.316 145.276 380.413 144.214 380.413C143.152 380.413 142.283 381.316 142.283 382.42C142.283 383.524 143.152 384.428 144.214 384.428C144.697 384.428 145.179 384.227 145.566 383.926L147.883 385.331C148.076 385.432 148.172 385.733 148.172 385.934V388.443C148.172 389.146 148.559 389.848 149.234 390.149L155.317 393.562V395.369L140.641 386.937ZM143.538 377.1C143.924 377.1 144.214 376.799 144.214 376.398C144.117 375.996 143.828 375.695 143.538 375.695C143.152 375.695 142.862 375.996 142.862 376.398C142.862 376.799 143.152 377.1 143.538 377.1ZM148.076 377.1C148.076 376.699 148.366 376.398 148.752 376.398C149.138 376.398 149.428 376.699 149.428 377.1C149.428 377.502 149.138 377.803 148.752 377.803C148.366 377.803 148.076 377.502 148.076 377.1ZM144.117 383.123C144.503 383.123 144.793 382.822 144.793 382.42C144.793 382.019 144.503 381.718 144.117 381.718C143.731 381.718 143.441 382.019 143.441 382.42C143.441 382.822 143.731 383.123 144.117 383.123ZM171.152 386.937L156.572 395.469V389.647L162.655 386.235C163.331 385.934 163.717 385.231 163.717 384.528V382.119C163.717 381.818 163.91 381.617 164.103 381.517L167 380.011C167.772 380.814 169.028 380.714 169.703 379.911C170.476 379.108 170.379 377.803 169.607 377.1C168.834 376.297 167.579 376.398 166.903 377.201C166.517 377.502 166.324 378.004 166.324 378.506V378.807L163.428 380.312C162.752 380.614 162.366 381.316 162.366 382.119V384.528C162.366 384.729 162.269 385.03 162.076 385.13L156.572 388.142V381.617L158.503 380.614C159.276 381.417 160.531 381.316 161.207 380.513C161.979 379.71 161.883 378.405 161.11 377.703C160.338 376.9 159.083 377 158.407 377.803C158.117 378.204 157.924 378.706 157.924 379.208V379.509L156.669 380.212V376.9C156.717 376.9 156.766 376.875 156.814 376.849C156.862 376.824 156.91 376.799 156.959 376.799L171.441 368.066V381.417L168.255 383.123C167.483 382.32 166.228 382.42 165.552 383.223C164.779 384.026 164.876 385.331 165.648 386.034C166.421 386.837 167.676 386.736 168.352 385.934C168.641 385.532 168.834 385.03 168.834 384.528V384.227L171.441 382.922V386.435C171.441 386.636 171.345 386.837 171.152 386.937ZM168.255 377.703C167.869 377.703 167.579 378.004 167.579 378.405C167.579 378.807 167.869 379.108 168.255 379.108C168.641 379.108 168.931 378.807 168.931 378.405C168.931 378.004 168.641 377.703 168.255 377.703ZM159.083 379.108C159.083 378.706 159.372 378.405 159.759 378.405C160.145 378.405 160.434 378.706 160.434 379.108C160.434 379.509 160.145 379.811 159.759 379.811C159.469 379.811 159.179 379.509 159.083 379.108ZM166.903 385.231C167.29 385.231 167.579 384.93 167.579 384.528C167.579 384.026 167.29 383.826 166.903 383.826C166.517 383.826 166.228 384.127 166.228 384.528C166.228 384.93 166.517 385.231 166.903 385.231Z" fill="url(#paint0_linear)"/>
<path d="M121.721 240.995C122.446 240.995 123.308 241.013 123.667 241.05V237.075C115.875 236.558 108.203 239.326 102.291 244.789C95.976 238.938 87.5109 236.414 81.0171 237.2V240.922C81.384 240.894 81.9472 240.876 82.5872 240.876H82.6213L82.7323 240.867L82.8745 240.876C83.4122 240.871 83.9498 240.9 84.4844 240.961H84.5556C93.3193 242.095 100.189 246.456 104.964 254.337C104.017 255.974 103.224 257.373 102.268 259.137C101.73 258.195 100.254 255.297 99.6567 254.227C100.1 253.432 100.587 252.664 101.099 251.896C100.186 250.936 99.3325 250.067 98.445 249.162C97.805 250.013 97.293 250.68 96.7298 251.421C94.3405 249.683 92.0535 248.01 89.3399 247.133C86.655 246.181 83.8174 245.826 81 246.087V268.707H84.5413V250.046C88.1168 250.714 91.8885 252.131 94.8325 255.13C93.0835 259.419 92.1411 264.036 92.0592 268.716H95.7371C95.7019 265.151 96.3374 261.616 97.6059 258.32C98.5553 260.237 99.3269 262.249 99.9099 264.327C100.203 265.768 100.408 267.228 100.524 268.698H102.16V262.398H102.211C101.916 262.369 101.696 262.095 101.714 261.779C101.732 261.462 101.981 261.218 102.277 261.227C102.573 261.237 102.808 261.496 102.808 261.813C102.813 262.114 102.601 262.368 102.322 262.398H102.373V268.695H102.16L102.211 268.704H102.373V268.695H104.08C104.076 264.974 105.097 261.336 107.015 258.235C108.19 261.587 108.839 265.125 108.935 268.704H112.701C112.701 264.827 111.285 257.58 109.791 254.569C112.587 251.899 116.177 250.383 119.921 250.29C119.921 253.338 119.912 256.385 119.921 259.442C119.929 262.514 119.861 265.595 119.972 268.695H123.67V246.023C120.782 245.882 117.893 246.272 115.128 247.175C112.426 248.126 109.905 249.588 107.684 251.491C106.907 250.043 106.037 248.876 105.149 247.495C109.367 243.764 114.554 241.514 120.006 241.05C120.364 241.013 120.996 240.995 121.721 240.995Z" fill="url(#paint1_linear)"/>
<path d="M191.212 233.596C189.438 233.594 187.999 235.033 188 236.808V264.515C187.999 266.289 189.438 267.728 191.212 267.727H192.463C193.079 270.04 195.174 271.65 197.567 271.651C199.96 271.648 202.052 270.038 202.668 267.727H203.949H208.11C209.279 267.727 210.227 266.779 210.227 265.61V235.712L208.11 233.596H191.212Z" fill="#4285F4"/>
<path d="M207.052 233.594C207.049 238.278 207.05 242.961 207.05 247.648L202.65 245.161C202.015 244.803 201.23 245.26 201.229 245.989V256.736C201.23 257.465 202.015 257.922 202.65 257.564L207.05 255.077V265.023V265.61V267.727H209.167H209.544H219.083C220.767 267.727 222.131 266.362 222.131 264.679V236.633C222.126 234.954 220.763 233.596 219.083 233.596L207.052 233.594Z" fill="#C8D1DB"/>
<path opacity="0.8" d="M77.6396 295L74.7412 286.653H74.6865C74.764 287.893 74.8027 289.055 74.8027 290.14V295H73.3193V285.006H75.623L78.3984 292.956H78.4395L81.2969 285.006H83.6074V295H82.0352V290.058C82.0352 289.561 82.0465 288.914 82.0693 288.116C82.0967 287.319 82.1195 286.836 82.1377 286.667H82.083L79.082 295H77.6396ZM91.0988 295L90.7775 293.947H90.7229C90.3583 294.408 89.9914 294.722 89.6223 294.891C89.2531 295.055 88.7792 295.137 88.2004 295.137C87.4576 295.137 86.8765 294.936 86.4572 294.535C86.0425 294.134 85.8352 293.567 85.8352 292.833C85.8352 292.054 86.1245 291.466 86.7033 291.069C87.2821 290.673 88.1639 290.456 89.3488 290.42L90.6545 290.379V289.976C90.6545 289.493 90.5406 289.132 90.3127 288.896C90.0894 288.654 89.7408 288.533 89.2668 288.533C88.8794 288.533 88.508 288.59 88.1525 288.704C87.7971 288.818 87.4553 288.952 87.1271 289.107L86.6076 287.959C87.0178 287.745 87.4667 287.583 87.9543 287.474C88.4419 287.36 88.9022 287.303 89.3352 287.303C90.2967 287.303 91.0214 287.512 91.509 287.932C92.0012 288.351 92.2473 289.009 92.2473 289.907V295H91.0988ZM88.7063 293.906C89.2896 293.906 89.7567 293.744 90.1076 293.421C90.4631 293.093 90.6408 292.635 90.6408 292.047V291.391L89.6701 291.432C88.9136 291.459 88.3622 291.587 88.0158 291.814C87.674 292.038 87.5031 292.382 87.5031 292.847C87.5031 293.184 87.6034 293.446 87.8039 293.633C88.0044 293.815 88.3052 293.906 88.7063 293.906ZM98.6244 287.303C98.948 287.303 99.2146 287.326 99.4242 287.371L99.267 288.868C99.0391 288.813 98.8021 288.786 98.5561 288.786C97.9135 288.786 97.3917 288.996 96.9906 289.415C96.5941 289.834 96.3959 290.379 96.3959 291.049V295H94.7895V287.439H96.0473L96.2592 288.772H96.3412C96.5919 288.321 96.9177 287.964 97.3188 287.699C97.7243 287.435 98.1596 287.303 98.6244 287.303ZM102.739 295H101.132V284.363H102.739V295ZM112.049 291.206C112.049 292.441 111.732 293.405 111.098 294.098C110.465 294.79 109.583 295.137 108.453 295.137C107.747 295.137 107.122 294.977 106.58 294.658C106.038 294.339 105.621 293.881 105.329 293.284C105.037 292.687 104.891 291.994 104.891 291.206C104.891 289.98 105.206 289.023 105.835 288.335C106.464 287.647 107.35 287.303 108.494 287.303C109.588 287.303 110.454 287.656 111.092 288.362C111.73 289.064 112.049 290.012 112.049 291.206ZM106.546 291.206C106.546 292.951 107.191 293.824 108.48 293.824C109.756 293.824 110.394 292.951 110.394 291.206C110.394 289.479 109.752 288.615 108.467 288.615C107.792 288.615 107.302 288.839 106.997 289.285C106.696 289.732 106.546 290.372 106.546 291.206ZM120.401 295L119.424 291.473C119.305 291.099 119.091 290.231 118.781 288.868H118.72C118.455 290.099 118.246 290.971 118.091 291.486L117.086 295H115.309L113.189 287.439H114.83L115.794 291.165C116.013 292.086 116.168 292.874 116.259 293.53H116.3C116.345 293.198 116.414 292.817 116.505 292.389C116.601 291.956 116.683 291.632 116.751 291.418L117.899 287.439H119.663L120.777 291.418C120.846 291.641 120.93 291.983 121.03 292.443C121.135 292.904 121.197 293.261 121.215 293.517H121.27C121.338 292.956 121.497 292.172 121.748 291.165L122.726 287.439H124.339L122.206 295H120.401ZM129.246 295.137C128.071 295.137 127.15 294.795 126.485 294.111C125.824 293.423 125.493 292.478 125.493 291.274C125.493 290.039 125.801 289.069 126.416 288.362C127.031 287.656 127.877 287.303 128.952 287.303C129.95 287.303 130.739 287.606 131.318 288.212C131.896 288.818 132.186 289.652 132.186 290.714V291.582H127.148C127.17 292.316 127.369 292.881 127.742 293.277C128.116 293.669 128.642 293.865 129.321 293.865C129.768 293.865 130.183 293.824 130.566 293.742C130.953 293.656 131.368 293.514 131.81 293.318V294.624C131.418 294.811 131.021 294.943 130.62 295.021C130.219 295.098 129.761 295.137 129.246 295.137ZM128.952 288.52C128.442 288.52 128.032 288.681 127.722 289.005C127.417 289.328 127.234 289.8 127.175 290.42H130.607C130.598 289.796 130.447 289.324 130.155 289.005C129.864 288.681 129.463 288.52 128.952 288.52Z" fill="#333333"/>
<path opacity="0.8" d="M181.319 285.006H184.286C185.662 285.006 186.656 285.206 187.267 285.607C187.882 286.008 188.189 286.642 188.189 287.508C188.189 288.091 188.039 288.576 187.738 288.964C187.438 289.351 187.005 289.595 186.439 289.695V289.764C187.141 289.896 187.656 290.158 187.984 290.55C188.317 290.937 188.483 291.464 188.483 292.129C188.483 293.027 188.169 293.731 187.54 294.241C186.916 294.747 186.045 295 184.929 295H181.319V285.006ZM182.953 289.135H184.525C185.209 289.135 185.708 289.028 186.022 288.813C186.337 288.595 186.494 288.226 186.494 287.706C186.494 287.237 186.323 286.897 185.981 286.688C185.644 286.478 185.106 286.373 184.368 286.373H182.953V289.135ZM182.953 290.461V293.626H184.689C185.373 293.626 185.888 293.496 186.234 293.236C186.585 292.972 186.761 292.557 186.761 291.992C186.761 291.473 186.583 291.088 186.228 290.837C185.872 290.586 185.332 290.461 184.607 290.461H182.953ZM192.297 295H190.691V284.363H192.297V295ZM201.607 291.206C201.607 292.441 201.29 293.405 200.657 294.098C200.023 294.79 199.141 295.137 198.011 295.137C197.305 295.137 196.68 294.977 196.138 294.658C195.596 294.339 195.179 293.881 194.887 293.284C194.595 292.687 194.45 291.994 194.45 291.206C194.45 289.98 194.764 289.023 195.393 288.335C196.022 287.647 196.908 287.303 198.052 287.303C199.146 287.303 200.012 287.656 200.65 288.362C201.288 289.064 201.607 290.012 201.607 291.206ZM196.104 291.206C196.104 292.951 196.749 293.824 198.038 293.824C199.315 293.824 199.953 292.951 199.953 291.206C199.953 289.479 199.31 288.615 198.025 288.615C197.35 288.615 196.86 288.839 196.555 289.285C196.254 289.732 196.104 290.372 196.104 291.206ZM206.808 295.137C205.664 295.137 204.794 294.804 204.197 294.139C203.604 293.469 203.308 292.509 203.308 291.261C203.308 289.989 203.618 289.012 204.238 288.328C204.862 287.645 205.762 287.303 206.938 287.303C207.736 287.303 208.453 287.451 209.091 287.747L208.606 289.039C207.927 288.775 207.366 288.643 206.924 288.643C205.616 288.643 204.962 289.511 204.962 291.247C204.962 292.095 205.124 292.733 205.448 293.161C205.776 293.585 206.254 293.797 206.883 293.797C207.599 293.797 208.276 293.619 208.914 293.264V294.665C208.627 294.834 208.319 294.954 207.991 295.027C207.667 295.1 207.273 295.137 206.808 295.137ZM212.543 291.008L213.452 289.873L215.735 287.439H217.588L214.546 290.687L217.779 295H215.892L213.466 291.685L212.584 292.409V295H210.991V284.363H212.584V289.552L212.502 291.008H212.543ZM220.909 295H219.303V284.363H220.909V295ZM222.364 287.439H224.114L225.653 291.726C225.885 292.336 226.04 292.91 226.117 293.448H226.172C226.213 293.198 226.288 292.895 226.398 292.539C226.507 292.179 227.086 290.479 228.134 287.439H229.87L226.637 296.005C226.049 297.577 225.069 298.363 223.697 298.363C223.342 298.363 222.996 298.325 222.658 298.247V296.976C222.9 297.03 223.176 297.058 223.486 297.058C224.26 297.058 224.805 296.609 225.119 295.711L225.4 295L222.364 287.439Z" fill="#333333"/>
<g opacity="0.3">
<path d="M148 244H164" stroke="black" stroke-width="2"/>
<path d="M160 240L164 244L160 248" stroke="black" stroke-width="2"/>
<path d="M148 256H164" stroke="black" stroke-width="2"/>
<path d="M152 252L148 256L152 260" stroke="black" stroke-width="2"/>
</g>
<g clip-path="url(#clip1)">
<path d="M136 112H176V152H136V112Z" fill="#CDCDCD"/>
<path fill-rule="evenodd" clip-rule="evenodd" d="M162.87 143.252L159.81 145.024L159.809 145.024C160.91 147.199 163.166 148.864 166.656 148.864C170.227 148.864 172.885 147.011 172.885 143.628C172.885 140.487 171.086 139.091 167.891 137.721L166.951 137.318C165.34 136.62 164.642 136.164 164.642 135.036C164.642 134.123 165.34 133.425 166.441 133.425C167.515 133.425 168.213 133.881 168.858 135.036L171.785 133.156C170.55 130.981 168.831 130.149 166.442 130.149C163.085 130.149 160.937 132.297 160.937 135.116C160.937 138.177 162.736 139.627 165.448 140.782L166.388 141.185C168.106 141.936 169.126 142.393 169.126 143.682C169.126 144.756 168.133 145.534 166.576 145.534C164.723 145.534 163.676 144.568 162.87 143.252ZM149.578 143.574L146.517 145.427L146.517 145.427C147.403 147.306 149.149 148.863 152.156 148.863C155.486 148.863 157.768 147.091 157.768 143.198V130.364H154.009V143.145C154.009 145.024 153.23 145.507 151.995 145.507C150.706 145.507 150.169 144.621 149.578 143.574Z" fill="#646464"/>
<path opacity="0.8" d="M121.055 175.789C120.608 175.789 120.234 175.732 119.934 175.618V174.244C120.316 174.34 120.649 174.388 120.932 174.388C121.825 174.388 122.271 173.823 122.271 172.692V163.006H123.912V172.638C123.912 173.659 123.668 174.438 123.181 174.976C122.698 175.518 121.989 175.789 121.055 175.789ZM131.363 173L131.041 171.947H130.987C130.622 172.408 130.255 172.722 129.886 172.891C129.517 173.055 129.043 173.137 128.464 173.137C127.721 173.137 127.14 172.936 126.721 172.535C126.306 172.134 126.099 171.567 126.099 170.833C126.099 170.054 126.388 169.466 126.967 169.069C127.546 168.673 128.428 168.456 129.613 168.42L130.918 168.379V167.976C130.918 167.493 130.804 167.132 130.576 166.896C130.353 166.654 130.004 166.533 129.53 166.533C129.143 166.533 128.772 166.59 128.416 166.704C128.061 166.818 127.719 166.952 127.391 167.107L126.871 165.959C127.281 165.745 127.73 165.583 128.218 165.474C128.706 165.36 129.166 165.303 129.599 165.303C130.56 165.303 131.285 165.512 131.773 165.932C132.265 166.351 132.511 167.009 132.511 167.907V173H131.363ZM128.97 171.906C129.553 171.906 130.02 171.744 130.371 171.421C130.727 171.093 130.904 170.635 130.904 170.047V169.391L129.934 169.432C129.177 169.459 128.626 169.587 128.279 169.814C127.938 170.038 127.767 170.382 127.767 170.847C127.767 171.184 127.867 171.446 128.068 171.633C128.268 171.815 128.569 171.906 128.97 171.906ZM136.776 173L133.905 165.439H135.6L137.138 169.835C137.402 170.573 137.562 171.17 137.617 171.626H137.671C137.712 171.298 137.872 170.701 138.15 169.835L139.688 165.439H141.397L138.512 173H136.776ZM147.576 173L147.254 171.947H147.2C146.835 172.408 146.468 172.722 146.099 172.891C145.73 173.055 145.256 173.137 144.677 173.137C143.935 173.137 143.353 172.936 142.934 172.535C142.519 172.134 142.312 171.567 142.312 170.833C142.312 170.054 142.601 169.466 143.18 169.069C143.759 168.673 144.641 168.456 145.826 168.42L147.131 168.379V167.976C147.131 167.493 147.018 167.132 146.79 166.896C146.566 166.654 146.218 166.533 145.744 166.533C145.356 166.533 144.985 166.59 144.629 166.704C144.274 166.818 143.932 166.952 143.604 167.107L143.085 165.959C143.495 165.745 143.944 165.583 144.431 165.474C144.919 165.36 145.379 165.303 145.812 165.303C146.774 165.303 147.498 165.512 147.986 165.932C148.478 166.351 148.724 167.009 148.724 167.907V173H147.576ZM145.183 171.906C145.767 171.906 146.234 171.744 146.585 171.421C146.94 171.093 147.118 170.635 147.118 170.047V169.391L146.147 169.432C145.391 169.459 144.839 169.587 144.493 169.814C144.151 170.038 143.98 170.382 143.98 170.847C143.98 171.184 144.08 171.446 144.281 171.633C144.481 171.815 144.782 171.906 145.183 171.906ZM157.2 170.286C157.2 171.175 156.879 171.872 156.236 172.378C155.594 172.884 154.707 173.137 153.577 173.137C152.447 173.137 151.522 172.961 150.802 172.61V171.065C151.257 171.28 151.74 171.448 152.251 171.571C152.766 171.694 153.244 171.756 153.686 171.756C154.333 171.756 154.81 171.633 155.115 171.387C155.425 171.141 155.58 170.81 155.58 170.396C155.58 170.022 155.439 169.705 155.156 169.445C154.874 169.186 154.29 168.878 153.406 168.522C152.495 168.153 151.852 167.732 151.478 167.258C151.105 166.784 150.918 166.214 150.918 165.549C150.918 164.715 151.214 164.059 151.806 163.58C152.399 163.102 153.194 162.862 154.192 162.862C155.149 162.862 156.102 163.072 157.05 163.491L156.53 164.824C155.641 164.451 154.848 164.264 154.151 164.264C153.623 164.264 153.221 164.38 152.948 164.612C152.675 164.84 152.538 165.143 152.538 165.521C152.538 165.781 152.593 166.005 152.702 166.191C152.811 166.374 152.991 166.547 153.242 166.711C153.493 166.875 153.944 167.091 154.596 167.36C155.329 167.666 155.867 167.951 156.209 168.215C156.551 168.479 156.801 168.778 156.961 169.11C157.12 169.443 157.2 169.835 157.2 170.286ZM162.312 173.137C161.169 173.137 160.298 172.804 159.701 172.139C159.109 171.469 158.812 170.509 158.812 169.261C158.812 167.989 159.122 167.012 159.742 166.328C160.367 165.645 161.267 165.303 162.442 165.303C163.24 165.303 163.958 165.451 164.596 165.747L164.11 167.039C163.431 166.775 162.871 166.643 162.429 166.643C161.121 166.643 160.467 167.511 160.467 169.247C160.467 170.095 160.629 170.733 160.952 171.161C161.28 171.585 161.759 171.797 162.388 171.797C163.103 171.797 163.78 171.619 164.418 171.264V172.665C164.131 172.834 163.823 172.954 163.495 173.027C163.172 173.1 162.777 173.137 162.312 173.137ZM170.33 165.303C170.654 165.303 170.92 165.326 171.13 165.371L170.973 166.868C170.745 166.813 170.508 166.786 170.262 166.786C169.619 166.786 169.098 166.996 168.696 167.415C168.3 167.834 168.102 168.379 168.102 169.049V173H166.495V165.439H167.753L167.965 166.772H168.047C168.298 166.321 168.624 165.964 169.025 165.699C169.43 165.435 169.865 165.303 170.33 165.303ZM174.445 173H172.838V165.439H174.445V173ZM172.743 163.437C172.743 163.149 172.82 162.928 172.975 162.773C173.135 162.618 173.36 162.541 173.652 162.541C173.934 162.541 174.153 162.618 174.308 162.773C174.468 162.928 174.547 163.149 174.547 163.437C174.547 163.71 174.468 163.926 174.308 164.086C174.153 164.241 173.934 164.318 173.652 164.318C173.36 164.318 173.135 164.241 172.975 164.086C172.82 163.926 172.743 163.71 172.743 163.437ZM180.883 173.137C179.926 173.137 179.184 172.793 178.655 172.104H178.559C178.623 172.743 178.655 173.13 178.655 173.267V176.363H177.048V165.439H178.347C178.384 165.581 178.459 165.918 178.573 166.451H178.655C179.156 165.686 179.908 165.303 180.911 165.303C181.854 165.303 182.588 165.645 183.112 166.328C183.641 167.012 183.905 167.971 183.905 169.206C183.905 170.441 183.636 171.405 183.098 172.098C182.565 172.79 181.827 173.137 180.883 173.137ZM180.494 166.615C179.856 166.615 179.389 166.802 179.092 167.176C178.801 167.549 178.655 168.146 178.655 168.967V169.206C178.655 170.127 178.801 170.794 179.092 171.209C179.384 171.619 179.86 171.824 180.521 171.824C181.077 171.824 181.505 171.596 181.806 171.141C182.107 170.685 182.257 170.035 182.257 169.192C182.257 168.345 182.107 167.704 181.806 167.271C181.51 166.834 181.073 166.615 180.494 166.615ZM188.888 171.838C189.279 171.838 189.671 171.776 190.063 171.653V172.863C189.886 172.941 189.655 173.005 189.373 173.055C189.095 173.109 188.805 173.137 188.505 173.137C186.983 173.137 186.221 172.335 186.221 170.73V166.656H185.189V165.945L186.297 165.357L186.844 163.758H187.835V165.439H189.988V166.656H187.835V170.703C187.835 171.09 187.93 171.378 188.122 171.564C188.318 171.747 188.573 171.838 188.888 171.838Z" fill="#333333"/>
</g>
<path opacity="0.8" d="M129.082 417.286C129.082 418.175 128.761 418.872 128.118 419.378C127.476 419.884 126.589 420.137 125.459 420.137C124.329 420.137 123.404 419.961 122.684 419.61V418.065C123.139 418.28 123.622 418.448 124.133 418.571C124.648 418.694 125.126 418.756 125.568 418.756C126.215 418.756 126.692 418.633 126.997 418.387C127.307 418.141 127.462 417.81 127.462 417.396C127.462 417.022 127.321 416.705 127.038 416.445C126.756 416.186 126.172 415.878 125.288 415.522C124.377 415.153 123.734 414.732 123.36 414.258C122.987 413.784 122.8 413.214 122.8 412.549C122.8 411.715 123.096 411.059 123.688 410.58C124.281 410.102 125.076 409.862 126.074 409.862C127.031 409.862 127.984 410.072 128.932 410.491L128.412 411.824C127.523 411.451 126.73 411.264 126.033 411.264C125.505 411.264 125.104 411.38 124.83 411.612C124.557 411.84 124.42 412.143 124.42 412.521C124.42 412.781 124.475 413.005 124.584 413.191C124.693 413.374 124.873 413.547 125.124 413.711C125.375 413.875 125.826 414.091 126.478 414.36C127.211 414.666 127.749 414.951 128.091 415.215C128.433 415.479 128.683 415.778 128.843 416.11C129.002 416.443 129.082 416.835 129.082 417.286ZM132.752 420H131.146V412.439H132.752V420ZM131.05 410.437C131.05 410.149 131.127 409.928 131.282 409.773C131.442 409.618 131.668 409.541 131.959 409.541C132.242 409.541 132.46 409.618 132.615 409.773C132.775 409.928 132.855 410.149 132.855 410.437C132.855 410.71 132.775 410.926 132.615 411.086C132.46 411.241 132.242 411.318 131.959 411.318C131.668 411.318 131.442 411.241 131.282 411.086C131.127 410.926 131.05 410.71 131.05 410.437ZM141.727 420H140.114V415.338C140.114 414.759 140.004 414.328 139.786 414.046C139.567 413.759 139.225 413.615 138.76 413.615C138.14 413.615 137.685 413.818 137.393 414.224C137.106 414.625 136.962 415.295 136.962 416.233V420H135.356V412.439H136.614L136.839 413.431H136.921C137.131 413.071 137.434 412.793 137.83 412.597C138.232 412.401 138.671 412.303 139.15 412.303C140.312 412.303 141.082 412.699 141.46 413.492H141.57C141.793 413.118 142.107 412.827 142.513 412.617C142.919 412.408 143.384 412.303 143.908 412.303C144.81 412.303 145.466 412.531 145.876 412.986C146.291 413.442 146.498 414.137 146.498 415.071V420H144.892V415.338C144.892 414.759 144.78 414.328 144.557 414.046C144.338 413.759 143.996 413.615 143.532 413.615C142.907 413.615 142.449 413.811 142.158 414.203C141.871 414.59 141.727 415.188 141.727 415.994V420ZM154.373 420L154.147 419.009H154.065C153.842 419.36 153.523 419.635 153.108 419.836C152.698 420.036 152.228 420.137 151.7 420.137C150.784 420.137 150.1 419.909 149.649 419.453C149.198 418.997 148.972 418.307 148.972 417.382V412.439H150.592V417.102C150.592 417.68 150.711 418.116 150.948 418.407C151.185 418.694 151.556 418.838 152.062 418.838C152.737 418.838 153.231 418.637 153.546 418.236C153.865 417.831 154.024 417.154 154.024 416.206V412.439H155.637V420H154.373ZM159.834 420H158.227V409.363H159.834V420ZM167.168 420L166.847 418.947H166.792C166.427 419.408 166.061 419.722 165.691 419.891C165.322 420.055 164.848 420.137 164.27 420.137C163.527 420.137 162.946 419.936 162.526 419.535C162.112 419.134 161.904 418.567 161.904 417.833C161.904 417.054 162.194 416.466 162.772 416.069C163.351 415.673 164.233 415.456 165.418 415.42L166.724 415.379V414.976C166.724 414.493 166.61 414.132 166.382 413.896C166.159 413.654 165.81 413.533 165.336 413.533C164.949 413.533 164.577 413.59 164.222 413.704C163.866 413.818 163.524 413.952 163.196 414.107L162.677 412.959C163.087 412.745 163.536 412.583 164.023 412.474C164.511 412.36 164.971 412.303 165.404 412.303C166.366 412.303 167.09 412.512 167.578 412.932C168.07 413.351 168.316 414.009 168.316 414.907V420H167.168ZM164.775 418.906C165.359 418.906 165.826 418.744 166.177 418.421C166.532 418.093 166.71 417.635 166.71 417.047V416.391L165.739 416.432C164.983 416.459 164.431 416.587 164.085 416.814C163.743 417.038 163.572 417.382 163.572 417.847C163.572 418.184 163.673 418.446 163.873 418.633C164.074 418.815 164.374 418.906 164.775 418.906ZM173.675 418.838C174.067 418.838 174.459 418.776 174.851 418.653V419.863C174.673 419.941 174.443 420.005 174.16 420.055C173.882 420.109 173.593 420.137 173.292 420.137C171.77 420.137 171.009 419.335 171.009 417.73V413.656H169.977V412.945L171.084 412.357L171.631 410.758H172.622V412.439H174.776V413.656H172.622V417.703C172.622 418.09 172.718 418.378 172.909 418.564C173.105 418.747 173.361 418.838 173.675 418.838ZM183.374 416.206C183.374 417.441 183.058 418.405 182.424 419.098C181.791 419.79 180.909 420.137 179.779 420.137C179.072 420.137 178.448 419.977 177.906 419.658C177.363 419.339 176.946 418.881 176.655 418.284C176.363 417.687 176.217 416.994 176.217 416.206C176.217 414.98 176.532 414.023 177.161 413.335C177.789 412.647 178.676 412.303 179.82 412.303C180.913 412.303 181.779 412.656 182.417 413.362C183.055 414.064 183.374 415.012 183.374 416.206ZM177.871 416.206C177.871 417.951 178.516 418.824 179.806 418.824C181.082 418.824 181.72 417.951 181.72 416.206C181.72 414.479 181.078 413.615 179.792 413.615C179.118 413.615 178.628 413.839 178.323 414.285C178.022 414.732 177.871 415.372 177.871 416.206ZM189.362 412.303C189.685 412.303 189.952 412.326 190.162 412.371L190.004 413.868C189.777 413.813 189.54 413.786 189.294 413.786C188.651 413.786 188.129 413.996 187.728 414.415C187.332 414.834 187.133 415.379 187.133 416.049V420H185.527V412.439H186.785L186.997 413.772H187.079C187.329 413.321 187.655 412.964 188.056 412.699C188.462 412.435 188.897 412.303 189.362 412.303Z" fill="#333333"/>
<path d="M128.959 49.8418C128.959 52.166 128.376 53.9727 127.211 55.2617C126.052 56.5508 124.408 57.1953 122.279 57.1953C120.124 57.1953 118.467 56.5573 117.309 55.2812C116.156 53.9987 115.58 52.179 115.58 49.8223C115.58 47.4655 116.16 45.6556 117.318 44.3926C118.484 43.1296 120.144 42.498 122.299 42.498C124.421 42.498 126.062 43.1393 127.221 44.4219C128.38 45.7044 128.959 47.5111 128.959 49.8418ZM118.061 49.8418C118.061 51.5996 118.415 52.9342 119.125 53.8457C119.835 54.7507 120.886 55.2031 122.279 55.2031C123.666 55.2031 124.711 54.7539 125.414 53.8555C126.124 52.957 126.479 51.6191 126.479 49.8418C126.479 48.0905 126.127 46.7624 125.424 45.8574C124.727 44.9525 123.686 44.5 122.299 44.5C120.899 44.5 119.841 44.9525 119.125 45.8574C118.415 46.7624 118.061 48.0905 118.061 49.8418ZM137.26 57.1953C135.893 57.1953 134.831 56.7038 134.076 55.7207H133.939C134.031 56.6322 134.076 57.1855 134.076 57.3809V61.8047H131.781V46.1992H133.637C133.689 46.401 133.796 46.8828 133.959 47.6445H134.076C134.792 46.5508 135.867 46.0039 137.299 46.0039C138.646 46.0039 139.695 46.4922 140.443 47.4688C141.199 48.4453 141.576 49.8158 141.576 51.5801C141.576 53.3444 141.192 54.7214 140.424 55.7109C139.662 56.7005 138.607 57.1953 137.26 57.1953ZM136.703 47.8789C135.792 47.8789 135.124 48.1458 134.701 48.6797C134.285 49.2135 134.076 50.0664 134.076 51.2383V51.5801C134.076 52.8952 134.285 53.849 134.701 54.4414C135.118 55.0273 135.798 55.3203 136.742 55.3203C137.536 55.3203 138.148 54.9948 138.578 54.3438C139.008 53.6927 139.223 52.765 139.223 51.5605C139.223 50.3496 139.008 49.4349 138.578 48.8164C138.155 48.1914 137.53 47.8789 136.703 47.8789ZM148.266 55.3398C148.826 55.3398 149.385 55.252 149.945 55.0762V56.8047C149.691 56.9154 149.363 57.0065 148.959 57.0781C148.562 57.1562 148.148 57.1953 147.719 57.1953C145.544 57.1953 144.457 56.0495 144.457 53.7578V47.9375H142.982V46.9219L144.564 46.082L145.346 43.7969H146.762V46.1992H149.838V47.9375H146.762V53.7188C146.762 54.2721 146.898 54.6823 147.172 54.9492C147.452 55.2096 147.816 55.3398 148.266 55.3398ZM154.408 57H152.113V46.1992H154.408V57ZM151.977 43.3379C151.977 42.9277 152.087 42.612 152.309 42.3906C152.536 42.1693 152.859 42.0586 153.275 42.0586C153.679 42.0586 153.992 42.1693 154.213 42.3906C154.441 42.612 154.555 42.9277 154.555 43.3379C154.555 43.7285 154.441 44.0378 154.213 44.2656C153.992 44.487 153.679 44.5977 153.275 44.5977C152.859 44.5977 152.536 44.487 152.309 44.2656C152.087 44.0378 151.977 43.7285 151.977 43.3379ZM167.279 51.5801C167.279 53.3444 166.827 54.7214 165.922 55.7109C165.017 56.7005 163.757 57.1953 162.143 57.1953C161.133 57.1953 160.242 56.9674 159.467 56.5117C158.692 56.056 158.096 55.4017 157.68 54.5488C157.263 53.696 157.055 52.7064 157.055 51.5801C157.055 49.8288 157.504 48.4616 158.402 47.4785C159.301 46.4954 160.567 46.0039 162.201 46.0039C163.764 46.0039 165.001 46.5085 165.912 47.5176C166.824 48.5202 167.279 49.8743 167.279 51.5801ZM159.418 51.5801C159.418 54.0736 160.339 55.3203 162.182 55.3203C164.005 55.3203 164.916 54.0736 164.916 51.5801C164.916 49.1126 163.998 47.8789 162.162 47.8789C161.199 47.8789 160.499 48.1979 160.062 48.8359C159.633 49.474 159.418 50.3887 159.418 51.5801ZM179.428 57H177.123V50.3594C177.123 49.526 176.954 48.9043 176.615 48.4941C176.283 48.084 175.753 47.8789 175.023 47.8789C174.053 47.8789 173.344 48.1654 172.895 48.7383C172.445 49.3112 172.221 50.2715 172.221 51.6191V57H169.926V46.1992H171.723L172.045 47.6152H172.162C172.488 47.1009 172.95 46.7038 173.549 46.4238C174.148 46.1439 174.812 46.0039 175.541 46.0039C178.132 46.0039 179.428 47.3223 179.428 49.959V57ZM196.732 57H187.055V55.2617L190.736 51.5605C191.824 50.4473 192.543 49.6595 192.895 49.1973C193.253 48.7285 193.513 48.2891 193.676 47.8789C193.839 47.4688 193.92 47.0293 193.92 46.5605C193.92 45.916 193.725 45.4082 193.334 45.0371C192.95 44.666 192.416 44.4805 191.732 44.4805C191.186 44.4805 190.655 44.5814 190.141 44.7832C189.633 44.985 189.044 45.3496 188.373 45.877L187.133 44.3633C187.927 43.6927 188.699 43.2174 189.447 42.9375C190.196 42.6576 190.993 42.5176 191.84 42.5176C193.168 42.5176 194.232 42.8659 195.033 43.5625C195.834 44.2526 196.234 45.1836 196.234 46.3555C196.234 47 196.117 47.612 195.883 48.1914C195.655 48.7708 195.3 49.3698 194.818 49.9883C194.343 50.6003 193.549 51.4303 192.436 52.4785L189.955 54.8809V54.9785H196.732V57Z" fill="black"/>
<path d="M94.0361 79.9561C94.0361 80.6533 93.7764 81.1911 93.2568 81.5693C92.7373 81.9476 92.0081 82.1367 91.0693 82.1367C90.0758 82.1367 89.3011 81.9795 88.7451 81.665V80.6123C89.1051 80.7946 89.4902 80.9382 89.9004 81.043C90.3151 81.1478 90.7139 81.2002 91.0967 81.2002C91.6891 81.2002 92.1449 81.1068 92.4639 80.9199C92.7829 80.7285 92.9424 80.4391 92.9424 80.0518C92.9424 79.7601 92.8148 79.5117 92.5596 79.3066C92.3089 79.097 91.8167 78.8509 91.083 78.5684C90.3857 78.3086 89.889 78.083 89.5928 77.8916C89.3011 77.6956 89.0824 77.4746 88.9365 77.2285C88.7952 76.9824 88.7246 76.6885 88.7246 76.3467C88.7246 75.736 88.973 75.2552 89.4697 74.9043C89.9665 74.5488 90.6478 74.3711 91.5137 74.3711C92.3203 74.3711 93.1087 74.5352 93.8789 74.8633L93.4756 75.7861C92.7236 75.4762 92.0423 75.3213 91.4316 75.3213C90.8939 75.3213 90.4883 75.4056 90.2148 75.5742C89.9414 75.7428 89.8047 75.9753 89.8047 76.2715C89.8047 76.472 89.8548 76.6429 89.9551 76.7842C90.0599 76.9255 90.2262 77.0599 90.4541 77.1875C90.682 77.3151 91.1195 77.4997 91.7666 77.7412C92.6553 78.0648 93.2546 78.3906 93.5645 78.7188C93.8789 79.0469 94.0361 79.4593 94.0361 79.9561ZM98.6086 81.2002C98.8091 81.2002 99.0028 81.1865 99.1896 81.1592C99.3765 81.1273 99.5246 81.0954 99.634 81.0635V81.9316C99.5109 81.9909 99.3286 82.0387 99.0871 82.0752C98.8501 82.1162 98.6359 82.1367 98.4445 82.1367C96.9953 82.1367 96.2707 81.3734 96.2707 79.8467V75.3896H95.1975V74.8428L96.2707 74.3711L96.7492 72.7715H97.4055V74.5078H99.5793V75.3896H97.4055V79.7988C97.4055 80.25 97.5126 80.5964 97.7268 80.8379C97.941 81.0794 98.2349 81.2002 98.6086 81.2002ZM106.045 82L105.82 80.9336H105.765C105.391 81.403 105.018 81.722 104.644 81.8906C104.275 82.0547 103.812 82.1367 103.256 82.1367C102.513 82.1367 101.93 81.9453 101.506 81.5625C101.087 81.1797 100.877 80.6351 100.877 79.9287C100.877 78.4157 102.087 77.6227 104.507 77.5498L105.779 77.5088V77.0439C105.779 76.4561 105.651 76.0231 105.396 75.7451C105.145 75.4626 104.742 75.3213 104.186 75.3213C103.562 75.3213 102.855 75.5127 102.067 75.8955L101.718 75.0273C102.087 74.8268 102.491 74.6696 102.928 74.5557C103.37 74.4417 103.812 74.3848 104.254 74.3848C105.148 74.3848 105.808 74.583 106.237 74.9795C106.67 75.376 106.886 76.0117 106.886 76.8867V82H106.045ZM103.482 81.2002C104.188 81.2002 104.742 81.0065 105.143 80.6191C105.549 80.2318 105.751 79.6895 105.751 78.9922V78.3154L104.617 78.3633C103.714 78.3952 103.063 78.5365 102.662 78.7871C102.265 79.0332 102.067 79.4183 102.067 79.9424C102.067 80.3525 102.19 80.6647 102.436 80.8789C102.687 81.0931 103.035 81.2002 103.482 81.2002ZM112.949 74.3711C113.282 74.3711 113.58 74.3984 113.844 74.4531L113.687 75.5059C113.377 75.4375 113.104 75.4033 112.867 75.4033C112.261 75.4033 111.741 75.6494 111.308 76.1416C110.88 76.6338 110.666 77.2467 110.666 77.9805V82H109.531V74.5078H110.467L110.597 75.8955H110.652C110.93 75.4079 111.265 75.0319 111.657 74.7676C112.049 74.5033 112.479 74.3711 112.949 74.3711ZM117.966 81.2002C118.166 81.2002 118.36 81.1865 118.547 81.1592C118.734 81.1273 118.882 81.0954 118.991 81.0635V81.9316C118.868 81.9909 118.686 82.0387 118.444 82.0752C118.207 82.1162 117.993 82.1367 117.802 82.1367C116.352 82.1367 115.628 81.3734 115.628 79.8467V75.3896H114.554V74.8428L115.628 74.3711L116.106 72.7715H116.763V74.5078H118.936V75.3896H116.763V79.7988C116.763 80.25 116.87 80.5964 117.084 80.8379C117.298 81.0794 117.592 81.2002 117.966 81.2002ZM130.85 82L129.476 77.6045C129.389 77.3356 129.227 76.7249 128.99 75.7725H128.936C128.753 76.57 128.594 77.1852 128.457 77.6182L127.042 82H125.73L123.686 74.5078H124.875C125.358 76.39 125.725 77.8232 125.976 78.8076C126.231 79.792 126.377 80.4551 126.413 80.7969H126.468C126.518 80.5371 126.598 80.2021 126.707 79.792C126.821 79.3773 126.919 79.0492 127.001 78.8076L128.375 74.5078H129.606L130.946 78.8076C131.201 79.5915 131.374 80.25 131.465 80.7832H131.52C131.538 80.6191 131.586 80.3662 131.663 80.0244C131.745 79.6826 132.222 77.8438 133.092 74.5078H134.268L132.196 82H130.85ZM137.063 82H135.928V74.5078H137.063V82ZM135.832 72.4775C135.832 72.2178 135.896 72.0286 136.024 71.9102C136.151 71.7871 136.311 71.7256 136.502 71.7256C136.685 71.7256 136.842 71.7871 136.974 71.9102C137.106 72.0332 137.172 72.2223 137.172 72.4775C137.172 72.7327 137.106 72.9242 136.974 73.0518C136.842 73.1748 136.685 73.2363 136.502 73.2363C136.311 73.2363 136.151 73.1748 136.024 73.0518C135.896 72.9242 135.832 72.7327 135.832 72.4775ZM142.189 81.2002C142.39 81.2002 142.583 81.1865 142.77 81.1592C142.957 81.1273 143.105 81.0954 143.214 81.0635V81.9316C143.091 81.9909 142.909 82.0387 142.668 82.0752C142.431 82.1162 142.216 82.1367 142.025 82.1367C140.576 82.1367 139.851 81.3734 139.851 79.8467V75.3896H138.778V74.8428L139.851 74.3711L140.33 72.7715H140.986V74.5078H143.16V75.3896H140.986V79.7988C140.986 80.25 141.093 80.5964 141.307 80.8379C141.521 81.0794 141.815 81.2002 142.189 81.2002ZM150.145 82V77.1533C150.145 76.5426 150.006 76.0869 149.728 75.7861C149.45 75.4854 149.015 75.335 148.423 75.335C147.634 75.335 147.058 75.5492 146.693 75.9775C146.333 76.4059 146.153 77.1077 146.153 78.083V82H145.018V71.3633H146.153V74.583C146.153 74.9704 146.135 75.2917 146.098 75.5469H146.167C146.39 75.1868 146.707 74.9043 147.117 74.6992C147.532 74.4896 148.003 74.3848 148.532 74.3848C149.448 74.3848 150.134 74.6035 150.59 75.041C151.05 75.474 151.28 76.1644 151.28 77.1123V82H150.145ZM156.57 84.6318C156.141 84.6318 155.804 84.5703 155.558 84.4473V83.4561C155.881 83.5472 156.219 83.5928 156.57 83.5928C157.021 83.5928 157.363 83.4561 157.595 83.1826C157.832 82.9092 157.95 82.515 157.95 82V72.0059H159.113V81.9043C159.113 82.7702 158.894 83.4401 158.456 83.9141C158.019 84.3926 157.39 84.6318 156.57 84.6318ZM166.508 82L166.283 80.9336H166.228C165.854 81.403 165.481 81.722 165.107 81.8906C164.738 82.0547 164.275 82.1367 163.719 82.1367C162.976 82.1367 162.393 81.9453 161.969 81.5625C161.55 81.1797 161.34 80.6351 161.34 79.9287C161.34 78.4157 162.55 77.6227 164.97 77.5498L166.242 77.5088V77.0439C166.242 76.4561 166.114 76.0231 165.859 75.7451C165.608 75.4626 165.205 75.3213 164.649 75.3213C164.024 75.3213 163.318 75.5127 162.53 75.8955L162.181 75.0273C162.55 74.8268 162.954 74.6696 163.391 74.5557C163.833 74.4417 164.275 74.3848 164.717 74.3848C165.61 74.3848 166.271 74.583 166.7 74.9795C167.133 75.376 167.349 76.0117 167.349 76.8867V82H166.508ZM163.945 81.2002C164.651 81.2002 165.205 81.0065 165.606 80.6191C166.011 80.2318 166.214 79.6895 166.214 78.9922V78.3154L165.079 78.3633C164.177 78.3952 163.525 78.5365 163.124 78.7871C162.728 79.0332 162.53 79.4183 162.53 79.9424C162.53 80.3525 162.653 80.6647 162.899 80.8789C163.149 81.0931 163.498 81.2002 163.945 81.2002ZM171.634 82L168.791 74.5078H170.007L171.621 78.9512C171.985 79.9902 172.199 80.6647 172.263 80.9746H172.318C172.368 80.7331 172.525 80.234 172.79 79.4775C173.059 78.7165 173.658 77.0599 174.588 74.5078H175.804L172.961 82H171.634ZM181.915 82L181.689 80.9336H181.635C181.261 81.403 180.887 81.722 180.513 81.8906C180.144 82.0547 179.682 82.1367 179.126 82.1367C178.383 82.1367 177.8 81.9453 177.376 81.5625C176.957 81.1797 176.747 80.6351 176.747 79.9287C176.747 78.4157 177.957 77.6227 180.377 77.5498L181.648 77.5088V77.0439C181.648 76.4561 181.521 76.0231 181.265 75.7451C181.015 75.4626 180.611 75.3213 180.055 75.3213C179.431 75.3213 178.725 75.5127 177.936 75.8955L177.588 75.0273C177.957 74.8268 178.36 74.6696 178.798 74.5557C179.24 74.4417 179.682 74.3848 180.124 74.3848C181.017 74.3848 181.678 74.583 182.106 74.9795C182.539 75.376 182.756 76.0117 182.756 76.8867V82H181.915ZM179.351 81.2002C180.058 81.2002 180.611 81.0065 181.012 80.6191C181.418 80.2318 181.621 79.6895 181.621 78.9922V78.3154L180.486 78.3633C179.584 78.3952 178.932 78.5365 178.531 78.7871C178.135 79.0332 177.936 79.4183 177.936 79.9424C177.936 80.3525 178.059 80.6647 178.305 80.8789C178.556 81.0931 178.905 81.2002 179.351 81.2002ZM191.211 79.3408C191.211 80.2204 190.892 80.9062 190.254 81.3984C189.616 81.8906 188.75 82.1367 187.656 82.1367C186.471 82.1367 185.56 81.984 184.922 81.6787V80.5576C185.332 80.7308 185.779 80.8675 186.262 80.9678C186.745 81.068 187.223 81.1182 187.697 81.1182C188.472 81.1182 189.055 80.9723 189.447 80.6807C189.839 80.3844 190.035 79.9743 190.035 79.4502C190.035 79.1038 189.965 78.8213 189.823 78.6025C189.687 78.3792 189.454 78.1742 189.126 77.9873C188.802 77.8005 188.308 77.5885 187.643 77.3516C186.713 77.0189 186.048 76.6247 185.646 76.1689C185.25 75.7132 185.052 75.1185 185.052 74.3848C185.052 73.6146 185.341 73.0016 185.92 72.5459C186.499 72.0902 187.264 71.8623 188.217 71.8623C189.21 71.8623 190.124 72.0446 190.958 72.4092L190.596 73.4209C189.771 73.0745 188.969 72.9014 188.189 72.9014C187.574 72.9014 187.093 73.0335 186.747 73.2979C186.401 73.5622 186.228 73.929 186.228 74.3984C186.228 74.7448 186.291 75.0296 186.419 75.2529C186.547 75.4717 186.761 75.6745 187.062 75.8613C187.367 76.0436 187.832 76.2464 188.456 76.4697C189.504 76.8434 190.224 77.2445 190.616 77.6729C191.013 78.1012 191.211 78.6572 191.211 79.3408ZM196.378 82.1367C195.293 82.1367 194.453 81.804 193.856 81.1387C193.263 80.4688 192.967 79.5231 192.967 78.3018C192.967 77.0485 193.268 76.0801 193.869 75.3965C194.475 74.7129 195.337 74.3711 196.453 74.3711C196.813 74.3711 197.173 74.4098 197.533 74.4873C197.893 74.5648 198.176 74.6559 198.381 74.7607L198.032 75.7246C197.782 75.6243 197.508 75.5423 197.212 75.4785C196.916 75.4102 196.654 75.376 196.426 75.376C194.904 75.376 194.143 76.3467 194.143 78.2881C194.143 79.2087 194.327 79.915 194.696 80.4072C195.07 80.8994 195.622 81.1455 196.351 81.1455C196.975 81.1455 197.615 81.0111 198.272 80.7422V81.7471C197.77 82.0068 197.139 82.1367 196.378 82.1367ZM203.774 74.3711C204.107 74.3711 204.405 74.3984 204.669 74.4531L204.512 75.5059C204.202 75.4375 203.929 75.4033 203.692 75.4033C203.086 75.4033 202.566 75.6494 202.133 76.1416C201.705 76.6338 201.491 77.2467 201.491 77.9805V82H200.356V74.5078H201.292L201.422 75.8955H201.477C201.755 75.4079 202.09 75.0319 202.482 74.7676C202.874 74.5033 203.304 74.3711 203.774 74.3711ZM207.505 82H206.371V74.5078H207.505V82ZM206.275 72.4775C206.275 72.2178 206.339 72.0286 206.466 71.9102C206.594 71.7871 206.754 71.7256 206.945 71.7256C207.127 71.7256 207.284 71.7871 207.417 71.9102C207.549 72.0332 207.615 72.2223 207.615 72.4775C207.615 72.7327 207.549 72.9242 207.417 73.0518C207.284 73.1748 207.127 73.2363 206.945 73.2363C206.754 73.2363 206.594 73.1748 206.466 73.0518C206.339 72.9242 206.275 72.7327 206.275 72.4775ZM213.698 82.1367C213.21 82.1367 212.764 82.0479 212.358 81.8701C211.957 81.6878 211.62 81.4098 211.346 81.0361H211.264C211.319 81.4736 211.346 81.8883 211.346 82.2803V85.3633H210.212V74.5078H211.135L211.292 75.5332H211.346C211.638 75.123 211.978 74.8268 212.365 74.6445C212.752 74.4622 213.197 74.3711 213.698 74.3711C214.692 74.3711 215.457 74.7106 215.995 75.3896C216.537 76.0687 216.808 77.0212 216.808 78.2471C216.808 79.4775 216.533 80.4346 215.981 81.1182C215.434 81.7972 214.673 82.1367 213.698 82.1367ZM213.534 75.335C212.768 75.335 212.215 75.5469 211.873 75.9707C211.531 76.3945 211.356 77.069 211.346 77.9941V78.2471C211.346 79.2998 211.522 80.054 211.873 80.5098C212.224 80.9609 212.787 81.1865 213.561 81.1865C214.208 81.1865 214.714 80.9245 215.079 80.4004C215.448 79.8763 215.633 79.154 215.633 78.2334C215.633 77.2992 215.448 76.5837 215.079 76.0869C214.714 75.5856 214.199 75.335 213.534 75.335ZM221.518 81.2002C221.718 81.2002 221.912 81.1865 222.099 81.1592C222.285 81.1273 222.434 81.0954 222.543 81.0635V81.9316C222.42 81.9909 222.238 82.0387 221.996 82.0752C221.759 82.1162 221.545 82.1367 221.354 82.1367C219.904 82.1367 219.18 81.3734 219.18 79.8467V75.3896H218.106V74.8428L219.18 74.3711L219.658 72.7715H220.314V74.5078H222.488V75.3896H220.314V79.7988C220.314 80.25 220.422 80.5964 220.636 80.8379C220.85 81.0794 221.144 81.2002 221.518 81.2002Z" fill="#333333"/>
<path d="M156 189V205" stroke="black" stroke-width="2"/>
<path d="M150 199L156 205L162 199" stroke="black" stroke-width="2"/>
<path d="M156 327V343" stroke="black" stroke-width="2"/>
<path d="M150 337L156 343L162 337" stroke="black" stroke-width="2"/>
</g>
<defs>
<filter id="filter0_d" x="-27" y="-24" width="366" height="514" filterUnits="userSpaceOnUse" color-interpolation-filters="sRGB">
<feFlood flood-opacity="0" result="BackgroundImageFix"/>
<feColorMatrix in="SourceAlpha" type="matrix" values="0 0 0 0 0 0 0 0 0 0 0 0 0 0 0 0 0 0 127 0"/>
<feOffset dy="3"/>
<feGaussianBlur stdDeviation="13.5"/>
<feColorMatrix type="matrix" values="0 0 0 0 0 0 0 0 0 0 0 0 0 0 0 0 0 0 0.08 0"/>
<feBlend mode="normal" in2="BackgroundImageFix" result="effect1_dropShadow"/>
<feBlend mode="normal" in="SourceGraphic" in2="effect1_dropShadow" result="shape"/>
</filter>
<linearGradient id="paint0_linear" x1="121.924" y1="357.015" x2="121.924" y2="397.166" gradientUnits="userSpaceOnUse">
<stop stop-color="#832DC4"/>
<stop offset="1" stop-color="#1746A0"/>
</linearGradient>
<linearGradient id="paint1_linear" x1="59.6652" y1="237.014" x2="59.6652" y2="268.716" gradientUnits="userSpaceOnUse">
<stop offset="0.221" stop-color="#832DC4"/>
<stop offset="0.377" stop-color="#5E35B8"/>
<stop offset="0.543" stop-color="#3F3DAD"/>
<stop offset="0.704" stop-color="#2942A6"/>
<stop offset="0.857" stop-color="#1C45A2"/>
<stop offset="0.994" stop-color="#1746A0"/>
</linearGradient>
<clipPath id="clip0">
<rect width="312" height="460" fill="white"/>
</clipPath>
<clipPath id="clip1">
<rect width="70" height="65" fill="white" transform="translate(121 112)"/>
</clipPath>
</defs>
</svg>
