<svg width="312" height="460" viewBox="0 0 312 460" fill="none" xmlns="http://www.w3.org/2000/svg">
<g clip-path="url(#clip0)">
<g filter="url(#filter0_d)">
<rect width="312" height="460" rx="8" fill="white"/>
</g>
<rect opacity="0.04" x="36" y="166" width="240" height="98" rx="8" fill="black"/>
<path fill-rule="evenodd" clip-rule="evenodd" d="M156.862 306.226L171.828 314.959C172.407 315.36 172.793 316.063 172.793 316.765V335.335C172.793 336.038 172.407 336.64 171.828 337.041L156.862 345.774C156.186 346.075 155.51 346.075 154.931 345.774L139.966 337.041C139.386 336.74 139 336.038 139 335.335V316.665C139 315.962 139.386 315.26 140.062 314.959L154.931 306.226C155.607 305.925 156.283 305.925 156.862 306.226ZM167.193 313.754L165.648 312.851V314.858L167.193 313.754ZM160.434 309.94L163.428 311.646L160.434 313.252V309.94ZM157.152 315.159L159.083 314.055L159.179 310.341L153.29 313.654C152.903 313.854 152.421 313.854 152.034 313.654L151.359 313.353L146.724 316.364V319.375L150.007 321.282V319.074C150.007 318.673 150.2 318.171 150.586 317.97L155.221 314.959C155.607 314.657 156.09 314.657 156.476 314.858L157.152 315.159ZM151.359 319.074L155.993 316.063L156.669 316.364C157.055 316.565 157.538 316.565 157.924 316.364L164.393 312.55V315.561L161.11 317.769L160.434 317.468C160.048 317.267 159.566 317.267 159.179 317.568L154.545 320.58C154.159 320.78 153.966 321.282 153.966 321.684V323.39L151.359 321.885V319.074ZM155.51 324.394C155.703 324.494 155.993 324.494 156.186 324.394L168.255 317.267V314.557L161.786 318.873C161.4 319.174 160.917 319.174 160.531 318.974L159.855 318.673L155.221 321.684V324.193L155.51 324.394ZM169.51 315.159L170.766 315.862L169.51 316.665V315.159ZM156.186 307.43C155.993 307.33 155.703 307.33 155.51 307.43L140.931 315.962L145.469 318.572V316.364C145.469 315.962 145.662 315.46 146.048 315.26L150.683 312.248C151.069 311.947 151.552 311.947 151.938 312.148L152.614 312.449L158.793 308.936L156.186 307.43ZM140.641 335.937C140.448 335.837 140.352 335.536 140.352 335.335V321.082L142.572 322.186C142.766 322.286 142.959 322.587 142.959 322.788V323.39C141.993 323.792 141.414 324.896 141.8 326C142.186 327.004 143.248 327.606 144.31 327.205C145.276 326.803 145.855 325.699 145.469 324.595C145.276 323.992 144.89 323.591 144.31 323.39V322.788C144.31 321.985 143.924 321.282 143.248 320.981L140.255 319.576V317.066L154.931 325.598C155.028 325.699 155.124 325.699 155.221 325.699V333.026L149.717 329.915C149.524 329.814 149.428 329.513 149.428 329.312V328.008C150.393 327.706 150.972 326.502 150.586 325.498V325.398C150.2 324.394 149.138 323.792 148.076 324.193C147.11 324.595 146.531 325.699 146.917 326.803C147.11 327.405 147.497 327.807 148.076 328.008V329.312C148.076 330.015 148.462 330.718 149.138 331.019L155.221 334.432V340.956L149.717 337.844C149.524 337.744 149.428 337.443 149.428 337.242V334.733C149.428 334.03 149.041 333.327 148.462 333.026L146.145 331.721V331.42C146.145 330.316 145.276 329.413 144.214 329.413C143.152 329.413 142.283 330.316 142.283 331.42C142.283 332.524 143.152 333.428 144.214 333.428C144.697 333.428 145.179 333.227 145.566 332.926L147.883 334.331C148.076 334.432 148.172 334.733 148.172 334.934V337.443C148.172 338.146 148.559 338.848 149.234 339.149L155.317 342.562V344.369L140.641 335.937ZM143.538 326.1C143.924 326.1 144.214 325.799 144.214 325.398C144.117 324.996 143.828 324.695 143.538 324.695C143.152 324.695 142.862 324.996 142.862 325.398C142.862 325.799 143.152 326.1 143.538 326.1ZM148.076 326.1C148.076 325.699 148.366 325.398 148.752 325.398C149.138 325.398 149.428 325.699 149.428 326.1C149.428 326.502 149.138 326.803 148.752 326.803C148.366 326.803 148.076 326.502 148.076 326.1ZM144.117 332.123C144.503 332.123 144.793 331.822 144.793 331.42C144.793 331.019 144.503 330.718 144.117 330.718C143.731 330.718 143.441 331.019 143.441 331.42C143.441 331.822 143.731 332.123 144.117 332.123ZM171.152 335.937L156.572 344.469V338.647L162.655 335.235C163.331 334.934 163.717 334.231 163.717 333.528V331.119C163.717 330.818 163.91 330.617 164.103 330.517L167 329.011C167.772 329.814 169.028 329.714 169.703 328.911C170.476 328.108 170.379 326.803 169.607 326.1C168.834 325.297 167.579 325.398 166.903 326.201C166.517 326.502 166.324 327.004 166.324 327.506V327.807L163.428 329.312C162.752 329.614 162.366 330.316 162.366 331.119V333.528C162.366 333.729 162.269 334.03 162.076 334.13L156.572 337.142V330.617L158.503 329.614C159.276 330.417 160.531 330.316 161.207 329.513C161.979 328.71 161.883 327.405 161.11 326.703C160.338 325.9 159.083 326 158.407 326.803C158.117 327.204 157.924 327.706 157.924 328.208V328.509L156.669 329.212V325.9C156.717 325.9 156.766 325.875 156.814 325.849C156.862 325.824 156.91 325.799 156.959 325.799L171.441 317.066V330.417L168.255 332.123C167.483 331.32 166.228 331.42 165.552 332.223C164.779 333.026 164.876 334.331 165.648 335.034C166.421 335.837 167.676 335.736 168.352 334.934C168.641 334.532 168.834 334.03 168.834 333.528V333.227L171.441 331.922V335.435C171.441 335.636 171.345 335.837 171.152 335.937ZM168.255 326.703C167.869 326.703 167.579 327.004 167.579 327.405C167.579 327.807 167.869 328.108 168.255 328.108C168.641 328.108 168.931 327.807 168.931 327.405C168.931 327.004 168.641 326.703 168.255 326.703ZM159.083 328.108C159.083 327.706 159.372 327.405 159.759 327.405C160.145 327.405 160.434 327.706 160.434 328.108C160.434 328.509 160.145 328.811 159.759 328.811C159.469 328.811 159.179 328.509 159.083 328.108ZM166.903 334.231C167.29 334.231 167.579 333.93 167.579 333.528C167.579 333.026 167.29 332.826 166.903 332.826C166.517 332.826 166.228 333.127 166.228 333.528C166.228 333.93 166.517 334.231 166.903 334.231Z" fill="url(#paint0_linear)"/>
<path d="M121.721 189.995C122.446 189.995 123.308 190.013 123.667 190.05V186.075C115.875 185.558 108.203 188.326 102.291 193.789C95.976 187.938 87.5109 185.414 81.0171 186.2V189.922C81.384 189.894 81.9472 189.876 82.5872 189.876H82.6213L82.7323 189.867L82.8745 189.876C83.4122 189.871 83.9498 189.9 84.4844 189.961H84.5556C93.3193 191.095 100.189 195.456 104.964 203.337C104.017 204.974 103.224 206.373 102.268 208.137C101.73 207.195 100.254 204.297 99.6567 203.227C100.1 202.432 100.587 201.664 101.099 200.896C100.186 199.936 99.3325 199.067 98.445 198.162C97.805 199.013 97.293 199.68 96.7298 200.421C94.3405 198.683 92.0535 197.01 89.3399 196.133C86.655 195.181 83.8174 194.826 81 195.087V217.707H84.5413V199.046C88.1168 199.714 91.8885 201.131 94.8325 204.13C93.0835 208.419 92.1411 213.036 92.0592 217.716H95.7371C95.7019 214.151 96.3374 210.616 97.6059 207.32C98.5553 209.237 99.3269 211.249 99.9099 213.327C100.203 214.768 100.408 216.228 100.524 217.698H102.16V211.398H102.211C101.916 211.369 101.696 211.095 101.714 210.779C101.732 210.462 101.981 210.218 102.277 210.227C102.573 210.237 102.808 210.496 102.808 210.813C102.813 211.114 102.601 211.368 102.322 211.398H102.373V217.695H102.16L102.211 217.704H102.373V217.695H104.08C104.076 213.974 105.097 210.336 107.015 207.235C108.19 210.587 108.839 214.125 108.935 217.704H112.701C112.701 213.827 111.285 206.58 109.791 203.569C112.587 200.899 116.177 199.383 119.921 199.29C119.921 202.338 119.912 205.385 119.921 208.442C119.929 211.514 119.861 214.595 119.972 217.695H123.67V195.023C120.782 194.882 117.893 195.272 115.128 196.175C112.426 197.126 109.905 198.588 107.684 200.491C106.907 199.043 106.037 197.876 105.149 196.495C109.367 192.764 114.554 190.514 120.006 190.05C120.364 190.013 120.996 189.995 121.721 189.995Z" fill="url(#paint1_linear)"/>
<path d="M191.212 182.596C189.438 182.594 187.999 184.033 188 185.808V213.515C187.999 215.289 189.438 216.728 191.212 216.727H192.463C193.079 219.04 195.174 220.65 197.567 220.651C199.96 220.648 202.052 219.038 202.668 216.727H203.949H208.11C209.279 216.727 210.227 215.779 210.227 214.61V184.712L208.11 182.596H191.212Z" fill="#4285F4"/>
<path d="M207.052 182.594C207.049 187.278 207.05 191.961 207.05 196.648L202.65 194.161C202.015 193.803 201.23 194.26 201.229 194.989V205.736C201.23 206.465 202.015 206.922 202.65 206.564L207.05 204.077V214.023V214.61V216.727H209.167H209.544H219.083C220.767 216.727 222.131 215.362 222.131 213.679V185.633C222.126 183.954 220.763 182.596 219.083 182.596L207.052 182.594Z" fill="#C8D1DB"/>
<path opacity="0.8" d="M77.6396 244L74.7412 235.653H74.6865C74.764 236.893 74.8027 238.055 74.8027 239.14V244H73.3193V234.006H75.623L78.3984 241.956H78.4395L81.2969 234.006H83.6074V244H82.0352V239.058C82.0352 238.561 82.0465 237.914 82.0693 237.116C82.0967 236.319 82.1195 235.836 82.1377 235.667H82.083L79.082 244H77.6396ZM91.0988 244L90.7775 242.947H90.7229C90.3583 243.408 89.9914 243.722 89.6223 243.891C89.2531 244.055 88.7792 244.137 88.2004 244.137C87.4576 244.137 86.8765 243.936 86.4572 243.535C86.0425 243.134 85.8352 242.567 85.8352 241.833C85.8352 241.054 86.1245 240.466 86.7033 240.069C87.2821 239.673 88.1639 239.456 89.3488 239.42L90.6545 239.379V238.976C90.6545 238.493 90.5406 238.132 90.3127 237.896C90.0894 237.654 89.7408 237.533 89.2668 237.533C88.8794 237.533 88.508 237.59 88.1525 237.704C87.7971 237.818 87.4553 237.952 87.1271 238.107L86.6076 236.959C87.0178 236.745 87.4667 236.583 87.9543 236.474C88.4419 236.36 88.9022 236.303 89.3352 236.303C90.2967 236.303 91.0214 236.512 91.509 236.932C92.0012 237.351 92.2473 238.009 92.2473 238.907V244H91.0988ZM88.7063 242.906C89.2896 242.906 89.7567 242.744 90.1076 242.421C90.4631 242.093 90.6408 241.635 90.6408 241.047V240.391L89.6701 240.432C88.9136 240.459 88.3622 240.587 88.0158 240.814C87.674 241.038 87.5031 241.382 87.5031 241.847C87.5031 242.184 87.6034 242.446 87.8039 242.633C88.0044 242.815 88.3052 242.906 88.7063 242.906ZM98.6244 236.303C98.948 236.303 99.2146 236.326 99.4242 236.371L99.267 237.868C99.0391 237.813 98.8021 237.786 98.5561 237.786C97.9135 237.786 97.3917 237.996 96.9906 238.415C96.5941 238.834 96.3959 239.379 96.3959 240.049V244H94.7895V236.439H96.0473L96.2592 237.772H96.3412C96.5919 237.321 96.9177 236.964 97.3188 236.699C97.7243 236.435 98.1596 236.303 98.6244 236.303ZM102.739 244H101.132V233.363H102.739V244ZM112.049 240.206C112.049 241.441 111.732 242.405 111.098 243.098C110.465 243.79 109.583 244.137 108.453 244.137C107.747 244.137 107.122 243.977 106.58 243.658C106.038 243.339 105.621 242.881 105.329 242.284C105.037 241.687 104.891 240.994 104.891 240.206C104.891 238.98 105.206 238.023 105.835 237.335C106.464 236.647 107.35 236.303 108.494 236.303C109.588 236.303 110.454 236.656 111.092 237.362C111.73 238.064 112.049 239.012 112.049 240.206ZM106.546 240.206C106.546 241.951 107.191 242.824 108.48 242.824C109.756 242.824 110.394 241.951 110.394 240.206C110.394 238.479 109.752 237.615 108.467 237.615C107.792 237.615 107.302 237.839 106.997 238.285C106.696 238.732 106.546 239.372 106.546 240.206ZM120.401 244L119.424 240.473C119.305 240.099 119.091 239.231 118.781 237.868H118.72C118.455 239.099 118.246 239.971 118.091 240.486L117.086 244H115.309L113.189 236.439H114.83L115.794 240.165C116.013 241.086 116.168 241.874 116.259 242.53H116.3C116.345 242.198 116.414 241.817 116.505 241.389C116.601 240.956 116.683 240.632 116.751 240.418L117.899 236.439H119.663L120.777 240.418C120.846 240.641 120.93 240.983 121.03 241.443C121.135 241.904 121.197 242.261 121.215 242.517H121.27C121.338 241.956 121.497 241.172 121.748 240.165L122.726 236.439H124.339L122.206 244H120.401ZM129.246 244.137C128.071 244.137 127.15 243.795 126.485 243.111C125.824 242.423 125.493 241.478 125.493 240.274C125.493 239.039 125.801 238.069 126.416 237.362C127.031 236.656 127.877 236.303 128.952 236.303C129.95 236.303 130.739 236.606 131.318 237.212C131.896 237.818 132.186 238.652 132.186 239.714V240.582H127.148C127.17 241.316 127.369 241.881 127.742 242.277C128.116 242.669 128.642 242.865 129.321 242.865C129.768 242.865 130.183 242.824 130.566 242.742C130.953 242.656 131.368 242.514 131.81 242.318V243.624C131.418 243.811 131.021 243.943 130.62 244.021C130.219 244.098 129.761 244.137 129.246 244.137ZM128.952 237.52C128.442 237.52 128.032 237.681 127.722 238.005C127.417 238.328 127.234 238.8 127.175 239.42H130.607C130.598 238.796 130.447 238.324 130.155 238.005C129.864 237.681 129.463 237.52 128.952 237.52Z" fill="#333333"/>
<path opacity="0.8" d="M181.319 234.006H184.286C185.662 234.006 186.656 234.206 187.267 234.607C187.882 235.008 188.189 235.642 188.189 236.508C188.189 237.091 188.039 237.576 187.738 237.964C187.438 238.351 187.005 238.595 186.439 238.695V238.764C187.141 238.896 187.656 239.158 187.984 239.55C188.317 239.937 188.483 240.464 188.483 241.129C188.483 242.027 188.169 242.731 187.54 243.241C186.916 243.747 186.045 244 184.929 244H181.319V234.006ZM182.953 238.135H184.525C185.209 238.135 185.708 238.028 186.022 237.813C186.337 237.595 186.494 237.226 186.494 236.706C186.494 236.237 186.323 235.897 185.981 235.688C185.644 235.478 185.106 235.373 184.368 235.373H182.953V238.135ZM182.953 239.461V242.626H184.689C185.373 242.626 185.888 242.496 186.234 242.236C186.585 241.972 186.761 241.557 186.761 240.992C186.761 240.473 186.583 240.088 186.228 239.837C185.872 239.586 185.332 239.461 184.607 239.461H182.953ZM192.297 244H190.691V233.363H192.297V244ZM201.607 240.206C201.607 241.441 201.29 242.405 200.657 243.098C200.023 243.79 199.141 244.137 198.011 244.137C197.305 244.137 196.68 243.977 196.138 243.658C195.596 243.339 195.179 242.881 194.887 242.284C194.595 241.687 194.45 240.994 194.45 240.206C194.45 238.98 194.764 238.023 195.393 237.335C196.022 236.647 196.908 236.303 198.052 236.303C199.146 236.303 200.012 236.656 200.65 237.362C201.288 238.064 201.607 239.012 201.607 240.206ZM196.104 240.206C196.104 241.951 196.749 242.824 198.038 242.824C199.315 242.824 199.953 241.951 199.953 240.206C199.953 238.479 199.31 237.615 198.025 237.615C197.35 237.615 196.86 237.839 196.555 238.285C196.254 238.732 196.104 239.372 196.104 240.206ZM206.808 244.137C205.664 244.137 204.794 243.804 204.197 243.139C203.604 242.469 203.308 241.509 203.308 240.261C203.308 238.989 203.618 238.012 204.238 237.328C204.862 236.645 205.762 236.303 206.938 236.303C207.736 236.303 208.453 236.451 209.091 236.747L208.606 238.039C207.927 237.775 207.366 237.643 206.924 237.643C205.616 237.643 204.962 238.511 204.962 240.247C204.962 241.095 205.124 241.733 205.448 242.161C205.776 242.585 206.254 242.797 206.883 242.797C207.599 242.797 208.276 242.619 208.914 242.264V243.665C208.627 243.834 208.319 243.954 207.991 244.027C207.667 244.1 207.273 244.137 206.808 244.137ZM212.543 240.008L213.452 238.873L215.735 236.439H217.588L214.546 239.687L217.779 244H215.892L213.466 240.685L212.584 241.409V244H210.991V233.363H212.584V238.552L212.502 240.008H212.543ZM220.909 244H219.303V233.363H220.909V244ZM222.364 236.439H224.114L225.653 240.726C225.885 241.336 226.04 241.91 226.117 242.448H226.172C226.213 242.198 226.288 241.895 226.398 241.539C226.507 241.179 227.086 239.479 228.134 236.439H229.87L226.637 245.005C226.049 246.577 225.069 247.363 223.697 247.363C223.342 247.363 222.996 247.325 222.658 247.247V245.976C222.9 246.03 223.176 246.058 223.486 246.058C224.26 246.058 224.805 245.609 225.119 244.711L225.4 244L222.364 236.439Z" fill="#333333"/>
<g opacity="0.3">
<path d="M148 193H164" stroke="black" stroke-width="2"/>
<path d="M160 189L164 193L160 197" stroke="black" stroke-width="2"/>
<path d="M148 205H164" stroke="black" stroke-width="2"/>
<path d="M152 201L148 205L152 209" stroke="black" stroke-width="2"/>
</g>
<path opacity="0.8" d="M129.082 366.286C129.082 367.175 128.761 367.872 128.118 368.378C127.476 368.884 126.589 369.137 125.459 369.137C124.329 369.137 123.404 368.961 122.684 368.61V367.065C123.139 367.28 123.622 367.448 124.133 367.571C124.648 367.694 125.126 367.756 125.568 367.756C126.215 367.756 126.692 367.633 126.997 367.387C127.307 367.141 127.462 366.81 127.462 366.396C127.462 366.022 127.321 365.705 127.038 365.445C126.756 365.186 126.172 364.878 125.288 364.522C124.377 364.153 123.734 363.732 123.36 363.258C122.987 362.784 122.8 362.214 122.8 361.549C122.8 360.715 123.096 360.059 123.688 359.58C124.281 359.102 125.076 358.862 126.074 358.862C127.031 358.862 127.984 359.072 128.932 359.491L128.412 360.824C127.523 360.451 126.73 360.264 126.033 360.264C125.505 360.264 125.104 360.38 124.83 360.612C124.557 360.84 124.42 361.143 124.42 361.521C124.42 361.781 124.475 362.005 124.584 362.191C124.693 362.374 124.873 362.547 125.124 362.711C125.375 362.875 125.826 363.091 126.478 363.36C127.211 363.666 127.749 363.951 128.091 364.215C128.433 364.479 128.683 364.778 128.843 365.11C129.002 365.443 129.082 365.835 129.082 366.286ZM132.752 369H131.146V361.439H132.752V369ZM131.05 359.437C131.05 359.149 131.127 358.928 131.282 358.773C131.442 358.618 131.668 358.541 131.959 358.541C132.242 358.541 132.46 358.618 132.615 358.773C132.775 358.928 132.855 359.149 132.855 359.437C132.855 359.71 132.775 359.926 132.615 360.086C132.46 360.241 132.242 360.318 131.959 360.318C131.668 360.318 131.442 360.241 131.282 360.086C131.127 359.926 131.05 359.71 131.05 359.437ZM141.727 369H140.114V364.338C140.114 363.759 140.004 363.328 139.786 363.046C139.567 362.759 139.225 362.615 138.76 362.615C138.14 362.615 137.685 362.818 137.393 363.224C137.106 363.625 136.962 364.295 136.962 365.233V369H135.356V361.439H136.614L136.839 362.431H136.921C137.131 362.071 137.434 361.793 137.83 361.597C138.232 361.401 138.671 361.303 139.15 361.303C140.312 361.303 141.082 361.699 141.46 362.492H141.57C141.793 362.118 142.107 361.827 142.513 361.617C142.919 361.408 143.384 361.303 143.908 361.303C144.81 361.303 145.466 361.531 145.876 361.986C146.291 362.442 146.498 363.137 146.498 364.071V369H144.892V364.338C144.892 363.759 144.78 363.328 144.557 363.046C144.338 362.759 143.996 362.615 143.532 362.615C142.907 362.615 142.449 362.811 142.158 363.203C141.871 363.59 141.727 364.188 141.727 364.994V369ZM154.373 369L154.147 368.009H154.065C153.842 368.36 153.523 368.635 153.108 368.836C152.698 369.036 152.228 369.137 151.7 369.137C150.784 369.137 150.1 368.909 149.649 368.453C149.198 367.997 148.972 367.307 148.972 366.382V361.439H150.592V366.102C150.592 366.68 150.711 367.116 150.948 367.407C151.185 367.694 151.556 367.838 152.062 367.838C152.737 367.838 153.231 367.637 153.546 367.236C153.865 366.831 154.024 366.154 154.024 365.206V361.439H155.637V369H154.373ZM159.834 369H158.227V358.363H159.834V369ZM167.168 369L166.847 367.947H166.792C166.427 368.408 166.061 368.722 165.691 368.891C165.322 369.055 164.848 369.137 164.27 369.137C163.527 369.137 162.946 368.936 162.526 368.535C162.112 368.134 161.904 367.567 161.904 366.833C161.904 366.054 162.194 365.466 162.772 365.069C163.351 364.673 164.233 364.456 165.418 364.42L166.724 364.379V363.976C166.724 363.493 166.61 363.132 166.382 362.896C166.159 362.654 165.81 362.533 165.336 362.533C164.949 362.533 164.577 362.59 164.222 362.704C163.866 362.818 163.524 362.952 163.196 363.107L162.677 361.959C163.087 361.745 163.536 361.583 164.023 361.474C164.511 361.36 164.971 361.303 165.404 361.303C166.366 361.303 167.09 361.512 167.578 361.932C168.07 362.351 168.316 363.009 168.316 363.907V369H167.168ZM164.775 367.906C165.359 367.906 165.826 367.744 166.177 367.421C166.532 367.093 166.71 366.635 166.71 366.047V365.391L165.739 365.432C164.983 365.459 164.431 365.587 164.085 365.814C163.743 366.038 163.572 366.382 163.572 366.847C163.572 367.184 163.673 367.446 163.873 367.633C164.074 367.815 164.374 367.906 164.775 367.906ZM173.675 367.838C174.067 367.838 174.459 367.776 174.851 367.653V368.863C174.673 368.941 174.443 369.005 174.16 369.055C173.882 369.109 173.593 369.137 173.292 369.137C171.77 369.137 171.009 368.335 171.009 366.73V362.656H169.977V361.945L171.084 361.357L171.631 359.758H172.622V361.439H174.776V362.656H172.622V366.703C172.622 367.09 172.718 367.378 172.909 367.564C173.105 367.747 173.361 367.838 173.675 367.838ZM183.374 365.206C183.374 366.441 183.058 367.405 182.424 368.098C181.791 368.79 180.909 369.137 179.779 369.137C179.072 369.137 178.448 368.977 177.906 368.658C177.363 368.339 176.946 367.881 176.655 367.284C176.363 366.687 176.217 365.994 176.217 365.206C176.217 363.98 176.532 363.023 177.161 362.335C177.789 361.647 178.676 361.303 179.82 361.303C180.913 361.303 181.779 361.656 182.417 362.362C183.055 363.064 183.374 364.012 183.374 365.206ZM177.871 365.206C177.871 366.951 178.516 367.824 179.806 367.824C181.082 367.824 181.72 366.951 181.72 365.206C181.72 363.479 181.078 362.615 179.792 362.615C179.118 362.615 178.628 362.839 178.323 363.285C178.022 363.732 177.871 364.372 177.871 365.206ZM189.362 361.303C189.685 361.303 189.952 361.326 190.162 361.371L190.004 362.868C189.777 362.813 189.54 362.786 189.294 362.786C188.651 362.786 188.129 362.996 187.728 363.415C187.332 363.834 187.133 364.379 187.133 365.049V369H185.527V361.439H186.785L186.997 362.772H187.079C187.329 362.321 187.655 361.964 188.056 361.699C188.462 361.435 188.897 361.303 189.362 361.303Z" fill="#333333"/>
<path d="M156 276V292" stroke="black" stroke-width="2"/>
<path d="M150 286L156 292L162 286" stroke="black" stroke-width="2"/>
<path d="M128.959 49.8418C128.959 52.166 128.376 53.9727 127.211 55.2617C126.052 56.5508 124.408 57.1953 122.279 57.1953C120.124 57.1953 118.467 56.5573 117.309 55.2812C116.156 53.9987 115.58 52.179 115.58 49.8223C115.58 47.4655 116.16 45.6556 117.318 44.3926C118.484 43.1296 120.144 42.498 122.299 42.498C124.421 42.498 126.062 43.1393 127.221 44.4219C128.38 45.7044 128.959 47.5111 128.959 49.8418ZM118.061 49.8418C118.061 51.5996 118.415 52.9342 119.125 53.8457C119.835 54.7507 120.886 55.2031 122.279 55.2031C123.666 55.2031 124.711 54.7539 125.414 53.8555C126.124 52.957 126.479 51.6191 126.479 49.8418C126.479 48.0905 126.127 46.7624 125.424 45.8574C124.727 44.9525 123.686 44.5 122.299 44.5C120.899 44.5 119.841 44.9525 119.125 45.8574C118.415 46.7624 118.061 48.0905 118.061 49.8418ZM137.26 57.1953C135.893 57.1953 134.831 56.7038 134.076 55.7207H133.939C134.031 56.6322 134.076 57.1855 134.076 57.3809V61.8047H131.781V46.1992H133.637C133.689 46.401 133.796 46.8828 133.959 47.6445H134.076C134.792 46.5508 135.867 46.0039 137.299 46.0039C138.646 46.0039 139.695 46.4922 140.443 47.4688C141.199 48.4453 141.576 49.8158 141.576 51.5801C141.576 53.3444 141.192 54.7214 140.424 55.7109C139.662 56.7005 138.607 57.1953 137.26 57.1953ZM136.703 47.8789C135.792 47.8789 135.124 48.1458 134.701 48.6797C134.285 49.2135 134.076 50.0664 134.076 51.2383V51.5801C134.076 52.8952 134.285 53.849 134.701 54.4414C135.118 55.0273 135.798 55.3203 136.742 55.3203C137.536 55.3203 138.148 54.9948 138.578 54.3438C139.008 53.6927 139.223 52.765 139.223 51.5605C139.223 50.3496 139.008 49.4349 138.578 48.8164C138.155 48.1914 137.53 47.8789 136.703 47.8789ZM148.266 55.3398C148.826 55.3398 149.385 55.252 149.945 55.0762V56.8047C149.691 56.9154 149.363 57.0065 148.959 57.0781C148.562 57.1562 148.148 57.1953 147.719 57.1953C145.544 57.1953 144.457 56.0495 144.457 53.7578V47.9375H142.982V46.9219L144.564 46.082L145.346 43.7969H146.762V46.1992H149.838V47.9375H146.762V53.7188C146.762 54.2721 146.898 54.6823 147.172 54.9492C147.452 55.2096 147.816 55.3398 148.266 55.3398ZM154.408 57H152.113V46.1992H154.408V57ZM151.977 43.3379C151.977 42.9277 152.087 42.612 152.309 42.3906C152.536 42.1693 152.859 42.0586 153.275 42.0586C153.679 42.0586 153.992 42.1693 154.213 42.3906C154.441 42.612 154.555 42.9277 154.555 43.3379C154.555 43.7285 154.441 44.0378 154.213 44.2656C153.992 44.487 153.679 44.5977 153.275 44.5977C152.859 44.5977 152.536 44.487 152.309 44.2656C152.087 44.0378 151.977 43.7285 151.977 43.3379ZM167.279 51.5801C167.279 53.3444 166.827 54.7214 165.922 55.7109C165.017 56.7005 163.757 57.1953 162.143 57.1953C161.133 57.1953 160.242 56.9674 159.467 56.5117C158.692 56.056 158.096 55.4017 157.68 54.5488C157.263 53.696 157.055 52.7064 157.055 51.5801C157.055 49.8288 157.504 48.4616 158.402 47.4785C159.301 46.4954 160.567 46.0039 162.201 46.0039C163.764 46.0039 165.001 46.5085 165.912 47.5176C166.824 48.5202 167.279 49.8743 167.279 51.5801ZM159.418 51.5801C159.418 54.0736 160.339 55.3203 162.182 55.3203C164.005 55.3203 164.916 54.0736 164.916 51.5801C164.916 49.1126 163.998 47.8789 162.162 47.8789C161.199 47.8789 160.499 48.1979 160.062 48.8359C159.633 49.474 159.418 50.3887 159.418 51.5801ZM179.428 57H177.123V50.3594C177.123 49.526 176.954 48.9043 176.615 48.4941C176.283 48.084 175.753 47.8789 175.023 47.8789C174.053 47.8789 173.344 48.1654 172.895 48.7383C172.445 49.3112 172.221 50.2715 172.221 51.6191V57H169.926V46.1992H171.723L172.045 47.6152H172.162C172.488 47.1009 172.95 46.7038 173.549 46.4238C174.148 46.1439 174.812 46.0039 175.541 46.0039C178.132 46.0039 179.428 47.3223 179.428 49.959V57ZM196.195 46.0039C196.195 46.9089 195.932 47.6641 195.404 48.2695C194.877 48.8685 194.135 49.2721 193.178 49.4805V49.5586C194.324 49.7018 195.183 50.0599 195.756 50.6328C196.329 51.1992 196.615 51.9544 196.615 52.8984C196.615 54.2721 196.13 55.3333 195.16 56.082C194.19 56.8242 192.81 57.1953 191.02 57.1953C189.438 57.1953 188.103 56.9382 187.016 56.4238V54.3828C187.621 54.6823 188.262 54.9134 188.939 55.0762C189.617 55.2389 190.268 55.3203 190.893 55.3203C191.999 55.3203 192.826 55.1152 193.373 54.7051C193.92 54.2949 194.193 53.6602 194.193 52.8008C194.193 52.0391 193.891 51.4792 193.285 51.1211C192.68 50.763 191.729 50.584 190.434 50.584H189.193V48.7188H190.453C192.732 48.7188 193.871 47.931 193.871 46.3555C193.871 45.7435 193.673 45.2715 193.275 44.9395C192.878 44.6074 192.292 44.4414 191.518 44.4414C190.977 44.4414 190.456 44.5195 189.955 44.6758C189.454 44.8255 188.861 45.1217 188.178 45.5645L187.055 43.9629C188.363 42.9993 189.883 42.5176 191.615 42.5176C193.054 42.5176 194.177 42.8268 194.984 43.4453C195.792 44.0638 196.195 44.9167 196.195 46.0039Z" fill="black"/>
<path d="M63.0361 79.9561C63.0361 80.6533 62.7764 81.1911 62.2568 81.5693C61.7373 81.9476 61.0081 82.1367 60.0693 82.1367C59.0758 82.1367 58.3011 81.9795 57.7451 81.665V80.6123C58.1051 80.7946 58.4902 80.9382 58.9004 81.043C59.3151 81.1478 59.7139 81.2002 60.0967 81.2002C60.6891 81.2002 61.1449 81.1068 61.4639 80.9199C61.7829 80.7285 61.9424 80.4391 61.9424 80.0518C61.9424 79.7601 61.8148 79.5117 61.5596 79.3066C61.3089 79.097 60.8167 78.8509 60.083 78.5684C59.3857 78.3086 58.889 78.083 58.5928 77.8916C58.3011 77.6956 58.0824 77.4746 57.9365 77.2285C57.7952 76.9824 57.7246 76.6885 57.7246 76.3467C57.7246 75.736 57.973 75.2552 58.4697 74.9043C58.9665 74.5488 59.6478 74.3711 60.5137 74.3711C61.3203 74.3711 62.1087 74.5352 62.8789 74.8633L62.4756 75.7861C61.7236 75.4762 61.0423 75.3213 60.4316 75.3213C59.8939 75.3213 59.4883 75.4056 59.2148 75.5742C58.9414 75.7428 58.8047 75.9753 58.8047 76.2715C58.8047 76.472 58.8548 76.6429 58.9551 76.7842C59.0599 76.9255 59.2262 77.0599 59.4541 77.1875C59.682 77.3151 60.1195 77.4997 60.7666 77.7412C61.6553 78.0648 62.2546 78.3906 62.5645 78.7188C62.8789 79.0469 63.0361 79.4593 63.0361 79.9561ZM67.6086 81.2002C67.8091 81.2002 68.0028 81.1865 68.1896 81.1592C68.3765 81.1273 68.5246 81.0954 68.634 81.0635V81.9316C68.5109 81.9909 68.3286 82.0387 68.0871 82.0752C67.8501 82.1162 67.6359 82.1367 67.4445 82.1367C65.9953 82.1367 65.2707 81.3734 65.2707 79.8467V75.3896H64.1975V74.8428L65.2707 74.3711L65.7492 72.7715H66.4055V74.5078H68.5793V75.3896H66.4055V79.7988C66.4055 80.25 66.5126 80.5964 66.7268 80.8379C66.941 81.0794 67.2349 81.2002 67.6086 81.2002ZM75.0453 82L74.8197 80.9336H74.765C74.3913 81.403 74.0176 81.722 73.6439 81.8906C73.2748 82.0547 72.8122 82.1367 72.2563 82.1367C71.5134 82.1367 70.9301 81.9453 70.5063 81.5625C70.087 81.1797 69.8773 80.6351 69.8773 79.9287C69.8773 78.4157 71.0873 77.6227 73.5072 77.5498L74.7787 77.5088V77.0439C74.7787 76.4561 74.6511 76.0231 74.3959 75.7451C74.1452 75.4626 73.7419 75.3213 73.1859 75.3213C72.5616 75.3213 71.8552 75.5127 71.0668 75.8955L70.7182 75.0273C71.0873 74.8268 71.4906 74.6696 71.9281 74.5557C72.3702 74.4417 72.8122 74.3848 73.2543 74.3848C74.1475 74.3848 74.8083 74.583 75.2367 74.9795C75.6697 75.376 75.8861 76.0117 75.8861 76.8867V82H75.0453ZM72.4818 81.2002C73.1882 81.2002 73.7419 81.0065 74.143 80.6191C74.5486 80.2318 74.7514 79.6895 74.7514 78.9922V78.3154L73.6166 78.3633C72.7143 78.3952 72.0626 78.5365 71.6615 78.7871C71.265 79.0332 71.0668 79.4183 71.0668 79.9424C71.0668 80.3525 71.1898 80.6647 71.4359 80.8789C71.6866 81.0931 72.0352 81.2002 72.4818 81.2002ZM81.9488 74.3711C82.2815 74.3711 82.58 74.3984 82.8443 74.4531L82.6871 75.5059C82.3772 75.4375 82.1038 75.4033 81.8668 75.4033C81.2607 75.4033 80.7411 75.6494 80.3082 76.1416C79.8798 76.6338 79.6656 77.2467 79.6656 77.9805V82H78.5309V74.5078H79.4674L79.5973 75.8955H79.652C79.9299 75.4079 80.2649 75.0319 80.6568 74.7676C81.0488 74.5033 81.4794 74.3711 81.9488 74.3711ZM86.9656 81.2002C87.1661 81.2002 87.3598 81.1865 87.5467 81.1592C87.7335 81.1273 87.8816 81.0954 87.991 81.0635V81.9316C87.868 81.9909 87.6857 82.0387 87.4441 82.0752C87.2072 82.1162 86.993 82.1367 86.8016 82.1367C85.3523 82.1367 84.6277 81.3734 84.6277 79.8467V75.3896H83.5545V74.8428L84.6277 74.3711L85.1063 72.7715H85.7625V74.5078H87.9363V75.3896H85.7625V79.7988C85.7625 80.25 85.8696 80.5964 86.0838 80.8379C86.298 81.0794 86.5919 81.2002 86.9656 81.2002ZM99.8498 82L98.4758 77.6045C98.3892 77.3356 98.2274 76.7249 97.9904 75.7725H97.9357C97.7534 76.57 97.5939 77.1852 97.4572 77.6182L96.0422 82H94.7297L92.6857 74.5078H93.8752C94.3583 76.39 94.7251 77.8232 94.9758 78.8076C95.231 79.792 95.3768 80.4551 95.4133 80.7969H95.468C95.5181 80.5371 95.5979 80.2021 95.7072 79.792C95.8212 79.3773 95.9191 79.0492 96.0012 78.8076L97.3752 74.5078H98.6057L99.9455 78.8076C100.201 79.5915 100.374 80.25 100.465 80.7832H100.52C100.538 80.6191 100.586 80.3662 100.663 80.0244C100.745 79.6826 101.222 77.8438 102.092 74.5078H103.268L101.196 82H99.8498ZM106.063 82H104.928V74.5078H106.063V82ZM104.832 72.4775C104.832 72.2178 104.896 72.0286 105.024 71.9102C105.151 71.7871 105.311 71.7256 105.502 71.7256C105.685 71.7256 105.842 71.7871 105.974 71.9102C106.106 72.0332 106.172 72.2223 106.172 72.4775C106.172 72.7327 106.106 72.9242 105.974 73.0518C105.842 73.1748 105.685 73.2363 105.502 73.2363C105.311 73.2363 105.151 73.1748 105.024 73.0518C104.896 72.9242 104.832 72.7327 104.832 72.4775ZM111.189 81.2002C111.39 81.2002 111.583 81.1865 111.77 81.1592C111.957 81.1273 112.105 81.0954 112.214 81.0635V81.9316C112.091 81.9909 111.909 82.0387 111.668 82.0752C111.431 82.1162 111.216 82.1367 111.025 82.1367C109.576 82.1367 108.851 81.3734 108.851 79.8467V75.3896H107.778V74.8428L108.851 74.3711L109.33 72.7715H109.986V74.5078H112.16V75.3896H109.986V79.7988C109.986 80.25 110.093 80.5964 110.307 80.8379C110.521 81.0794 110.815 81.2002 111.189 81.2002ZM119.145 82V77.1533C119.145 76.5426 119.006 76.0869 118.728 75.7861C118.45 75.4854 118.015 75.335 117.423 75.335C116.634 75.335 116.058 75.5492 115.693 75.9775C115.333 76.4059 115.153 77.1077 115.153 78.083V82H114.018V71.3633H115.153V74.583C115.153 74.9704 115.135 75.2917 115.098 75.5469H115.167C115.39 75.1868 115.707 74.9043 116.117 74.6992C116.532 74.4896 117.003 74.3848 117.532 74.3848C118.448 74.3848 119.134 74.6035 119.59 75.041C120.05 75.474 120.28 76.1644 120.28 77.1123V82H119.145ZM131.448 82L128.058 73.1406H128.003C128.067 73.8424 128.099 74.6764 128.099 75.6426V82H127.026V72.0059H128.776L131.941 80.25H131.995L135.188 72.0059H136.924V82H135.762V75.5605C135.762 74.8223 135.794 74.0202 135.858 73.1543H135.803L132.385 82H131.448ZM144.409 82L144.183 80.9336H144.128C143.755 81.403 143.381 81.722 143.007 81.8906C142.638 82.0547 142.176 82.1367 141.62 82.1367C140.877 82.1367 140.293 81.9453 139.87 81.5625C139.45 81.1797 139.241 80.6351 139.241 79.9287C139.241 78.4157 140.451 77.6227 142.871 77.5498L144.142 77.5088V77.0439C144.142 76.4561 144.014 76.0231 143.759 75.7451C143.509 75.4626 143.105 75.3213 142.549 75.3213C141.925 75.3213 141.218 75.5127 140.43 75.8955L140.081 75.0273C140.451 74.8268 140.854 74.6696 141.291 74.5557C141.733 74.4417 142.176 74.3848 142.618 74.3848C143.511 74.3848 144.172 74.583 144.6 74.9795C145.033 75.376 145.249 76.0117 145.249 76.8867V82H144.409ZM141.845 81.2002C142.551 81.2002 143.105 81.0065 143.506 80.6191C143.912 80.2318 144.115 79.6895 144.115 78.9922V78.3154L142.98 78.3633C142.078 78.3952 141.426 78.5365 141.025 78.7871C140.628 79.0332 140.43 79.4183 140.43 79.9424C140.43 80.3525 140.553 80.6647 140.799 80.8789C141.05 81.0931 141.399 81.2002 141.845 81.2002ZM151.312 74.3711C151.645 74.3711 151.943 74.3984 152.208 74.4531L152.05 75.5059C151.74 75.4375 151.467 75.4033 151.23 75.4033C150.624 75.4033 150.104 75.6494 149.671 76.1416C149.243 76.6338 149.029 77.2467 149.029 77.9805V82H147.894V74.5078H148.831L148.961 75.8955H149.015C149.293 75.4079 149.628 75.0319 150.02 74.7676C150.412 74.5033 150.843 74.3711 151.312 74.3711ZM155.044 82H153.909V71.3633H155.044V82ZM164.217 78.2471C164.217 79.4684 163.909 80.4232 163.294 81.1113C162.679 81.7949 161.829 82.1367 160.744 82.1367C160.074 82.1367 159.479 81.9795 158.96 81.665C158.44 81.3506 158.039 80.8994 157.757 80.3115C157.474 79.7236 157.333 79.0355 157.333 78.2471C157.333 77.0257 157.638 76.0755 158.249 75.3965C158.86 74.7129 159.707 74.3711 160.792 74.3711C161.84 74.3711 162.672 74.7197 163.287 75.417C163.907 76.1143 164.217 77.0576 164.217 78.2471ZM158.509 78.2471C158.509 79.2041 158.7 79.9333 159.083 80.4346C159.466 80.9359 160.029 81.1865 160.771 81.1865C161.514 81.1865 162.077 80.9382 162.46 80.4414C162.847 79.9401 163.041 79.2087 163.041 78.2471C163.041 77.2946 162.847 76.5723 162.46 76.0801C162.077 75.5833 161.51 75.335 160.758 75.335C160.015 75.335 159.454 75.5788 159.076 76.0664C158.698 76.554 158.509 77.2809 158.509 78.2471ZM172.631 82L171.257 77.6045C171.17 77.3356 171.009 76.7249 170.772 75.7725H170.717C170.535 76.57 170.375 77.1852 170.238 77.6182L168.823 82H167.511L165.467 74.5078H166.656C167.14 76.39 167.506 77.8232 167.757 78.8076C168.012 79.792 168.158 80.4551 168.195 80.7969H168.249C168.299 80.5371 168.379 80.2021 168.488 79.792C168.602 79.3773 168.7 79.0492 168.782 78.8076L170.156 74.5078H171.387L172.727 78.8076C172.982 79.5915 173.155 80.25 173.246 80.7832H173.301C173.319 80.6191 173.367 80.3662 173.445 80.0244C173.527 79.6826 174.003 77.8438 174.873 74.5078H176.049L173.978 82H172.631ZM180.874 82.1367C179.767 82.1367 178.892 81.7995 178.249 81.125C177.611 80.4505 177.292 79.514 177.292 78.3154C177.292 77.1077 177.589 76.1484 178.181 75.4375C178.778 74.7266 179.578 74.3711 180.58 74.3711C181.519 74.3711 182.262 74.681 182.809 75.3008C183.356 75.916 183.629 76.7295 183.629 77.7412V78.459H178.468C178.491 79.3385 178.712 80.0062 179.131 80.4619C179.555 80.9176 180.15 81.1455 180.915 81.1455C181.722 81.1455 182.52 80.9769 183.308 80.6396V81.6514C182.907 81.8245 182.526 81.9476 182.166 82.0205C181.811 82.098 181.38 82.1367 180.874 82.1367ZM180.567 75.3213C179.965 75.3213 179.484 75.5173 179.124 75.9092C178.769 76.3011 178.559 76.8434 178.496 77.5361H182.412C182.412 76.8206 182.253 76.2738 181.934 75.8955C181.615 75.5127 181.159 75.3213 180.567 75.3213ZM196.274 78.2471C196.274 79.4684 195.967 80.4232 195.351 81.1113C194.736 81.7949 193.886 82.1367 192.802 82.1367C192.132 82.1367 191.537 81.9795 191.017 81.665C190.498 81.3506 190.097 80.8994 189.814 80.3115C189.532 79.7236 189.39 79.0355 189.39 78.2471C189.39 77.0257 189.696 76.0755 190.306 75.3965C190.917 74.7129 191.765 74.3711 192.849 74.3711C193.898 74.3711 194.729 74.7197 195.345 75.417C195.964 76.1143 196.274 77.0576 196.274 78.2471ZM190.566 78.2471C190.566 79.2041 190.758 79.9333 191.14 80.4346C191.523 80.9359 192.086 81.1865 192.829 81.1865C193.572 81.1865 194.135 80.9382 194.517 80.4414C194.905 79.9401 195.098 79.2087 195.098 78.2471C195.098 77.2946 194.905 76.5723 194.517 76.0801C194.135 75.5833 193.567 75.335 192.815 75.335C192.072 75.335 191.512 75.5788 191.134 76.0664C190.755 76.554 190.566 77.2809 190.566 78.2471ZM201.988 74.3711C202.321 74.3711 202.619 74.3984 202.884 74.4531L202.727 75.5059C202.417 75.4375 202.143 75.4033 201.906 75.4033C201.3 75.4033 200.781 75.6494 200.348 76.1416C199.919 76.6338 199.705 77.2467 199.705 77.9805V82H198.57V74.5078H199.507L199.637 75.8955H199.691C199.969 75.4079 200.304 75.0319 200.696 74.7676C201.088 74.5033 201.519 74.3711 201.988 74.3711ZM208.693 72.0059H211.516C212.842 72.0059 213.802 72.2041 214.394 72.6006C214.986 72.9971 215.283 73.6237 215.283 74.4805C215.283 75.0729 215.116 75.5628 214.784 75.9502C214.455 76.333 213.975 76.5814 213.341 76.6953V76.7637C214.859 77.0234 215.618 77.821 215.618 79.1562C215.618 80.0495 215.315 80.7467 214.708 81.248C214.107 81.7493 213.264 82 212.179 82H208.693V72.0059ZM209.855 76.2852H211.769C212.589 76.2852 213.179 76.1576 213.539 75.9023C213.899 75.6426 214.079 75.2074 214.079 74.5967C214.079 74.0361 213.879 73.6328 213.478 73.3867C213.077 73.1361 212.439 73.0107 211.564 73.0107H209.855V76.2852ZM209.855 77.2695V81.0088H211.94C212.746 81.0088 213.353 80.8538 213.758 80.5439C214.168 80.2295 214.373 79.7396 214.373 79.0742C214.373 78.4544 214.164 77.9987 213.745 77.707C213.33 77.4154 212.696 77.2695 211.844 77.2695H209.855ZM219.035 82H217.9V71.3633H219.035V82ZM228.208 78.2471C228.208 79.4684 227.9 80.4232 227.285 81.1113C226.67 81.7949 225.82 82.1367 224.735 82.1367C224.065 82.1367 223.471 81.9795 222.951 81.665C222.431 81.3506 222.03 80.8994 221.748 80.3115C221.465 79.7236 221.324 79.0355 221.324 78.2471C221.324 77.0257 221.629 76.0755 222.24 75.3965C222.851 74.7129 223.698 74.3711 224.783 74.3711C225.831 74.3711 226.663 74.7197 227.278 75.417C227.898 76.1143 228.208 77.0576 228.208 78.2471ZM222.5 78.2471C222.5 79.2041 222.691 79.9333 223.074 80.4346C223.457 80.9359 224.02 81.1865 224.762 81.1865C225.505 81.1865 226.068 80.9382 226.451 80.4414C226.838 79.9401 227.032 79.2087 227.032 78.2471C227.032 77.2946 226.838 76.5723 226.451 76.0801C226.068 75.5833 225.501 75.335 224.749 75.335C224.006 75.335 223.445 75.5788 223.067 76.0664C222.689 76.554 222.5 77.2809 222.5 78.2471ZM233.498 82.1367C232.413 82.1367 231.573 81.804 230.976 81.1387C230.383 80.4688 230.087 79.5231 230.087 78.3018C230.087 77.0485 230.388 76.0801 230.989 75.3965C231.595 74.7129 232.457 74.3711 233.573 74.3711C233.933 74.3711 234.293 74.4098 234.653 74.4873C235.013 74.5648 235.296 74.6559 235.501 74.7607L235.152 75.7246C234.902 75.6243 234.628 75.5423 234.332 75.4785C234.036 75.4102 233.774 75.376 233.546 75.376C232.024 75.376 231.263 76.3467 231.263 78.2881C231.263 79.2087 231.447 79.915 231.816 80.4072C232.19 80.8994 232.742 81.1455 233.471 81.1455C234.095 81.1455 234.735 81.0111 235.392 80.7422V81.7471C234.89 82.0068 234.259 82.1367 233.498 82.1367ZM238.597 78.165C238.793 77.887 239.091 77.5225 239.492 77.0713L241.912 74.5078H243.259L240.224 77.7002L243.471 82H242.097L239.451 78.459L238.597 79.1973V82H237.476V71.3633H238.597V77.0029C238.597 77.2536 238.579 77.641 238.542 78.165H238.597ZM246.266 82H245.131V71.3633H246.266V82ZM247.783 74.5078H249L250.64 78.7803C251 79.7555 251.224 80.4596 251.31 80.8926H251.365C251.424 80.6602 251.547 80.2637 251.734 79.7031C251.925 79.138 252.545 77.4062 253.593 74.5078H254.81L251.59 83.0391C251.271 83.8822 250.898 84.4792 250.469 84.8301C250.046 85.1855 249.524 85.3633 248.904 85.3633C248.558 85.3633 248.216 85.3245 247.879 85.2471V84.3379C248.129 84.3926 248.409 84.4199 248.719 84.4199C249.499 84.4199 250.055 83.9824 250.387 83.1074L250.804 82.041L247.783 74.5078Z" fill="#333333"/>
</g>
<defs>
<filter id="filter0_d" x="-27" y="-24" width="366" height="514" filterUnits="userSpaceOnUse" color-interpolation-filters="sRGB">
<feFlood flood-opacity="0" result="BackgroundImageFix"/>
<feColorMatrix in="SourceAlpha" type="matrix" values="0 0 0 0 0 0 0 0 0 0 0 0 0 0 0 0 0 0 127 0"/>
<feOffset dy="3"/>
<feGaussianBlur stdDeviation="13.5"/>
<feColorMatrix type="matrix" values="0 0 0 0 0 0 0 0 0 0 0 0 0 0 0 0 0 0 0.08 0"/>
<feBlend mode="normal" in2="BackgroundImageFix" result="effect1_dropShadow"/>
<feBlend mode="normal" in="SourceGraphic" in2="effect1_dropShadow" result="shape"/>
</filter>
<linearGradient id="paint0_linear" x1="121.924" y1="306.015" x2="121.924" y2="346.166" gradientUnits="userSpaceOnUse">
<stop stop-color="#832DC4"/>
<stop offset="1" stop-color="#1746A0"/>
</linearGradient>
<linearGradient id="paint1_linear" x1="59.6652" y1="186.014" x2="59.6652" y2="217.716" gradientUnits="userSpaceOnUse">
<stop offset="0.221" stop-color="#832DC4"/>
<stop offset="0.377" stop-color="#5E35B8"/>
<stop offset="0.543" stop-color="#3F3DAD"/>
<stop offset="0.704" stop-color="#2942A6"/>
<stop offset="0.857" stop-color="#1C45A2"/>
<stop offset="0.994" stop-color="#1746A0"/>
</linearGradient>
<clipPath id="clip0">
<rect width="312" height="460" fill="white"/>
</clipPath>
</defs>
</svg>
