<svg width="312" height="460" viewBox="0 0 312 460" fill="none" xmlns="http://www.w3.org/2000/svg">
<g clip-path="url(#clip0)">
<g filter="url(#filter0_d)">
<rect width="312" height="460" rx="8" fill="white"/>
</g>
<rect opacity="0.04" x="36" y="217" width="240" height="98" rx="8" fill="black"/>
<path fill-rule="evenodd" clip-rule="evenodd" d="M156.862 357.226L171.828 365.959C172.407 366.36 172.793 367.063 172.793 367.765V386.335C172.793 387.038 172.407 387.64 171.828 388.041L156.862 396.774C156.186 397.075 155.51 397.075 154.931 396.774L139.966 388.041C139.386 387.74 139 387.038 139 386.335V367.665C139 366.962 139.386 366.26 140.062 365.959L154.931 357.226C155.607 356.925 156.283 356.925 156.862 357.226ZM167.193 364.754L165.648 363.851V365.858L167.193 364.754ZM160.434 360.94L163.428 362.646L160.434 364.252V360.94ZM157.152 366.159L159.083 365.055L159.179 361.341L153.29 364.654C152.903 364.854 152.421 364.854 152.034 364.654L151.359 364.353L146.724 367.364V370.375L150.007 372.282V370.074C150.007 369.673 150.2 369.171 150.586 368.97L155.221 365.959C155.607 365.657 156.09 365.657 156.476 365.858L157.152 366.159ZM151.359 370.074L155.993 367.063L156.669 367.364C157.055 367.565 157.538 367.565 157.924 367.364L164.393 363.55V366.561L161.11 368.769L160.434 368.468C160.048 368.267 159.566 368.267 159.179 368.568L154.545 371.58C154.159 371.78 153.966 372.282 153.966 372.684V374.39L151.359 372.885V370.074ZM155.51 375.394C155.703 375.494 155.993 375.494 156.186 375.394L168.255 368.267V365.557L161.786 369.873C161.4 370.174 160.917 370.174 160.531 369.974L159.855 369.673L155.221 372.684V375.193L155.51 375.394ZM169.51 366.159L170.766 366.862L169.51 367.665V366.159ZM156.186 358.43C155.993 358.33 155.703 358.33 155.51 358.43L140.931 366.962L145.469 369.572V367.364C145.469 366.962 145.662 366.46 146.048 366.26L150.683 363.248C151.069 362.947 151.552 362.947 151.938 363.148L152.614 363.449L158.793 359.936L156.186 358.43ZM140.641 386.937C140.448 386.837 140.352 386.536 140.352 386.335V372.082L142.572 373.186C142.766 373.286 142.959 373.587 142.959 373.788V374.39C141.993 374.792 141.414 375.896 141.8 377C142.186 378.004 143.248 378.606 144.31 378.205C145.276 377.803 145.855 376.699 145.469 375.595C145.276 374.992 144.89 374.591 144.31 374.39V373.788C144.31 372.985 143.924 372.282 143.248 371.981L140.255 370.576V368.066L154.931 376.598C155.028 376.699 155.124 376.699 155.221 376.699V384.026L149.717 380.915C149.524 380.814 149.428 380.513 149.428 380.312V379.008C150.393 378.706 150.972 377.502 150.586 376.498V376.398C150.2 375.394 149.138 374.792 148.076 375.193C147.11 375.595 146.531 376.699 146.917 377.803C147.11 378.405 147.497 378.807 148.076 379.008V380.312C148.076 381.015 148.462 381.718 149.138 382.019L155.221 385.432V391.956L149.717 388.844C149.524 388.744 149.428 388.443 149.428 388.242V385.733C149.428 385.03 149.041 384.327 148.462 384.026L146.145 382.721V382.42C146.145 381.316 145.276 380.413 144.214 380.413C143.152 380.413 142.283 381.316 142.283 382.42C142.283 383.524 143.152 384.428 144.214 384.428C144.697 384.428 145.179 384.227 145.566 383.926L147.883 385.331C148.076 385.432 148.172 385.733 148.172 385.934V388.443C148.172 389.146 148.559 389.848 149.234 390.149L155.317 393.562V395.369L140.641 386.937ZM143.538 377.1C143.924 377.1 144.214 376.799 144.214 376.398C144.117 375.996 143.828 375.695 143.538 375.695C143.152 375.695 142.862 375.996 142.862 376.398C142.862 376.799 143.152 377.1 143.538 377.1ZM148.076 377.1C148.076 376.699 148.366 376.398 148.752 376.398C149.138 376.398 149.428 376.699 149.428 377.1C149.428 377.502 149.138 377.803 148.752 377.803C148.366 377.803 148.076 377.502 148.076 377.1ZM144.117 383.123C144.503 383.123 144.793 382.822 144.793 382.42C144.793 382.019 144.503 381.718 144.117 381.718C143.731 381.718 143.441 382.019 143.441 382.42C143.441 382.822 143.731 383.123 144.117 383.123ZM171.152 386.937L156.572 395.469V389.647L162.655 386.235C163.331 385.934 163.717 385.231 163.717 384.528V382.119C163.717 381.818 163.91 381.617 164.103 381.517L167 380.011C167.772 380.814 169.028 380.714 169.703 379.911C170.476 379.108 170.379 377.803 169.607 377.1C168.834 376.297 167.579 376.398 166.903 377.201C166.517 377.502 166.324 378.004 166.324 378.506V378.807L163.428 380.312C162.752 380.614 162.366 381.316 162.366 382.119V384.528C162.366 384.729 162.269 385.03 162.076 385.13L156.572 388.142V381.617L158.503 380.614C159.276 381.417 160.531 381.316 161.207 380.513C161.979 379.71 161.883 378.405 161.11 377.703C160.338 376.9 159.083 377 158.407 377.803C158.117 378.204 157.924 378.706 157.924 379.208V379.509L156.669 380.212V376.9C156.717 376.9 156.766 376.875 156.814 376.849C156.862 376.824 156.91 376.799 156.959 376.799L171.441 368.066V381.417L168.255 383.123C167.483 382.32 166.228 382.42 165.552 383.223C164.779 384.026 164.876 385.331 165.648 386.034C166.421 386.837 167.676 386.736 168.352 385.934C168.641 385.532 168.834 385.03 168.834 384.528V384.227L171.441 382.922V386.435C171.441 386.636 171.345 386.837 171.152 386.937ZM168.255 377.703C167.869 377.703 167.579 378.004 167.579 378.405C167.579 378.807 167.869 379.108 168.255 379.108C168.641 379.108 168.931 378.807 168.931 378.405C168.931 378.004 168.641 377.703 168.255 377.703ZM159.083 379.108C159.083 378.706 159.372 378.405 159.759 378.405C160.145 378.405 160.434 378.706 160.434 379.108C160.434 379.509 160.145 379.811 159.759 379.811C159.469 379.811 159.179 379.509 159.083 379.108ZM166.903 385.231C167.29 385.231 167.579 384.93 167.579 384.528C167.579 384.026 167.29 383.826 166.903 383.826C166.517 383.826 166.228 384.127 166.228 384.528C166.228 384.93 166.517 385.231 166.903 385.231Z" fill="url(#paint0_linear)"/>
<path opacity="0.8" d="M129.082 417.286C129.082 418.175 128.761 418.872 128.118 419.378C127.476 419.884 126.589 420.137 125.459 420.137C124.329 420.137 123.404 419.961 122.684 419.61V418.065C123.139 418.28 123.622 418.448 124.133 418.571C124.648 418.694 125.126 418.756 125.568 418.756C126.215 418.756 126.692 418.633 126.997 418.387C127.307 418.141 127.462 417.81 127.462 417.396C127.462 417.022 127.321 416.705 127.038 416.445C126.756 416.186 126.172 415.878 125.288 415.522C124.377 415.153 123.734 414.732 123.36 414.258C122.987 413.784 122.8 413.214 122.8 412.549C122.8 411.715 123.096 411.059 123.688 410.58C124.281 410.102 125.076 409.862 126.074 409.862C127.031 409.862 127.984 410.072 128.932 410.491L128.412 411.824C127.523 411.451 126.73 411.264 126.033 411.264C125.505 411.264 125.104 411.38 124.83 411.612C124.557 411.84 124.42 412.143 124.42 412.521C124.42 412.781 124.475 413.005 124.584 413.191C124.693 413.374 124.873 413.547 125.124 413.711C125.375 413.875 125.826 414.091 126.478 414.36C127.211 414.666 127.749 414.951 128.091 415.215C128.433 415.479 128.683 415.778 128.843 416.11C129.002 416.443 129.082 416.835 129.082 417.286ZM132.752 420H131.146V412.439H132.752V420ZM131.05 410.437C131.05 410.149 131.127 409.928 131.282 409.773C131.442 409.618 131.668 409.541 131.959 409.541C132.242 409.541 132.46 409.618 132.615 409.773C132.775 409.928 132.855 410.149 132.855 410.437C132.855 410.71 132.775 410.926 132.615 411.086C132.46 411.241 132.242 411.318 131.959 411.318C131.668 411.318 131.442 411.241 131.282 411.086C131.127 410.926 131.05 410.71 131.05 410.437ZM141.727 420H140.114V415.338C140.114 414.759 140.004 414.328 139.786 414.046C139.567 413.759 139.225 413.615 138.76 413.615C138.14 413.615 137.685 413.818 137.393 414.224C137.106 414.625 136.962 415.295 136.962 416.233V420H135.356V412.439H136.614L136.839 413.431H136.921C137.131 413.071 137.434 412.793 137.83 412.597C138.232 412.401 138.671 412.303 139.15 412.303C140.312 412.303 141.082 412.699 141.46 413.492H141.57C141.793 413.118 142.107 412.827 142.513 412.617C142.919 412.408 143.384 412.303 143.908 412.303C144.81 412.303 145.466 412.531 145.876 412.986C146.291 413.442 146.498 414.137 146.498 415.071V420H144.892V415.338C144.892 414.759 144.78 414.328 144.557 414.046C144.338 413.759 143.996 413.615 143.532 413.615C142.907 413.615 142.449 413.811 142.158 414.203C141.871 414.59 141.727 415.188 141.727 415.994V420ZM154.373 420L154.147 419.009H154.065C153.842 419.36 153.523 419.635 153.108 419.836C152.698 420.036 152.228 420.137 151.7 420.137C150.784 420.137 150.1 419.909 149.649 419.453C149.198 418.997 148.972 418.307 148.972 417.382V412.439H150.592V417.102C150.592 417.68 150.711 418.116 150.948 418.407C151.185 418.694 151.556 418.838 152.062 418.838C152.737 418.838 153.231 418.637 153.546 418.236C153.865 417.831 154.024 417.154 154.024 416.206V412.439H155.637V420H154.373ZM159.834 420H158.227V409.363H159.834V420ZM167.168 420L166.847 418.947H166.792C166.427 419.408 166.061 419.722 165.691 419.891C165.322 420.055 164.848 420.137 164.27 420.137C163.527 420.137 162.946 419.936 162.526 419.535C162.112 419.134 161.904 418.567 161.904 417.833C161.904 417.054 162.194 416.466 162.772 416.069C163.351 415.673 164.233 415.456 165.418 415.42L166.724 415.379V414.976C166.724 414.493 166.61 414.132 166.382 413.896C166.159 413.654 165.81 413.533 165.336 413.533C164.949 413.533 164.577 413.59 164.222 413.704C163.866 413.818 163.524 413.952 163.196 414.107L162.677 412.959C163.087 412.745 163.536 412.583 164.023 412.474C164.511 412.36 164.971 412.303 165.404 412.303C166.366 412.303 167.09 412.512 167.578 412.932C168.07 413.351 168.316 414.009 168.316 414.907V420H167.168ZM164.775 418.906C165.359 418.906 165.826 418.744 166.177 418.421C166.532 418.093 166.71 417.635 166.71 417.047V416.391L165.739 416.432C164.983 416.459 164.431 416.587 164.085 416.814C163.743 417.038 163.572 417.382 163.572 417.847C163.572 418.184 163.673 418.446 163.873 418.633C164.074 418.815 164.374 418.906 164.775 418.906ZM173.675 418.838C174.067 418.838 174.459 418.776 174.851 418.653V419.863C174.673 419.941 174.443 420.005 174.16 420.055C173.882 420.109 173.593 420.137 173.292 420.137C171.77 420.137 171.009 419.335 171.009 417.73V413.656H169.977V412.945L171.084 412.357L171.631 410.758H172.622V412.439H174.776V413.656H172.622V417.703C172.622 418.09 172.718 418.378 172.909 418.564C173.105 418.747 173.361 418.838 173.675 418.838ZM183.374 416.206C183.374 417.441 183.058 418.405 182.424 419.098C181.791 419.79 180.909 420.137 179.779 420.137C179.072 420.137 178.448 419.977 177.906 419.658C177.363 419.339 176.946 418.881 176.655 418.284C176.363 417.687 176.217 416.994 176.217 416.206C176.217 414.98 176.532 414.023 177.161 413.335C177.789 412.647 178.676 412.303 179.82 412.303C180.913 412.303 181.779 412.656 182.417 413.362C183.055 414.064 183.374 415.012 183.374 416.206ZM177.871 416.206C177.871 417.951 178.516 418.824 179.806 418.824C181.082 418.824 181.72 417.951 181.72 416.206C181.72 414.479 181.078 413.615 179.792 413.615C179.118 413.615 178.628 413.839 178.323 414.285C178.022 414.732 177.871 415.372 177.871 416.206ZM189.362 412.303C189.685 412.303 189.952 412.326 190.162 412.371L190.004 413.868C189.777 413.813 189.54 413.786 189.294 413.786C188.651 413.786 188.129 413.996 187.728 414.415C187.332 414.834 187.133 415.379 187.133 416.049V420H185.527V412.439H186.785L186.997 413.772H187.079C187.329 413.321 187.655 412.964 188.056 412.699C188.462 412.435 188.897 412.303 189.362 412.303Z" fill="#333333"/>
<path d="M121.721 240.995C122.446 240.995 123.308 241.013 123.667 241.05V237.075C115.875 236.558 108.203 239.326 102.291 244.789C95.976 238.938 87.5109 236.414 81.0171 237.2V240.922C81.384 240.894 81.9472 240.876 82.5872 240.876H82.6213L82.7323 240.867L82.8745 240.876C83.4122 240.871 83.9498 240.9 84.4844 240.961H84.5556C93.3193 242.095 100.189 246.456 104.964 254.337C104.017 255.974 103.224 257.373 102.268 259.137C101.73 258.195 100.254 255.297 99.6567 254.227C100.1 253.432 100.587 252.664 101.099 251.896C100.186 250.936 99.3325 250.067 98.445 249.162C97.805 250.013 97.293 250.68 96.7298 251.421C94.3405 249.683 92.0535 248.01 89.3399 247.133C86.655 246.181 83.8174 245.826 81 246.087V268.707H84.5413V250.046C88.1168 250.714 91.8885 252.131 94.8325 255.13C93.0835 259.419 92.1411 264.036 92.0592 268.716H95.7371C95.7019 265.151 96.3374 261.616 97.6059 258.32C98.5553 260.237 99.3269 262.249 99.9099 264.327C100.203 265.768 100.408 267.228 100.524 268.698H102.16V262.398H102.211C101.916 262.369 101.696 262.095 101.714 261.779C101.732 261.462 101.981 261.218 102.277 261.227C102.573 261.237 102.808 261.496 102.808 261.813C102.813 262.114 102.601 262.368 102.322 262.398H102.373V268.695H102.16L102.211 268.704H102.373V268.695H104.08C104.076 264.974 105.097 261.336 107.015 258.235C108.19 261.587 108.839 265.125 108.935 268.704H112.701C112.701 264.827 111.285 257.58 109.791 254.569C112.587 251.899 116.177 250.383 119.921 250.29C119.921 253.338 119.912 256.385 119.921 259.442C119.929 262.514 119.861 265.595 119.972 268.695H123.67V246.023C120.782 245.882 117.893 246.272 115.128 247.175C112.426 248.126 109.905 249.588 107.684 251.491C106.907 250.043 106.037 248.876 105.149 247.495C109.367 243.764 114.554 241.514 120.006 241.05C120.364 241.013 120.996 240.995 121.721 240.995Z" fill="url(#paint1_linear)"/>
<path d="M191.212 233.596C189.438 233.594 187.999 235.033 188 236.808V264.515C187.999 266.289 189.438 267.728 191.212 267.727H192.463C193.079 270.04 195.174 271.65 197.567 271.651C199.96 271.648 202.052 270.038 202.668 267.727H203.949H208.11C209.279 267.727 210.227 266.779 210.227 265.61V235.712L208.11 233.596H191.212Z" fill="#4285F4"/>
<path d="M207.052 233.594C207.049 238.278 207.05 242.961 207.05 247.648L202.65 245.161C202.015 244.803 201.23 245.26 201.229 245.989V256.736C201.23 257.465 202.015 257.922 202.65 257.564L207.05 255.077V265.023V265.61V267.727H209.167H209.544H219.083C220.767 267.727 222.131 266.362 222.131 264.679V236.633C222.126 234.954 220.763 233.596 219.083 233.596L207.052 233.594Z" fill="#C8D1DB"/>
<path opacity="0.8" d="M77.6396 295L74.7412 286.653H74.6865C74.764 287.893 74.8027 289.055 74.8027 290.14V295H73.3193V285.006H75.623L78.3984 292.956H78.4395L81.2969 285.006H83.6074V295H82.0352V290.058C82.0352 289.561 82.0465 288.914 82.0693 288.116C82.0967 287.319 82.1195 286.836 82.1377 286.667H82.083L79.082 295H77.6396ZM91.0988 295L90.7775 293.947H90.7229C90.3583 294.408 89.9914 294.722 89.6223 294.891C89.2531 295.055 88.7792 295.137 88.2004 295.137C87.4576 295.137 86.8765 294.936 86.4572 294.535C86.0425 294.134 85.8352 293.567 85.8352 292.833C85.8352 292.054 86.1245 291.466 86.7033 291.069C87.2821 290.673 88.1639 290.456 89.3488 290.42L90.6545 290.379V289.976C90.6545 289.493 90.5406 289.132 90.3127 288.896C90.0894 288.654 89.7408 288.533 89.2668 288.533C88.8794 288.533 88.508 288.59 88.1525 288.704C87.7971 288.818 87.4553 288.952 87.1271 289.107L86.6076 287.959C87.0178 287.745 87.4667 287.583 87.9543 287.474C88.4419 287.36 88.9022 287.303 89.3352 287.303C90.2967 287.303 91.0214 287.512 91.509 287.932C92.0012 288.351 92.2473 289.009 92.2473 289.907V295H91.0988ZM88.7063 293.906C89.2896 293.906 89.7567 293.744 90.1076 293.421C90.4631 293.093 90.6408 292.635 90.6408 292.047V291.391L89.6701 291.432C88.9136 291.459 88.3622 291.587 88.0158 291.814C87.674 292.038 87.5031 292.382 87.5031 292.847C87.5031 293.184 87.6034 293.446 87.8039 293.633C88.0044 293.815 88.3052 293.906 88.7063 293.906ZM98.6244 287.303C98.948 287.303 99.2146 287.326 99.4242 287.371L99.267 288.868C99.0391 288.813 98.8021 288.786 98.5561 288.786C97.9135 288.786 97.3917 288.996 96.9906 289.415C96.5941 289.834 96.3959 290.379 96.3959 291.049V295H94.7895V287.439H96.0473L96.2592 288.772H96.3412C96.5919 288.321 96.9177 287.964 97.3188 287.699C97.7243 287.435 98.1596 287.303 98.6244 287.303ZM102.739 295H101.132V284.363H102.739V295ZM112.049 291.206C112.049 292.441 111.732 293.405 111.098 294.098C110.465 294.79 109.583 295.137 108.453 295.137C107.747 295.137 107.122 294.977 106.58 294.658C106.038 294.339 105.621 293.881 105.329 293.284C105.037 292.687 104.891 291.994 104.891 291.206C104.891 289.98 105.206 289.023 105.835 288.335C106.464 287.647 107.35 287.303 108.494 287.303C109.588 287.303 110.454 287.656 111.092 288.362C111.73 289.064 112.049 290.012 112.049 291.206ZM106.546 291.206C106.546 292.951 107.191 293.824 108.48 293.824C109.756 293.824 110.394 292.951 110.394 291.206C110.394 289.479 109.752 288.615 108.467 288.615C107.792 288.615 107.302 288.839 106.997 289.285C106.696 289.732 106.546 290.372 106.546 291.206ZM120.401 295L119.424 291.473C119.305 291.099 119.091 290.231 118.781 288.868H118.72C118.455 290.099 118.246 290.971 118.091 291.486L117.086 295H115.309L113.189 287.439H114.83L115.794 291.165C116.013 292.086 116.168 292.874 116.259 293.53H116.3C116.345 293.198 116.414 292.817 116.505 292.389C116.601 291.956 116.683 291.632 116.751 291.418L117.899 287.439H119.663L120.777 291.418C120.846 291.641 120.93 291.983 121.03 292.443C121.135 292.904 121.197 293.261 121.215 293.517H121.27C121.338 292.956 121.497 292.172 121.748 291.165L122.726 287.439H124.339L122.206 295H120.401ZM129.246 295.137C128.071 295.137 127.15 294.795 126.485 294.111C125.824 293.423 125.493 292.478 125.493 291.274C125.493 290.039 125.801 289.069 126.416 288.362C127.031 287.656 127.877 287.303 128.952 287.303C129.95 287.303 130.739 287.606 131.318 288.212C131.896 288.818 132.186 289.652 132.186 290.714V291.582H127.148C127.17 292.316 127.369 292.881 127.742 293.277C128.116 293.669 128.642 293.865 129.321 293.865C129.768 293.865 130.183 293.824 130.566 293.742C130.953 293.656 131.368 293.514 131.81 293.318V294.624C131.418 294.811 131.021 294.943 130.62 295.021C130.219 295.098 129.761 295.137 129.246 295.137ZM128.952 288.52C128.442 288.52 128.032 288.681 127.722 289.005C127.417 289.328 127.234 289.8 127.175 290.42H130.607C130.598 289.796 130.447 289.324 130.155 289.005C129.864 288.681 129.463 288.52 128.952 288.52Z" fill="#333333"/>
<path opacity="0.8" d="M181.319 285.006H184.286C185.662 285.006 186.656 285.206 187.267 285.607C187.882 286.008 188.189 286.642 188.189 287.508C188.189 288.091 188.039 288.576 187.738 288.964C187.438 289.351 187.005 289.595 186.439 289.695V289.764C187.141 289.896 187.656 290.158 187.984 290.55C188.317 290.937 188.483 291.464 188.483 292.129C188.483 293.027 188.169 293.731 187.54 294.241C186.916 294.747 186.045 295 184.929 295H181.319V285.006ZM182.953 289.135H184.525C185.209 289.135 185.708 289.028 186.022 288.813C186.337 288.595 186.494 288.226 186.494 287.706C186.494 287.237 186.323 286.897 185.981 286.688C185.644 286.478 185.106 286.373 184.368 286.373H182.953V289.135ZM182.953 290.461V293.626H184.689C185.373 293.626 185.888 293.496 186.234 293.236C186.585 292.972 186.761 292.557 186.761 291.992C186.761 291.473 186.583 291.088 186.228 290.837C185.872 290.586 185.332 290.461 184.607 290.461H182.953ZM192.297 295H190.691V284.363H192.297V295ZM201.607 291.206C201.607 292.441 201.29 293.405 200.657 294.098C200.023 294.79 199.141 295.137 198.011 295.137C197.305 295.137 196.68 294.977 196.138 294.658C195.596 294.339 195.179 293.881 194.887 293.284C194.595 292.687 194.45 291.994 194.45 291.206C194.45 289.98 194.764 289.023 195.393 288.335C196.022 287.647 196.908 287.303 198.052 287.303C199.146 287.303 200.012 287.656 200.65 288.362C201.288 289.064 201.607 290.012 201.607 291.206ZM196.104 291.206C196.104 292.951 196.749 293.824 198.038 293.824C199.315 293.824 199.953 292.951 199.953 291.206C199.953 289.479 199.31 288.615 198.025 288.615C197.35 288.615 196.86 288.839 196.555 289.285C196.254 289.732 196.104 290.372 196.104 291.206ZM206.808 295.137C205.664 295.137 204.794 294.804 204.197 294.139C203.604 293.469 203.308 292.509 203.308 291.261C203.308 289.989 203.618 289.012 204.238 288.328C204.862 287.645 205.762 287.303 206.938 287.303C207.736 287.303 208.453 287.451 209.091 287.747L208.606 289.039C207.927 288.775 207.366 288.643 206.924 288.643C205.616 288.643 204.962 289.511 204.962 291.247C204.962 292.095 205.124 292.733 205.448 293.161C205.776 293.585 206.254 293.797 206.883 293.797C207.599 293.797 208.276 293.619 208.914 293.264V294.665C208.627 294.834 208.319 294.954 207.991 295.027C207.667 295.1 207.273 295.137 206.808 295.137ZM212.543 291.008L213.452 289.873L215.735 287.439H217.588L214.546 290.687L217.779 295H215.892L213.466 291.685L212.584 292.409V295H210.991V284.363H212.584V289.552L212.502 291.008H212.543ZM220.909 295H219.303V284.363H220.909V295ZM222.364 287.439H224.114L225.653 291.726C225.885 292.336 226.04 292.91 226.117 293.448H226.172C226.213 293.198 226.288 292.895 226.398 292.539C226.507 292.179 227.086 290.479 228.134 287.439H229.87L226.637 296.005C226.049 297.577 225.069 298.363 223.697 298.363C223.342 298.363 222.996 298.325 222.658 298.247V296.976C222.9 297.03 223.176 297.058 223.486 297.058C224.26 297.058 224.805 296.609 225.119 295.711L225.4 295L222.364 287.439Z" fill="#333333"/>
<g opacity="0.3">
<path d="M148 244H164" stroke="black" stroke-width="2"/>
<path d="M160 240L164 244L160 248" stroke="black" stroke-width="2"/>
<path d="M148 256H164" stroke="black" stroke-width="2"/>
<path d="M152 252L148 256L152 260" stroke="black" stroke-width="2"/>
</g>
<path d="M133 150L145 132L133 114H142L154 132L142 150" fill="#666666"/>
<path d="M174 139.5L170 133.5H184V139.5" fill="#666666"/>
<path d="M168 130.5L164 124.5H184V130.5" fill="#666666"/>
<path d="M145 150L157 132L145 114H154L178 150H169L161.5 138.75L154 150" fill="#999999"/>
<path opacity="0.8" d="M141.201 173H139.561V168.495H134.953V173H133.319V163.006H134.953V167.094H139.561V163.006H141.201V173ZM148.693 173L148.371 171.947H148.317C147.952 172.408 147.585 172.722 147.216 172.891C146.847 173.055 146.373 173.137 145.794 173.137C145.051 173.137 144.47 172.936 144.051 172.535C143.636 172.134 143.429 171.567 143.429 170.833C143.429 170.054 143.718 169.466 144.297 169.069C144.876 168.673 145.758 168.456 146.943 168.42L148.248 168.379V167.976C148.248 167.493 148.134 167.132 147.906 166.896C147.683 166.654 147.335 166.533 146.861 166.533C146.473 166.533 146.102 166.59 145.746 166.704C145.391 166.818 145.049 166.952 144.721 167.107L144.201 165.959C144.612 165.745 145.06 165.583 145.548 165.474C146.036 165.36 146.496 165.303 146.929 165.303C147.89 165.303 148.615 165.512 149.103 165.932C149.595 166.351 149.841 167.009 149.841 167.907V173H148.693ZM146.3 171.906C146.883 171.906 147.35 171.744 147.701 171.421C148.057 171.093 148.235 170.635 148.235 170.047V169.391L147.264 169.432C146.507 169.459 145.956 169.587 145.61 169.814C145.268 170.038 145.097 170.382 145.097 170.847C145.097 171.184 145.197 171.446 145.398 171.633C145.598 171.815 145.899 171.906 146.3 171.906ZM157.462 170.847C157.462 171.585 157.193 172.152 156.656 172.549C156.118 172.941 155.348 173.137 154.345 173.137C153.338 173.137 152.529 172.984 151.918 172.679V171.291C152.807 171.701 153.634 171.906 154.4 171.906C155.389 171.906 155.883 171.608 155.883 171.011C155.883 170.819 155.829 170.66 155.719 170.532C155.61 170.405 155.43 170.272 155.179 170.136C154.928 169.999 154.58 169.844 154.133 169.671C153.263 169.334 152.673 168.996 152.363 168.659C152.057 168.322 151.905 167.884 151.905 167.347C151.905 166.7 152.164 166.198 152.684 165.843C153.208 165.483 153.919 165.303 154.817 165.303C155.705 165.303 156.546 165.483 157.339 165.843L156.82 167.053C156.004 166.715 155.318 166.547 154.762 166.547C153.914 166.547 153.491 166.788 153.491 167.271C153.491 167.508 153.6 167.709 153.819 167.873C154.042 168.037 154.525 168.263 155.268 168.55C155.892 168.791 156.346 169.012 156.628 169.213C156.911 169.413 157.121 169.646 157.257 169.91C157.394 170.17 157.462 170.482 157.462 170.847ZM161.057 169.008L161.966 167.873L164.25 165.439H166.102L163.06 168.687L166.294 173H164.407L161.98 169.685L161.098 170.409V173H159.505V162.363H161.098V167.552L161.016 169.008H161.057ZM171.119 173.137C169.943 173.137 169.023 172.795 168.357 172.111C167.696 171.423 167.366 170.478 167.366 169.274C167.366 168.039 167.674 167.069 168.289 166.362C168.904 165.656 169.749 165.303 170.825 165.303C171.823 165.303 172.611 165.606 173.19 166.212C173.769 166.818 174.058 167.652 174.058 168.714V169.582H169.02C169.043 170.316 169.241 170.881 169.615 171.277C169.989 171.669 170.515 171.865 171.194 171.865C171.641 171.865 172.055 171.824 172.438 171.742C172.826 171.656 173.24 171.514 173.682 171.318V172.624C173.29 172.811 172.894 172.943 172.493 173.021C172.092 173.098 171.634 173.137 171.119 173.137ZM170.825 166.52C170.315 166.52 169.904 166.681 169.595 167.005C169.289 167.328 169.107 167.8 169.048 168.42H172.479C172.47 167.796 172.32 167.324 172.028 167.005C171.736 166.681 171.335 166.52 170.825 166.52ZM177.79 173H176.184V162.363H177.79V173ZM182 173H180.394V162.363H182V173Z" fill="#333333"/>
<path d="M156 189V205" stroke="black" stroke-width="2"/>
<path d="M150 199L156 205L162 199" stroke="black" stroke-width="2"/>
<path d="M156 327V343" stroke="black" stroke-width="2"/>
<path d="M150 337L156 343L162 337" stroke="black" stroke-width="2"/>
<path d="M130.959 49.8418C130.959 52.166 130.376 53.9727 129.211 55.2617C128.052 56.5508 126.408 57.1953 124.279 57.1953C122.124 57.1953 120.467 56.5573 119.309 55.2812C118.156 53.9987 117.58 52.179 117.58 49.8223C117.58 47.4655 118.16 45.6556 119.318 44.3926C120.484 43.1296 122.144 42.498 124.299 42.498C126.421 42.498 128.062 43.1393 129.221 44.4219C130.38 45.7044 130.959 47.5111 130.959 49.8418ZM120.061 49.8418C120.061 51.5996 120.415 52.9342 121.125 53.8457C121.835 54.7507 122.886 55.2031 124.279 55.2031C125.666 55.2031 126.711 54.7539 127.414 53.8555C128.124 52.957 128.479 51.6191 128.479 49.8418C128.479 48.0905 128.127 46.7624 127.424 45.8574C126.727 44.9525 125.686 44.5 124.299 44.5C122.899 44.5 121.841 44.9525 121.125 45.8574C120.415 46.7624 120.061 48.0905 120.061 49.8418ZM139.26 57.1953C137.893 57.1953 136.831 56.7038 136.076 55.7207H135.939C136.031 56.6322 136.076 57.1855 136.076 57.3809V61.8047H133.781V46.1992H135.637C135.689 46.401 135.796 46.8828 135.959 47.6445H136.076C136.792 46.5508 137.867 46.0039 139.299 46.0039C140.646 46.0039 141.695 46.4922 142.443 47.4688C143.199 48.4453 143.576 49.8158 143.576 51.5801C143.576 53.3444 143.192 54.7214 142.424 55.7109C141.662 56.7005 140.607 57.1953 139.26 57.1953ZM138.703 47.8789C137.792 47.8789 137.124 48.1458 136.701 48.6797C136.285 49.2135 136.076 50.0664 136.076 51.2383V51.5801C136.076 52.8952 136.285 53.849 136.701 54.4414C137.118 55.0273 137.798 55.3203 138.742 55.3203C139.536 55.3203 140.148 54.9948 140.578 54.3438C141.008 53.6927 141.223 52.765 141.223 51.5605C141.223 50.3496 141.008 49.4349 140.578 48.8164C140.155 48.1914 139.53 47.8789 138.703 47.8789ZM150.266 55.3398C150.826 55.3398 151.385 55.252 151.945 55.0762V56.8047C151.691 56.9154 151.363 57.0065 150.959 57.0781C150.562 57.1562 150.148 57.1953 149.719 57.1953C147.544 57.1953 146.457 56.0495 146.457 53.7578V47.9375H144.982V46.9219L146.564 46.082L147.346 43.7969H148.762V46.1992H151.838V47.9375H148.762V53.7188C148.762 54.2721 148.898 54.6823 149.172 54.9492C149.452 55.2096 149.816 55.3398 150.266 55.3398ZM156.408 57H154.113V46.1992H156.408V57ZM153.977 43.3379C153.977 42.9277 154.087 42.612 154.309 42.3906C154.536 42.1693 154.859 42.0586 155.275 42.0586C155.679 42.0586 155.992 42.1693 156.213 42.3906C156.441 42.612 156.555 42.9277 156.555 43.3379C156.555 43.7285 156.441 44.0378 156.213 44.2656C155.992 44.487 155.679 44.5977 155.275 44.5977C154.859 44.5977 154.536 44.487 154.309 44.2656C154.087 44.0378 153.977 43.7285 153.977 43.3379ZM169.279 51.5801C169.279 53.3444 168.827 54.7214 167.922 55.7109C167.017 56.7005 165.757 57.1953 164.143 57.1953C163.133 57.1953 162.242 56.9674 161.467 56.5117C160.692 56.056 160.096 55.4017 159.68 54.5488C159.263 53.696 159.055 52.7064 159.055 51.5801C159.055 49.8288 159.504 48.4616 160.402 47.4785C161.301 46.4954 162.567 46.0039 164.201 46.0039C165.764 46.0039 167.001 46.5085 167.912 47.5176C168.824 48.5202 169.279 49.8743 169.279 51.5801ZM161.418 51.5801C161.418 54.0736 162.339 55.3203 164.182 55.3203C166.005 55.3203 166.916 54.0736 166.916 51.5801C166.916 49.1126 165.998 47.8789 164.162 47.8789C163.199 47.8789 162.499 48.1979 162.062 48.8359C161.633 49.474 161.418 50.3887 161.418 51.5801ZM181.428 57H179.123V50.3594C179.123 49.526 178.954 48.9043 178.615 48.4941C178.283 48.084 177.753 47.8789 177.023 47.8789C176.053 47.8789 175.344 48.1654 174.895 48.7383C174.445 49.3112 174.221 50.2715 174.221 51.6191V57H171.926V46.1992H173.723L174.045 47.6152H174.162C174.488 47.1009 174.95 46.7038 175.549 46.4238C176.148 46.1439 176.812 46.0039 177.541 46.0039C180.132 46.0039 181.428 47.3223 181.428 49.959V57ZM195.793 57H193.498V47.7812C193.498 46.681 193.524 45.8086 193.576 45.1641C193.426 45.3203 193.241 45.4928 193.02 45.6816C192.805 45.8704 192.076 46.4694 190.832 47.4785L189.68 46.0234L193.879 42.7227H195.793V57Z" fill="black"/>
<path d="M105.036 79.9561C105.036 80.6533 104.776 81.1911 104.257 81.5693C103.737 81.9476 103.008 82.1367 102.069 82.1367C101.076 82.1367 100.301 81.9795 99.7451 81.665V80.6123C100.105 80.7946 100.49 80.9382 100.9 81.043C101.315 81.1478 101.714 81.2002 102.097 81.2002C102.689 81.2002 103.145 81.1068 103.464 80.9199C103.783 80.7285 103.942 80.4391 103.942 80.0518C103.942 79.7601 103.815 79.5117 103.56 79.3066C103.309 79.097 102.817 78.8509 102.083 78.5684C101.386 78.3086 100.889 78.083 100.593 77.8916C100.301 77.6956 100.082 77.4746 99.9365 77.2285C99.7952 76.9824 99.7246 76.6885 99.7246 76.3467C99.7246 75.736 99.973 75.2552 100.47 74.9043C100.966 74.5488 101.648 74.3711 102.514 74.3711C103.32 74.3711 104.109 74.5352 104.879 74.8633L104.476 75.7861C103.724 75.4762 103.042 75.3213 102.432 75.3213C101.894 75.3213 101.488 75.4056 101.215 75.5742C100.941 75.7428 100.805 75.9753 100.805 76.2715C100.805 76.472 100.855 76.6429 100.955 76.7842C101.06 76.9255 101.226 77.0599 101.454 77.1875C101.682 77.3151 102.119 77.4997 102.767 77.7412C103.655 78.0648 104.255 78.3906 104.564 78.7188C104.879 79.0469 105.036 79.4593 105.036 79.9561ZM109.609 81.2002C109.809 81.2002 110.003 81.1865 110.19 81.1592C110.376 81.1273 110.525 81.0954 110.634 81.0635V81.9316C110.511 81.9909 110.329 82.0387 110.087 82.0752C109.85 82.1162 109.636 82.1367 109.445 82.1367C107.995 82.1367 107.271 81.3734 107.271 79.8467V75.3896H106.197V74.8428L107.271 74.3711L107.749 72.7715H108.405V74.5078H110.579V75.3896H108.405V79.7988C108.405 80.25 108.513 80.5964 108.727 80.8379C108.941 81.0794 109.235 81.2002 109.609 81.2002ZM117.045 82L116.82 80.9336H116.765C116.391 81.403 116.018 81.722 115.644 81.8906C115.275 82.0547 114.812 82.1367 114.256 82.1367C113.513 82.1367 112.93 81.9453 112.506 81.5625C112.087 81.1797 111.877 80.6351 111.877 79.9287C111.877 78.4157 113.087 77.6227 115.507 77.5498L116.779 77.5088V77.0439C116.779 76.4561 116.651 76.0231 116.396 75.7451C116.145 75.4626 115.742 75.3213 115.186 75.3213C114.562 75.3213 113.855 75.5127 113.067 75.8955L112.718 75.0273C113.087 74.8268 113.491 74.6696 113.928 74.5557C114.37 74.4417 114.812 74.3848 115.254 74.3848C116.148 74.3848 116.808 74.583 117.237 74.9795C117.67 75.376 117.886 76.0117 117.886 76.8867V82H117.045ZM114.482 81.2002C115.188 81.2002 115.742 81.0065 116.143 80.6191C116.549 80.2318 116.751 79.6895 116.751 78.9922V78.3154L115.617 78.3633C114.714 78.3952 114.063 78.5365 113.662 78.7871C113.265 79.0332 113.067 79.4183 113.067 79.9424C113.067 80.3525 113.19 80.6647 113.436 80.8789C113.687 81.0931 114.035 81.2002 114.482 81.2002ZM123.949 74.3711C124.282 74.3711 124.58 74.3984 124.844 74.4531L124.687 75.5059C124.377 75.4375 124.104 75.4033 123.867 75.4033C123.261 75.4033 122.741 75.6494 122.308 76.1416C121.88 76.6338 121.666 77.2467 121.666 77.9805V82H120.531V74.5078H121.467L121.597 75.8955H121.652C121.93 75.4079 122.265 75.0319 122.657 74.7676C123.049 74.5033 123.479 74.3711 123.949 74.3711ZM128.966 81.2002C129.166 81.2002 129.36 81.1865 129.547 81.1592C129.734 81.1273 129.882 81.0954 129.991 81.0635V81.9316C129.868 81.9909 129.686 82.0387 129.444 82.0752C129.207 82.1162 128.993 82.1367 128.802 82.1367C127.352 82.1367 126.628 81.3734 126.628 79.8467V75.3896H125.554V74.8428L126.628 74.3711L127.106 72.7715H127.763V74.5078H129.936V75.3896H127.763V79.7988C127.763 80.25 127.87 80.5964 128.084 80.8379C128.298 81.0794 128.592 81.2002 128.966 81.2002ZM141.85 82L140.476 77.6045C140.389 77.3356 140.227 76.7249 139.99 75.7725H139.936C139.753 76.57 139.594 77.1852 139.457 77.6182L138.042 82H136.73L134.686 74.5078H135.875C136.358 76.39 136.725 77.8232 136.976 78.8076C137.231 79.792 137.377 80.4551 137.413 80.7969H137.468C137.518 80.5371 137.598 80.2021 137.707 79.792C137.821 79.3773 137.919 79.0492 138.001 78.8076L139.375 74.5078H140.606L141.946 78.8076C142.201 79.5915 142.374 80.25 142.465 80.7832H142.52C142.538 80.6191 142.586 80.3662 142.663 80.0244C142.745 79.6826 143.222 77.8438 144.092 74.5078H145.268L143.196 82H141.85ZM148.063 82H146.928V74.5078H148.063V82ZM146.832 72.4775C146.832 72.2178 146.896 72.0286 147.024 71.9102C147.151 71.7871 147.311 71.7256 147.502 71.7256C147.685 71.7256 147.842 71.7871 147.974 71.9102C148.106 72.0332 148.172 72.2223 148.172 72.4775C148.172 72.7327 148.106 72.9242 147.974 73.0518C147.842 73.1748 147.685 73.2363 147.502 73.2363C147.311 73.2363 147.151 73.1748 147.024 73.0518C146.896 72.9242 146.832 72.7327 146.832 72.4775ZM153.189 81.2002C153.39 81.2002 153.583 81.1865 153.77 81.1592C153.957 81.1273 154.105 81.0954 154.214 81.0635V81.9316C154.091 81.9909 153.909 82.0387 153.668 82.0752C153.431 82.1162 153.216 82.1367 153.025 82.1367C151.576 82.1367 150.851 81.3734 150.851 79.8467V75.3896H149.778V74.8428L150.851 74.3711L151.33 72.7715H151.986V74.5078H154.16V75.3896H151.986V79.7988C151.986 80.25 152.093 80.5964 152.307 80.8379C152.521 81.0794 152.815 81.2002 153.189 81.2002ZM161.145 82V77.1533C161.145 76.5426 161.006 76.0869 160.728 75.7861C160.45 75.4854 160.015 75.335 159.423 75.335C158.634 75.335 158.058 75.5492 157.693 75.9775C157.333 76.4059 157.153 77.1077 157.153 78.083V82H156.018V71.3633H157.153V74.583C157.153 74.9704 157.135 75.2917 157.098 75.5469H157.167C157.39 75.1868 157.707 74.9043 158.117 74.6992C158.532 74.4896 159.003 74.3848 159.532 74.3848C160.448 74.3848 161.134 74.6035 161.59 75.041C162.05 75.474 162.28 76.1644 162.28 77.1123V82H161.145ZM176.613 82H175.451V77.2969H170.188V82H169.026V72.0059H170.188V76.2578H175.451V72.0059H176.613V82ZM184.098 82L183.872 80.9336H183.818C183.444 81.403 183.07 81.722 182.697 81.8906C182.328 82.0547 181.865 82.1367 181.309 82.1367C180.566 82.1367 179.983 81.9453 179.559 81.5625C179.14 81.1797 178.93 80.6351 178.93 79.9287C178.93 78.4157 180.14 77.6227 182.56 77.5498L183.831 77.5088V77.0439C183.831 76.4561 183.704 76.0231 183.449 75.7451C183.198 75.4626 182.795 75.3213 182.239 75.3213C181.614 75.3213 180.908 75.5127 180.12 75.8955L179.771 75.0273C180.14 74.8268 180.543 74.6696 180.981 74.5557C181.423 74.4417 181.865 74.3848 182.307 74.3848C183.2 74.3848 183.861 74.583 184.289 74.9795C184.722 75.376 184.939 76.0117 184.939 76.8867V82H184.098ZM181.535 81.2002C182.241 81.2002 182.795 81.0065 183.196 80.6191C183.601 80.2318 183.804 79.6895 183.804 78.9922V78.3154L182.669 78.3633C181.767 78.3952 181.115 78.5365 180.714 78.7871C180.318 79.0332 180.12 79.4183 180.12 79.9424C180.12 80.3525 180.243 80.6647 180.489 80.8789C180.739 81.0931 181.088 81.2002 181.535 81.2002ZM192.417 79.9561C192.417 80.6533 192.157 81.1911 191.637 81.5693C191.118 81.9476 190.389 82.1367 189.45 82.1367C188.456 82.1367 187.682 81.9795 187.126 81.665V80.6123C187.486 80.7946 187.871 80.9382 188.281 81.043C188.696 81.1478 189.094 81.2002 189.477 81.2002C190.07 81.2002 190.525 81.1068 190.844 80.9199C191.163 80.7285 191.323 80.4391 191.323 80.0518C191.323 79.7601 191.195 79.5117 190.94 79.3066C190.689 79.097 190.197 78.8509 189.463 78.5684C188.766 78.3086 188.269 78.083 187.973 77.8916C187.682 77.6956 187.463 77.4746 187.317 77.2285C187.176 76.9824 187.105 76.6885 187.105 76.3467C187.105 75.736 187.353 75.2552 187.85 74.9043C188.347 74.5488 189.028 74.3711 189.894 74.3711C190.701 74.3711 191.489 74.5352 192.259 74.8633L191.856 75.7861C191.104 75.4762 190.423 75.3213 189.812 75.3213C189.274 75.3213 188.869 75.4056 188.595 75.5742C188.322 75.7428 188.185 75.9753 188.185 76.2715C188.185 76.472 188.235 76.6429 188.336 76.7842C188.44 76.9255 188.607 77.0599 188.835 77.1875C189.062 77.3151 189.5 77.4997 190.147 77.7412C191.036 78.0648 191.635 78.3906 191.945 78.7188C192.259 79.0469 192.417 79.4593 192.417 79.9561ZM195.69 78.165C195.886 77.887 196.185 77.5225 196.586 77.0713L199.006 74.5078H200.352L197.317 77.7002L200.564 82H199.19L196.545 78.459L195.69 79.1973V82H194.569V71.3633H195.69V77.0029C195.69 77.2536 195.672 77.641 195.636 78.165H195.69ZM205.39 82.1367C204.282 82.1367 203.407 81.7995 202.765 81.125C202.127 80.4505 201.808 79.514 201.808 78.3154C201.808 77.1077 202.104 76.1484 202.696 75.4375C203.293 74.7266 204.093 74.3711 205.096 74.3711C206.035 74.3711 206.777 74.681 207.324 75.3008C207.871 75.916 208.145 76.7295 208.145 77.7412V78.459H202.983C203.006 79.3385 203.227 80.0062 203.646 80.4619C204.07 80.9176 204.665 81.1455 205.431 81.1455C206.237 81.1455 207.035 80.9769 207.823 80.6396V81.6514C207.422 81.8245 207.042 81.9476 206.682 82.0205C206.326 82.098 205.896 82.1367 205.39 82.1367ZM205.082 75.3213C204.48 75.3213 204 75.5173 203.64 75.9092C203.284 76.3011 203.075 76.8434 203.011 77.5361H206.928C206.928 76.8206 206.768 76.2738 206.449 75.8955C206.13 75.5127 205.674 75.3213 205.082 75.3213ZM211.521 82H210.386V71.3633H211.521V82ZM215.362 82H214.227V71.3633H215.362V82Z" fill="#333333"/>
</g>
<defs>
<filter id="filter0_d" x="-27" y="-24" width="366" height="514" filterUnits="userSpaceOnUse" color-interpolation-filters="sRGB">
<feFlood flood-opacity="0" result="BackgroundImageFix"/>
<feColorMatrix in="SourceAlpha" type="matrix" values="0 0 0 0 0 0 0 0 0 0 0 0 0 0 0 0 0 0 127 0"/>
<feOffset dy="3"/>
<feGaussianBlur stdDeviation="13.5"/>
<feColorMatrix type="matrix" values="0 0 0 0 0 0 0 0 0 0 0 0 0 0 0 0 0 0 0.08 0"/>
<feBlend mode="normal" in2="BackgroundImageFix" result="effect1_dropShadow"/>
<feBlend mode="normal" in="SourceGraphic" in2="effect1_dropShadow" result="shape"/>
</filter>
<linearGradient id="paint0_linear" x1="121.924" y1="357.015" x2="121.924" y2="397.166" gradientUnits="userSpaceOnUse">
<stop stop-color="#832DC4"/>
<stop offset="1" stop-color="#1746A0"/>
</linearGradient>
<linearGradient id="paint1_linear" x1="59.6652" y1="237.014" x2="59.6652" y2="268.716" gradientUnits="userSpaceOnUse">
<stop offset="0.221" stop-color="#832DC4"/>
<stop offset="0.377" stop-color="#5E35B8"/>
<stop offset="0.543" stop-color="#3F3DAD"/>
<stop offset="0.704" stop-color="#2942A6"/>
<stop offset="0.857" stop-color="#1C45A2"/>
<stop offset="0.994" stop-color="#1746A0"/>
</linearGradient>
<clipPath id="clip0">
<rect width="312" height="460" fill="white"/>
</clipPath>
</defs>
</svg>
