<?xml version="1.0" encoding="utf-8"?>
<!-- Generator: Adobe Illustrator 24.0.1, SVG Export Plug-In . SVG Version: 6.00 Build 0)  -->
<svg version="1.1" id="Layer_1" xmlns="http://www.w3.org/2000/svg" xmlns:xlink="http://www.w3.org/1999/xlink" x="0px" y="0px"
	 viewBox="0 0 50 50" style="enable-background:new 0 0 50 50;" xml:space="preserve">
<style type="text/css">
	.st0{fill:#FFFFFF;}
</style>
<g id="Group_1023_1_">
	<path id="Path_579_1_" class="st0" d="M44.9,12.6h-2.8v-0.9c0-0.4-0.2-0.7-0.6-0.8c-1.9-0.5-3.9-0.8-5.9-0.8c-3.3,0-7.7,0.7-11,4.1
		c-3.3-3.4-7.8-4.1-11-4.1c-2,0-4,0.2-5.9,0.8c-0.4,0.1-0.6,0.4-0.6,0.8v0.9H4.4c-0.5,0-0.8,0.4-0.8,0.8c0,0,0,0,0,0v26.1
		c0,0.5,0.4,0.8,0.8,0.8c0.1,0,0.3,0,0.4-0.1c0.1,0,8.3-4.5,19.7-1.6h0.2c0.1,0,0.1,0,0.2,0c11.4-2.9,19.6,1.6,19.7,1.6
		c0.4,0.2,0.9,0.1,1.1-0.3c0.1-0.1,0.1-0.3,0.1-0.4V13.4C45.8,13,45.4,12.6,44.9,12.6C45,12.6,45,12.6,44.9,12.6z M5.2,38.2v-24h2
		v20.5c0,0.5,0.4,0.8,0.8,0.8c0,0,0.1,0,0.1,0c1.7-0.3,3.4-0.4,5.1-0.4c2.4,0,4.7,0.3,7,1.1C15.1,35.6,10,36.3,5.2,38.2z M13.2,33.5
		c-1.5,0-3,0.1-4.4,0.3V12.3c1.6-0.4,3.2-0.5,4.8-0.5c3.1,0,7.3,0.7,10.2,4l0,20.4C22.2,35,18.8,33.5,13.2,33.5L13.2,33.5z
		 M25.5,15.8c2.9-3.3,7.1-4,10.2-4c1.6,0,3.3,0.2,4.8,0.5v21.5c-1.5-0.2-2.9-0.3-4.4-0.3c-5.6,0-8.9,1.5-10.6,2.6L25.5,15.8z
		 M44.1,38.2c-4.7-1.9-9.9-2.6-15-2c2.3-0.7,4.6-1.1,7-1.1c1.7,0,3.4,0.1,5.1,0.4c0.4,0.1,0.9-0.2,0.9-0.7c0,0,0-0.1,0-0.1V14.2h2
		L44.1,38.2z"/>
</g>
</svg>
