<?xml version="1.0" encoding="utf-8"?>
<!-- Generator: Adobe Illustrator 24.0.1, SVG Export Plug-In . SVG Version: 6.00 Build 0)  -->
<svg version="1.1" id="Layer_1" xmlns="http://www.w3.org/2000/svg" xmlns:xlink="http://www.w3.org/1999/xlink" x="0px" y="0px"
	 viewBox="0 0 50 50" style="enable-background:new 0 0 50 50;" xml:space="preserve">
<style type="text/css">
	.st0{fill:#709CF0;}
	.st1{opacity:0.566;fill:#709CF0;enable-background:new    ;}
	.st2{fill:#FFFFFF;}
</style>
<path id="Path_571" class="st0" d="M33.7,25.3c0,5-4,9-9,9s-9-4-9-9s4-9,9-9l0,0C29.7,16.3,33.7,20.3,33.7,25.3z"/>
<path id="Path_572" class="st1" d="M24.7,37.3c-6.6,0-12-5.4-12-12s5.4-12,12-12s12,5.4,12,12S31.3,37.3,24.7,37.3z M24.7,14.1
	c-6.2,0-11.2,5-11.2,11.2s5,11.2,11.2,11.2s11.2-5,11.2-11.2S30.9,14.1,24.7,14.1C24.7,14.1,24.7,14.1,24.7,14.1z"/>
<g id="book" transform="translate(6.557 -49.311)">
	<g id="Group_1023" transform="translate(0 57.303)">
		<path id="Path_579" class="st2" d="M23.5,13.9h-0.7v-0.2c0-0.1-0.1-0.2-0.2-0.2c-0.5-0.1-1-0.2-1.5-0.2c-1.1,0-2.1,0.3-2.9,1.1
			c-0.8-0.7-1.8-1.1-2.9-1.1c-0.5,0-1,0.1-1.5,0.2c-0.1,0-0.2,0.1-0.2,0.2v0.2h-0.7c-0.1,0-0.2,0.1-0.2,0.2c0,0,0,0,0,0v6.8
			c0,0.1,0.1,0.2,0.2,0.2c0,0,0.1,0,0.1,0c1.6-0.7,3.4-0.9,5.1-0.4h0.1c0,0,0,0,0.1,0c1.7-0.5,3.5-0.3,5.1,0.4
			c0.1,0.1,0.2,0,0.3-0.1c0,0,0-0.1,0-0.1v-6.8C23.7,14,23.6,13.9,23.5,13.9C23.5,13.9,23.5,13.9,23.5,13.9z M13.1,20.6v-6.3h0.5
			v5.3c0,0.1,0.1,0.2,0.2,0.2c0,0,0,0,0,0h0c0.4-0.1,0.9-0.1,1.3-0.1c0.6,0,1.2,0.1,1.8,0.3C15.7,19.9,14.4,20.1,13.1,20.6z
			 M15.2,19.4c-0.4,0-0.8,0-1.2,0.1v-5.6c0.4-0.1,0.8-0.1,1.3-0.1c1,0,2,0.3,2.7,1l0,5.3C17.1,19.6,16.2,19.3,15.2,19.4L15.2,19.4z
			 M18.4,14.8c0.7-0.7,1.7-1.1,2.7-1c0.4,0,0.8,0,1.3,0.1v5.6c-0.4,0-0.8-0.1-1.2-0.1c-1,0-1.9,0.2-2.8,0.7L18.4,14.8z M23.3,20.6
			c-1.2-0.5-2.6-0.7-3.9-0.5c0.6-0.2,1.2-0.3,1.8-0.3c0.4,0,0.9,0,1.3,0.1c0.1,0,0.2-0.1,0.2-0.2c0,0,0,0,0,0v-5.3h0.5L23.3,20.6z"
			/>
	</g>
</g>
</svg>
