<?xml version="1.0" encoding="utf-8"?>
<!-- Generator: Adobe Illustrator 24.0.1, SVG Export Plug-In . SVG Version: 6.00 Build 0)  -->
<svg version="1.1" id="Layer_1" xmlns="http://www.w3.org/2000/svg" xmlns:xlink="http://www.w3.org/1999/xlink" x="0px" y="0px"
	 viewBox="0 0 50 50" style="enable-background:new 0 0 50 50;" xml:space="preserve">
<style type="text/css">
	.st0{opacity:0.195;fill:#FF0000;enable-background:new    ;}
	.st1{opacity:0.566;fill:#FF0000;enable-background:new    ;}
	.st2{fill:#FF0000;}
</style>
<path id="Path_571" class="st0" d="M33.5,25.3c0,4.9-3.9,8.8-8.8,8.8s-8.8-3.9-8.8-8.8c0-4.9,3.9-8.8,8.8-8.8l0,0
	C29.6,16.5,33.5,20.4,33.5,25.3z"/>
<path id="Path_572" class="st1" d="M24.7,37.3c-6.6,0-12-5.4-12-12s5.4-12,12-12s12,5.4,12,12S31.3,37.3,24.7,37.3z M24.7,14.1
	c-6.2,0-11.2,5-11.2,11.2s5,11.2,11.2,11.2s11.2-5,11.2-11.2S30.9,14.1,24.7,14.1C24.7,14.1,24.7,14.1,24.7,14.1z"/>
<g id="Group_1016" transform="translate(8 8.429)">
	<path id="Path_573" class="st2" d="M13.9,20.4c-0.1-0.1-0.1-0.3,0-0.4l5.8-5.8c0.1-0.1,0.3-0.1,0.4,0c0.1,0.1,0.1,0.3,0,0.4
		l-5.8,5.8C14.2,20.5,14,20.5,13.9,20.4z"/>
	<path id="Path_584" class="st2" d="M20.1,20.4c0.1-0.1,0.1-0.3,0-0.4l-5.8-5.8c-0.1-0.1-0.3-0.1-0.4,0c-0.1,0.1-0.1,0.3,0,0.4
		l5.8,5.8C19.8,20.5,20,20.5,20.1,20.4z"/>
</g>
</svg>
