<?xml version="1.0" encoding="utf-8"?>
<!-- Generator: Adobe Illustrator 24.0.1, SVG Export Plug-In . SVG Version: 6.00 Build 0)  -->
<svg version="1.1" id="Layer_2" xmlns="http://www.w3.org/2000/svg" xmlns:xlink="http://www.w3.org/1999/xlink" x="0px" y="0px"
	 viewBox="0 0 50 50" style="enable-background:new 0 0 50 50;" xml:space="preserve">
<style type="text/css">
	.st0{fill:url(#Path_609_1_);}
</style>
<g id="refresh" transform="translate(-9.461)">
	<g id="Group_1032" transform="translate(9.461)">
		<linearGradient id="Path_609_1_" gradientUnits="userSpaceOnUse" x1="16.6332" y1="25.5972" x2="32.6333" y2="25.5972">
			<stop  offset="0" style="stop-color:#1746A0"/>
			<stop  offset="1" style="stop-color:#832DC4"/>
		</linearGradient>
		<path id="Path_609" class="st0" d="M32.5,24.6c-0.1-0.3-0.4-0.6-0.7-0.5c-0.3,0.1-0.6,0.4-0.5,0.7v0c0.6,3.7-1.9,7.3-5.6,7.9
			c-3.7,0.6-7.3-1.9-7.9-5.6s1.9-7.3,5.6-7.9c2.3-0.4,4.6,0.4,6.2,2.1l-2.8,0.9c-0.3,0.1-0.5,0.5-0.4,0.8l0,0
			c0.1,0.3,0.5,0.5,0.8,0.4l0,0l3.7-1.2c0.3-0.1,0.4-0.3,0.4-0.6v-3.7c0-0.3-0.3-0.6-0.6-0.6c-0.3,0-0.6,0.3-0.6,0.6v2.3
			c-3.2-3-8.3-2.9-11.3,0.3s-2.9,8.3,0.3,11.3s8.3,2.9,11.3-0.3C32.2,29.6,32.9,27.1,32.5,24.6L32.5,24.6z"/>
	</g>
</g>
</svg>
