<?xml version="1.0" encoding="utf-8"?>
<!-- Generator: Adobe Illustrator 24.0.1, SVG Export Plug-In . SVG Version: 6.00 Build 0)  -->
<svg version="1.1" id="Layer_1" xmlns="http://www.w3.org/2000/svg" xmlns:xlink="http://www.w3.org/1999/xlink" x="0px" y="0px"
	width="20" viewBox="14 14 22 22" style="enable-background:new 0 0 50 50;" xml:space="preserve">
<style type="text/css">
	.st0{opacity:0.997;fill:#FFFFFF;enable-background:new    ;}
</style>
<path id="simulation" class="st0" d="M34.1,18.9l-8.9-5c-0.3-0.2-0.8-0.2-1.1,0l-8.9,5c-0.4,0.2-0.6,0.6-0.6,1v10.7
	c0,0.4,0.2,0.8,0.6,1l8.9,5c0.3,0.2,0.8,0.2,1.1,0l8.9-5c0.4-0.2,0.6-0.6,0.6-1V19.9C34.7,19.5,34.5,19.1,34.1,18.9z M30.5,17.7
	l0.9,0.5l-0.9,0.6V17.7z M27.4,16l1.8,1L27.4,18V16z M26.6,18.4L25.5,19l-0.4-0.2c-0.2-0.1-0.5-0.1-0.8,0l-2.7,1.7
	c-0.2,0.1-0.4,0.4-0.3,0.7v1.3l-1.9-1.1v-1.7L22,18l0.4,0.2c0.2,0.1,0.5,0.1,0.7,0l3.5-1.9L26.6,18.4z M22,21.2l2.7-1.7l0.4,0.2
	c0.2,0.1,0.5,0.1,0.7,0l3.9-2.2v1.7l-2,1.2l-0.4-0.2c-0.2-0.1-0.5-0.1-0.8,0l-2.7,1.7c-0.2,0.1-0.4,0.4-0.3,0.7v1L22,22.9L22,21.2
	L22,21.2z M24.9,24.3c-0.1,0.1-0.3,0.1-0.4,0l-0.2-0.1v-1.4l2.7-1.7l0.4,0.2c0.2,0.1,0.5,0.1,0.8,0l3.9-2.5v1.5L24.9,24.3z M32.8,19
	l0.8,0.4l-0.8,0.4V19z M24.5,14.6c0.1-0.1,0.3-0.1,0.4,0l1.5,0.9l-3.7,2l-0.4-0.2c-0.2-0.1-0.5-0.1-0.8,0L18.9,19
	c-0.2,0.1-0.4,0.4-0.3,0.7V21l-2.7-1.5L24.5,14.6z M15.6,30.9c-0.1-0.1-0.2-0.2-0.2-0.3v-8.2l1.3,0.7c0.1,0.1,0.2,0.2,0.2,0.3v0.3
	c-0.6,0.2-0.9,0.9-0.7,1.5c0.2,0.6,0.9,0.9,1.5,0.7c0,0,0,0,0,0c0.6-0.2,0.9-0.9,0.7-1.5c-0.1-0.3-0.4-0.6-0.7-0.7v-0.3
	c0-0.4-0.3-0.9-0.7-1l-1.7-0.8v-1.4l8.7,4.9c0,0,0.1,0,0.2,0.1v4.2L21,27.4c-0.1-0.1-0.2-0.2-0.2-0.3v-0.8c0.6-0.2,0.9-0.8,0.7-1.4
	c0,0,0,0,0,0c-0.2-0.6-0.9-0.9-1.5-0.7c-0.6,0.2-0.9,0.9-0.7,1.5c0.1,0.3,0.4,0.6,0.7,0.7v0.8c0,0.4,0.2,0.8,0.6,1l3.6,2v3.7L21,32
	c-0.1-0.1-0.2-0.2-0.2-0.3v-1.4c0-0.4-0.2-0.8-0.6-1l-1.3-0.8v-0.2c0-0.6-0.5-1.2-1.2-1.2s-1.2,0.5-1.2,1.2c0,0.6,0.5,1.2,1.2,1.2
	c0.3,0,0.6-0.1,0.8-0.3l1.3,0.8c0.1,0.1,0.2,0.2,0.2,0.3v1.4c0,0.4,0.2,0.8,0.6,1l3.6,2v1L15.6,30.9z M17.8,24.9
	c0,0.2-0.2,0.4-0.4,0.4S17,25.1,17,24.9c0-0.2,0.2-0.4,0.4-0.4C17.6,24.5,17.7,24.6,17.8,24.9C17.8,24.8,17.8,24.9,17.8,24.9
	L17.8,24.9z M20.1,25.3c0-0.2,0.2-0.4,0.4-0.4c0.2,0,0.4,0.2,0.4,0.4c0,0.2-0.2,0.4-0.4,0.4C20.3,25.7,20.1,25.5,20.1,25.3
	C20.1,25.3,20.1,25.3,20.1,25.3L20.1,25.3z M18.1,28.3c0,0.2-0.2,0.4-0.4,0.4s-0.4-0.2-0.4-0.4s0.2-0.4,0.4-0.4
	C18,27.9,18.1,28.1,18.1,28.3C18.1,28.3,18.1,28.3,18.1,28.3z M33.7,30.9l-8.7,4.9v-3.4l3.6-2c0.4-0.2,0.6-0.6,0.6-1v-1.4
	c0-0.2,0.1-0.3,0.2-0.3l1.7-0.8c0.5,0.4,1.2,0.4,1.6,0c0.4-0.5,0.4-1.2,0-1.6c-0.5-0.4-1.2-0.4-1.6,0c0,0,0,0,0,0
	c-0.2,0.2-0.4,0.5-0.3,0.8v0.2L29.2,27c-0.4,0.2-0.7,0.6-0.7,1v1.4c0,0.1-0.1,0.3-0.2,0.3l-3.2,1.7v-3.7l1.1-0.6
	c0.5,0.4,1.2,0.4,1.6,0c0.4-0.5,0.4-1.2,0-1.6c-0.5-0.4-1.2-0.4-1.6,0c0,0,0,0,0,0c-0.2,0.2-0.3,0.5-0.3,0.8v0.2l-0.8,0.4v-1.9
	c0.1,0,0.1,0,0.2-0.1l8.7-4.9v7.6l-1.9,1c-0.5-0.4-1.2-0.4-1.6,0c-0.4,0.5-0.4,1.2,0,1.6c0.5,0.4,1.2,0.4,1.6,0c0,0,0,0,0,0
	c0.2-0.2,0.3-0.5,0.3-0.8v-0.2l1.5-0.8v2C33.9,30.7,33.9,30.8,33.7,30.9L33.7,30.9z M31.6,26c0-0.2,0.2-0.4,0.4-0.4
	c0.2,0,0.4,0.2,0.4,0.4c0,0.2-0.2,0.4-0.4,0.4C31.8,26.4,31.6,26.3,31.6,26C31.6,26,31.6,26,31.6,26L31.6,26z M26.6,26.4
	c0-0.2,0.2-0.4,0.4-0.4c0.2,0,0.4,0.2,0.4,0.4c0,0.2-0.2,0.4-0.4,0.4C26.8,26.8,26.6,26.6,26.6,26.4C26.6,26.4,26.6,26.4,26.6,26.4
	L26.6,26.4z M31.6,29.5c0,0.2-0.2,0.4-0.4,0.4s-0.4-0.2-0.4-0.4s0.2-0.4,0.4-0.4C31.4,29.1,31.6,29.2,31.6,29.5
	C31.6,29.5,31.6,29.5,31.6,29.5z"/>
</svg>
