<svg xmlns="http://www.w3.org/2000/svg" width="34.927" height="40" viewBox="0 0 34.927 40">
    <defs>
        <linearGradient id="simulation__linear-gradient" x1=".5" x2=".5" y2="1" gradientUnits="objectBoundingBox">
            <stop offset="0" stop-color="#832dc4"/>
            <stop offset="1" stop-color="#1746a0"/>
        </linearGradient>
    </defs>
    <path id="prefix__simulation" d="M39.978 11.257L24.5 2.577a2.012 2.012 0 00-1.951 0l-15.472 8.68A1.94 1.94 0 006 13.006v18.638a2.008 2.008 0 001.009 1.749l15.475 8.68a2.012 2.012 0 001.951 0l15.475-8.68a2.008 2.008 0 001.009-1.749V13.006a1.826 1.826 0 00-.941-1.749zm-6.392-2.086l1.615.875-1.615 1.077zM28.2 6.211l3.1 1.749-3.1 1.615zm-1.346 4.1l-2.019 1.077-.673-.336a1.374 1.374 0 00-1.346.067l-4.777 2.96a1.322 1.322 0 00-.606 1.144v2.22l-3.364-1.884v-3.024l4.777-2.96.673.336a1.425 1.425 0 001.278 0l6.056-3.3zM18.78 15.29l4.777-2.96.673.336a1.425 1.425 0 001.278 0L32.241 8.9v3.03l-3.431 2.153-.673-.336a1.374 1.374 0 00-1.346.067l-4.777 2.96a1.322 1.322 0 00-.606 1.144v1.749l-2.691-1.48v-2.893zm5.046 5.383a.611.611 0 01-.673 0l-.336-.2v-2.488l4.777-2.96.673.336a1.374 1.374 0 001.346-.067l6.728-4.306v2.691zm13.793-9.218l1.346.74-1.346.74zM23.157 3.721a.611.611 0 01.673 0l2.691 1.548-6.392 3.5-.673-.336a1.374 1.374 0 00-1.346.067l-4.777 2.96a1.322 1.322 0 00-.606 1.144v2.22L8.019 12.2zM7.682 32.182a.707.707 0 01-.336-.606V17.312l2.288 1.144a.773.773 0 01.4.606v.606a2 2 0 001.346 3.768 2.024 2.024 0 001.211-2.557 1.966 1.966 0 00-1.211-1.211v-.606a1.983 1.983 0 00-1.144-1.817l-2.89-1.413v-2.489l15.138 8.477c.067.067.2.067.336.135v7.267l-5.719-3.1a.707.707 0 01-.336-.606v-1.341a1.969 1.969 0 001.211-2.557 2.024 2.024 0 00-2.557-1.211 2 2 0 000 3.768v1.346A1.94 1.94 0 0016.5 27.27l6.321 3.43v6.526l-5.719-3.1a.707.707 0 01-.336-.606v-2.482a2.093 2.093 0 00-1.009-1.749L13.4 27.943v-.269a2.019 2.019 0 10-2.019 2.019 2.171 2.171 0 001.413-.538l2.355 1.413a.707.707 0 01.336.606v2.489a1.94 1.94 0 001.077 1.749l6.325 3.431v1.817zm3.7-10.564a.673.673 0 11-.673-.673.636.636 0 01.674.674zm4.037.673a.673.673 0 11.673.673.636.636 0 01-.672-.673zm-3.364 5.383a.673.673 0 11-.672-.674.636.636 0 01.673.674zm27.25 4.508L24.167 40.66v-5.854l6.325-3.431a1.94 1.94 0 001.077-1.749V27.2a.647.647 0 01.4-.606l2.96-1.48a2 2 0 10-.067-2.826 1.694 1.694 0 00-.606 1.346v.269l-2.96 1.48a2.026 2.026 0 00-1.141 1.817v2.422a.707.707 0 01-.336.606l-5.652 3.028v-6.524l1.951-1.009a2 2 0 10-.068-2.823 2.171 2.171 0 00-.538 1.413v.269l-1.346.673v-3.3c.135 0 .2-.067.336-.135l15.139-8.478V26.6l-3.3 1.682a2 2 0 10.067 2.826 2.171 2.171 0 00.538-1.413v-.269l2.691-1.346v3.5a.707.707 0 01-.336.606zm-3.7-8.545a.673.673 0 11.673.673.636.636 0 01-.678-.673zm-8.747.673a.673.673 0 11.673.673.636.636 0 01-.673-.673zm8.742 5.383a.673.673 0 11-.673-.673.636.636 0 01.673.673z" transform="translate(-6 -2.325)"/>
</svg>
