<?xml version="1.0" encoding="utf-8"?>
<!-- Generator: Adobe Illustrator 24.0.1, SVG Export Plug-In . SVG Version: 6.00 Build 0)  -->
<svg version="1.1" id="Layer_1" xmlns="http://www.w3.org/2000/svg" xmlns:xlink="http://www.w3.org/1999/xlink" x="0px" y="0px"
	 viewBox="0 0 50 50" style="enable-background:new 0 0 50 50;" xml:space="preserve">
<style type="text/css">
	.st0{opacity:0.286;enable-background:new    ;}
</style>
<path id="simulation_1_" class="st0" d="M42.2,14.2L26.7,5.5c-0.6-0.3-1.3-0.3-2,0L9.3,14.2c-0.7,0.3-1.1,1-1.1,1.7v18.6
	c0,0.7,0.4,1.4,1,1.7L24.7,45c0.6,0.3,1.3,0.3,2,0l15.5-8.7c0.6-0.4,1-1,1-1.7V15.9C43.2,15.2,42.8,14.5,42.2,14.2z M35.8,12.1
	l1.6,0.9l-1.6,1.1V12.1z M30.4,9.2l3.1,1.7l-3.1,1.6V9.2z M29.1,13.3l-2,1.1L26.4,14c-0.4-0.2-0.9-0.2-1.3,0.1l-4.8,3
	c-0.4,0.2-0.6,0.7-0.6,1.1v2.2l-3.4-1.9v-3l4.8-3l0.7,0.3c0.4,0.2,0.9,0.2,1.3,0l6.1-3.3L29.1,13.3z M21,18.2l4.8-3l0.7,0.3
	c0.4,0.2,0.9,0.2,1.3,0l6.7-3.8v3L31,17l-0.7-0.3c-0.4-0.2-0.9-0.2-1.3,0.1l-4.8,3c-0.4,0.2-0.6,0.7-0.6,1.1v1.7l-2.7-1.5L21,18.2
	L21,18.2z M26,23.6c-0.2,0.1-0.5,0.1-0.7,0L25,23.4v-2.5l4.8-3l0.7,0.3c0.4,0.2,0.9,0.2,1.3-0.1l6.7-4.3v2.7L26,23.6z M39.8,14.4
	l1.3,0.7l-1.3,0.7V14.4z M25.4,6.7c0.2-0.1,0.5-0.1,0.7,0l2.7,1.5l-6.4,3.5l-0.7-0.3c-0.4-0.2-0.9-0.2-1.3,0.1l-4.8,3
	c-0.4,0.2-0.6,0.7-0.6,1.1v2.2l-4.7-2.6L25.4,6.7z M9.9,35.1c-0.2-0.1-0.3-0.4-0.3-0.6V20.3l2.3,1.1c0.2,0.1,0.4,0.4,0.4,0.6v0.6
	c-1,0.4-1.6,1.5-1.2,2.6c0.4,1,1.5,1.6,2.6,1.2c1-0.4,1.6-1.5,1.2-2.6c-0.2-0.6-0.6-1-1.2-1.2V22c0-0.8-0.4-1.5-1.1-1.8l-2.9-1.4
	v-2.5l15.1,8.5c0.1,0.1,0.2,0.1,0.3,0.1v7.3l-5.7-3.1c-0.2-0.1-0.3-0.4-0.3-0.6v-1.3c1-0.3,1.6-1.5,1.2-2.5c0,0,0,0,0-0.1
	c-0.4-1-1.5-1.6-2.6-1.2c-1,0.4-1.6,1.5-1.2,2.6c0.2,0.6,0.6,1,1.2,1.2v1.3c0,0.7,0.4,1.4,1.1,1.7l6.3,3.4v6.5l-5.7-3.1
	c-0.2-0.1-0.3-0.4-0.3-0.6V34c0-0.7-0.4-1.4-1-1.7l-2.4-1.3v-0.3c0-1.1-0.9-2-2-2s-2,0.9-2,2s0.9,2,2,2h0c0.5,0,1-0.2,1.4-0.5
	l2.4,1.4c0.2,0.1,0.3,0.4,0.3,0.6v2.5c0,0.7,0.4,1.4,1.1,1.7l6.3,3.4v1.8L9.9,35.1z M13.6,24.6c0,0.4-0.3,0.7-0.7,0.7
	s-0.7-0.3-0.7-0.7c0-0.4,0.3-0.7,0.7-0.7C13.3,23.9,13.6,24.1,13.6,24.6C13.6,24.5,13.6,24.5,13.6,24.6L13.6,24.6z M17.6,25.2
	c0-0.4,0.3-0.7,0.7-0.7c0.4,0,0.7,0.3,0.7,0.7c0,0.4-0.3,0.7-0.7,0.7C17.9,25.9,17.6,25.7,17.6,25.2C17.6,25.3,17.6,25.3,17.6,25.2
	L17.6,25.2z M14.3,30.6c0,0.4-0.3,0.7-0.7,0.7s-0.7-0.3-0.7-0.7c0-0.4,0.3-0.7,0.7-0.7C13.9,29.9,14.2,30.2,14.3,30.6
	C14.3,30.6,14.3,30.6,14.3,30.6L14.3,30.6z M41.5,35.1l-15.1,8.5v-5.9l6.3-3.4c0.7-0.3,1.1-1,1.1-1.7v-2.4c0-0.3,0.2-0.5,0.4-0.6
	l3-1.5c0.8,0.8,2.1,0.7,2.8-0.1c0.8-0.8,0.7-2.1-0.1-2.8c-0.8-0.8-2.1-0.7-2.8,0.1c0,0,0,0,0,0c-0.4,0.3-0.6,0.8-0.6,1.3v0.3l-3,1.5
	c-0.7,0.3-1.1,1-1.1,1.8v2.4c0,0.2-0.1,0.5-0.3,0.6l-5.7,3v-6.5l2-1c0.8,0.8,2.1,0.7,2.8-0.1c0.8-0.8,0.7-2.1-0.1-2.8
	C30.3,25,29,25,28.3,25.8c0,0,0,0,0,0c-0.3,0.4-0.5,0.9-0.5,1.4v0.3l-1.3,0.7v-3.3c0.1,0,0.2-0.1,0.3-0.1l15.1-8.5v13.3l-3.3,1.7
	c-0.8-0.8-2.1-0.7-2.8,0.1c-0.8,0.8-0.7,2.1,0.1,2.8c0.8,0.8,2.1,0.7,2.8-0.1c0,0,0,0,0,0c0.3-0.4,0.5-0.9,0.5-1.4v-0.3l2.7-1.3v3.5
	C41.8,34.8,41.7,35,41.5,35.1L41.5,35.1z M37.8,26.6c0-0.4,0.3-0.7,0.7-0.7s0.7,0.3,0.7,0.7c0,0.4-0.3,0.7-0.7,0.7
	C38.1,27.3,37.8,27,37.8,26.6C37.8,26.6,37.8,26.6,37.8,26.6L37.8,26.6z M29.1,27.3c0-0.4,0.3-0.7,0.7-0.7s0.7,0.3,0.7,0.7
	c0,0.4-0.3,0.7-0.7,0.7C29.4,27.9,29.1,27.7,29.1,27.3C29.1,27.3,29.1,27.3,29.1,27.3z M37.8,32.6c0,0.4-0.3,0.7-0.7,0.7
	s-0.7-0.3-0.7-0.7s0.3-0.7,0.7-0.7C37.5,31.9,37.8,32.2,37.8,32.6C37.8,32.6,37.8,32.6,37.8,32.6z"/>
</svg>
