<?xml version="1.0" encoding="utf-8"?>
<!-- Generator: Adobe Illustrator 24.0.1, SVG Export Plug-In . SVG Version: 6.00 Build 0)  -->
<svg version="1.1" id="Layer_1" xmlns="http://www.w3.org/2000/svg" xmlns:xlink="http://www.w3.org/1999/xlink" x="0px" y="0px"
	 viewBox="0 0 50 50" style="enable-background:new 0 0 50 50;" xml:space="preserve">
<style type="text/css">
	.st0{fill:url(#simulation_1_);}
</style>
<linearGradient id="simulation_1_" gradientUnits="userSpaceOnUse" x1="-646.1803" y1="403.8878" x2="-646.1803" y2="402.8878" gradientTransform="matrix(34.9251 0 0 -40.0006 22592.7578 16161.2441)">
	<stop  offset="0" style="stop-color:#832DC4"/>
	<stop  offset="1" style="stop-color:#1746A0"/>
</linearGradient>
<path id="simulation" class="st0" d="M41.4,14.4L25.9,5.7c-0.6-0.3-1.3-0.3-2,0L8.5,14.4c-0.7,0.3-1.1,1-1.1,1.7v18.6
	c0,0.7,0.4,1.4,1,1.7l15.5,8.7c0.6,0.3,1.3,0.3,2,0l15.5-8.7c0.6-0.4,1-1,1-1.7V16.2C42.4,15.5,42,14.8,41.4,14.4z M35,12.3l1.6,0.9
	L35,14.3V12.3z M29.6,9.4l3.1,1.7l-3.1,1.6V9.4z M28.2,13.5l-2,1.1l-0.7-0.3c-0.4-0.2-0.9-0.2-1.3,0.1l-4.8,3
	c-0.4,0.2-0.6,0.7-0.6,1.1v2.2l-3.4-1.9v-3l4.8-3l0.7,0.3c0.4,0.2,0.9,0.2,1.3,0l6.1-3.3L28.2,13.5z M20.2,18.5l4.8-3l0.7,0.3
	c0.4,0.2,0.9,0.2,1.3,0l6.7-3.8v3l-3.4,2.2l-0.7-0.3c-0.4-0.2-0.9-0.2-1.3,0.1l-4.8,3c-0.4,0.2-0.6,0.7-0.6,1.1v1.7l-2.7-1.5
	L20.2,18.5L20.2,18.5z M25.2,23.8c-0.2,0.1-0.5,0.1-0.7,0l-0.3-0.2v-2.5l4.8-3l0.7,0.3c0.4,0.2,0.9,0.2,1.3-0.1l6.7-4.3v2.7
	L25.2,23.8z M39,14.6l1.3,0.7L39,16.1V14.6z M24.5,6.9c0.2-0.1,0.5-0.1,0.7,0l2.7,1.5l-6.4,3.5l-0.7-0.3c-0.4-0.2-0.9-0.2-1.3,0.1
	l-4.8,3c-0.4,0.2-0.6,0.7-0.6,1.1V18l-4.7-2.6L24.5,6.9z M9.1,35.3c-0.2-0.1-0.3-0.4-0.3-0.6V20.5l2.3,1.1c0.2,0.1,0.4,0.4,0.4,0.6
	v0.6c-1,0.4-1.6,1.5-1.2,2.6c0.4,1,1.5,1.6,2.6,1.2c1-0.4,1.6-1.5,1.2-2.6c-0.2-0.6-0.6-1-1.2-1.2v-0.6c0-0.8-0.4-1.5-1.1-1.8
	L8.7,19v-2.5L23.9,25c0.1,0.1,0.2,0.1,0.3,0.1v7.3l-5.7-3.1c-0.2-0.1-0.3-0.4-0.3-0.6v-1.3c1-0.3,1.6-1.5,1.2-2.5c0,0,0,0,0-0.1
	c-0.4-1-1.5-1.6-2.6-1.2c-1,0.4-1.6,1.5-1.2,2.6c0.2,0.6,0.6,1,1.2,1.2v1.3c0,0.7,0.4,1.4,1.1,1.7l6.3,3.4v6.5l-5.7-3.1
	c-0.2-0.1-0.3-0.4-0.3-0.6v-2.5c0-0.7-0.4-1.4-1-1.7l-2.4-1.3v-0.3c0-1.1-0.9-2-2-2s-2,0.9-2,2s0.9,2,2,2h0c0.5,0,1-0.2,1.4-0.5
	l2.4,1.4c0.2,0.1,0.3,0.4,0.3,0.6v2.5c0,0.7,0.4,1.4,1.1,1.7l6.3,3.4v1.8L9.1,35.3z M12.8,24.8c0,0.4-0.3,0.7-0.7,0.7
	s-0.7-0.3-0.7-0.7c0-0.4,0.3-0.7,0.7-0.7C12.4,24.1,12.7,24.4,12.8,24.8C12.8,24.7,12.8,24.8,12.8,24.8L12.8,24.8z M16.8,25.5
	c0-0.4,0.3-0.7,0.7-0.7s0.7,0.3,0.7,0.7c0,0.4-0.3,0.7-0.7,0.7C17.1,26.2,16.8,25.9,16.8,25.5C16.8,25.5,16.8,25.5,16.8,25.5
	L16.8,25.5z M13.4,30.8c0,0.4-0.3,0.7-0.7,0.7s-0.7-0.3-0.7-0.7c0-0.4,0.3-0.7,0.7-0.7C13.1,30.1,13.4,30.4,13.4,30.8
	C13.4,30.8,13.4,30.8,13.4,30.8L13.4,30.8z M40.7,35.3l-15.1,8.5V38l6.3-3.4c0.7-0.3,1.1-1,1.1-1.7v-2.4c0-0.3,0.2-0.5,0.4-0.6
	l3-1.5c0.8,0.8,2.1,0.7,2.8-0.1c0.8-0.8,0.7-2.1-0.1-2.8c-0.8-0.8-2.1-0.7-2.8,0.1c0,0,0,0,0,0c-0.4,0.3-0.6,0.8-0.6,1.3v0.3l-3,1.5
	c-0.7,0.3-1.1,1-1.1,1.8v2.4c0,0.2-0.1,0.5-0.3,0.6l-5.7,3v-6.5l2-1c0.8,0.8,2.1,0.7,2.8-0.1c0.8-0.8,0.7-2.1-0.1-2.8
	c-0.8-0.8-2.1-0.7-2.8,0.1c0,0,0,0,0,0c-0.3,0.4-0.5,0.9-0.5,1.4v0.3l-1.3,0.7v-3.3c0.1,0,0.2-0.1,0.3-0.1L41,16.5v13.3l-3.3,1.7
	c-0.8-0.8-2.1-0.7-2.8,0.1c-0.8,0.8-0.7,2.1,0.1,2.8c0.8,0.8,2.1,0.7,2.8-0.1c0,0,0,0,0,0c0.3-0.4,0.5-0.9,0.5-1.4v-0.3l2.7-1.3v3.5
	C41,35,40.9,35.2,40.7,35.3L40.7,35.3z M37,26.8c0-0.4,0.3-0.7,0.7-0.7s0.7,0.3,0.7,0.7c0,0.4-0.3,0.7-0.7,0.7
	C37.3,27.5,37,27.2,37,26.8C37,26.9,37,26.8,37,26.8L37,26.8z M28.2,27.5c0-0.4,0.3-0.7,0.7-0.7s0.7,0.3,0.7,0.7
	c0,0.4-0.3,0.7-0.7,0.7C28.6,28.2,28.3,27.9,28.2,27.5C28.2,27.5,28.2,27.5,28.2,27.5z M37,32.9c0,0.4-0.3,0.7-0.7,0.7
	s-0.7-0.3-0.7-0.7s0.3-0.7,0.7-0.7C36.7,32.2,37,32.4,37,32.9C37,32.8,37,32.8,37,32.9z"/>
</svg>
