<?xml version="1.0" encoding="utf-8"?>
<!-- Generator: Adobe Illustrator 24.0.1, SVG Export Plug-In . SVG Version: 6.00 Build 0)  -->
<svg version="1.1" id="Layer_1" xmlns="http://www.w3.org/2000/svg" xmlns:xlink="http://www.w3.org/1999/xlink" x="0px" y="0px"
	 viewBox="0 0 50 50" style="enable-background:new 0 0 50 50;" xml:space="preserve">
<style type="text/css">
	.st0{fill:url(#Path_590_1_);}
	.st1{fill:url(#Path_591_1_);}
	.st2{fill:url(#Path_592_1_);}
	.st3{fill:url(#Path_593_1_);}
	.st4{fill:url(#Path_594_1_);}
	.st5{fill:url(#Path_595_1_);}
</style>
<g id="bin2" transform="translate(-39.974 -25.998)">
	<g id="Layer_1_1_" transform="translate(39.974 25.998)">
		
			<linearGradient id="Path_590_1_" gradientUnits="userSpaceOnUse" x1="-633.8655" y1="363.7151" x2="-633.8655" y2="361.3531" gradientTransform="matrix(16.7168 0 0 -6.1671 10620.7666 2255.668)">
			<stop  offset="0" style="stop-color:#832DC4"/>
			<stop  offset="1" style="stop-color:#1746A0"/>
		</linearGradient>
		<path id="Path_590" class="st0" d="M17.6,18.7L17.6,18.7l14,0v0c1-0.3,1.6-1.3,1.3-2.2c-0.2-0.8-0.9-1.4-1.8-1.4h-2.5v-0.6
			c0-1-0.8-1.9-1.9-1.9c0,0,0,0,0,0h-4.3c-1,0-1.9,0.8-1.9,1.9c0,0,0,0,0,0v0.6h-2.5c-1,0-1.8,0.8-1.8,1.8
			C16.2,17.8,16.8,18.5,17.6,18.7L17.6,18.7z M21.5,14.5c0-0.5,0.4-0.9,0.9-0.9c0,0,0,0,0,0h4.3c0.3,0,0.5,0.1,0.7,0.3
			c0.2,0.2,0.3,0.4,0.3,0.7v0.6h-6.2L21.5,14.5z M18.1,16.1h13c0.5,0,0.9,0.4,0.9,0.9s-0.4,0.9-0.9,0.9h-13c-0.5,0-0.9-0.4-0.9-0.9
			S17.6,16.1,18.1,16.1L18.1,16.1z"/>
	</g>
	<g id="Layer_2_1_" transform="translate(41.3 34.432)">
		
			<linearGradient id="Path_591_1_" gradientUnits="userSpaceOnUse" x1="-257.1455" y1="373.6099" x2="-257.1455" y2="371.2479" gradientTransform="matrix(0.964 0 0 -10.0707 273.9512 3776.894)">
			<stop  offset="0" style="stop-color:#832DC4"/>
			<stop  offset="1" style="stop-color:#1746A0"/>
		</linearGradient>
		<path id="Path_591" class="st1" d="M26.1,14.4c-0.3,0-0.5,0.2-0.5,0.5V24c0,0.3,0.2,0.5,0.5,0.5c0.3,0,0.5-0.2,0.5-0.5v-9.1
			C26.5,14.6,26.3,14.4,26.1,14.4z"/>
		
			<linearGradient id="Path_592_1_" gradientUnits="userSpaceOnUse" x1="-257.1519" y1="373.6164" x2="-257.1519" y2="371.2544" gradientTransform="matrix(0.964 0 0 -10.073 268.2742 3777.8093)">
			<stop  offset="0" style="stop-color:#832DC4"/>
			<stop  offset="1" style="stop-color:#1746A0"/>
		</linearGradient>
		<path id="Path_592" class="st2" d="M20.4,14.4c-0.3,0-0.5,0.2-0.5,0.5V24c0,0.3,0.2,0.5,0.5,0.5c0.3,0,0.5-0.2,0.5-0.5v-9.1
			C20.9,14.6,20.6,14.4,20.4,14.4z"/>
		
			<linearGradient id="Path_593_1_" gradientUnits="userSpaceOnUse" x1="-630.6553" y1="382.3294" x2="-630.6553" y2="379.9674" gradientTransform="matrix(13.9763 0 0 -14.41 8837.4521 5522.4595)">
			<stop  offset="0" style="stop-color:#832DC4"/>
			<stop  offset="1" style="stop-color:#1746A0"/>
		</linearGradient>
		<path id="Path_593" class="st3" d="M29.2,13.1v11.8c0,0.8-0.6,1.6-1.4,1.6c0,0,0,0,0,0h-9.1c-0.8,0-1.5-0.7-1.5-1.6c0,0,0,0,0,0
			V13.1h-1v11.8c0,0.7,0.2,1.3,0.7,1.8c0.4,0.5,1.1,0.7,1.7,0.7h9.1c0.7,0,1.3-0.3,1.7-0.7c0.5-0.5,0.7-1.2,0.7-1.8V13.1H29.2z"/>
		
			<linearGradient id="Path_594_1_" gradientUnits="userSpaceOnUse" x1="-257.1519" y1="373.6164" x2="-257.1519" y2="371.2544" gradientTransform="matrix(0.964 0 0 -10.073 271.1172 3777.8093)">
			<stop  offset="0" style="stop-color:#832DC4"/>
			<stop  offset="1" style="stop-color:#1746A0"/>
		</linearGradient>
		<path id="Path_594" class="st4" d="M23.2,14.4c-0.3,0-0.5,0.2-0.5,0.5V24c0,0.3,0.2,0.5,0.5,0.5c0.3,0,0.5-0.2,0.5-0.5v-9.1
			C23.7,14.6,23.5,14.4,23.2,14.4z"/>
		
			<linearGradient id="Path_595_1_" gradientUnits="userSpaceOnUse" x1="-630.6547" y1="100.0637" x2="-630.6547" y2="97.7017" gradientTransform="matrix(13.976 0 0 -0.964 8837.251 109.0693)">
			<stop  offset="0" style="stop-color:#832DC4"/>
			<stop  offset="1" style="stop-color:#1746A0"/>
		</linearGradient>
		<path id="Path_595" class="st5" d="M30.2,13.1c0-0.3-0.3-0.5-0.7-0.5H16.9c-0.4,0-0.7,0.2-0.7,0.5s0.3,0.5,0.7,0.5h12.6
			C29.9,13.6,30.2,13.4,30.2,13.1z"/>
	</g>
</g>
</svg>
