<?xml version="1.0" encoding="utf-8"?>
<!-- Generator: Adobe Illustrator 24.0.1, SVG Export Plug-In . SVG Version: 6.00 Build 0)  -->
<svg version="1.1" id="Layer_1" xmlns="http://www.w3.org/2000/svg" xmlns:xlink="http://www.w3.org/1999/xlink" x="0px" y="0px"
	 viewBox="0 0 50 50" style="enable-background:new 0 0 50 50;" xml:space="preserve">
<style type="text/css">
	.st0{fill:url(#Path_586_1_);}
	.st1{fill:url(#Path_587_1_);}
	.st2{fill:url(#Path_588_1_);}
	.st3{fill:url(#Path_589_1_);}
</style>
<g id="bin" transform="translate(0.003 0.001)">
	
		<linearGradient id="Path_586_1_" gradientUnits="userSpaceOnUse" x1="-140.2914" y1="372.4847" x2="-140.6694" y2="374.9737" gradientTransform="matrix(0.749 0 0 -7.8126 132.5061 2941.7529)">
		<stop  offset="0" style="stop-color:#1746A0"/>
		<stop  offset="1" style="stop-color:#832DC4"/>
	</linearGradient>
	<path id="Path_586" class="st0" d="M27.4,25.1c-0.2,0-0.4,0.2-0.4,0.4v7.1c0,0.2,0.2,0.4,0.4,0.4c0.2,0,0.3-0.2,0.4-0.4v-7.1
		C27.8,25.2,27.6,25.1,27.4,25.1z"/>
	
		<linearGradient id="Path_587_1_" gradientUnits="userSpaceOnUse" x1="-140.2967" y1="372.485" x2="-140.6747" y2="374.9741" gradientTransform="matrix(0.749 0 0 -7.8127 126.9161 2941.7844)">
		<stop  offset="0" style="stop-color:#1746A0"/>
		<stop  offset="1" style="stop-color:#832DC4"/>
	</linearGradient>
	<path id="Path_587" class="st1" d="M21.8,25.1c-0.2,0-0.4,0.2-0.4,0.4v7.1c0,0.2,0.2,0.4,0.4,0.4c0.2,0,0.3-0.2,0.4-0.4v-7.1
		C22.2,25.2,22,25.1,21.8,25.1z"/>
	
		<linearGradient id="Path_588_1_" gradientUnits="userSpaceOnUse" x1="-633.1075" y1="395.4427" x2="-633.4855" y2="397.9317" gradientTransform="matrix(16.2532 0 0 -20.0001 10315.9883 7941.0059)">
		<stop  offset="0" style="stop-color:#1746A0"/>
		<stop  offset="1" style="stop-color:#832DC4"/>
	</linearGradient>
	<path id="Path_588" class="st2" d="M17.8,21.2v11.5c0,0.7,0.2,1.3,0.7,1.8c0.4,0.5,1,0.7,1.7,0.7H29c0.6,0,1.2-0.3,1.7-0.7
		c0.4-0.5,0.7-1.1,0.7-1.8V21.2c1-0.3,1.5-1.2,1.3-2.2c-0.2-0.8-0.9-1.3-1.7-1.3h-2.4v-0.6c0-1-0.8-1.8-1.8-1.8c0,0,0,0,0,0h-4.2
		c-1,0-1.8,0.8-1.9,1.8c0,0,0,0,0,0v0.6h-2.4c-1,0-1.8,0.8-1.8,1.8C16.5,20.3,17,21,17.8,21.2L17.8,21.2z M29,34.3h-8.9
		c-0.8,0-1.5-0.7-1.4-1.5c0,0,0,0,0,0V21.3h11.7v11.5C30.5,33.6,29.9,34.3,29,34.3C29,34.3,29,34.3,29,34.3z M21.6,17.1
		c0-0.5,0.4-0.9,0.9-0.9c0,0,0,0,0,0h4.2c0.5,0,0.9,0.4,0.9,0.9c0,0,0,0,0,0v0.6h-6L21.6,17.1z M18.3,18.6h12.7
		c0.5,0,0.8,0.4,0.8,0.8s-0.4,0.8-0.8,0.8H18.3c-0.5,0-0.8-0.4-0.8-0.8C17.4,19,17.8,18.6,18.3,18.6C18.3,18.6,18.3,18.6,18.3,18.6z
		"/>
	
		<linearGradient id="Path_589_1_" gradientUnits="userSpaceOnUse" x1="-140.2914" y1="372.4847" x2="-140.6694" y2="374.9737" gradientTransform="matrix(0.749 0 0 -7.8126 129.7081 2941.7529)">
		<stop  offset="0" style="stop-color:#1746A0"/>
		<stop  offset="1" style="stop-color:#832DC4"/>
	</linearGradient>
	<path id="Path_589" class="st3" d="M24.6,25.1c-0.2,0-0.4,0.2-0.4,0.4v7.1c0,0.2,0.2,0.4,0.4,0.4c0.2,0,0.3-0.2,0.4-0.4v-7.1
		C25,25.2,24.8,25.1,24.6,25.1z"/>
</g>
</svg>
