<?xml version="1.0" encoding="utf-8"?>
<!-- Generator: Adobe Illustrator 24.0.1, SVG Export Plug-In . SVG Version: 6.00 Build 0)  -->
<svg version="1.1" id="Layer_1" xmlns="http://www.w3.org/2000/svg" xmlns:xlink="http://www.w3.org/1999/xlink" x="0px" y="0px"
	 viewBox="0 0 50 50" style="enable-background:new 0 0 50 50;" xml:space="preserve">
<style type="text/css">
	.st0{fill:#FFFFFF;}
</style>
<g id="Group_1016" transform="translate(128.386 61.5)">
	<path id="Path_573" class="st0" d="M-103.7-42.9c-0.2,0-0.4,0.1-0.4,0.3v9.3c0,0.2,0.2,0.3,0.4,0.3c0.2,0,0.3-0.2,0.3-0.3v-9.3
		C-103.3-42.7-103.5-42.9-103.7-42.9z"/>
	<path id="Path_574" class="st0" d="M-103.6-43.2c-0.2,0-0.3,0.1-0.3,0.2c-0.1,0.1,0,0.3,0.1,0.4l4.3,3.7c0.1,0.1,0.4,0.1,0.5,0
		c0,0,0,0,0,0c0.1-0.2,0.1-0.4,0-0.5l-4.3-3.7C-103.4-43.2-103.5-43.2-103.6-43.2z"/>
	<path id="Path_575" class="st0" d="M-103.8-43.2c-0.1,0-0.2,0-0.2,0.1l-4.1,3.7c-0.1,0.1-0.2,0.4,0,0.5c0.1,0.1,0.3,0.2,0.5,0.1
		c0,0,0,0,0,0l4.1-3.7c0.1-0.1,0.2-0.3,0.1-0.4C-103.5-43.1-103.6-43.2-103.8-43.2z"/>
	<path id="Path_581" class="st0" d="M-98.6-29.6c0-0.2-0.1-0.4-0.3-0.4h-9.5c-0.2,0-0.3,0.2-0.3,0.4c0,0.2,0.1,0.4,0.3,0.4h9.5
		C-98.8-29.2-98.6-29.4-98.6-29.6z"/>
</g>
</svg>
