<?xml version="1.0" encoding="utf-8"?>
<!-- Generator: Adobe Illustrator 24.0.1, SVG Export Plug-In . SVG Version: 6.00 Build 0)  -->
<svg version="1.1" id="Layer_2" xmlns="http://www.w3.org/2000/svg" xmlns:xlink="http://www.w3.org/1999/xlink" x="0px" y="0px"
	 viewBox="0 0 50 50" style="enable-background:new 0 0 50 50;" xml:space="preserve">
<style type="text/css">
	.st0{fill:url(#SVGID_1_);}
	.st1{fill:url(#SVGID_2_);}
</style>
<linearGradient id="SVGID_1_" gradientUnits="userSpaceOnUse" x1="7.748" y1="25.4061" x2="42.4" y2="25.4061">
	<stop  offset="0" style="stop-color:#832DC4"/>
	<stop  offset="1" style="stop-color:#1746A0"/>
</linearGradient>
<path class="st0" d="M35.8,9.4H12.5c-2.4,0-4.5,1.8-4.7,4.3l0,0.1c0,0.1,0,1.3,0,8.3l0,14.6c0,2.6,2.1,4.7,4.7,4.7h27
	c1.6,0,3-1.3,3-3V19.8c0-1.6-1.3-3-3-3h-0.7v-4.5C38.7,10.7,37.4,9.4,35.8,9.4z M12.5,11.1h23.3c0.7,0,1.3,0.6,1.3,1.3v4.5H12.5
	c-1.6,0-2.9-1.3-3-2.9C9.5,12.4,10.9,11.1,12.5,11.1z M40.7,32.6h-8.6c-1.8,0-3.2-1.4-3.2-3.2s1.4-3.2,3.2-3.2h8.6V32.6z M39.4,18.6
	c0.7,0,1.3,0.6,1.3,1.3v4.7h-8.6c-2.7,0-4.9,2.2-4.9,4.9s2.2,4.9,4.9,4.9h8.6v4.1c0,0.7-0.6,1.3-1.3,1.3h-27c-1.7,0-3-1.3-3-3V17.5
	l0.4,0.3c0.8,0.5,1.7,0.8,2.6,0.8H39.4z"/>
<linearGradient id="SVGID_2_" gradientUnits="userSpaceOnUse" x1="32.8436" y1="28.0923" x2="32.8436" y2="31.1036">
	<stop  offset="0" style="stop-color:#832DC4"/>
	<stop  offset="1" style="stop-color:#1746A0"/>
</linearGradient>
<circle class="st1" cx="32.8" cy="29.6" r="1.5"/>
</svg>
