<?xml version="1.0" encoding="utf-8"?>
<!-- Generator: Adobe Illustrator 24.0.1, SVG Export Plug-In . SVG Version: 6.00 Build 0)  -->
<svg version="1.1" id="Layer_2" xmlns="http://www.w3.org/2000/svg" xmlns:xlink="http://www.w3.org/1999/xlink" x="5px" y="0px"
	 viewBox="0 0 50 50" style="enable-background:new 0 0 50 50;" xml:space="preserve">
<style type="text/css">
	.st0{opacity:0.286;enable-background:new    ;}
</style>
<path class="st0" d="M37.1,8.9H13.8c-2.4,0-4.5,1.8-4.7,4.3l0,0.1c0,0.1,0,1.3,0,8.3l0,14.6c0,2.6,2.1,4.7,4.7,4.7h27
	c1.6,0,3-1.3,3-3V19.4c0-1.6-1.3-3-3-3h-0.7v-4.5C40.1,10.3,38.7,8.9,37.1,8.9z M13.8,10.7h23.3c0.7,0,1.3,0.6,1.3,1.3v4.5H13.8
	c-1.6,0-2.9-1.3-3-2.9C10.8,11.9,12.2,10.7,13.8,10.7z M42,32.2h-8.6c-1.8,0-3.2-1.4-3.2-3.2s1.4-3.2,3.2-3.2H42V32.2z M40.7,18.1
	c0.7,0,1.3,0.6,1.3,1.3v4.7h-8.6c-2.7,0-4.9,2.2-4.9,4.9s2.2,4.9,4.9,4.9H42V38c0,0.7-0.6,1.3-1.3,1.3h-27c-1.7,0-3-1.3-3-3V17.1
	l0.4,0.3c0.8,0.5,1.7,0.8,2.6,0.8H40.7z"/>
<circle class="st0" cx="34.2" cy="29.1" r="1.5"/>
</svg>
