<svg width="2599" height="731" viewBox="0 0 2599 731" fill="none" xmlns="http://www.w3.org/2000/svg">
<g clip-path="url(#clip0_3_24)">
<path d="M425.149 207.413L425.977 206.011L423.556 204.609L305.416 0H305.353H178.866H142.417V109.601H242.141L298.598 207.413L119.605 517.417H246.155L361.873 317.013L477.591 517.417H604.142L425.149 207.413Z" fill="black"/>
<path d="M109.601 730.5H614.146H723.746V620.9H0V730.5H109.601Z" fill="#94020D"/>
<path d="M910.959 517.799V78.6318H1127.42C1157.11 78.6318 1183.37 84.9402 1206.18 97.4296C1228.99 109.983 1246.64 127.888 1259.2 151.083C1271.75 174.277 1277.99 200.977 1277.99 231.053C1277.99 261.13 1271.75 289.103 1259.2 312.298C1246.64 335.492 1228.99 353.398 1206.18 365.951C1183.37 378.504 1157.11 384.749 1127.42 384.749H1013.23V517.735H910.959V517.799ZM1121.81 287.574C1132.26 287.574 1141.57 285.407 1149.72 281.011C1157.88 276.614 1164.25 270.114 1168.84 261.576C1173.43 253.037 1175.72 242.842 1175.72 231.117C1175.72 220.221 1173.43 210.535 1168.84 201.933C1164.25 193.394 1157.88 186.767 1149.72 182.179C1141.57 177.591 1132.26 175.297 1121.81 175.297H1013.3V287.638H1121.81V287.574Z" fill="black"/>
<path d="M1323.94 517.799V78.6318H1419.33V517.863H1323.94V517.799Z" fill="black"/>
<path d="M1490.44 131.967V49.7664H1589.59V131.967H1490.44ZM1491.65 517.799V197.855H1587.04V517.863H1491.65V517.799Z" fill="black"/>
<path d="M1658.03 517.799V197.855H1740.87L1747.75 226.083H1750.87C1759.22 216.907 1771.71 208.751 1788.21 201.614C1804.71 194.477 1823.45 190.973 1844.35 190.973C1870.28 190.973 1893.61 196.708 1914.31 208.241C1935.02 219.775 1951.08 236.278 1962.62 257.816C1974.09 279.354 1979.88 304.779 1979.88 334.027V517.863H1884.49V349.702C1884.49 335.875 1881.69 323.959 1876.02 313.955C1870.35 303.887 1862.64 296.049 1852.82 290.442C1843.01 284.77 1831.99 281.967 1819.88 281.967C1806.88 281.967 1795.41 284.77 1785.34 290.442C1775.27 296.113 1767.44 304.014 1761.83 314.273C1756.16 324.532 1753.35 336.321 1753.35 349.702V517.863H1657.96L1658.03 517.799Z" fill="black"/>
<path d="M2277.14 517.799V78.6318H2372.53V225.446H2375.66C2383.62 216.652 2395.54 208.751 2411.4 201.614C2427.27 194.477 2444.86 190.972 2464.1 190.972C2489.59 190.972 2512.72 196.707 2533.43 208.241C2554.14 219.774 2570.2 236.278 2581.73 257.816C2593.2 279.354 2599 304.779 2599 334.027V517.863H2503.61V349.702C2503.61 335.875 2500.81 323.959 2495.13 313.955C2489.46 303.887 2481.75 296.049 2471.94 290.441C2462.13 284.77 2451.1 281.966 2439 281.966C2426 281.966 2414.53 284.77 2404.46 290.441C2394.39 296.113 2386.55 304.014 2380.95 314.273C2375.27 324.532 2372.47 336.321 2372.47 349.702V517.863H2277.08L2277.14 517.799Z" fill="black"/>
<path d="M2211.38 286.3V197.854H2133.58V99.3413H2038.83V429.991C2038.83 458.411 2046.86 480.203 2062.98 495.242C2079.1 510.28 2102.8 517.799 2134.22 517.799H2211.38V429.354H2156.77C2148.43 429.354 2142.44 427.697 2138.87 424.32C2135.3 421.006 2133.52 415.335 2133.52 407.37V286.3H2211.32H2211.38Z" fill="black"/>
</g>
<defs>
<clipPath id="clip0_3_24">
<rect width="2599" height="731" fill="white"/>
</clipPath>
</defs>
</svg>
