<svg version="1.1" xmlns="http://www.w3.org/2000/svg" viewBox="0 0 1993.7971944152434 1427.3027343749995" width="3987.594388830487" height="2854.605468749999">
  <!-- svg-source:excalidraw -->
  
  <defs>
    <style>
      @font-face {
        font-family: "Virgil";
        src: url("https://excalidraw.com/Virgil.woff2");
      }
      @font-face {
        font-family: "Cascadia";
        src: url("https://excalidraw.com/Cascadia.woff2");
      }
    </style>
  </defs>
  <rect x="0" y="0" width="1993.7971944152434" height="1427.3027343749995" fill="#ffffff"></rect><g transform="translate(1163.8829459033368 521.4899553571427) rotate(0 382.66183035714283 426.3699776785714)"><path d="M-0.16559155955910684 0.32982852235436444 C244.47182629026878 -2.232101374837013, 490.0949519953213 -3.3795134126864395, 766.0536862344613 0.6618844009935856 M766.0170279548636 0.7300699375569821 C762.8735056542438 194.0960891405242, 764.0379962348026 388.22393924559105, 765.5980729387275 852.4924413856651 M765.5659110040536 852.0036927473332 C588.7152088027552 853.2482982066383, 411.4646431676191 852.8562076714744, 0.4907871387898922 852.325931884029 M-0.18740055784583093 853.1276275810386 C-1.0050698683956165 568.094315155101, -0.08044821483879261 283.59194984220056, 0.5232563950121403 0.5094436310231686" stroke="#000000" stroke-width="1.5" fill="none" stroke-dasharray="12 8"></path></g><g transform="translate(1475.5447762604795 537.3392857142856) rotate(0 71 11.5)"><text x="0" y="18" font-family="Helvetica, Segoe UI Emoji" font-size="20px" fill="#000000" text-anchor="start" style="white-space: pre;" direction="ltr">private subnet 1</text></g><g transform="translate(313.8188338001621 765.0840928819441) rotate(0 139.51171875 167.26757812500003)"><path d="M0.848381625351164 1.0191642010428326 C94.70515029974403 1.717796119026073, 190.8422108197481 1.1473064986778907, 279.62685503279863 1.3805000975695054 M-0.3625583618349354 -0.1434950716677524 C73.57747539252391 0.848174569806673, 146.6644165557062 1.2367749764696647, 278.80454810177855 0.6067370460935348 M278.02661649681744 -0.10772696310236529 C280.2522971145631 112.10341140086214, 281.08323701760634 226.3923722298584, 279.51520224066115 335.4393554161086 M279.4777499249208 -0.05237055916530801 C281.0361563418687 95.77318900252148, 280.313802789532 190.01584805313348, 278.9296757638784 334.60730078946915 M278.81080653112537 334.54898895120857 C205.580409940414 334.97164266596604, 131.07270544512886 333.6005436376216, 0.22263997911558353 335.20039970083394 M278.77333332231785 334.1584333228462 C217.09729116392785 334.86179305841813, 155.3168607139686 334.5512746480207, -0.4437627358540315 334.2262836837926 M0.3430500144907813 335.7948442470108 C-0.6466588540283756 201.84613982081513, 0.2944394192417963 68.18290500477428, 1.0191755679350065 0.7185628344666475 M0.24481944193400987 335.0341801215943 C0.9264850573267279 255.29856604329547, 0.664367169737557 176.08845198533515, 0.23410855990289578 -0.26763025856321854" stroke="#000000" stroke-width="1" fill="none"></path></g><g transform="translate(398.8305525501621 777.3848741319441) rotate(0 54.5 11.5)"><text x="0" y="18" font-family="Helvetica, Segoe UI Emoji" font-size="20px" fill="#000000" text-anchor="start" style="white-space: pre;" direction="ltr">playgrounds</text></g><g transform="translate(405.1703963001621 830.8028428819441) rotate(0 81.115234375 22.50390625)"><path d="M-0.2767703589051962 0.018005287274718285 C44.340831447008895 2.4545376032241255, 87.29582987462709 0.6698513358481796, 162.5202673021704 0.8659118171781301 M-0.3255472304299474 -0.490360083989799 C35.756975546042305 -0.23534625537165987, 71.70362166693594 -0.6395314610696732, 161.6528465328738 -0.40204289834946394 M162.73814135231078 1.864186143502593 C160.2368754117701 18.97965982033857, 161.62958722998832 36.51759405320482, 163.73872553743422 46.07119873724878 M162.592771965079 0.738495078869164 C161.92795873838847 10.118724865021797, 161.54005591231768 20.276631233510855, 162.57692115288228 44.611752030439675 M162.50468003191054 45.460601603612304 C117.95536648061788 47.519190780641544, 70.52677474634183 46.756114773275364, -0.42980009876191616 46.12724516354501 M162.859627651982 45.13717007357627 C112.69299086089632 44.20617749767549, 62.59549450407576 43.85817324595697, -0.6343849720433354 44.61082699615508 M1.0692934338003397 44.8711554761976 C-0.2385407097449206 35.29835729902625, 0.06987774299479499 25.456491357572666, -0.12440872751176357 -1.3336857203394175 M0.40247954707592726 45.09802940208465 C0.5394798775492382 28.724656889613104, 0.5520306189833355 11.331170432134236, 0.9649425623938441 0.742429313249886" stroke="#000000" stroke-width="1" fill="none"></path></g><g transform="translate(422.2856306751621 841.8067491319441) rotate(0 64 11.5)"><text x="0" y="18" font-family="Helvetica, Segoe UI Emoji" font-size="20px" fill="#000000" text-anchor="start" style="white-space: pre;" direction="ltr">marlowe static</text></g><g transform="translate(405.1703963001621 896.5658637152774) rotate(0 81.115234375 22.50390625)"><path d="M-0.5967281702905893 -0.665508097037673 C55.34091133802977 -2.6948006832721516, 111.04506657816165 -2.35588754059103, 160.78731880150735 1.7088363114744425 M-0.19736904185265303 0.7989807305857539 C42.08368974035875 -1.192603281945958, 85.84490923576595 -1.2534663893888138, 163.18263134080917 -0.1595790507271886 M160.57630357705057 -0.20706344209611416 C163.47422383647552 17.77621352788774, 161.38093809705367 34.6017699320757, 162.55505231581628 44.9811180178076 M161.53767737466842 0.26752136927098036 C161.95939030998363 12.001257252171492, 163.175920245582 25.33886257324339, 162.56919467169791 45.646778780035675 M161.59258750639856 45.842302614822984 C122.67511391062908 46.99595716189648, 80.05528397635862 46.88656326722408, -0.2724995855242014 43.18031966127455 M161.70853483397514 44.735752063803375 C104.06464200486624 45.965797893328165, 46.335541236609416 45.46981706432769, -0.3125019995495677 44.22379224281758 M-0.8355350736528635 44.89427220262587 C-0.34774593080997873 28.95382902203346, -0.3548462149095576 14.201490470957651, -1.71932371892035 -1.4752360042184591 M0.5942865880206227 45.81570284347981 C-0.2324095823753305 30.346906532542924, 0.8546933970462851 14.405746749621173, 0.39181989151984453 -0.4620164455845952" stroke="#000000" stroke-width="1" fill="none"></path></g><g transform="translate(433.285630675162 907.5697699652774) rotate(0 53 11.5)"><text x="0" y="18" font-family="Helvetica, Segoe UI Emoji" font-size="20px" fill="#000000" text-anchor="start" style="white-space: pre;" direction="ltr">plutus static</text></g><g transform="translate(405.1703963001621 962.3288845486107) rotate(0 81.115234375 22.50390625)"><path d="M-0.7413521055132151 -1.8074852284044027 C56.42283486475317 -0.9287436330265699, 113.64144039886233 2.2486647641711537, 161.46805993281305 1.7639855686575174 M-0.401153895072639 -0.09966905135661364 C60.47370489579662 -1.4567223432509129, 120.14912845259606 -1.455769235178632, 163.1901110978797 0.895774501375854 M163.07105532847345 -0.04527050815522671 C160.60551780931092 12.150393281618745, 162.1828005360756 26.35648836106557, 161.66111884079874 45.918345445767045 M161.75448482949287 -0.2198267998173833 C162.65920452186583 15.154775923271519, 162.2573844284725 29.155129188047432, 161.77177235204726 45.273986923508346 M163.9028013702482 46.17572450079024 C105.63919165953448 46.74322921859272, 48.215034692351026 43.857218273749424, 1.0931818839162588 45.99053102172911 M161.6011531027034 45.31220184545964 C106.20346232859848 44.374856095534085, 51.507764543079986 43.7824273218925, 0.5581655474379659 44.216952878050506 M-0.7036945465952158 44.96835380233824 C-0.5227668010340858 30.85952197334482, -1.5312956892596412 12.790540379336743, 0.8828403707593679 -0.4124630745500326 M-0.32522988598793745 45.83598597627133 C0.49439770018470885 27.39219372857842, 0.12434449827087524 8.56237223741627, 0.004155186004936695 0.5749836442992091" stroke="#000000" stroke-width="1" fill="none"></path></g><g transform="translate(432.2856306751621 973.3327907986107) rotate(0 54 11.5)"><text x="0" y="18" font-family="Helvetica, Segoe UI Emoji" font-size="20px" fill="#000000" text-anchor="start" style="white-space: pre;" direction="ltr">marlowe api</text></g><g transform="translate(405.1703963001621 1028.0919053819443) rotate(0 81.115234375 22.50390625)"><path d="M-1.1194603089243174 -1.468572085723281 C41.82770614954025 3.174982190788178, 85.77930337887884 3.230131447971253, 163.57785341702402 -0.39473808370530605 M0.8752219649031758 -0.16053215879946947 C62.58320506032361 0.002114518487323913, 124.22172728690859 1.0574680705903665, 162.16142466384917 -0.8270825864747167 M160.9777695890516 -1.0411981400102377 C162.74421713138602 13.009675638934278, 161.85028365636848 26.983273188020394, 162.5662938710302 43.62222974933684 M162.97101476509124 0.8966944692656398 C162.3549647212259 15.34536519282483, 161.55754240157526 29.678972249086655, 162.73606592137367 44.68887187819928 M162.51065889559686 46.066330606117845 C106.5198424147271 44.127674218009304, 52.44739713441885 46.93788557846386, 0.8057623859494925 43.96394466795027 M161.4085634322837 44.81622101645917 C117.66247533470123 44.71760450478181, 74.27765146593956 44.710765140014736, 0.4151888759806752 44.59004496317357 M-0.7107948306947947 46.230540031567216 C-1.5609649578682 30.28574276655199, 1.041199131811518 18.10168196699087, 1.9949283953756094 1.1885731760412455 M0.7618730934336782 45.38390563707799 C0.5381987487992592 27.407314594425404, 0.15053404328435133 11.305833224319208, -0.9645060328766704 0.32928701024502516" stroke="#000000" stroke-width="1" fill="none"></path></g><g transform="translate(443.2856306751622 1039.095811631944) rotate(0 43 11.5)"><text x="0" y="18" font-family="Helvetica, Segoe UI Emoji" font-size="20px" fill="#000000" text-anchor="start" style="white-space: pre;" direction="ltr">plutus api</text></g><g transform="translate(226.2055525501621 928.7247178819441) rotate(269.9756439890428 132.4609375 23.2265625)"><path d="M0.33776692160227956 0.37946416363799784 C57.29949547999946 2.172987027071883, 115.42745471450661 0.7411851094170017, 263.5554707003254 -0.7420788426931162 M0.6167347277832107 0.1426198233647182 C52.5308671843305 -0.3629230310716794, 107.29886639397166 0.6807894109167487, 265.26326952534964 -0.2836879100066597 M264.9066945258528 -0.7766675595194101 C266.43144476039464 16.798042647317928, 264.4291732869869 33.55320901565429, 266.1969382110983 47.02938792668283 M265.57701830845326 0.42264234740287066 C264.45400653891835 14.768455268595426, 265.2354123752621 31.775154000640033, 265.4724137960002 45.51134672481567 M264.1440683678199 46.31359615949891 C201.90380311885576 45.64029338706562, 136.30661423993698 46.392219534963324, 1.500455266022558 47.68854879989881 M265.55616989764604 47.05713021065941 C192.02128320138567 46.54269651241104, 118.21027991189229 47.31692123739332, 0.6817241096863255 46.73628798111579 M1.026546711102128 46.88941661082208 C0.01034360309000476 34.570505855175725, 0.025219193891243774 25.17411669071589, 1.301825338974595 0.41093764267861843 M0.08865879755467176 46.10194176156074 C0.4717459284923098 31.912089264891982, -0.5094195700027921 17.274785176731527, -0.864206594415009 -0.11651900690048933" stroke="#000000" stroke-width="1" fill="none"></path></g><g transform="translate(334.6664900501621 940.4512803819441) rotate(269.9756439890428 24 11.5)"><text x="0" y="18" font-family="Helvetica, Segoe UI Emoji" font-size="20px" fill="#000000" text-anchor="start" style="white-space: pre;" direction="ltr">nginx</text></g><g><g transform="translate(382.9750838001621 1054.736436631944) rotate(0 11.343961033504463 -1.890807540118658)"><path d="M0.19847269915044308 -0.32433930896222585 C3.981638334052017 -0.79324260011936, 18.051492920300614 -1.4715722941172507, 21.648396424464885 -1.799788405708955 M-1.1564678631350398 -1.5402213915064933 C3.0846102490214014 -1.815935112951942, 19.613766873224332 -2.975590713464954, 23.844389930143958 -3.457275771275149" stroke="#000000" stroke-width="1" fill="none"></path></g><g transform="translate(382.9750838001621 1054.736436631944) rotate(0 11.343961033504463 -1.890807540118658)"><path d="M13.215581258673028 0.43923332186563413 C16.516649274992215 -0.47904900587717214, 18.240361136904323 -0.8557918527891141, 23.026918449242544 -2.7762314117972666 M13.904948055644539 1.2170189206217334 C16.704288645786914 0.4023193259314892, 20.26348714155222 -1.3204779648625864, 23.966221046223684 -3.501293187294214" stroke="#000000" stroke-width="1" fill="none"></path></g><g transform="translate(382.9750838001621 1054.736436631944) rotate(0 11.343961033504463 -1.890807540118658)"><path d="M12.525696245515936 -7.324808120487775 C16.038912781059373 -6.59475917969157, 17.90919086435734 -5.322029730225628, 23.026918449242544 -2.7762314117972666 M13.215063042487447 -6.547022521731676 C16.280389956995524 -4.927798942858894, 20.055575933619405 -4.219849485377588, 23.966221046223684 -3.501293187294214" stroke="#000000" stroke-width="1" fill="none"></path></g></g><g><g transform="translate(383.0219588001621 984.9825303819442) rotate(0 13.046645538862798 -0.12188073061406612)"><path d="M0.9315589394420385 0.8815658066421748 C5.160874478643139 0.8785992079724868, 21.8820961839209 -0.6019028292347988, 26.131802424415945 -1.125327267870307 M-0.03851134669035683 0.29878390979021807 C3.937157936779161 0.5974068918948374, 20.726499686526754 0.7195714580143493, 25.006859483607112 0.41397694896906634" stroke="#000000" stroke-width="1" fill="none"></path></g><g transform="translate(383.0219588001621 984.9825303819442) rotate(0 13.046645538862798 -0.12188073061406612)"><path d="M13.651533786856717 4.887279726091935 C17.202208332736404 3.3617313675399414, 20.425942032680542 1.392253935744424, 24.18092873614191 0.9455823426621994 M12.945049505495492 5.0584384109268195 C16.776373818233175 3.1472202441872783, 19.928985528649594 2.0917537573928975, 25.05703140708062 0.8197604654221298" stroke="#000000" stroke-width="1" fill="none"></path></g><g transform="translate(383.0219588001621 984.9825303819442) rotate(0 13.046645538862798 -0.12188073061406612)"><path d="M13.42137939478124 -4.1708726002387895 C16.971996956663332 -2.4101668990088663, 20.279274959222338 -1.0916035845108856, 24.18092873614191 0.9455823426621994 M12.714895113420015 -3.999713915403905 C16.60680761439282 -3.0661501882836184, 19.831680142344727 -1.2776583801304677, 25.05703140708062 0.8197604654221298" stroke="#000000" stroke-width="1" fill="none"></path></g></g><g><g transform="translate(381.6664900501621 915.771592881944) rotate(0 13.510691108927134 0.1997012136317835)"><path d="M-0.2754133377224207 -0.877225198969245 C4.153828577821453 -0.8599908139556647, 23.003400731707615 0.7603660915046929, 27.296795555576683 0.9026382420212029 M1.7808559306338432 1.276627626232803 C6.081920750526091 0.8972778115794062, 22.539028184401495 -0.746864922232926, 26.906520883627238 -0.7460514296963812" stroke="#000000" stroke-width="1" fill="none"></path></g><g transform="translate(381.6664900501621 915.771592881944) rotate(0 13.510691108927134 0.1997012136317835)"><path d="M13.890512870318911 5.581187657417463 C20.14358494155861 1.7680341212323103, 23.47303482715085 2.012715146040281, 25.708412566690388 -0.9529307883979345 M14.513624727557383 4.790992165748681 C19.16489660165238 2.5767372532441297, 24.278400848157982 0.13473881481795513, 26.93946721731911 -0.196702789406918" stroke="#000000" stroke-width="1" fill="none"></path></g><g transform="translate(381.6664900501621 915.771592881944) rotate(0 13.510691108927134 0.1997012136317835)"><path d="M13.390759867039158 -3.3775688197688885 C19.88346669644971 -3.9634196082316833, 23.39288363815414 -0.49258282439027146, 25.708412566690388 -0.9529307883979345 M14.01387172427763 -4.167764311437671 C18.823286039516407 -2.9031269021365005, 24.130645917514126 -1.8699978618451765, 26.93946721731911 -0.19670278940691788" stroke="#000000" stroke-width="1" fill="none"></path></g></g><g><g transform="translate(383.7172713001621 853.232530381944) rotate(0 10.037719275010751 0.4699966165185572)"><path d="M0.6790516231209038 -0.6991003308445215 C4.246223701412479 -0.6614903682221969, 17.329299061869584 -0.433890743429462, 20.499023554101587 -0.3887074623256921 M-0.42358500408008704 1.548268050123006 C3.0758604233774043 1.8527156006979444, 16.451208684773494 1.3055164513674873, 19.618141237627714 1.2009940274246036" stroke="#000000" stroke-width="1" fill="none"></path></g><g transform="translate(383.7172713001621 853.232530381944) rotate(0 10.037719275010751 0.4699966165185572)"><path d="M9.579345310581497 5.129632148080248 C12.399030363480774 3.5373441745869094, 14.487690727588475 4.104497156972101, 19.465849035219847 1.905773384676386 M9.824868328938337 4.5213116402037326 C12.17770105134001 4.216207322248432, 13.638338007135973 3.5773888208242974, 19.323386832652098 1.3128140769788201" stroke="#000000" stroke-width="1" fill="none"></path></g><g transform="translate(383.7172713001621 853.232530381944) rotate(0 10.037719275010751 0.4699966165185572)"><path d="M9.333647913283267 -1.8353611624916293 C12.172873934701926 -1.8642428237990627, 14.31673413152334 0.2677068142422996, 19.465849035219847 1.905773384676386 M9.579170931640107 -2.4436816703681448 C11.97654830553416 -1.3048624692578452, 13.488161659888586 -0.49860959890103995, 19.323386832652098 1.3128140769788201" stroke="#000000" stroke-width="1" fill="none"></path></g></g><g transform="translate(620.6870133636543 765.0840928819441) rotate(0 139.51171875 167.26757812500003)"><path d="M-0.03871935273281866 -0.6190657658895863 C85.70792780200148 1.3923243022799467, 173.79885799661454 1.9670465437557199, 278.9589564072089 0.41350956911531606 M-0.7126133213052601 -0.5858338199675949 C104.46280149395544 0.5110456792277716, 209.70109458129352 1.415093406471986, 279.0036693685627 -0.051366515369751065 M279.2504652074643 1.2037888715392944 C279.1239055188906 118.33450298813712, 279.653046431572 236.64691727420552, 280.08878525088096 334.1195169110643 M278.63785337742553 -0.201982555688188 C278.76187904473875 111.8944923124255, 279.32227549793976 223.99112377632696, 279.1385553793795 334.1801997278481 M280.34757370270165 335.94332780021875 C208.19377383424882 333.77790863163233, 133.16241143588292 333.5141747839682, -0.3758971813549111 335.8500010045838 M278.56623583746614 333.92538173546717 C223.33548302816936 335.8224310635783, 166.80294755079396 336.35412096241566, -0.39337657776449403 334.11253379260694 M-1.2851515198031895 333.7766504739706 C0.9058524519660246 237.53383216061744, -0.020233891770762513 141.74559401969216, -1.1778206137991771 -1.29212843760259 M0.1377158638863735 334.3779961372619 C-0.37825942995031714 225.7442120607664, 0.2997411043095415 118.13073847267637, -0.42490104347642377 -0.6169806254583151" stroke="#000000" stroke-width="1" fill="none"></path></g><g transform="translate(705.6987321136544 777.3848741319441) rotate(0 40 11.5)"><text x="0" y="18" font-family="Helvetica, Segoe UI Emoji" font-size="20px" fill="#000000" text-anchor="start" style="white-space: pre;" direction="ltr">web_ghc</text></g><g transform="translate(679.0834977386543 830.8028428819441) rotate(0 81.115234375 22.50390625)"><path d="M-1.0032427553087473 0.46895849145948887 C41.95391199614933 1.8706741400348619, 81.63320992082518 1.191873735963054, 163.7722322102636 -1.5360096152871847 M-0.9809686867520213 -0.339478206820786 C41.87519052168391 2.0743584478564663, 85.62969281636252 1.1702250385947628, 162.78093915898353 -0.24288795609027147 M163.19169489108026 -0.6529439147561789 C164.05036673760412 10.163042069806398, 163.88266197657583 22.388140984666826, 162.92960844002664 45.1797897759825 M161.55573159176856 -0.23736498970538378 C162.12822802583432 16.73629728077431, 162.14400665680623 33.298478647628514, 161.82190903741866 45.42192648630589 M164.15377387963235 44.86972498334944 C116.86683862455574 46.013231604096326, 74.2589557223844 48.2060704517335, -1.9652709607034922 43.41326838172972 M163.01307567674667 44.22677348833531 C99.74388231744487 43.63120492594437, 35.813522767042 43.170066588093796, -0.12074363511055708 44.591802078299224 M-0.051148856058716774 44.0013816896826 C-0.9936499956799525 27.8630300195211, -1.3150374654484767 9.241335224969951, 0.4796228166669607 -0.12701666913926601 M-0.7722359923645854 44.404225069098175 C0.1393957329240948 30.289185212538722, -0.7205294477495044 13.586822167197532, -0.16637310665100813 -0.9962311508134007" stroke="#000000" stroke-width="1" fill="none"></path></g><g transform="translate(722.1987321136543 841.806749131944) rotate(0 38 11.5)"><text x="0" y="18" font-family="Helvetica, Segoe UI Emoji" font-size="20px" fill="#000000" text-anchor="start" style="white-space: pre;" direction="ltr">web-ghc</text></g><g transform="translate(224.10281197476536 521.4899553571427) rotate(0 382.66183035714283 426.3699776785714)"><path d="M0.2751869820058346 0.35080840364098553 C301.2510477004134 -2.0272407407037933, 603.5948428365456 -2.4778449172250947, 764.6471075982919 -0.29546213373541835 M765.3265393302909 -0.24632681384682656 C767.6500984204234 270.7479235557163, 766.9721390498103 542.898731389879, 765.7114844606391 853.3800155815269 M764.7426819772592 853.1153403532292 C502.73106595800385 851.4638027844687, 239.95806306741056 851.473402923133, -0.3538225032389164 853.3739015114094 M0.1559426046907902 852.2454263862754 C-0.34235135858211196 637.4893395964167, -0.7365468436971633 423.31517648209507, 0.24139814153313638 -0.27031005397439006" stroke="#000000" stroke-width="1.5" fill="none" stroke-dasharray="12 8"></path></g><g transform="translate(535.7646423319081 537.3392857142856) rotate(0 71 11.5)"><text x="0" y="18" font-family="Helvetica, Segoe UI Emoji" font-size="20px" fill="#000000" text-anchor="start" style="white-space: pre;" direction="ltr">private subnet 2</text></g><g transform="translate(200.3115173319082 10) rotate(0 415.24609375 703.6513671874998)"><path d="M0.308676328510046 -0.6849464915692807 C183.11737718717413 2.627494655557821, 366.81522828387534 3.0280051335775355, 830.0097568176686 0.5885331846773625 M830.1982585169375 0.5540585897862912 C824.8924030785597 331.0149937430689, 824.9059636359251 662.8552646812635, 830.9991696812212 1407.8396041058 M831.2536405228078 1406.6015983320767 C577.5812631668268 1409.2899803965292, 323.5257460098204 1410.7309930412969, 0.10092691406607629 1407.1458032585676 M-0.652798130363226 1408.0841836117204 C-1.9355458676019839 848.9985229464592, -1.3055798231760194 289.4245955270477, -0.12845175489783286 -0.4946606732904911" stroke="#000000" stroke-width="1.5" fill="none" stroke-dasharray="3 6"></path></g><g transform="translate(525.7939392069081 24.775390624999886) rotate(0 82 11.5)"><text x="0" y="18" font-family="Helvetica, Segoe UI Emoji" font-size="20px" fill="#000000" text-anchor="start" style="white-space: pre;" direction="ltr">Availability Zone B</text></g><g transform="translate(1134.5732360819081 12.94921875) rotate(0 415.24609375 702.1767578124998)"><path d="M-0.5677245952188968 0.16606418862938882 C195.74519388459376 -2.579148242592899, 392.0533417040061 -2.9761894918681064, 830.4458963297308 0.6789199329912663 M830.7783806778491 0.43088795170187955 C835.1324119398081 305.47872904492226, 835.6504471370662 612.9197975246173, 831.1997470118106 1403.7587102316315 M830.6563266657292 1404.3151845432812 C565.2118414043894 1400.9713081452833, 301.17545169358635 1402.4162583205687, 0.27457634434103967 1404.0282333113248 M-0.3167166493833065 1404.1241332434113 C-3.0627452143265463 860.926371073289, -2.3650965221955036 316.5893900005789, 0.04270891919732094 -0.7977614261209965" stroke="#000000" stroke-width="1.5" fill="none" stroke-dasharray="3 6"></path></g><g transform="translate(1449.3818298319081 28.681640624999886) rotate(0 81.5 11.5)"><text x="0" y="18" font-family="Helvetica, Segoe UI Emoji" font-size="20px" fill="#000000" text-anchor="start" style="white-space: pre;" direction="ltr">Availability Zone A</text></g><g transform="translate(233.59862670690796 324.3027343749999) rotate(0 835.8457031250001 68.10546875)"><path d="M-0.06217866912484169 0.17346267476677896 C366.9097546976224 -4.337757111901607, 732.5840707242818 -3.716154409760799, 1671.8735499523582 0.25865652337670325 M-0.3422510277479887 0.0006395768374204636 C335.9002886816172 3.5143531099003313, 672.413762305167 3.4002667322796345, 1671.7870841015133 0.0655703853815794 M1669.9117787238213 -0.400316184386611 C1672.7777537593552 54.41545897513789, 1673.7005450615593 107.19051796339774, 1670.464149212465 135.28647863306105 M1672.5172371836381 -0.3150023641064763 C1671.876345848247 36.59593192935063, 1671.5192702464308 73.29002643246349, 1672.424617555924 137.05388574581593 M1672.2123742006722 136.65488438382744 C1177.1044417921057 139.6233453692451, 684.3097807153266 138.2710451783195, 0.42984568104147913 136.49180705323815 M1671.6595277894291 136.60576726906 C1283.8620020193039 140.62047626243023, 896.5725439524257 141.04096096024898, 0.21235916502773763 136.60019255392254 M0.34795871935784817 136.5262796226889 C2.5579958079219067 89.2766029932427, 1.2155321357608044 45.89844163784437, 1.1084705349057913 -1.018809562548995 M-0.23746151011437178 135.70638276915997 C0.6966423139663676 87.50318257599065, 0.9981646583171824 40.31745655732084, -0.2624904243275523 -0.6752727152779698" stroke="#000000" stroke-width="1" fill="none"></path></g><g transform="translate(960.2997985819082 346.9433593749999) rotate(0 115.99999999999997 11.5)"><text x="0" y="18" font-family="Helvetica, Segoe UI Emoji" font-size="20px" fill="#000000" text-anchor="start" style="white-space: pre;" direction="ltr">Application Load Balancer</text></g><g transform="translate(1705.0458923319084 421.9824218749999) rotate(0 90 9)"><text x="0" y="14" font-family="Helvetica, Segoe UI Emoji" font-size="16px" fill="#862e9c" text-anchor="start" style="white-space: pre;" direction="ltr">marlowe-dash.iohkdev.io/</text></g><g transform="translate(243.16307983190825 421.9824218749999) rotate(0 70 9)"><text x="0" y="14" font-family="Helvetica, Segoe UI Emoji" font-size="16px" fill="#087f5b" text-anchor="start" style="white-space: pre;" direction="ltr">marlowe.iohkdev.io/</text></g><g transform="translate(403.53026733190825 421.9824218749999) rotate(0 94.5 9)"><text x="0" y="14" font-family="Helvetica, Segoe UI Emoji" font-size="16px" fill="#d9480f" text-anchor="start" style="white-space: pre;" direction="ltr">marlowe.iohkdev.io/runghc</text></g><g transform="translate(623.8662048319082 421.9824218749999) rotate(0 81 9)"><text x="0" y="14" font-family="Helvetica, Segoe UI Emoji" font-size="16px" fill="#5c940d" text-anchor="start" style="white-space: pre;" direction="ltr">marlowe.iohkdev.io/api</text></g><g transform="translate(1434.8870381652416 421.9824218749999) rotate(0 104 9)"><text x="0" y="14" font-family="Helvetica, Segoe UI Emoji" font-size="16px" fill="#1864ab" text-anchor="start" style="white-space: pre;" direction="ltr">goguen.monitoring.iohkdev.io</text></g><g transform="translate(848.0250589985749 421.9824218749999) rotate(0 61 9)"><text x="0" y="14" font-family="Helvetica, Segoe UI Emoji" font-size="16px" fill="#5f3dc4" text-anchor="start" style="white-space: pre;" direction="ltr">plutus.iohkdev.io/</text></g><g transform="translate(1008.3922464985749 421.9824218749999) rotate(0 85.5 9)"><text x="0" y="14" font-family="Helvetica, Segoe UI Emoji" font-size="16px" fill="#c92a2a" text-anchor="start" style="white-space: pre;" direction="ltr">plutus.iohkdev.io/runghc</text></g><g transform="translate(1228.7281839985749 421.9824218749999) rotate(0 72 9)"><text x="0" y="14" font-family="Helvetica, Segoe UI Emoji" font-size="16px" fill="#000000" text-anchor="start" style="white-space: pre;" direction="ltr">plutus.iohkdev.io/api</text></g><g><g transform="translate(311.8802065199195 446.7884520312638) rotate(358.13437199639895 -35.68950012826207 204.8135972384361)"><path d="M0 0 C-11.899691485908953 22.34259889046897, -23.799382971817906 44.68519778093794, -55.359396121232294 103.94158401668838 M0 0 C-12.480900195574433 23.4338635746904, -24.961800391148866 46.8677271493808, -55.359396121232294 103.94158401668838 M-55.359396121232294 103.94158401668838 C-61.12524695009276 177.92679840367867, -66.89109777895322 251.912012790669, -78.21841086413798 397.25980480102606 M-55.359396121232294 103.94158401668838 C-62.798478832602726 199.39707628998917, -70.23756154397316 294.85256856328994, -78.21841086413798 397.25980480102606 M-78.21841086413798 397.25980480102606 C-56.72068578747817 400.3855695874609, -35.222960710818356 403.5113343738957, 6.839410607613843 409.6271944768722 M-78.21841086413798 397.25980480102606 C-53.42331740321343 400.86500626956024, -28.628223942288876 404.4702077380944, 6.839410607613843 409.6271944768722" stroke="#087f5b" stroke-width="1" fill="none"></path></g><g transform="translate(311.8802065199195 446.7884520312638) rotate(358.13437199639895 -35.68950012826207 204.8135972384361)"><path d="M-22.53438453456588 415.7247479981838 C-16.220386831325595 414.41405801949384, -9.90638912808531 413.1033680408039, 6.839410607613843 409.6271944768722 M-22.53438453456588 415.7247479981838 C-15.911996444711235 414.35004086138616, -9.289608354856588 412.9753337245886, 6.839410607613843 409.6271944768722" stroke="#087f5b" stroke-width="1" fill="none"></path></g><g transform="translate(311.8802065199195 446.7884520312638) rotate(358.13437199639895 -35.68950012826207 204.8135972384361)"><path d="M-19.581653787267754 395.4170799016297 C-13.902355654392345 398.47159261803466, -8.223057521516935 401.52610533443965, 6.839410607613843 409.6271944768722 M-19.581653787267754 395.4170799016297 C-13.62496547637615 398.6207821492642, -7.668277165484547 401.82448439689864, 6.839410607613843 409.6271944768722" stroke="#087f5b" stroke-width="1" fill="none"></path></g></g><g><g transform="translate(504.66828816524145 443.5488281249999) rotate(0 85.36458333333337 152.77994791666669)"><path d="M0 0 C-17.477882280911217 42.49008975559871, -34.955764561822434 84.98017951119742, -75.33203125 183.13802083333337 M0 0 C-18.736310558166224 45.54942667022868, -37.47262111633245 91.09885334045735, -75.33203125 183.13802083333337 M-75.33203125 183.13802083333337 C22.023841747453872 184.35487031494938, 119.37971474490774 185.5717197965654, 245.00651041666674 187.14192708333337 M-75.33203125 183.13802083333337 C33.884062390519844 184.5031110208978, 143.1001560310397 185.8682012084622, 245.00651041666674 187.14192708333337 M245.00651041666674 187.14192708333337 C245.22467155891968 211.63657533295498, 245.44283270117262 236.13122358257658, 246.06119791666674 305.55989583333337 M245.00651041666674 187.14192708333337 C245.3856502097758 229.7109005207452, 245.76479000288487 272.27987395815705, 246.06119791666674 305.55989583333337" stroke="#e67700" stroke-width="1" fill="none"></path></g><g transform="translate(504.66828816524145 443.5488281249999) rotate(0 85.36458333333337 152.77994791666669)"><path d="M235.54992985333382 277.461617528413 C237.98866279051364 283.9807355232524, 240.42739572769347 290.4998535180918, 246.06119791666674 305.55989583333337 M235.54992985333382 277.461617528413 C238.16425445771304 284.450119759604, 240.7785790620923 291.43862199079496, 246.06119791666674 305.55989583333337" stroke="#e67700" stroke-width="1" fill="none"></path></g><g transform="translate(504.66828816524145 443.5488281249999) rotate(0 85.36458333333337 152.77994791666669)"><path d="M256.07032457454346 277.2788530034344 C253.74809411615396 283.8403744327717, 251.42586365776447 290.40189586210903, 246.06119791666674 305.55989583333337 M256.07032457454346 277.2788530034344 C253.58089076576113 284.31281176675645, 251.09145695697876 291.34677053007846, 246.06119791666674 305.55989583333337" stroke="#e67700" stroke-width="1" fill="none"></path></g></g><g><g transform="translate(325.58625691524094 447.1555989583332) rotate(0 464.25130208333337 121.65364583333334)"><path d="M0 0 C11.242642944143913 18.386853205677337, 22.485285888287827 36.773706411354674, 30.664062500000085 50.1497395833333 M0 0 C11.595702415343144 18.964266604116332, 23.191404830686288 37.928533208232665, 30.664062500000085 50.1497395833333 M30.664062500000085 50.1497395833333 C340.42161074218416 51.26628009943061, 650.1791589843683 52.382820615527926, 886.7838541666667 53.23567708333333 M30.664062500000085 50.1497395833333 C362.2562056170258 51.34498426650799, 693.8483487340516 52.54022894968268, 886.7838541666667 53.23567708333333 M886.7838541666667 53.23567708333333 C882.2543437086158 113.30019099726391, 877.7248332505649 173.3647049111945, 872.7994791666667 238.67838541666669 M886.7838541666667 53.23567708333333 C883.1182211368312 101.84456498921647, 879.4525881069956 150.4534528950996, 872.7994791666667 238.67838541666669 M872.7994791666667 238.67838541666669 C891.8730845637208 240.26339399980196, 910.9466899607748 241.84840258293724, 928.5026041666667 243.30729166666669 M872.7994791666667 238.67838541666669 C893.3561789665862 240.3866385206572, 913.9128787665056 242.0948916246477, 928.5026041666667 243.30729166666669" stroke="#087f5b" stroke-width="1" fill="none"></path></g><g transform="translate(325.58625691524094 447.1555989583332) rotate(0 464.25130208333337 121.65364583333334)"><path d="M899.5589375332917 251.19805600328513 C910.1708161600511 248.30499361166676, 920.7826947868107 245.41193122004836, 928.5026041666667 243.30729166666669 M899.5589375332917 251.19805600328513 C910.5040673604146 248.21414103516798, 921.4491971875376 245.23022606705084, 928.5026041666667 243.30729166666669" stroke="#087f5b" stroke-width="1" fill="none"></path></g><g transform="translate(325.58625691524094 447.1555989583332) rotate(0 464.25130208333337 121.65364583333334)"><path d="M901.2583836321468 230.7473375478634 C911.2471789446114 235.35230727594606, 921.2359742570759 239.95727700402873, 928.5026041666667 243.30729166666669 M901.2583836321468 230.7473375478634 C911.560863085294 235.49691990708294, 921.8633425384413 240.2465022663025, 928.5026041666667 243.30729166666669" stroke="#087f5b" stroke-width="1" fill="none"></path></g></g><g><g transform="translate(515.8206319152409 448.7766927083332) rotate(0 360.33203125 307.07682291666674)"><path d="M0 0 C10.564614376885679 9.212535051270034, 21.129228753771358 18.42507010254007, 37.38932291666657 32.604166666666785 M0 0 C11.013068906819145 9.603595522436116, 22.02613781363829 19.207191044872232, 37.38932291666657 32.604166666666785 M37.38932291666657 32.604166666666785 C228.9018499106308 29.948375023959144, 420.41437690459503 27.292583381251507, 666.015625 23.88671875 M37.38932291666657 32.604166666666785 C245.36998956048586 29.720003813263325, 453.35065620430515 26.835840959859866, 666.015625 23.88671875 M666.015625 23.88671875 C672.1909364806706 217.48444191563075, 678.3662479613413 411.0821650812615, 684.84375 614.1536458333335 M666.015625 23.88671875 C672.3525706213914 222.55171693929702, 678.6895162427827 421.21671512859405, 684.84375 614.1536458333335 M684.84375 614.1536458333335 C694.3859043852972 613.7218035138244, 703.9280587705944 613.2899611943153, 720.6640625 612.5325520833335 M684.84375 614.1536458333335 C695.2703333136196 613.681777559053, 705.6969166272393 613.2099092847725, 720.6640625 612.5325520833335" stroke="#e67700" stroke-width="1" fill="none"></path></g><g transform="translate(515.8206319152409 448.7766927083332) rotate(0 360.33203125 307.07682291666674)"><path d="M692.9659906769336 624.0571699635174 C700.7922743581378 620.8008086751231, 708.6185580393419 617.5444473867288, 720.6640625 612.5325520833335 M692.9659906769336 624.0571699635174 C701.1244902104323 620.6625802534521, 709.282989743931 617.2679905433868, 720.6640625 612.5325520833335" stroke="#e67700" stroke-width="1" fill="none"></path></g><g transform="translate(515.8206319152409 448.7766927083332) rotate(0 360.33203125 307.07682291666674)"><path d="M692.0382269150755 603.556944189443 C700.1266567281774 606.0930648998508, 708.2150865412792 608.6291856102587, 720.6640625 612.5325520833335 M692.0382269150755 603.556944189443 C700.4700003525003 606.200720019145, 708.9017737899252 608.844495848847, 720.6640625 612.5325520833335" stroke="#e67700" stroke-width="1" fill="none"></path></g></g><g><g transform="translate(733.1448506652409 448.9264322916665) rotate(0 -240.04231770833334 262.32421875000006)"><path d="M0 0 C-8.312722686156723 56.83669534338761, -16.625445372313447 113.67339068677522, -33.255208333333314 227.37630208333348 M0 0 C-10.296428271586285 70.3999133486984, -20.59285654317257 140.7998266973968, -33.255208333333314 227.37630208333348 M-33.255208333333314 227.37630208333348 C-203.45898899246762 230.8509815687025, -373.66276965160193 234.32566105407153, -472.3893229166667 236.34114583333343 M-33.255208333333314 227.37630208333348 C-126.24840048700631 229.27474132953603, -219.2415926406793 231.17318057573854, -472.3893229166667 236.34114583333343 M-472.3893229166667 236.34114583333343 C-474.91267900795964 329.8035228864684, -477.4360350992526 423.26589993960334, -480.0846354166667 521.3671875000001 M-472.3893229166667 236.34114583333343 C-475.0767241909986 335.87957882001024, -477.76412546533055 435.4180118066871, -480.0846354166667 521.3671875000001 M-480.0846354166667 521.3671875000001 C-464.30493943610054 522.0628633899761, -448.52524345553445 522.7585392799521, -405.65755208333337 524.6484375000001 M-480.0846354166667 521.3671875000001 C-456.8697114922931 522.3906586037339, -433.6547875679195 523.4141297074676, -405.65755208333337 524.6484375000001" stroke="#5c940d" stroke-width="1" fill="none"></path></g><g transform="translate(733.1448506652409 448.9264322916665) rotate(0 -240.04231770833334 262.32421875000006)"><path d="M-434.2728921371988 533.657450409395 C-427.11998592011685 531.4054895964856, -419.96707970303487 529.1535287835761, -405.65755208333337 524.6484375000001 M-434.2728921371988 533.657450409395 C-425.41305299926904 530.8680931968466, -416.55321386133926 528.0787359842984, -405.65755208333337 524.6484375000001" stroke="#5c940d" stroke-width="1" fill="none"></path></g><g transform="translate(733.1448506652409 448.9264322916665) rotate(0 -240.04231770833334 262.32421875000006)"><path d="M-433.36905619322204 513.1561557436376 C-426.4420796254374 516.0288531663767, -419.5151030576527 518.9015505891158, -405.65755208333337 524.6484375000001 M-433.36905619322204 513.1561557436376 C-424.7890613994671 516.7143789727683, -416.20906660571205 520.272602201899, -405.65755208333337 524.6484375000001" stroke="#5c940d" stroke-width="1" fill="none"></path></g></g><g><g transform="translate(741.4456319152409 447.4746093749999) rotate(0 255.21484375 184.72005208333331)"><path d="M0 0 C6.301046317496002 10.940049699252379, 12.602092634992005 21.880099398504758, 25.64453125 44.524739583333286 M0 0 C8.824064858408747 15.320583794530934, 17.648129716817493 30.64116758906187, 25.64453125 44.524739583333286 M25.64453125 44.524739583333286 C197.65357377075455 36.25089341831817, 369.6626162915091 27.97704725330306, 460.92447916666674 23.58723958333333 M25.64453125 44.524739583333286 C181.47301435260127 37.029198195368096, 337.30149745520254 29.533656807402906, 460.92447916666674 23.58723958333333 M460.92447916666674 23.58723958333333 C463.6027633773556 146.66551996778617, 466.2810475880445 269.743800352239, 468.45052083333326 369.44010416666663 M460.92447916666674 23.58723958333333 C463.7003778840566 151.15131187044668, 466.4762766014464 278.71538415756004, 468.45052083333326 369.44010416666663 M468.45052083333326 369.44010416666663 C484.57204264626483 366.6523410119801, 500.6935644591964 363.8645778572936, 510.4296875 362.1809895833333 M468.45052083333326 369.44010416666663 C476.9706376975033 367.9667899136347, 485.4907545616733 366.4934756606029, 510.4296875 362.1809895833333" stroke="#5c940d" stroke-width="1" fill="none"></path></g><g transform="translate(741.4456319152409 447.4746093749999) rotate(0 255.21484375 184.72005208333331)"><path d="M484.39950163282333 377.0950575636073 C490.7953060717175 373.4305634767446, 497.1911105106117 369.7660693898819, 510.4296875 362.1809895833333 M484.39950163282333 377.0950575636073 C493.35626696143123 371.96325375414386, 502.31303229003913 366.8314499446804, 510.4296875 362.1809895833333" stroke="#5c940d" stroke-width="1" fill="none"></path></g><g transform="translate(741.4456319152409 447.4746093749999) rotate(0 255.21484375 184.72005208333331)"><path d="M480.90283015535226 356.87394753066206 C488.15779199984775 358.1779260458779, 495.41275384434323 359.4819045610937, 510.4296875 362.1809895833333 M480.90283015535226 356.87394753066206 C491.0627703677184 358.7000555153449, 501.2227105800845 360.52616350002774, 510.4296875 362.1809895833333" stroke="#5c940d" stroke-width="1" fill="none"></path></g></g><g><g transform="translate(909.3167256652409 449.0826822916665) rotate(0 157.21354166666663 158.47330729166669)"><path d="M0 0 C94.75639674828561 95.51568790162312, 189.51279349657122 191.03137580324625, 314.42708333333326 316.94661458333337 M0 0 C72.73176657539926 73.31457247370722, 145.46353315079853 146.62914494741443, 314.42708333333326 316.94661458333337" stroke="#5f3dc4" stroke-width="1" fill="none"></path></g><g transform="translate(909.3167256652409 449.0826822916665) rotate(0 157.21354166666663 158.47330729166669)"><path d="M287.28866024280694 304.15966842095406 C295.46715160629606 308.0131689874968, 303.64564296978523 311.86666955403956, 314.42708333333326 316.94661458333337 M287.28866024280694 304.15966842095406 C293.5661902587314 307.1174835481848, 299.8437202746559 310.0752986754155, 314.42708333333326 316.94661458333337" stroke="#5f3dc4" stroke-width="1" fill="none"></path></g><g transform="translate(909.3167256652409 449.0826822916665) rotate(0 157.21354166666663 158.47330729166669)"><path d="M301.85713568873007 289.70700342215974 C305.64524113273376 297.91598903209484, 309.43334657673745 306.12497464202994, 314.42708333333326 316.94661458333337 M301.85713568873007 289.70700342215974 C304.76475575841425 296.0079397778197, 307.6723758280985 302.30887613347966, 314.42708333333326 316.94661458333337" stroke="#5f3dc4" stroke-width="1" fill="none"></path></g></g><g><g transform="translate(896.9599548319077 449.0175781249999) rotate(0 -306.9596354166667 228.69140625000003)"><path d="M0 0 C1.9160192186494167 92.07307756028605, 3.8320384372988334 184.1461551205721, 5.748697916666629 276.25 M0 0 C1.9365148654172295 93.05798275128474, 3.873029730834459 186.11596550256948, 5.748697916666629 276.25 M5.748697916666629 276.25 C-125.53287773419959 274.1862589406592, -256.8144533850658 272.12251788131834, -618.7890625 266.43229166666663 M5.748697916666629 276.25 C-132.80236963405156 274.0719828220196, -271.35343718476975 271.89396564403916, -618.7890625 266.43229166666663 M-618.7890625 266.43229166666663 C-619.0858246189146 330.9066097982516, -619.3825867378291 395.3809279298366, -619.66796875 457.3828125 M-618.7890625 266.43229166666663 C-619.0124790824939 314.9716128855228, -619.2358956649878 363.510934104379, -619.66796875 457.3828125 M-619.66796875 457.3828125 C-609.7494187530174 457.23265441903095, -599.8308687560348 457.0824963380619, -571.93359375 456.66015625 M-619.66796875 457.3828125 C-603.2307676950659 457.13396780317817, -586.7935666401318 456.88512310635633, -571.93359375 456.66015625" stroke="#5f3dc4" stroke-width="1" fill="none"></path></g><g transform="translate(896.9599548319077 449.0175781249999) rotate(0 -306.9596354166667 228.69140625000003)"><path d="M-599.9658236836271 467.3463194973144 C-590.6227877347887 463.7846618050362, -581.2797517859502 460.22300411275796, -571.93359375 456.66015625 M-599.9658236836271 467.3463194973144 C-590.5228453319764 463.746562772804, -581.0798669803256 460.1468060482936, -571.93359375 456.66015625" stroke="#5f3dc4" stroke-width="1" fill="none"></path></g><g transform="translate(896.9599548319077 449.0175781249999) rotate(0 -306.9596354166667 228.69140625000003)"><path d="M-600.27646104935 446.8274621506478 C-590.8298908443403 450.1046618119554, -581.3833206393305 453.381861473263, -571.93359375 456.66015625 M-600.27646104935 446.8274621506478 C-590.728840936174 450.13971799823577, -581.1812208229981 453.4519738458237, -571.93359375 456.66015625" stroke="#5f3dc4" stroke-width="1" fill="none"></path></g></g><g><g transform="translate(1095.8076110819077 450.9055989583332) rotate(0 -160.76171875 153.03710937500003)"><path d="M0 0 C-82.38065776686928 78.42226265730825, -164.76131553373855 156.8445253146165, -321.5234375 306.07421875 M0 0 C-77.02113563580862 73.32026585765743, -154.04227127161724 146.64053171531486, -321.5234375 306.07421875" stroke="#c92a2a" stroke-width="1" fill="none"></path></g><g transform="translate(1095.8076110819077 450.9055989583332) rotate(0 -160.76171875 153.03710937500003)"><path d="M-308.179629920915 279.2052254809482 C-311.59857708702805 286.0895924690875, -315.0175242531411 292.9739594572268, -321.5234375 306.07421875 M-308.179629920915 279.2052254809482 C-311.3761471684231 285.6417092130968, -314.5726644159312 292.0781929452455, -321.5234375 306.07421875" stroke="#c92a2a" stroke-width="1" fill="none"></path></g><g transform="translate(1095.8076110819077 450.9055989583332) rotate(0 -160.76171875 153.03710937500003)"><path d="M-294.03043189589545 294.06860994191885 C-301.0746831743247 297.1446841410243, -308.11893445275405 300.22075834012975, -321.5234375 306.07421875 M-294.03043189589545 294.06860994191885 C-300.61639816365715 296.9445608573095, -307.2023644314188 299.8205117727002, -321.5234375 306.07421875" stroke="#c92a2a" stroke-width="1" fill="none"></path></g></g><g><g transform="translate(1110.508131915241 448.0800781249999) rotate(0 60.95052083333337 331.30208333333337)"><path d="M0 0 C17.27888438443737 21.8617604721494, 34.55776876887474 43.7235209442988, 74.91536458333348 94.78515624999999 M0 0 C28.172949954076163 35.64525752858208, 56.345899908152326 71.29051505716416, 74.91536458333348 94.78515624999999 M74.91536458333348 94.78515624999999 C74.30587969276664 287.14214674874535, 73.69639480219979 479.4991372474907, 73.13151041666674 657.7799479166667 M74.91536458333348 94.78515624999999 C74.55851858333713 207.40783762110854, 74.20167258334077 320.0305189922171, 73.13151041666674 657.7799479166667 M73.13151041666674 657.7799479166667 C83.46186594649112 658.8018132814511, 93.79222147631549 659.8236786462355, 121.90104166666674 662.6041666666667 M73.13151041666674 657.7799479166667 C86.67882456796792 659.1200306541002, 100.2261387192691 660.4601133915337, 121.90104166666674 662.6041666666667" stroke="#c92a2a" stroke-width="1" fill="none"></path></g><g transform="translate(1110.508131915241 448.0800781249999) rotate(0 60.95052083333337 331.30208333333337)"><path d="M92.83714503448125 670.0398853645222 C99.54059915850343 668.3248710358857, 106.2440532825256 666.6098567072493, 121.90104166666674 662.6041666666667 M92.83714503448125 670.0398853645222 C103.76702183402855 667.2435814032134, 114.69689863357587 664.4472774419046, 121.90104166666674 662.6041666666667" stroke="#c92a2a" stroke-width="1" fill="none"></path></g><g transform="translate(1110.508131915241 448.0800781249999) rotate(0 60.95052083333337 331.30208333333337)"><path d="M94.85721730810064 649.6183450113756 C101.09475105039324 652.6134650680777, 107.33228479268584 655.60858512478, 121.90104166666674 662.6041666666667 M94.85721730810064 649.6183450113756 C105.0274182336156 654.5018412826928, 115.19761915913055 659.38533755401, 121.90104166666674 662.6041666666667" stroke="#c92a2a" stroke-width="1" fill="none"></path></g></g><g><g transform="translate(1303.105788165241 446.7194010416665) rotate(0 -61.37044270833337 225.83333333333337)"><path d="M0 0 C-1.975044272312516 36.21976350998919, -3.950088544625032 72.43952701997839, -6.0546875 111.03515624999996 M0 0 C-1.4493857867819315 26.579865154371863, -2.898771573563863 53.159730308743725, -6.0546875 111.03515624999996 M-6.0546875 111.03515624999996 C-32.44873654163894 112.20468108165365, -58.84278558327788 113.37420591330735, -122.421875 116.19140624999999 M-6.0546875 111.03515624999996 C-43.201330496554874 112.68113036062275, -80.34797349310975 114.32710447124552, -122.421875 116.19140624999999 M-122.421875 116.19140624999999 C-122.50077274246543 199.16123832143603, -122.57967048493087 282.1310703928721, -122.74088541666674 451.66666666666674 M-122.421875 116.19140624999999 C-122.53182837243067 231.81971906587995, -122.64178174486132 347.4480318817599, -122.74088541666674 451.66666666666674 M-122.74088541666674 451.66666666666674 C-102.24312142187779 451.11708605052513, -81.74535742708882 450.5675054343835, -55.72265625 449.86979166666674 M-122.74088541666674 451.66666666666674 C-109.20079638909743 451.3036333879015, -95.66070736152813 450.9406001091363, -55.72265625 449.86979166666674" stroke="#000000" stroke-width="1" fill="none"></path></g><g transform="translate(1303.105788165241 446.7194010416665) rotate(0 -61.37044270833337 225.83333333333337)"><path d="M-83.6283018185828 460.88228209347915 C-74.52545622243723 457.2899982404525, -65.42261062629167 453.69771438742583, -55.72265625 449.86979166666674 M-83.6283018185828 460.88228209347915 C-76.94818066318409 458.2460854108768, -70.26805950778538 455.6098887282744, -55.72265625 449.86979166666674" stroke="#000000" stroke-width="1" fill="none"></path></g><g transform="translate(1303.105788165241 446.7194010416665) rotate(0 -61.37044270833337 225.83333333333337)"><path d="M-84.17831336760725 440.36844555123827 C-74.89605353090732 443.4677928296132, -65.6137936942074 446.56714010798817, -55.72265625 449.86979166666674 M-84.17831336760725 440.36844555123827 C-77.36652911287898 442.6429008414573, -70.55474485815071 444.91735613167623, -55.72265625 449.86979166666674" stroke="#000000" stroke-width="1" fill="none"></path></g></g><g><g transform="translate(1271.152663165241 448.1712239583332) rotate(0 -508.408203125 298.74674479166674)"><path d="M0 0 C-1.7523316773349917 11.715085746363936, -3.5046633546699835 23.430171492727872, -6.477864583333485 43.30729166666676 M0 0 C-2.499238406438415 16.708476260932645, -4.99847681287683 33.41695252186529, -6.477864583333485 43.30729166666676 M-6.477864583333485 43.30729166666676 C-313.00804392348874 41.34234190939066, -619.538223263644 39.377392152114574, -1012.9557291666667 36.855468750000014 M-6.477864583333485 43.30729166666676 C-408.87386320705457 40.72781345174317, -811.2698618307757 38.14833523681958, -1012.9557291666667 36.855468750000014 M-1012.9557291666667 36.855468750000014 C-1014.1619029120793 208.94168048168888, -1015.368076657492 381.02789221337775, -1016.81640625 587.6627604166665 M-1012.9557291666667 36.855468750000014 C-1013.8856080864869 169.52237622463872, -1014.815487006307 302.1892836992774, -1016.81640625 587.6627604166665 M-1016.81640625 587.6627604166665 C-1002.3248079878977 589.7349491833119, -987.8332097257953 591.8071379499572, -948.06640625 597.4934895833335 M-1016.81640625 587.6627604166665 C-989.5605053758482 591.5601477575728, -962.3046045016963 595.4575350984791, -948.06640625 597.4934895833335" stroke="#000000" stroke-width="1" fill="none"></path></g><g transform="translate(1271.152663165241 448.1712239583332) rotate(0 -508.408203125 298.74674479166674)"><path d="M-977.4257396621908 603.660299260291 C-969.4837258547415 601.9921112631489, -961.5417120472921 600.3239232660069, -948.06640625 597.4934895833335 M-977.4257396621908 603.660299260291 C-966.098554181969 601.2810695941597, -954.7713687017473 598.9018399280284, -948.06640625 597.4934895833335" stroke="#000000" stroke-width="1" fill="none"></path></g><g transform="translate(1271.152663165241 448.1712239583332) rotate(0 -508.408203125 298.74674479166674)"><path d="M-974.5209093157295 583.3457241221269 C-967.364683196168 587.1728460482262, -960.2084570766065 590.9999679743256, -948.06640625 597.4934895833335 M-974.5209093157295 583.3457241221269 C-964.3144424724397 588.804102936791, -954.10797562915 594.2624817514551, -948.06640625 597.4934895833335" stroke="#000000" stroke-width="1" fill="none"></path></g></g><g><g transform="translate(1476.2177673319077 446.9472656249999) rotate(0 105.07486979166663 84.18619791666666)"><path d="M0 0 C1.8625645585773625 12.749721535448764, 3.725129117154725 25.499443070897527, 6.100260416666515 41.75781249999997 M0 0 C1.3918776466191916 9.527751574616554, 2.783755293238383 19.055503149233108, 6.100260416666515 41.75781249999997 M6.100260416666515 41.75781249999997 C74.79249428246221 41.12221975476736, 143.48472814825791 40.48662700953474, 210.14973958333326 39.86979166666666 M6.100260416666515 41.75781249999997 C78.9724733537234 41.08354341213875, 151.8446862907803 40.40927432427754, 210.14973958333326 39.86979166666666 M210.14973958333326 39.86979166666666 C210.14973958333326 79.30429042094691, 210.14973958333326 118.73878917522717, 210.14973958333326 168.37239583333331 M210.14973958333326 39.86979166666666 C210.14973958333326 73.57219880523553, 210.14973958333326 107.27460594380439, 210.14973958333326 168.37239583333331" stroke="#1864ab" stroke-width="1" fill="none"></path></g><g transform="translate(1476.2177673319077 446.9472656249999) rotate(0 105.07486979166663 84.18619791666666)"><path d="M199.88913528356318 140.18161720975607 C203.02195857519266 148.78897846264957, 206.15478186682213 157.39633971554306, 210.14973958333326 168.37239583333331 M199.88913528356318 140.18161720975607 C202.23026579114548 146.61382041533477, 204.5713962987278 153.0460236209135, 210.14973958333326 168.37239583333331" stroke="#1864ab" stroke-width="1" fill="none"></path></g><g transform="translate(1476.2177673319077 446.9472656249999) rotate(0 105.07486979166663 84.18619791666666)"><path d="M220.41034388310328 140.18161720975604 C217.2775205914738 148.78897846264954, 214.14469729984435 157.39633971554304, 210.14973958333326 168.37239583333331 M220.41034388310328 140.18161720975604 C218.06921337552097 146.61382041533477, 215.7280828679387 153.04602362091347, 210.14973958333326 168.37239583333331" stroke="#1864ab" stroke-width="1" fill="none"></path></g></g><g><g transform="translate(1799.8310485819077 448.8417968749999) rotate(0 41.682942708333144 302.35677083333337)"><path d="M0 0 C21.86438967521392 34.66713811603828, 43.72877935042784 69.33427623207656, 83.36588541666629 132.18098958333331 M0 0 C24.91027806561446 39.49655412465229, 49.82055613122892 78.99310824930458, 83.36588541666629 132.18098958333331 M83.36588541666629 132.18098958333331 C83.21167770587662 229.8347590142342, 83.05746999508698 327.4885284451351, 82.64322916666652 589.8111979166667 M83.36588541666629 132.18098958333331 C83.22008105202649 224.5132454325576, 83.07427668738669 316.8455012817819, 82.64322916666652 589.8111979166667 M82.64322916666652 589.8111979166667 C71.90701964007576 592.9825985627328, 61.170810113485004 596.153999208799, 32.194010416666515 604.7135416666667 M82.64322916666652 589.8111979166667 C67.08023487549553 594.4083967723243, 51.517240584324554 599.0055956279818, 32.194010416666515 604.7135416666667" stroke="#862e9c" stroke-width="1" fill="none"></path></g><g transform="translate(1799.8310485819077 448.8417968749999) rotate(0 41.682942708333144 302.35677083333337)"><path d="M56.323173553891024 586.8870589429996 C49.99481246551213 591.562414609897, 43.66645137713325 596.2377702767943, 32.194010416666515 604.7135416666667 M56.323173553891024 586.8870589429996 C49.11321998313853 592.2137299110938, 41.90326641238603 597.5404008791879, 32.194010416666515 604.7135416666667" stroke="#862e9c" stroke-width="1" fill="none"></path></g><g transform="translate(1799.8310485819077 448.8417968749999) rotate(0 41.682942708333144 302.35677083333337)"><path d="M62.13666397411306 606.5675907325581 C54.28359743475066 606.0813288635572, 46.430530895388266 605.5950669945565, 32.194010416666515 604.7135416666667 M62.13666397411306 606.5675907325581 C53.189601006924335 606.0135886062949, 44.242538039735614 605.4595864800317, 32.194010416666515 604.7135416666667" stroke="#862e9c" stroke-width="1" fill="none"></path></g></g><g transform="translate(225.4560485819083 68.54937065972206) rotate(0 390.1806640625 200.5419921875)"><path d="M0 0 C209.16978641803146 0, 418.3395728360629 0, 780.361328125 0 M780.361328125 0 C780.361328125 87.31371172930814, 780.361328125 174.62742345861628, 780.361328125 401.083984375 M780.361328125 401.083984375 C550.074567176227 401.083984375, 319.7878062274539 401.083984375, 0 401.083984375 M0 401.083984375 C0 241.8500530697056, 0 82.61612176441122, 0 0" stroke="#000000" stroke-width="1.5" fill="none" stroke-dasharray="12 8"></path></g><g transform="translate(1158.8886657694081 68.54937065972206) rotate(0 390.1806640625 200.5419921875)"><path d="M0 0 C190.50260419602273 0, 381.00520839204546 0, 780.361328125 0 M780.361328125 0 C780.361328125 129.11430562700843, 780.361328125 258.22861125401687, 780.361328125 401.083984375 M780.361328125 401.083984375 C598.043402783398 401.083984375, 415.7254774417961 401.083984375, 0 401.083984375 M0 401.083984375 C0 281.18671245645965, 0 161.28944053791926, 0 0" stroke="#000000" stroke-width="1.5" fill="none" stroke-dasharray="12 8"></path></g><g transform="translate(258.9130798319083 168.45659722222211) rotate(0 66.1767578125 35.166015625)"><path d="M0 0 C30.50105916109169 0, 61.00211832218338 0, 132.353515625 0 M0 0 C51.90214909001952 0, 103.80429818003904 0, 132.353515625 0 M132.353515625 0 C132.353515625 27.34469851397444, 132.353515625 54.68939702794888, 132.353515625 70.33203125 M132.353515625 0 C132.353515625 22.269849802250974, 132.353515625 44.53969960450195, 132.353515625 70.33203125 M132.353515625 70.33203125 C82.86637332517421 70.33203125, 33.37923102534842 70.33203125, 0 70.33203125 M132.353515625 70.33203125 C98.77261237293715 70.33203125, 65.1917091208743 70.33203125, 0 70.33203125 M0 70.33203125 C0 54.779962238739245, 0 39.22789322747849, 0 0 M0 70.33203125 C0 55.216358971898444, 0 40.10068669379689, 0 0" stroke="#000000" stroke-width="1" fill="none"></path></g><g transform="translate(281.5898376444083 180.62261284722211) rotate(0 43.5 23)"><text x="43.5" y="18" font-family="Helvetica, Segoe UI Emoji" font-size="20px" fill="#000000" text-anchor="middle" style="white-space: pre;" direction="ltr">bastion_b</text><text x="43.5" y="41" font-family="Helvetica, Segoe UI Emoji" font-size="20px" fill="#000000" text-anchor="middle" style="white-space: pre;" direction="ltr">(ssh)</text></g><g transform="translate(1742.6972595194081 168.45659722222211) rotate(0 66.1767578125 35.166015625)"><path d="M0 0 C42.95019820478046 0, 85.90039640956093 0, 132.353515625 0 M0 0 C33.20046969637042 0, 66.40093939274084 0, 132.353515625 0 M132.353515625 0 C132.353515625 16.071462090243585, 132.353515625 32.14292418048717, 132.353515625 70.33203125 M132.353515625 0 C132.353515625 19.94544571160805, 132.353515625 39.8908914232161, 132.353515625 70.33203125 M132.353515625 70.33203125 C100.72670636553084 70.33203125, 69.09989710606169 70.33203125, 0 70.33203125 M132.353515625 70.33203125 C96.05732151359553 70.33203125, 59.76112740219105 70.33203125, 0 70.33203125 M0 70.33203125 C0 46.334130135248415, 0 22.33622902049683, 0 0 M0 70.33203125 C0 50.33585087687243, 0 30.339670503744856, 0 0" stroke="#000000" stroke-width="1" fill="none"></path></g><g transform="translate(1765.3740173319081 180.62261284722211) rotate(0 43.5 23)"><text x="43.5" y="18" font-family="Helvetica, Segoe UI Emoji" font-size="20px" fill="#000000" text-anchor="middle" style="white-space: pre;" direction="ltr">bastion_a</text><text x="43.5" y="41" font-family="Helvetica, Segoe UI Emoji" font-size="20px" fill="#000000" text-anchor="middle" style="white-space: pre;" direction="ltr">(ssh)</text></g><g transform="translate(548.1367126444084 88.56304253472211) rotate(0 67.5 11.5)"><text x="67.5" y="18" font-family="Helvetica, Segoe UI Emoji" font-size="20px" fill="#000000" text-anchor="middle" style="white-space: pre;" direction="ltr">public subnet 2</text></g><g transform="translate(1481.5693298319081 88.56304253472211) rotate(0 67.5 11.5)"><text x="67.5" y="18" font-family="Helvetica, Segoe UI Emoji" font-size="20px" fill="#000000" text-anchor="middle" style="white-space: pre;" direction="ltr">public subnet 2</text></g><g transform="translate(55.320631915243496 52.51323784722223) rotate(0 964.23828125 669.6240234375001)"><path d="M0 0 C757.1607678997498 0, 1514.3215357994995 0, 1928.4765625 0 M1928.4765625 0 C1928.4765625 448.07918885384345, 1928.4765625 896.1583777076869, 1928.4765625 1339.2480468750002 M1928.4765625 1339.2480468750002 C1261.3819103587484 1339.2480468750002, 594.2872582174966 1339.2480468750002, 0 1339.2480468750002 M0 1339.2480468750002 C0 1029.6203977330963, 0 719.9927485911923, 0 0" stroke="#c92a2a" stroke-width="1.5" fill="none" stroke-dasharray="3 6"></path></g><g transform="translate(-2.9137430847565042 319.05034722222223) rotate(270.17055952782084 29 16)"><text x="29" y="26" font-family="Helvetica, Segoe UI Emoji" font-size="28px" fill="#c92a2a" text-anchor="middle" style="white-space: pre;" direction="ltr">VPC</text></g><g transform="translate(1235.3851160422257 614.8014012896822) rotate(0 139.51171875 167.26757812500006)"><path d="M0.9022201063451529 0.07230713688217001 C103.70608990609267 -1.1331398269510764, 208.51626901104896 -0.6502804653145544, 278.0414301963857 -0.9723418286509588 M0.05040104684103927 0.6049450325570201 C56.0949913311297 -0.5566061351490386, 111.80423302900876 -0.09627243495324322, 279.5059023565867 0.09613245274594219 M278.25187522794977 -0.5035752167258146 C276.13224087230816 107.43286028327454, 277.3929608148683 213.47732351913214, 279.83011496022635 335.35112959898214 M278.59789882988144 -0.3122393961396897 C277.68654327394796 121.95302387659166, 278.1833407725943 242.6435734402569, 279.3613569237856 334.1021120845901 M278.83726375596905 333.28481938066216 C211.9051941719653 335.91058159132837, 144.96135061851024 334.49005533665377, 0.19708512609053735 333.9274952663299 M278.59197469740064 334.8613908834742 C201.10768068265827 333.13007125268274, 122.95487943876122 332.1724981224981, -0.40485874657548543 334.5388473359899 M0.2608835038218849 334.72355131746184 C-0.32553400827511203 236.7955264308191, 0.047503056159705515 139.1926884859905, 0.6515961566969365 -0.7192712134157149 M-0.39382129688273537 334.0462439797252 C-0.19876151229403238 256.4534513206648, -0.42355611493857803 178.00197049245074, -0.569057642297442 -0.5243678242088724" stroke="#000000" stroke-width="1" fill="none"></path></g><g transform="translate(1320.3968347922257 627.1021825396822) rotate(0 54.5 11.5)"><text x="0" y="18" font-family="Helvetica, Segoe UI Emoji" font-size="20px" fill="#000000" text-anchor="start" style="white-space: pre;" direction="ltr">playgrounds</text></g><g transform="translate(1326.7366785422257 680.5201512896822) rotate(0 81.115234375 22.50390625)"><path d="M-0.8139723595231771 0.7402334567159414 C61.35788743017511 1.2924013544199624, 121.819170208765 -1.3419896553876243, 160.2638079468161 -0.6836304906755686 M-0.22754998225718737 -0.06519353669136763 C51.54531205208587 -0.7434443872671908, 105.63304205975656 -1.1523121338587587, 162.40347172599286 -0.9733458487316966 M161.2080308739096 1.9012832399457693 C162.81679029361322 13.551366763226543, 163.16730011598185 24.81446260035009, 163.4921653214842 44.36301461420953 M161.3305645165965 0.7227493794634938 C161.78232999950552 10.74195096331896, 162.44711386471892 21.6886704381046, 161.6114456532523 44.14390939194709 M161.34091400541365 45.31073657236993 C103.36118678544844 42.14156582696134, 47.85264524968733 42.89670499903852, -0.4204894956201315 43.55936942063272 M162.13278435450047 45.68435734231025 C127.62476755927236 45.12683460493976, 93.49991707721564 45.70151597639018, -0.08250169176608324 44.5686492593959 M-1.9509064611047506 44.80202851258218 C-1.4857388461518712 35.11654175111107, 0.877401438863235 24.579101483170234, -1.320286875590682 0.4322283621877432 M0.42883487325161695 45.295979228802025 C0.35847512104177437 31.320181187686828, -0.5798274853024487 16.79832926015806, -0.3475902797654271 -0.5303945569321513" stroke="#000000" stroke-width="1" fill="none"></path></g><g transform="translate(1343.8519129172257 691.5240575396822) rotate(0 64 11.5)"><text x="0" y="18" font-family="Helvetica, Segoe UI Emoji" font-size="20px" fill="#000000" text-anchor="start" style="white-space: pre;" direction="ltr">marlowe static</text></g><g transform="translate(1326.7366785422257 746.2831721230154) rotate(0 81.115234375 22.50390625)"><path d="M-0.19081086479127407 1.3687456604093313 C48.154357303725924 -1.8660874527355553, 96.89850656660347 -1.2840725940128686, 162.70305334962904 0.13120869360864162 M-0.9572096290066838 0.5339982183650136 C62.07156537889351 0.23089425194255453, 123.06013633863697 -0.8675820685625877, 161.85300462227315 -0.570909502916038 M163.07374417223036 1.747906481847167 C163.1941655334991 13.032826011595171, 163.26207686038433 23.0057700622172, 161.19172375835478 43.748320793733 M162.06576483231038 -0.42281079571694136 C162.32552148747396 10.78178494046224, 161.2064184432025 21.98137293280597, 162.7635399280116 44.88664629776031 M160.67836611904204 43.46171352826059 C127.019340304867 44.46257027161894, 90.87465203036481 43.80508699191389, -1.7958841379731894 43.884588396176696 M161.72655190806836 44.43793561775237 C106.14535527793377 46.110178858186664, 51.0317060644862 45.666211128379764, -0.8487872006371617 45.20085054356605 M-1.398856645449996 44.798679983243346 C1.403313800597316 29.81362089522663, -0.8812567145584762 17.18052675777144, 0.0952711645513773 -1.1656159404665232 M0.09616600256413221 45.03692227322608 C-1.035145799467791 33.98592302389661, -0.5405994754531275 23.98564112838794, -0.6756576718762517 -0.671479138545692" stroke="#000000" stroke-width="1" fill="none"></path></g><g transform="translate(1354.8519129172257 757.2870783730154) rotate(0 53 11.5)"><text x="0" y="18" font-family="Helvetica, Segoe UI Emoji" font-size="20px" fill="#000000" text-anchor="start" style="white-space: pre;" direction="ltr">plutus static</text></g><g transform="translate(1326.7366785422257 812.0461929563487) rotate(0 81.115234375 22.50390625)"><path d="M-1.2782263811677694 -1.2656453493982553 C52.70690085518909 -1.7938917411142394, 109.81970791637505 -0.9790525568300292, 163.80531793273985 -0.45509996451437473 M0.6279986975714564 0.1251304717734456 C47.78450579930177 -1.8396536615019066, 94.84554151889097 -1.437217315686248, 161.85785348992795 -0.5112189380452037 M163.42425399459898 1.2075420375913382 C163.68193523193221 17.13617584285312, 161.3814936688028 34.302455751020176, 161.30631553567946 43.20800403319299 M162.73054869752377 -0.6408530799672008 C161.5373160227984 15.891377497485522, 162.68941029755769 33.38939500883717, 161.41672043781728 44.563035127706826 M162.48700391687453 44.21685270033777 C110.68366291656821 42.30524761603683, 58.18195193640349 42.630466591580806, 0.8492843452841043 44.812443709000945 M161.70348577480763 45.0126169892028 C102.50320774339525 43.64413532202769, 42.09216291968551 44.27633660619784, 0.1394009767100215 44.032359269447625 M0.9642836395651102 43.94337794743478 C-1.0054894875267202 32.40079146824792, 0.41006855261533925 17.763697771653824, -1.4470622595399618 0.8576697465032339 M-0.8421366037800908 44.231811431236565 C-0.3908724938882369 29.678098783201857, -0.7189398859990614 14.737695041722326, -0.9694967390969396 -0.5770929483696818" stroke="#000000" stroke-width="1" fill="none"></path></g><g transform="translate(1353.8519129172257 823.0500992063487) rotate(0 54 11.5)"><text x="0" y="18" font-family="Helvetica, Segoe UI Emoji" font-size="20px" fill="#000000" text-anchor="start" style="white-space: pre;" direction="ltr">marlowe api</text></g><g transform="translate(1326.7366785422257 877.8092137896822) rotate(0 81.115234375 22.50390624999997)"><path d="M-1.9666608031839132 -0.6836304906755686 C60.244337729015754 1.1578398851293241, 121.11835544151327 0.5715312270063078, 162.10008167661726 -1.9144192580133677 M0.1730029759928584 -0.9733458487316966 C56.95475462497525 -0.7739092538231853, 114.29182224533216 -0.714218688952351, 163.18111036997288 0.42163771111518145 M163.4921653214842 -0.6447978857904673 C161.46037207062568 16.1763244038586, 161.57496384795036 33.07182375344419, 163.675967508927 44.67840466462076 M161.6114456532523 -0.8639031080529094 C162.9886149731432 11.47819864609992, 161.64179548294888 22.75395232438605, 162.38193078618497 44.23176118452102 M161.80997925437987 43.55936942063272 C124.30666203298568 43.24299950086865, 90.82390793720187 44.1708548136929, 1.3530896846204996 43.99997881613672 M162.14796705823392 44.5686492593959 C121.95768029804495 45.20864488892079, 83.52186722407423 44.040153614802364, -0.10289199370890856 44.308384177275 M-1.320286875590682 45.44004086218774 C-0.12173032168044307 30.810482664625304, -1.6640637457717822 19.80205445668689, 0.5763334576040506 0.19233200512826443 M-0.3475902797654271 44.47741794306785 C-0.29663040825304055 30.702972889926606, -0.5904694754737284 17.16399860857491, -0.8537107529118657 0.5282461913302541" stroke="#000000" stroke-width="1" fill="none"></path></g><g transform="translate(1364.8519129172257 888.8131200396822) rotate(0 43 11.5)"><text x="0" y="18" font-family="Helvetica, Segoe UI Emoji" font-size="20px" fill="#000000" text-anchor="start" style="white-space: pre;" direction="ltr">plutus api</text></g><g transform="translate(1147.7718347922257 778.4420262896822) rotate(269.9756439890428 132.4609375 23.2265625)"><path d="M0.3741746311493727 0.10388608637086703 C63.958611630741935 0.3566440598435882, 125.32017553672057 -0.7987898218418568, 265.76747422836246 0.9944512843225731 M-0.29886183526754645 -0.45202457473426183 C82.49651973513082 1.6368790247452698, 166.33576695863698 2.3754796750601868, 265.6138381571174 0.4725970269873518 M263.8831300083548 -1.2594917062669992 C264.2907705284156 14.94083409394225, 266.6604225016631 33.15187728611927, 264.0762534085661 47.453284895047545 M265.4549461780116 -0.12116620223969221 C263.8205711149062 10.51419730467169, 264.7857814632739 21.141898038450748, 264.1488255141303 46.581392583437264 M263.4999617903004 45.56379859140338 C196.59487141637894 44.77934752932047, 127.99433060847716 44.136068523089804, -0.902413969405427 45.61863458063643 M264.24983736277693 46.60596522967701 C185.4284034978136 44.759630552862774, 105.63272114916495 44.97817664631444, -0.08279161274000987 46.8348666769832 M0.0952711645513773 45.28750905953348 C-1.1404050032015949 35.84717281273479, 0.8829907139424177 23.718213137591373, 0.05821954645216465 -1.6842732075601816 M-0.6756576718762517 45.78164586145431 C-0.808030191949656 35.54486201637046, -0.6922442057645821 26.31903112081054, 0.9719017026945949 0.6670907707884908" stroke="#000000" stroke-width="1" fill="none"></path></g><g transform="translate(1256.2327722922257 790.1685887896822) rotate(269.9756439890428 24 11.5)"><text x="0" y="18" font-family="Helvetica, Segoe UI Emoji" font-size="20px" fill="#000000" text-anchor="start" style="white-space: pre;" direction="ltr">nginx</text></g><g><g transform="translate(1304.5413660422257 904.4537450396822) rotate(0 11.218422288764259 -0.9094959350116483)"><path d="M0.07872521616518502 0.9449095096439122 C3.873441492126635 0.43700081973647287, 18.790818933180226 -2.265604582459965, 22.358119361363357 -2.763901379667209" stroke="#000000" stroke-width="1.5" fill="none" stroke-dasharray="12 8"></path></g><g transform="translate(1304.5413660422257 904.4537450396822) rotate(0 11.218422288764259 -0.9094959350116483)"><path d="M13.314944566820959 2.547563457146306 C14.972577612278686 0.22878538569236428, 18.297709693922727 0.5543181864721887, 22.500705396276597 -2.5667646788668286" stroke="#000000" stroke-width="1.5" fill="none"></path></g><g transform="translate(1304.5413660422257 904.4537450396822) rotate(0 11.218422288764259 -0.9094959350116483)"><path d="M12.059752652215764 -5.14534068286933 C14.06921663894634 -5.420026164373248, 17.728001921748266 -3.0495773131866826, 22.500705396276597 -2.5667646788668286" stroke="#000000" stroke-width="1.5" fill="none"></path></g></g><g><g transform="translate(1304.5882410422257 834.6998387896822) rotate(0 13.667713632807136 -1.2753088917583)"><path d="M0.9449095096439122 -0.27305997870862486 C5.296070675676067 -0.6657738155374925, 22.02974469723801 -2.2605164991070827, 26.390517755970357 -2.2775578048080205" stroke="#000000" stroke-width="1.5" fill="none" stroke-dasharray="12 8"></path></g><g transform="translate(1304.5882410422257 834.6998387896822) rotate(0 13.667713632807136 -1.2753088917583)"><path d="M13.911833751805828 2.849679688616945 C16.88279450603529 1.86023479909844, 22.923543855663198 -0.3686399425162461, 26.619684533027975 -3.5668912965362836" stroke="#000000" stroke-width="1.5" fill="none"></path></g><g transform="translate(1304.5882410422257 834.6998387896822) rotate(0 13.667713632807136 -1.2753088917583)"><path d="M13.409537283348518 -6.197463112786027 C16.548991175826536 -4.262943349868465, 22.752298344763688 -3.5638982331328686, 26.619684533027975 -3.566891296536283" stroke="#000000" stroke-width="1.5" fill="none"></path></g></g><g><g transform="translate(1303.2327722922257 765.4889012896822) rotate(0 12.4063317332417 0.2812828090041819)"><path d="M-0.27305997870862486 -0.07823224402964124 C3.894773059462508 -0.12891751863062387, 20.54221787589292 0.6027330603450537, 25.08572344519198 0.6407978620380164" stroke="#000000" stroke-width="1.5" fill="none" stroke-dasharray="12 8"></path></g><g transform="translate(1303.2327722922257 765.4889012896822) rotate(0 12.4063317332417 0.2812828090041819)"><path d="M12.556896202572839 3.5354613962559096 C17.124814177816113 4.370820162650194, 20.403121719132013 2.501690271781027, 23.808967445175952 0.1456710882463086" stroke="#000000" stroke-width="1.5" fill="none"></path></g><g transform="translate(1303.2327722922257 765.4889012896822) rotate(0 12.4063317332417 0.2812828090041819)"><path d="M12.800346679105369 -5.433919995305697 C17.364259485210585 -1.8494577422158625, 20.567934742617517 -0.9689301748733243, 23.808967445175952 0.14567108824630848" stroke="#000000" stroke-width="1.5" fill="none"></path></g></g><g><g transform="translate(1305.2835535422257 702.9498387896822) rotate(0 10.466829684004153 -0.4416671838611137)"><path d="M-0.07823224402964124 -1.1486515548080205 C3.266264773036043 -1.058922027175625, 17.578644518678388 0.12065487441917247, 21.011891612038017 0.2653171870857476" stroke="#000000" stroke-width="1.5" fill="none" stroke-dasharray="12 8"></path></g><g transform="translate(1305.2835535422257 702.9498387896822) rotate(0 10.466829684004153 -0.4416671838611137)"><path d="M10.257360398033619 3.6678122914751956 C15.582778757076248 2.1750042235835463, 18.823036490565904 -0.026785095357347855, 20.62731332741188 -0.3163523840876292" stroke="#000000" stroke-width="1.5" fill="none"></path></g><g transform="translate(1305.2835535422257 702.9498387896822) rotate(0 10.466829684004153 -0.4416671838611137)"><path d="M10.70791249948881 -3.286934420751243 C15.846862122747257 -2.1459783470289118, 18.916476645362433 -1.7137097935062495, 20.62731332741188 -0.3163523840876292" stroke="#000000" stroke-width="1.5" fill="none"></path></g></g><g transform="translate(1559.1142827088925 614.8014012896822) rotate(0 139.51171875 167.26757812500006)"><path d="M-0.7169225083508168 -1.165013414784205 C71.2979716278088 0.36063763433731544, 141.88020886806254 2.8278248057576536, 279.8659252718661 -0.7641911268692053 M0.6513364432430424 0.4819302224055903 C91.26215491243572 -1.7132225979930658, 181.46100534099705 -1.2305718405796129, 278.6299291951711 -0.6351577101055422 M279.7899424616438 -0.35476684724100305 C278.25474555791294 98.15190255034368, 277.70784745620847 195.67708754848863, 278.3051067197081 335.7918737602461 M279.03175156818173 -0.05571092695296638 C280.2841472053976 132.708553243877, 279.70956916699475 265.9728909189833, 278.65314820416705 334.7317200295708 M277.93241936711337 335.6030705550712 C206.14632499605426 337.51232337895664, 135.57905699617717 335.6591891027289, 0.9176434476673077 335.43408547361366 M279.09975579561217 333.93150968342763 C176.7274599873593 336.57262839910635, 74.25225294555919 337.178951993822, -0.16776904559428388 335.1285921495725 M-0.6633897845168948 333.578092278711 C-2.122587339796156 212.4353818842298, -2.270706212549689 90.27942972231554, -1.1656932885316034 0.2745770034546102 M0.09650903336030044 334.63455961318925 C2.3806362337561073 260.1524950506959, 2.3021343182647165 185.39253096331186, 0.5739561983369421 0.47678586004346707" stroke="#000000" stroke-width="1" fill="none"></path></g><g transform="translate(1644.1260014588925 627.1021825396822) rotate(0 46.5 11.5)"><text x="0" y="18" font-family="Helvetica, Segoe UI Emoji" font-size="20px" fill="#000000" text-anchor="start" style="white-space: pre;" direction="ltr">monitoring</text></g><g transform="translate(1617.5107670838925 680.5201512896822) rotate(0 81.115234375 22.50390625)"><path d="M0.13486515916883945 -1.9239017609506845 C34.091913825937446 2.517564143845775, 70.60425462222265 0.23535361499521956, 162.7426518741995 -0.4084117654711008 M0.5331138847395778 -0.059669735841453075 C60.97016692646394 -0.44910532243720813, 122.06376274620344 -1.8444270790385418, 162.14174713473767 -0.6810903279110789 M163.37138407863677 1.123828625306487 C162.81731055872493 10.721339121777419, 161.42269556419902 20.662086541466124, 164.1623315755278 45.958263551816344 M162.50637044291943 0.0506189139559865 C161.66160199834871 12.676896817956731, 161.68802297904062 23.79722093320015, 161.8135691760108 44.848476466722786 M161.18582391180098 46.956827795132995 C103.27925901856469 45.67224185399947, 43.68787395015751 47.305440413283684, 1.3221026007086039 44.222451305016875 M162.04294620733708 45.10715561825782 C98.11087300453255 44.62167393269887, 34.989578419586906 44.50555559101453, 0.6331525621935725 45.91514214593917 M-0.10583633743226528 44.18196830712259 C-0.10410525987368602 31.07884500372238, -1.504156198003111 21.025867803227445, -1.5226029213517904 -1.5656165722757578 M0.9042852697893977 45.762070504017174 C0.7238309823870804 36.680866187417266, 0.785104944646373 27.159198804716286, -0.6820039274170995 0.9884196491912007" stroke="#000000" stroke-width="1" fill="none"></path></g><g transform="translate(1645.6260014588925 691.5240575396822) rotate(0 53 11.5)"><text x="0" y="18" font-family="Helvetica, Segoe UI Emoji" font-size="20px" fill="#000000" text-anchor="start" style="white-space: pre;" direction="ltr">prometheus</text></g><g transform="translate(1235.3851160422257 977.2971540178569) rotate(0 139.51171875 167.26757812500006)"><path d="M1.3504813894935497 0.8818750556421827 C83.37806664869797 -0.8742834731398418, 165.06873761068275 -1.8223240703373715, 277.70459411143975 -0.9803079410561881 M0.3156821512482659 0.6692193112954536 C104.93412020579318 -2.128644724725085, 210.0662132468407 -2.0365527259680145, 278.28683686099396 0.05501688321068118 M279.0535456141355 -0.8239075280115856 C278.04687338392876 127.09727358788345, 277.35569578536354 255.5596742346175, 279.06803914233535 333.2712380396061 M278.9533955147391 0.360260489552159 C279.9700732653057 95.55525772574202, 280.74164159522246 190.0798426173103, 279.3665559200509 335.0424642320967 M277.9721977265681 335.0999238546206 C205.46689120096286 333.2198877311075, 130.21045420919074 333.6151757221963, 0.8768283634600634 335.061986643228 M279.15201679732166 335.20043898369823 C172.41851365094877 333.8896957133754, 64.23896117633635 334.1966161302223, 0.07774624200447876 335.25322936069495 M0.6501102286107722 335.06757695809677 C0.05154788444291181 241.7142511156148, -1.410841414048598 146.23081399237498, 0.16435561278740599 0.5301745171271818 M0.14785295783596097 334.47655784654955 C0.6385905981637509 215.07626990539384, 0.8494158335092208 95.71631601264184, -0.0640667564028879 -0.42225037380351554" stroke="#000000" stroke-width="1" fill="none"></path></g><g transform="translate(1320.396834792226 989.5979352678569) rotate(0 40 11.5)"><text x="0" y="18" font-family="Helvetica, Segoe UI Emoji" font-size="20px" fill="#000000" text-anchor="start" style="white-space: pre;" direction="ltr">web_ghc</text></g><g transform="translate(1293.7816004172257 1043.0159040178569) rotate(0 81.115234375 22.50390625)"><path d="M1.7783936206251383 0.8384611960500479 C61.52116942146131 -1.326665871404148, 118.60488188306408 -2.207127743028141, 163.73879569210112 0.4498221632093191 M0.23971192818135023 -0.8655147580429912 C60.48367824620182 -2.158812023356404, 118.53433382661242 -1.3415559601335192, 163.0391029296443 -0.41951439063996077 M162.18869488872588 -0.466057563200593 C161.1758624187482 12.88397801978499, 162.30650072012074 21.721293494738347, 161.9147772733122 46.26454130373895 M161.5292755542323 0.7032470973208547 C162.6244512703726 12.384585073751078, 162.69159032967778 25.757479027048976, 161.9039410231635 45.18791037518531 M163.5836553517729 44.6782666798681 C122.093027766293 45.7890925382567, 82.10947453689222 46.289860067267476, 1.6907134596258402 45.43722209893167 M163.12800799589604 44.124751147814095 C113.0573671648457 45.92910879006548, 64.49452643602925 47.347345611955355, -0.18917242903262377 45.4654906662181 M1.607379013672471 46.80018148384988 C-0.7732872089415469 28.52709874725915, 0.02671983632746555 13.541955082323689, 1.1501613799482584 -0.5600285176187754 M0.008290844969451427 45.215190020389855 C0.22180760781840947 34.6243672946257, -0.19329019505901668 22.49371626838547, 0.438198852352798 0.29680192191153765" stroke="#000000" stroke-width="1" fill="none"></path></g><g transform="translate(1336.8968347922257 1054.0198102678569) rotate(0 38 11.5)"><text x="0" y="18" font-family="Helvetica, Segoe UI Emoji" font-size="20px" fill="#000000" text-anchor="start" style="white-space: pre;" direction="ltr">web-ghc</text></g><g transform="translate(1554.3205079073052 976.7545262896822) rotate(0 139.51171875 167.26757812500006)"><path d="M-0.7659897344147469 -0.3822299342559197 C56.85948259034097 0.6228769194362869, 113.00492372767098 -1.7253667844894296, 277.76990903870956 -1.0931955754090996 M0.5465520374739512 0.6428024676021019 C92.08781384393129 -1.5445919282057337, 183.3105916083991 -0.37348537003733595, 279.3515353531497 0.7465329838750832 M278.57736020471594 -1.11085967042383 C280.6883305101711 99.72072039534362, 278.76071679501143 200.21319389371547, 278.7472933379185 335.5975616398355 M279.47030478425586 0.05203083531729417 C280.89491955052955 120.46354705733236, 279.90259336980193 240.1158888334136, 279.07819040172427 334.05357966847316 M280.34378626876685 334.42892964516295 C183.82806344552125 334.68729918554635, 84.69783509247513 334.9204341754054, -1.2666667495261235 335.36105331198763 M279.24960353600574 334.8534748142742 C187.60479822568723 335.5648326239735, 95.83437044939755 334.79020977053074, -0.2661578578997782 335.1715472573044 M0.2982952238009256 335.0719846507339 C-1.634769528801143 248.6132164869482, -1.4662294053507463 162.13877198927844, 0.7622185824101911 0.8625080473503886 M-0.16821321954834273 334.2961470069448 C-1.5062923259422052 209.72659888482502, -1.2571335453267025 83.75245936647528, -0.19472992503598102 -0.3927616774683518" stroke="#000000" stroke-width="1" fill="none"></path></g><g transform="translate(1628.8322266573052 989.0553075396822) rotate(0 65 11.5)"><text x="0" y="18" font-family="Helvetica, Segoe UI Emoji" font-size="20px" fill="#000000" text-anchor="start" style="white-space: pre;" direction="ltr">marlowe_dash</text></g><g transform="translate(1612.7169922823052 1042.4732762896822) rotate(0 81.115234375 22.50390625)"><path d="M-0.18666615523397923 1.4380207005888224 C51.01338040764058 -1.2149913104920051, 103.00063362029542 -1.0193829926399849, 162.80792883597314 -1.4241899903863668 M0.42243334371596575 -0.7200654866173863 C55.89098488136696 -0.5530836313090186, 112.77124620447938 -0.38566285661076116, 162.2257516356185 0.300171690993011 M163.69012955389917 -0.713334983214736 C160.68893658355717 11.36208474000232, 161.6732513232613 24.865538291954728, 163.42707035504282 46.163889521732926 M163.06629419047385 0.1298371134325862 C161.89541225128087 14.798231509993638, 162.6091374307147 30.76541111621045, 162.6860769065097 45.669135379604995 M163.8239347692579 43.206028098240495 C99.999065716955 43.39732982395155, 39.988624994119874 45.970680909137556, 0.5814806576818228 45.66063945926726 M162.752075699158 45.4968553064391 C109.19738531466537 45.16075305461771, 54.6472391882904 46.5083515179146, -0.42102164309471846 45.8720786748454 M0.47201267443597317 45.531620198860765 C0.622090258147582 27.268301608019826, 1.0286500234864797 10.345248291226739, 1.4795948024839163 1.52071070112288 M0.3145251842215657 45.452980059199035 C0.7952904095433041 34.66250460048686, -0.17613646485588108 25.4051283162742, 0.9706486137583852 0.17923473101109266" stroke="#000000" stroke-width="1" fill="none"></path></g><g transform="translate(1631.3322266573052 1053.4771825396822) rotate(0 62.5 11.5)"><text x="0" y="18" font-family="Helvetica, Segoe UI Emoji" font-size="20px" fill="#000000" text-anchor="start" style="white-space: pre;" direction="ltr">marlowe dash</text></g><g transform="translate(1613.3753194152434 1122.3726128472224) rotate(0 81.115234375 22.50390625)"><path d="M-0.914150333032012 1.0492742117494345 C41.64693100279583 0.21866565291475104, 79.5909717044684 -0.488104469136488, 161.05796762742102 -1.8016880098730326 M0.2292226878926158 0.808367264457047 C38.967001945967425 -1.6865609262405996, 75.63572278576831 -0.6524169121204977, 162.49033844750375 0.17016820330172777 M163.00138946808875 1.1139828618615866 C163.165454551355 14.233173244751379, 160.14603696741258 30.28150753328082, 161.96382763423026 45.97451317869127 M163.09098851960152 0.14979843515902758 C163.15659619687847 12.6636016057666, 161.63846199034504 25.42854632453091, 162.96813497226685 44.8940275432542 M162.71094515360892 46.08429110608995 C120.59304329504339 46.91275336795083, 79.78400412263508 43.459588134815604, -1.5129932519048452 43.31054980121553 M163.07477411907166 44.472282958216965 C117.61999645610376 44.94370063902457, 74.90176340220569 46.57183688642104, 0.5640144972130656 44.55160747189075 M-0.0036839600652456284 43.179376190528274 C-0.031207171758651397 30.89208232660094, 1.3410950624141695 13.418575923000752, -1.3699925895780325 1.0877084787935019 M0.26380092184990644 44.942111116833985 C0.23082652197896092 30.58498394355629, 0.5885181974035367 15.47124685359158, 0.9266281453892589 -0.7327939150854945" stroke="#000000" stroke-width="1" fill="none"></path></g><g transform="translate(1674.9905537902434 1133.3765190972224) rotate(0 19.5 11.5)"><text x="0" y="18" font-family="Helvetica, Segoe UI Emoji" font-size="20px" fill="#000000" text-anchor="start" style="white-space: pre;" direction="ltr">PAB</text></g></svg>