<svg xmlns="http://www.w3.org/2000/svg" xmlns:xlink="http://www.w3.org/1999/xlink" width="71" height="15" viewBox="0 0 71 15">
    <defs>
        <path id="92bhlmiv5a" d="M0 0L69.75 0 69.75 15 0 15z"/>
    </defs>
    <g fill="none" fill-rule="evenodd">
        <g>
            <g>
                <g transform="translate(-27 -30) translate(27.75 25) matrix(-1 0 0 1 70 5)">
                    <mask id="14mwhkkxeb" fill="#fff">
                        <use xlink:href="#92bhlmiv5a"/>
                    </mask>
                    <path fill="#283346" d="M69.691 7.785c.015-.04.033-.081.042-.123.003-.02.008-.04.01-.058.001-.008.007-.015.007-.023.003-.034-.009-.063-.01-.096 0-.05.001-.095-.007-.144l-.014-.064c-.011-.038-.031-.076-.05-.113-.018-.043-.034-.086-.06-.124-.008-.012-.008-.026-.016-.037-.005-.009-.013-.01-.018-.019-.027-.032-.062-.057-.092-.086-.026-.023-.04-.055-.07-.076L60.455.165c-.372-.277-.89-.198-1.162.18-.271.376-.191.903.178 1.178l6.576 4.888c-25.743-2.008-64.856.224-65.264.25-.457.027-.808.424-.782.888.027.466.425.835.879.793.409-.025 40.16-2.298 65.766-.195l-7.175 5.331c-.37.275-.45.802-.178 1.178.163.226.416.344.672.344.17 0 .342-.052.49-.162l8.958-6.657c.014-.009.019-.022.03-.03.039-.035.069-.07.1-.109.013-.017.037-.023.05-.042.008-.012.008-.025.017-.037.011-.018.025-.037.036-.057.02-.039.03-.081.045-.121" mask="url(#14mwhkkxeb)"/>
                </g>
            </g>
        </g>
    </g>
</svg>
