<svg xmlns="http://www.w3.org/2000/svg" width="433" height="276" viewBox="0 0 433 276">
    <g fill="none" fill-rule="evenodd" opacity=".1">
        <g fill="#757575">
            <path d="M823.85 67.345c-27.435-34.752-41.293-71.758-41.22-109.983.392-166.116 282.18-303.81 641.529-313.475h.269c6.635 0 12.073 6.685 12.22 15.099.147 8.537-5.218 15.592-11.964 15.778-334.444 8.985-617.27 138.45-617.613 282.69-.073 29.72 11.402 59.361 34.083 88.092 92.128 116.729 343.5 195.155 625.483 195.155 357.516 0 659.553-129.728 659.553-283.293 0-35.539-25.98-82.641-71.293-129.203-223.827-230.046-621.23-257.249-895.735-185.229-6.611 1.667-13.063-3.628-14.456-11.965-1.37-8.352 2.883-16.534 9.495-18.263 458.871-120.465 791.776 63.698 916.118 191.497 51.79 53.231 80.311 107.636 80.311 153.163 0 176.167-300.447 314.17-683.993 314.17-288.057 0-546.37-82.07-642.787-204.233z" transform="translate(-1007.000000, 0.000000) translate(1466.630275, -77.421875) scale(-1, 1) rotate(-198.000000) translate(-1466.630275, 77.421875)"/>
        </g>
    </g>
</svg>
