<?xml version="1.0" encoding="UTF-8"?>
<svg width="34px" height="35px" viewBox="0 0 34 35" version="1.1" xmlns="http://www.w3.org/2000/svg" xmlns:xlink="http://www.w3.org/1999/xlink">
    <title>trending_up_black_24dp</title>
    <defs>
        <linearGradient x1="0.249945367%" y1="49.7500546%" x2="99.7500546%" y2="49.7500546%" id="linearGradient-1">
            <stop stop-color="#4700C3" offset="0%"></stop>
            <stop stop-color="#8701FC" offset="100%"></stop>
        </linearGradient>
    </defs>
    <g id="Mobile-and-desktop" stroke="none" stroke-width="1" fill="none" fill-rule="evenodd">
        <g id="17---Contract-templates-D-Copy" transform="translate(-1153.000000, -306.000000)">
            <g id="Tutorial-menu" transform="translate(1134.000000, 0.000000)">
                <g id="Getting-started-Copy" transform="translate(0.000000, 292.867592)">
                    <g id="trending_up_black_24dp" transform="translate(19.000000, 14.019865)">
                        <polygon id="Path" points="0 0 34 0 34 34 0 34"></polygon>
                        <path d="M23.8708333,9.70416667 L25.9108333,11.7441667 L18.9975,18.6575 L14.3366667,13.9966667 C13.7841667,13.4441667 12.8916667,13.4441667 12.3391667,13.9966667 L3.83916667,22.5108333 C3.28666667,23.0633333 3.28666667,23.9558333 3.83916667,24.5083333 C4.39166667,25.0608333 5.28416667,25.0608333 5.83666667,24.5083333 L13.3308333,17 L17.9916667,21.6608333 C18.5441667,22.2133333 19.4366667,22.2133333 19.9891667,21.6608333 L27.9083333,13.7558333 L29.9483333,15.7958333 C30.3875,16.235 31.1525,15.9233333 31.1525,15.3 L31.1525,9.20833333 C31.1666667,8.81166667 30.855,8.5 30.4583333,8.5 L24.3808333,8.5 C23.7433333,8.5 23.4316667,9.265 23.8708333,9.70416667 L23.8708333,9.70416667 Z" id="Path" fill="url(#linearGradient-1)" fill-rule="nonzero"></path>
                    </g>
                </g>
            </g>
        </g>
    </g>
</svg>