<svg xmlns="http://www.w3.org/2000/svg" width="99" height="51" viewBox="0 0 99 51">
    <g fill="none" fill-rule="evenodd">
        <g fill="#283346">
            <g>
                <path d="M49 50C28.365 50 9.86 44.121 2.953 35.37.988 32.88-.005 30.23 0 27.492c.028-11.9 20.215-21.763 45.957-22.456h.02c.475 0 .865.48.875 1.082.01.612-.374 1.117-.857 1.13-23.959.644-44.22 9.918-44.244 20.25-.005 2.13.817 4.252 2.441 6.31C10.792 42.17 28.8 47.789 49 47.789c25.612 0 47.25-9.293 47.25-20.293 0-2.546-1.862-5.92-5.108-9.255C75.108 1.76 46.639-.188 26.974 4.97c-.474.12-.936-.26-1.036-.857-.098-.598.207-1.184.68-1.308 32.873-8.63 56.721 4.563 65.629 13.717C95.957 20.337 98 24.233 98 27.495 98 40.115 76.477 50 49 50" transform="translate(-26 -669) translate(26.973 669.606)"/>
            </g>
        </g>
    </g>
</svg>
