<?xml version="1.0" encoding="UTF-8"?>
<svg width="34px" height="34px" viewBox="0 0 34 34" version="1.1" xmlns="http://www.w3.org/2000/svg" xmlns:xlink="http://www.w3.org/1999/xlink">
    <title>Group</title>
    <defs>
        <linearGradient x1="0.249945367%" y1="49.7500546%" x2="99.7500546%" y2="49.7500546%" id="linearGradient-1">
            <stop stop-color="#4700C3" offset="0%"></stop>
            <stop stop-color="#8701FC" offset="100%"></stop>
        </linearGradient>
    </defs>
    <g id="Mobile-and-desktop" stroke="none" stroke-width="1" fill="none" fill-rule="evenodd">
        <g id="17---Contract-templates-D-Copy" transform="translate(-1150.000000, -128.000000)">
            <g id="Tutorial-menu" transform="translate(1134.000000, 0.000000)">
                <g id="Getting-started" transform="translate(0.000000, 113.000000)">
                    <g id="Group" transform="translate(16.000000, 15.000000)">
                        <path d="M23.6231,9.35281198 L5.5298531,9.35281198 C4.68866242,9.35281198 4.0004155,10.0410589 4.0004155,10.8822496 C4.0004155,11.7234403 4.68866242,12.4116872 5.5298531,12.4116872 L24.0819312,12.4116872 C25.6113688,12.4116872 27.0337458,13.4364104 27.2784558,14.9505536 C27.5996377,16.8623506 26.1160833,18.5294376 24.2654637,18.5294376 L20.8242291,18.5294376 L20.8242291,17.3211819 C20.8242291,16.632935 19.9983328,16.2964587 19.5242072,16.7858787 L16.7865139,19.523572 C16.4806263,19.8294596 16.4806263,20.3035852 16.7865139,20.6094727 L19.5242072,23.3471661 C20.0136272,23.8365861 20.8242291,23.4848154 20.8242291,22.8118629 L20.8242291,21.5883128 L23.8831043,21.5883128 C27.4619883,21.5883128 30.3220367,18.5141432 29.970266,14.8740817 C29.6643785,11.6928515 26.8196245,9.35281198 23.6231,9.35281198 Z M11.6476035,18.5294376 L5.5298531,18.5294376 C4.68866242,18.5294376 4.0004155,19.2176845 4.0004155,20.0588752 C4.0004155,20.9000659 4.68866242,21.5883128 5.5298531,21.5883128 L11.6476035,21.5883128 C12.4887942,21.5883128 13.1770411,20.9000659 13.1770411,20.0588752 C13.1770411,19.2176845 12.4887942,18.5294376 11.6476035,18.5294376 Z M10.1181659,23.1177504 L10.1181659,17 C10.1181659,16.1588093 9.42991899,15.4705624 8.58872831,15.4705624 C7.74753763,15.4705624 7.05929071,16.1588093 7.05929071,17 L7.05929071,23.1177504 C7.05929071,23.9589411 7.74753763,24.647188 8.58872831,24.647188 C9.42991899,24.647188 10.1181659,23.9589411 10.1181659,23.1177504 Z" id="Shape" fill="url(#linearGradient-1)" fill-rule="nonzero"></path>
                        <rect id="Rectangle" x="0" y="0" width="34" height="34"></rect>
                    </g>
                </g>
            </g>
        </g>
    </g>
</svg>