<svg xmlns="http://www.w3.org/2000/svg" width="121" height="66" viewBox="0 0 121 66">
    <g fill="none" fill-rule="evenodd">
        <g>
            <g>
                <g>
                    <path fill="#00E39C" d="M6.452 65.397c-.61 0-1.219-.087-1.81-.26-1.653-.482-3.02-1.58-3.847-3.09-.827-1.511-1.016-3.253-.533-4.906l11.967-40.96c.392-1.344 1.192-2.5 2.31-3.342 1.12-.842 2.451-1.29 3.852-1.296h.027c1.395 0 2.725.44 3.845 1.272 1.12.832 1.925 1.98 2.328 3.316l2.617 8.695 5.906-20.19c.394-1.343 1.194-2.5 2.313-3.341C36.547.453 37.878.005 39.28 0h.023C40.7 0 42.03.44 43.15 1.273c1.12.834 1.924 1.98 2.327 3.318l8.84 29.417c.495 1.649.32 3.393-.496 4.91-.816 1.516-2.173 2.624-3.823 3.12-.605.182-1.23.274-1.857.274-1.358 0-2.71-.443-3.81-1.25-1.139-.833-1.955-1.99-2.362-3.343l-2.584-8.596-5.901 20.17c-.393 1.345-1.193 2.5-2.312 3.342-1.118.842-2.45 1.29-3.85 1.295h-.026c-1.395 0-2.725-.44-3.845-1.272-1.12-.832-1.926-1.98-2.327-3.316L18.51 40.66l-5.872 20.096c-.4 1.366-1.213 2.533-2.355 3.376-1.104.816-2.464 1.264-3.83 1.264" transform="translate(-127.000000, -109.000000) translate(28.000000, 72.000000) translate(99.356251, 37.500148)"/>
                    <path fill="#273245" d="M76.22 27.315c0 .67-.161 1.249-.492 1.77-.334.527-.783.926-1.37 1.219-.59.296-1.291.446-2.08.446h-3.153V23.54h3.153c.783 0 1.479.162 2.066.48.59.32 1.039.754 1.376 1.325.332.565.5 1.228.5 1.969zm.165 6.089c1.094-.596 1.966-1.414 2.592-2.435.653-1.066.985-2.295.985-3.654 0-1.45-.33-2.744-.981-3.846-.653-1.103-1.571-1.98-2.731-2.612-1.154-.626-2.49-.944-3.972-.944h-5.08c-.535 0-.994.181-1.364.538-.373.363-.563.83-.563 1.389v19.105c0 .538.188.999.558 1.369.37.37.83.558 1.369.558.56 0 1.027-.19 1.389-.564.357-.37.538-.829.538-1.363v-6.568h3.153c.09 0 .18 0 .27-.003l4.7 7.574c.194.315.44.55.73.702.28.147.594.222.931.222.979 0 1.454-.528 1.68-.971.22-.434.372-1.13-.16-1.988l-4.044-6.51zM97.422 26.488c-.535 0-.99.177-1.35.524-.365.353-.55.816-.55 1.375v7.958c0 .587-.157 1.102-.482 1.574-.33.479-.782.866-1.34 1.148-.562.286-1.218.43-1.95.43-.774 0-1.475-.15-2.086-.447-.598-.29-1.06-.729-1.411-1.34-.353-.612-.531-1.413-.531-2.38v-6.943c0-.537-.183-.994-.544-1.355-.362-.361-.817-.544-1.355-.544-.539 0-.994.184-1.355.544-.361.36-.543.817-.543 1.355v6.942c0 1.632.318 3.037.945 4.173.634 1.146 1.512 2.028 2.61 2.623 1.089.59 2.335.888 3.705.888 1.333 0 2.543-.295 3.594-.876.296-.163.575-.343.836-.541.088.275.24.52.451.732.36.36.817.544 1.356.544.56 0 1.022-.185 1.374-.55.348-.36.524-.814.524-1.349V28.387c0-.556-.178-1.016-.53-1.37-.352-.35-.812-.529-1.368-.529M119.341 29.886c-.633-1.145-1.511-2.028-2.61-2.623-1.09-.59-2.336-.888-3.705-.888-1.313 0-2.517.295-3.578.875-.299.163-.58.344-.845.542-.085-.285-.234-.536-.444-.746-.352-.351-.812-.53-1.37-.53-.534 0-.988.177-1.348.525-.365.352-.55.814-.55 1.374v12.587c0 .538.184.994.544 1.353.36.362.816.545 1.355.545.56 0 1.023-.185 1.375-.55.348-.36.524-.814.524-1.348v-7.958c0-.606.157-1.124.481-1.585.33-.47.785-.853 1.353-1.137.573-.286 1.225-.432 1.94-.432.79 0 1.494.15 2.096.447.591.291 1.05.727 1.401 1.329.352.603.53 1.408.53 2.393v6.943c0 .538.183.994.543 1.353.36.362.816.545 1.355.545s.994-.183 1.355-.544c.361-.36.544-.817.544-1.354v-6.943c0-1.632-.318-3.037-.946-4.173M72.253 53.262c0 .72-.154 1.368-.458 1.924-.304.553-.726.994-1.254 1.308-.528.316-1.146.475-1.838.475h-1.477v-7.401h1.477c.693 0 1.311.157 1.84.469.527.31.948.747 1.252 1.296.304.551.458 1.2.458 1.93m.26-3.829c-.472-.478-1.037-.851-1.678-1.11-.638-.258-1.356-.39-2.132-.39H66.33c-.248 0-.462.084-.634.251-.173.168-.261.385-.261.645v8.877c0 .25.087.464.259.636.172.173.386.26.636.26h2.373c.776 0 1.494-.131 2.132-.39.64-.258 1.206-.632 1.678-1.11.473-.477.842-1.048 1.096-1.698.254-.647.382-1.368.382-2.143 0-.775-.128-1.494-.382-2.137-.254-.645-.623-1.214-1.096-1.69M77.72 53.61c.167-.345.405-.61.727-.809.318-.197.71-.296 1.166-.296.392 0 .728.09.997.267.272.178.485.425.633.734.075.154.133.322.173.5H77.57c.04-.138.089-.27.15-.395m3.76-2.176c-.52-.322-1.15-.484-1.868-.484-.725 0-1.38.166-1.943.494-.565.329-1.013.789-1.332 1.366-.318.576-.48 1.248-.48 1.999 0 .743.172 1.413.508 1.989.338.577.811 1.037 1.407 1.364.593.326 1.278.492 2.037.492.424 0 .872-.078 1.333-.234.463-.155.857-.362 1.17-.61.258-.197.302-.428.293-.588-.012-.216-.115-.41-.312-.584-.154-.13-.336-.193-.543-.187-.197.005-.38.07-.548.193-.158.118-.37.224-.632.317-.26.092-.516.139-.761.139-.46 0-.87-.101-1.219-.3-.35-.2-.627-.473-.826-.814-.092-.157-.162-.326-.212-.505h4.722c.23 0 .426-.075.58-.224.157-.15.237-.34.237-.567 0-.72-.138-1.366-.41-1.922-.273-.564-.678-1.012-1.2-1.334M94.208 51.293c-.416-.236-.897-.356-1.43-.356-.602 0-1.147.133-1.619.394-.25.14-.473.309-.667.506-.184-.22-.402-.402-.651-.544-.415-.236-.897-.356-1.43-.356-.553 0-1.053.134-1.487.399-.077.046-.151.097-.222.15-.04-.083-.093-.158-.16-.224-.162-.163-.376-.246-.635-.246-.25 0-.46.082-.627.244-.17.163-.255.378-.255.638v5.835c0 .25.085.463.252.63.168.167.38.253.63.253.26 0 .475-.086.639-.255.161-.168.243-.379.243-.628v-3.697c0-.437.127-.784.387-1.06.258-.273.576-.405.973-.405.383 0 .68.11.912.338.228.224.344.586.344 1.074v3.75c0 .25.084.463.252.63.167.167.379.253.63.253.26 0 .475-.086.638-.255.162-.168.244-.38.244-.628v-3.697c0-.438.125-.785.382-1.06.253-.273.568-.405.964-.405.383 0 .681.11.913.338.227.224.343.585.343 1.074v3.75c0 .25.084.463.252.63.168.167.38.253.63.253.26 0 .475-.086.638-.255.162-.168.244-.379.244-.628v-3.75c0-.633-.116-1.184-.344-1.637-.232-.46-.563-.814-.983-1.053M101.445 57.048c-.413 0-.782-.096-1.097-.284-.315-.19-.567-.454-.748-.786-.183-.332-.275-.726-.275-1.168 0-.443.092-.84.275-1.178.182-.335.434-.601.75-.79.313-.189.682-.284 1.095-.284.414 0 .782.095 1.097.284.314.188.563.454.74.789.18.338.27.736.27 1.179 0 .443-.09.836-.27 1.17-.177.332-.426.595-.74.784-.315.188-.683.284-1.097.284m3.326-4.239c-.328-.577-.785-1.037-1.358-1.365-.573-.327-1.234-.493-1.968-.493-.742 0-1.408.166-1.981.493-.573.328-1.03.788-1.358 1.365-.328.576-.494 1.25-.494 2 0 .743.166 1.412.494 1.988.328.577.785 1.037 1.358 1.364.572.328 1.239.494 1.981.494s1.41-.166 1.981-.494c.574-.328 1.028-.787 1.352-1.366.323-.576.487-1.244.487-1.985 0-.751-.166-1.424-.494-2" transform="translate(-127.000000, -109.000000) translate(28.000000, 72.000000) translate(99.356251, 37.500148)"/>
                </g>
            </g>
        </g>
    </g>
</svg>
