<?xml version="1.0" encoding="utf-8"?>
<!-- Generator: Adobe Illustrator 25.1.0, SVG Export Plug-In . SVG Version: 6.00 Build 0)  -->
<svg version="1.1" id="Layer_1" xmlns="http://www.w3.org/2000/svg" xmlns:xlink="http://www.w3.org/1999/xlink" x="0px" y="0px"
	 viewBox="0 0 294.2 99.6" style="enable-background:new 0 0 294.2 99.6;" xml:space="preserve">
<style type="text/css">
	.st0{fill:#00E39C;}
	.st1{fill:#273245;}
</style>
<g>
	<path class="st0" d="M9.8,99.6c-0.9,0-1.9-0.1-2.8-0.4c-2.5-0.7-4.6-2.4-5.9-4.7c-1.3-2.3-1.5-5-0.8-7.5l18.2-62.4
		c0.6-2,1.8-3.8,3.5-5.1c1.7-1.3,3.7-2,5.9-2l0,0c2.1,0,4.2,0.7,5.9,1.9c1.7,1.3,2.9,3,3.5,5.1l4,13.2l9-30.8C51.1,5,52.3,3.3,54,2
		c1.7-1.3,3.7-2,5.9-2l0,0C62,0,64,0.7,65.7,1.9c1.7,1.3,2.9,3,3.5,5.1l13.5,44.8c0.8,2.5,0.5,5.2-0.8,7.5c-1.2,2.3-3.3,4-5.8,4.8
		c-0.9,0.3-1.9,0.4-2.8,0.4c-2.1,0-4.1-0.7-5.8-1.9c-1.7-1.3-3-3-3.6-5.1L60,44.4l-9,30.7c-0.6,2-1.8,3.8-3.5,5.1
		c-1.7,1.3-3.7,2-5.9,2l0,0c-2.1,0-4.2-0.7-5.9-1.9c-1.7-1.3-2.9-3-3.5-5.1l-4-13.2l-8.9,30.6c-0.6,2.1-1.8,3.9-3.6,5.1
		C14,99,11.9,99.6,9.8,99.6z"/>
	<g>
		<path class="st0" d="M110.2,90.6c0.1,0,0.2-0.1,0.3-0.1c1.1-0.5,1.9-1.3,2.5-2.3c0.6-1,0.9-2.1,0.9-3.3c0-1.3-0.3-2.5-0.9-3.5
			c-0.6-1-1.4-1.8-2.5-2.4c-1.1-0.6-2.3-0.9-3.6-0.9H102c-0.4,0-0.7,0.1-1,0.4c-0.3,0.3-0.4,0.6-0.4,1v18.4c0,0.4,0.1,0.7,0.4,1
			c0.3,0.3,0.6,0.4,1,0.4c0.4,0,0.8-0.1,1-0.4c0.3-0.3,0.4-0.6,0.4-1v-6.8h3.5c0.2,0,0.3,0,0.5,0l4.7,7.5c0.1,0.2,0.3,0.4,0.5,0.5
			c0.2,0.1,0.4,0.2,0.7,0.2c0.6,0,1-0.2,1.2-0.7c0.2-0.5,0.2-1-0.1-1.5L110.2,90.6z M103.4,88.7v-7.8h3.5c0.8,0,1.6,0.2,2.2,0.5
			c0.6,0.3,1.1,0.8,1.5,1.4c0.4,0.6,0.5,1.3,0.5,2.1c0,0.7-0.2,1.4-0.5,1.9c-0.4,0.6-0.9,1-1.5,1.3c-0.6,0.3-1.4,0.5-2.2,0.5H103.4z
			"/>
		<path class="st0" d="M131.2,84.6c-0.4,0-0.7,0.1-1,0.4c-0.3,0.3-0.4,0.6-0.4,1v7.7c0,0.7-0.2,1.2-0.5,1.8
			c-0.4,0.5-0.8,0.9-1.5,1.3c-0.6,0.3-1.3,0.5-2.1,0.5c-0.8,0-1.6-0.2-2.2-0.5c-0.7-0.3-1.2-0.8-1.6-1.5c-0.4-0.7-0.6-1.5-0.6-2.5
			V86c0-0.4-0.1-0.7-0.4-1c-0.3-0.3-0.6-0.4-1-0.4c-0.4,0-0.7,0.1-1,0.4c-0.3,0.3-0.4,0.6-0.4,1v6.7c0,1.5,0.3,2.8,0.9,3.8
			s1.4,1.8,2.3,2.4c1,0.5,2.1,0.8,3.4,0.8c1.2,0,2.3-0.3,3.3-0.8c0.5-0.3,1-0.6,1.4-1.1v0.3c0,0.4,0.1,0.7,0.4,1
			c0.3,0.3,0.6,0.4,1,0.4c0.4,0,0.8-0.1,1-0.4c0.3-0.3,0.4-0.6,0.4-1V86c0-0.4-0.1-0.8-0.4-1C131.9,84.7,131.6,84.6,131.2,84.6z"/>
		<path class="st0" d="M151.9,87.6c-0.6-1-1.4-1.8-2.3-2.4c-1-0.5-2.1-0.8-3.4-0.8c-1.2,0-2.3,0.3-3.2,0.8c-0.5,0.3-1,0.6-1.4,1.1
			V86c0-0.4-0.1-0.8-0.4-1c-0.3-0.3-0.6-0.4-1-0.4c-0.4,0-0.7,0.1-1,0.4c-0.3,0.3-0.4,0.6-0.4,1v12.1c0,0.4,0.1,0.7,0.4,1
			c0.3,0.3,0.6,0.4,1,0.4c0.4,0,0.8-0.1,1-0.4c0.3-0.3,0.4-0.6,0.4-1v-7.7c0-0.7,0.2-1.3,0.5-1.8c0.4-0.5,0.9-0.9,1.5-1.2
			c0.6-0.3,1.3-0.5,2.1-0.5c0.8,0,1.6,0.2,2.2,0.5c0.6,0.3,1.2,0.8,1.5,1.5c0.4,0.7,0.6,1.5,0.6,2.5v6.7c0,0.4,0.1,0.7,0.4,1
			c0.3,0.3,0.6,0.4,1,0.4c0.4,0,0.7-0.1,1-0.4c0.3-0.3,0.4-0.6,0.4-1v-6.7C152.8,89.9,152.5,88.7,151.9,87.6z"/>
	</g>
	<g>
		<path class="st1" d="M131.9,30.4c-1.1,0-2,0.5-2.6,1.6l-11.5,23.6L106.1,32c-0.6-1-1.5-1.5-2.6-1.5c-0.8,0-1.5,0.3-2.1,0.8
			c-0.6,0.5-0.9,1.3-0.9,2.1v28.4c0,0.8,0.3,1.5,0.8,2.1c0.6,0.6,1.3,0.8,2.1,0.8s1.5-0.3,2.1-0.8c0.6-0.6,0.8-1.3,0.8-2.1V44.4
			l8.6,17.3c0.5,1.1,1.5,1.7,2.7,1.7c1,0,1.9-0.5,2.5-1.4L129,44v17.7c0,0.8,0.3,1.5,0.8,2.1c0.6,0.6,1.3,0.8,2.1,0.8
			c0.8,0,1.5-0.3,2-0.8c0.6-0.6,0.9-1.3,0.9-2.1V33.3c0-0.8-0.3-1.6-0.9-2.1C133.4,30.7,132.7,30.4,131.9,30.4z"/>
		<path class="st1" d="M160.8,41.7L160.8,41.7c-1.8-1.1-3.9-1.6-6.2-1.6c-2.3,0-4.4,0.5-6.3,1.6c-1.9,1.1-3.3,2.6-4.4,4.4
			c-1.1,1.9-1.6,4-1.6,6.3c0,2.3,0.5,4.4,1.5,6.3c1,1.9,2.4,3.3,4.1,4.4c1.7,1.1,3.7,1.6,5.9,1.6c2.2,0,4.2-0.6,5.9-1.6
			c0.5-0.3,1-0.7,1.5-1.1c0.1,0.7,0.3,1.3,0.8,1.8c0.5,0.5,1.2,0.8,2,0.8c0.8,0,1.5-0.3,2-0.8c0.5-0.5,0.8-1.2,0.8-2v-9.3
			c0-2.3-0.5-4.5-1.6-6.3C164.1,44.3,162.7,42.8,160.8,41.7z M161.3,52.4c0,1.4-0.3,2.6-0.9,3.7c-0.6,1.1-1.4,1.9-2.4,2.5
			c-1,0.6-2.2,0.9-3.4,0.9c-1.3,0-2.4-0.3-3.4-0.9c-1-0.6-1.8-1.5-2.4-2.5c-0.6-1.1-0.9-2.3-0.9-3.6c0-1.4,0.3-2.6,0.9-3.7
			c0.6-1.1,1.4-1.9,2.4-2.5c1-0.6,2.2-0.9,3.4-0.9c1.3,0,2.4,0.3,3.4,0.9c1,0.6,1.8,1.5,2.4,2.5C161,49.8,161.3,51.1,161.3,52.4z"/>
		<path class="st1" d="M190,40.9c-1-0.6-2.3-0.9-4.2-0.9c-1.8,0-3.5,0.4-5,1.3c-0.5,0.3-1,0.6-1.4,1c-0.1-0.5-0.3-0.9-0.7-1.2
			c-0.5-0.5-1.2-0.7-2.1-0.7c-0.9,0-1.6,0.3-2.1,0.8c-0.5,0.5-0.8,1.2-0.8,2.1v18.7c0,0.9,0.3,1.6,0.8,2.1c0.5,0.5,1.2,0.7,2.1,0.7
			c0.9,0,1.6-0.3,2.1-0.8c0.5-0.5,0.7-1.2,0.7-2.1V49.6c0-1.1,0.3-2,1-2.7c0.7-0.7,1.7-1.2,3-1.5c1.3-0.3,2.8-0.3,4.5,0.1
			c0.5,0.1,0.9,0.1,1.3,0c0.4-0.1,0.8-0.3,1.2-0.6c0.4-0.3,0.6-0.8,0.7-1.3C191.4,42.9,191.4,41.8,190,40.9z"/>
		<path class="st1" d="M203.6,59h-1c-0.2,0-0.5-0.1-0.9-0.6c-0.3-0.6-0.5-1.3-0.5-2.2V33.2c0-0.8-0.3-1.5-0.8-2
			c-0.5-0.5-1.2-0.8-2-0.8c-0.8,0-1.5,0.3-2,0.8c-0.5,0.5-0.8,1.2-0.8,2v22.9c0,1.6,0.3,3.1,0.9,4.3c0.6,1.3,1.4,2.3,2.5,3
			c1.1,0.8,2.3,1.1,3.7,1.1h0.1c1,0,1.8-0.2,2.5-0.7c0.7-0.5,1.1-1.3,1.1-2.1c0-0.8-0.2-1.5-0.7-2C205,59.3,204.3,59,203.6,59z"/>
		<path class="st1" d="M227.2,41.6L227.2,41.6c-1.8-1.1-4-1.6-6.3-1.6c-2.4,0-4.5,0.5-6.4,1.6c-1.8,1.1-3.3,2.5-4.4,4.4
			c-1.1,1.9-1.6,4-1.6,6.4c0,2.4,0.5,4.5,1.6,6.4c1.1,1.9,2.5,3.3,4.4,4.4c1.8,1.1,4,1.6,6.4,1.6c2.4,0,4.5-0.5,6.4-1.6
			c1.8-1.1,3.3-2.5,4.3-4.4c1-1.8,1.6-4,1.6-6.4c0-2.4-0.5-4.6-1.6-6.4C230.5,44.2,229,42.7,227.2,41.6z M227.6,52.4
			c0,1.4-0.3,2.7-0.9,3.7c-0.6,1-1.4,1.9-2.4,2.5c-1,0.6-2.2,0.9-3.5,0.9c-1.3,0-2.5-0.3-3.5-0.9c-1-0.6-1.8-1.4-2.4-2.5
			c-0.6-1.1-0.9-2.3-0.9-3.7c0-1.4,0.3-2.7,0.9-3.7c0.6-1.1,1.4-1.9,2.4-2.5c1-0.6,2.2-0.9,3.5-0.9c1.3,0,2.5,0.3,3.5,0.9
			c1,0.6,1.8,1.4,2.3,2.5C227.3,49.8,227.6,51,227.6,52.4z"/>
		<path class="st1" d="M264.7,40.2c-1,0-2.3,0.4-2.9,2.4l-3.8,12l-3.1-12.3c-0.1-0.6-0.5-1.2-0.9-1.5c-0.5-0.4-1.1-0.6-1.8-0.6
			c-0.8,0-1.4,0.2-1.9,0.6c-0.4,0.4-0.8,0.9-0.9,1.5l-3.6,12.2l-3.8-11.9c-0.3-0.8-0.6-1.4-1.1-1.8c-0.5-0.4-1.1-0.6-1.8-0.6
			c-1.4,0-2,0.7-2.2,1.3c-0.3,0.7-0.3,1.6,0,2.6l6.2,18.6c0.2,0.5,0.5,1,1,1.3c1,0.7,2.4,0.7,3.4,0c0.5-0.4,0.9-0.8,1-1.4l3.6-12.7
			l3.4,12.7c0.2,0.6,0.5,1,1,1.4c0.5,0.3,1.1,0.5,1.7,0.5c0.6,0,1.2-0.2,1.7-0.5c0.5-0.4,0.8-0.8,1-1.3l6.2-18.6
			c0.4-1.1,0.4-2,0-2.7C266.7,40.9,266,40.2,264.7,40.2z"/>
		<path class="st1" d="M293.4,53.9c0.5-0.5,0.8-1.1,0.8-1.8c0-2.3-0.4-4.4-1.3-6.2c-0.9-1.8-2.2-3.3-3.9-4.3c-1.7-1-3.7-1.6-6-1.6
			c-2.3,0-4.4,0.5-6.2,1.6c-1.8,1.1-3.3,2.5-4.3,4.4c-1,1.9-1.5,4-1.5,6.4c0,2.4,0.5,4.5,1.6,6.4c1.1,1.9,2.6,3.3,4.5,4.4
			c1.9,1,4.1,1.6,6.5,1.6c1.4,0,2.8-0.3,4.3-0.8c1.5-0.5,2.8-1.2,3.8-2c0.8-0.6,1-1.4,1-1.9c0-0.7-0.4-1.3-1-1.9
			c-0.5-0.4-1.1-0.6-1.8-0.6c-0.6,0-1.2,0.2-1.8,0.6c-0.5,0.4-1.2,0.7-2,1c-0.8,0.3-1.6,0.4-2.4,0.4c-1.5,0-2.8-0.3-3.9-1
			c-1.1-0.6-2-1.5-2.6-2.6c-0.3-0.5-0.5-1-0.7-1.5h15C292.3,54.6,292.9,54.4,293.4,53.9z M288.7,49.8h-12.2c0.1-0.4,0.3-0.8,0.5-1.2
			c0.5-1.1,1.3-1.9,2.3-2.6c1-0.6,2.3-0.9,3.7-0.9c1.2,0,2.3,0.3,3.2,0.8c0.9,0.6,1.5,1.3,2,2.3C288.4,48.8,288.6,49.3,288.7,49.8z"
			/>
	</g>
</g>
</svg>
