<?xml version="1.0" encoding="utf-8"?>
<!-- Generator: Adobe Illustrator 25.1.0, SVG Export Plug-In . SVG Version: 6.00 Build 0)  -->
<svg version="1.1" id="Layer_1" xmlns="http://www.w3.org/2000/svg" xmlns:xlink="http://www.w3.org/1999/xlink" x="0px" y="0px"
	 viewBox="0 0 181.2 99.6" style="enable-background:new 0 0 181.2 99.6;" xml:space="preserve">
<style type="text/css">
	.st0{fill:#00E39C;}
	.st1{fill:#273245;}
</style>
<g>
	<path class="st0" d="M9.8,99.6c-0.9,0-1.9-0.1-2.8-0.4c-2.5-0.7-4.6-2.4-5.9-4.7c-1.3-2.3-1.5-5-0.8-7.5l18.2-62.4
		c0.6-2,1.8-3.8,3.5-5.1c1.7-1.3,3.7-2,5.9-2l0,0c2.1,0,4.2,0.7,5.9,1.9c1.7,1.3,2.9,3,3.5,5.1l4,13.2l9-30.8C51.1,5,52.3,3.3,54,2
		c1.7-1.3,3.7-2,5.9-2l0,0C62,0,64,0.7,65.7,1.9c1.7,1.3,2.9,3,3.5,5.1l13.5,44.8c0.8,2.5,0.5,5.2-0.8,7.5c-1.2,2.3-3.3,4-5.8,4.8
		c-0.9,0.3-1.9,0.4-2.8,0.4c-2.1,0-4.1-0.7-5.8-1.9c-1.7-1.3-3-3-3.6-5.1L60,44.4l-9,30.7c-0.6,2-1.8,3.8-3.5,5.1
		c-1.7,1.3-3.7,2-5.9,2l0,0c-2.1,0-4.2-0.7-5.9-1.9c-1.7-1.3-2.9-3-3.5-5.1l-4-13.2l-8.9,30.6c-0.6,2.1-1.8,3.9-3.6,5.1
		C14,99,11.9,99.6,9.8,99.6z"/>
	<g>
		<path class="st1" d="M116.4,50.9c1.7-0.9,3-2.2,3.9-3.7c1-1.6,1.5-3.5,1.5-5.6c0-2.2-0.5-4.2-1.5-5.9c-1-1.7-2.4-3-4.2-4
			c-1.8-1-3.8-1.4-6.1-1.4h-7.7c-0.8,0-1.5,0.3-2.1,0.8c-0.6,0.6-0.9,1.3-0.9,2.1v29.1c0,0.8,0.3,1.5,0.9,2.1
			c0.6,0.6,1.3,0.8,2.1,0.8c0.9,0,1.6-0.3,2.1-0.9c0.5-0.6,0.8-1.3,0.8-2.1v-10h4.8c0.1,0,0.3,0,0.4,0l7.2,11.5
			c0.3,0.5,0.7,0.8,1.1,1.1c0.4,0.2,0.9,0.3,1.4,0.3c1.5,0,2.2-0.8,2.6-1.5c0.3-0.7,0.6-1.7-0.2-3L116.4,50.9z M116.1,41.6
			c0,1-0.2,1.9-0.8,2.7c-0.5,0.8-1.2,1.4-2.1,1.9c-0.9,0.5-2,0.7-3.2,0.7h-4.8v-11h4.8c1.2,0,2.3,0.2,3.1,0.7c0.9,0.5,1.6,1.1,2.1,2
			C115.9,39.5,116.1,40.5,116.1,41.6z"/>
		<path class="st1" d="M148.1,40.4c-0.8,0-1.5,0.3-2.1,0.8c-0.6,0.5-0.8,1.2-0.8,2.1v12.1c0,0.9-0.2,1.7-0.7,2.4
			c-0.5,0.7-1.2,1.3-2,1.8c-0.9,0.4-1.9,0.7-3,0.7c-1.2,0-2.2-0.2-3.2-0.7c-0.9-0.4-1.6-1.1-2.1-2c-0.5-0.9-0.8-2.2-0.8-3.6V43.3
			c0-0.8-0.3-1.5-0.8-2.1c-0.6-0.5-1.2-0.8-2.1-0.8c-0.8,0-1.5,0.3-2.1,0.8c-0.5,0.6-0.8,1.2-0.8,2.1v10.6c0,2.5,0.5,4.6,1.4,6.4
			c1,1.7,2.3,3.1,4,4c1.7,0.9,3.6,1.4,5.6,1.4c2,0,3.9-0.4,5.5-1.3c0.4-0.2,0.9-0.5,1.3-0.8c0.1,0.4,0.4,0.8,0.7,1.1
			c0.5,0.6,1.2,0.8,2.1,0.8c0.9,0,1.6-0.3,2.1-0.8c0.5-0.5,0.8-1.2,0.8-2.1V43.3c0-0.8-0.3-1.5-0.8-2.1
			C149.7,40.6,149,40.4,148.1,40.4z"/>
		<path class="st1" d="M179.8,45.5c-1-1.7-2.3-3.1-4-4c-1.7-0.9-3.6-1.4-5.6-1.4c-2,0-3.8,0.4-5.5,1.3c-0.4,0.2-0.9,0.5-1.3,0.8
			c-0.1-0.4-0.4-0.8-0.7-1.1c-0.5-0.5-1.2-0.8-2.1-0.8c-0.8,0-1.5,0.3-2.1,0.8c-0.6,0.5-0.8,1.2-0.8,2.1v19.2c0,0.8,0.3,1.5,0.8,2.1
			c0.5,0.6,1.2,0.8,2.1,0.8c0.9,0,1.6-0.3,2.1-0.8c0.5-0.5,0.8-1.2,0.8-2.1V50.3c0-0.9,0.2-1.7,0.7-2.4c0.5-0.7,1.2-1.3,2.1-1.7
			c0.9-0.4,1.9-0.7,3-0.7c1.2,0,2.3,0.2,3.2,0.7c0.9,0.4,1.6,1.1,2.1,2c0.5,0.9,0.8,2.1,0.8,3.6v10.6c0,0.8,0.3,1.5,0.8,2.1
			c0.5,0.6,1.2,0.8,2.1,0.8c0.8,0,1.5-0.3,2.1-0.8c0.5-0.5,0.8-1.2,0.8-2.1V51.9C181.2,49.4,180.8,47.3,179.8,45.5z"/>
	</g>
</g>
</svg>
