<?xml version="1.0" encoding="UTF-8"?>
<svg width="34px" height="35px" viewBox="0 0 34 35" version="1.1" xmlns="http://www.w3.org/2000/svg" xmlns:xlink="http://www.w3.org/1999/xlink">
    <title>swap_vert_black_24dp</title>
    <defs>
        <linearGradient x1="50%" y1="-8.06646416e-15%" x2="50%" y2="99.5001093%" id="linearGradient-1">
            <stop stop-color="#4700C3" offset="0%"></stop>
            <stop stop-color="#8701FC" offset="100%"></stop>
        </linearGradient>
    </defs>
    <g id="Mobile-and-desktop" stroke="none" stroke-width="1" fill="none" fill-rule="evenodd">
        <g id="17---Contract-templates-D-Copy" transform="translate(-1150.000000, -218.000000)">
            <g id="Tutorial-menu" transform="translate(1134.000000, 0.000000)">
                <g id="Getting-started-Copy-3" transform="translate(0.000000, 202.933796)">
                    <g id="swap_vert_black_24dp" transform="translate(33.000000, 32.500000) rotate(-90.000000) translate(-33.000000, -32.500000) translate(16.000000, 15.500000)">
                        <polygon id="Path" points="0 0 34 0 34 34 0 34"></polygon>
                        <path d="M22.6666667,24.0975 L22.6666667,15.5833333 C22.6666667,14.8041667 22.0291667,14.1666667 21.25,14.1666667 C20.4708333,14.1666667 19.8333333,14.8041667 19.8333333,15.5833333 L19.8333333,24.0975 L17.2975,24.0975 C16.66,24.0975 16.3483333,24.8625 16.8016667,25.3016667 L20.7541667,29.24 C21.0375,29.5091667 21.4766667,29.5091667 21.76,29.24 L25.7125,25.3016667 C26.1658333,24.8625 25.84,24.0975 25.2166667,24.0975 L22.6666667,24.0975 L22.6666667,24.0975 Z M12.2541667,4.74583333 L8.30166667,8.69833333 C7.84833333,9.1375 8.16,9.9025 8.7975,9.9025 L11.3333333,9.9025 L11.3333333,18.4166667 C11.3333333,19.1958333 11.9708333,19.8333333 12.75,19.8333333 C13.5291667,19.8333333 14.1666667,19.1958333 14.1666667,18.4166667 L14.1666667,9.9025 L16.7025,9.9025 C17.34,9.9025 17.6516667,9.1375 17.1983333,8.69833333 L13.2458333,4.74583333 C12.9766667,4.47666667 12.5233333,4.47666667 12.2541667,4.74583333 Z" id="Shape" fill="url(#linearGradient-1)" fill-rule="nonzero"></path>
                    </g>
                </g>
            </g>
        </g>
    </g>
</svg>