<svg width="30" height="29" viewBox="0 0 30 29" fill="none" xmlns="http://www.w3.org/2000/svg">
<path fill-rule="evenodd" clip-rule="evenodd" d="M15.0124 0C6.71094 0 0 6.64581 0 14.8676C0 21.4397 4.29993 27.0028 10.2651 28.9718C11.0109 29.1198 11.284 28.6519 11.284 28.2583C11.284 27.9136 11.2595 26.7322 11.2595 25.5012C7.08337 26.3875 6.21374 23.7289 6.21374 23.7289C5.54261 22.0058 4.54822 21.5629 4.54822 21.5629C3.18139 20.6521 4.64778 20.6521 4.64778 20.6521C6.16396 20.7506 6.95954 22.1783 6.95954 22.1783C8.30148 24.4427 10.4639 23.8029 11.3338 23.4089C11.458 22.4489 11.8559 21.7843 12.2784 21.4152C8.94771 21.0705 5.44336 19.7906 5.44336 14.0797C5.44336 12.4551 6.0395 11.126 6.98412 10.0923C6.83508 9.72312 6.31299 8.1967 7.13346 6.15371C7.13346 6.15371 8.40104 5.7598 11.2592 7.67983C12.4828 7.35439 13.7448 7.18883 15.0124 7.18744C16.28 7.18744 17.5721 7.35993 18.7654 7.67983C21.6238 5.7598 22.8914 6.15371 22.8914 6.15371C23.7118 8.1967 23.1894 9.72312 23.0404 10.0923C24.0099 11.126 24.5815 12.4551 24.5815 14.0797C24.5815 19.7906 21.0771 21.0458 17.7215 21.4152C18.2685 21.8828 18.7405 22.7688 18.7405 24.172C18.7405 26.1657 18.7159 27.7659 18.7159 28.258C18.7159 28.6519 18.9894 29.1198 19.7349 28.9721C25.7 27.0025 29.9999 21.4397 29.9999 14.8676C30.0245 6.64581 23.289 0 15.0124 0Z" fill="#BAC5C8"/>
</svg>
