<svg width="59" height="12" viewBox="0 0 59 12" fill="none" xmlns="http://www.w3.org/2000/svg">
<path d="M54.05 11.15C53.2353 11.15 52.5052 11.0208 51.8598 10.7623C51.2143 10.5038 50.6959 10.1213 50.3044 9.61474C49.9235 9.10816 49.7225 8.49819 49.7013 7.78484H52.5898C52.6322 8.18804 52.775 8.49819 53.0184 8.7153C53.2617 8.92207 53.5791 9.02545 53.9706 9.02545C54.3727 9.02545 54.6901 8.93757 54.9229 8.76182C55.1557 8.57573 55.2721 8.32244 55.2721 8.00195C55.2721 7.73315 55.1768 7.51087 54.9864 7.33512C54.8065 7.15936 54.579 7.01463 54.3039 6.9009C54.0394 6.78718 53.6585 6.65795 53.1612 6.51321C52.4417 6.2961 51.8545 6.079 51.3995 5.86189C50.9445 5.64478 50.553 5.32429 50.225 4.90042C49.897 4.47654 49.733 3.92343 49.733 3.2411C49.733 2.22793 50.1086 1.43704 50.8599 0.868428C51.6111 0.289476 52.5898 0 53.796 0C55.0234 0 56.0127 0.289476 56.7639 0.868428C57.5152 1.43704 57.9172 2.2331 57.9701 3.25661H55.034C55.0128 2.9051 54.8806 2.63113 54.6372 2.4347C54.3939 2.22793 54.0817 2.12455 53.7008 2.12455C53.3728 2.12455 53.1083 2.21242 52.9073 2.38818C52.7062 2.55359 52.6057 2.79655 52.6057 3.11704C52.6057 3.46854 52.775 3.74251 53.1136 3.93894C53.4522 4.13537 53.9812 4.34731 54.7007 4.57476C55.4202 4.81254 56.0021 5.03999 56.4465 5.25709C56.9015 5.4742 57.293 5.78952 57.621 6.20306C57.949 6.6166 58.113 7.14903 58.113 7.80035C58.113 8.42065 57.949 8.9841 57.621 9.49068C57.3036 9.99726 56.838 10.4005 56.2243 10.7003C55.6106 11.0001 54.8859 11.15 54.05 11.15Z" fill="#758B91"/>
<path d="M41.336 0.155029V6.66824C41.336 7.31956 41.5 7.82098 41.828 8.17248C42.156 8.52399 42.6375 8.69974 43.2723 8.69974C43.9072 8.69974 44.3939 8.52399 44.7324 8.17248C45.071 7.82098 45.2403 7.31956 45.2403 6.66824V0.155029H47.9543V6.65273C47.9543 7.62455 47.7427 8.44645 47.3194 9.11845C46.8962 9.79045 46.3249 10.297 45.6054 10.6382C44.8965 10.9794 44.1029 11.15 43.2247 11.15C42.3465 11.15 41.5582 10.9845 40.8599 10.6537C40.1721 10.3125 39.6272 9.80596 39.2252 9.13396C38.8231 8.45162 38.6221 7.62455 38.6221 6.65273V0.155029H41.336Z" fill="#758B91"/>
<path d="M37.1489 0.155029V2.27958H34.1969V11.0414H31.4829V2.27958H28.5309V0.155029H37.1489Z" fill="#758B91"/>
<path d="M20.4513 0.155029V6.66824C20.4513 7.31956 20.6153 7.82098 20.9433 8.17248C21.2713 8.52399 21.7527 8.69974 22.3875 8.69974C23.0224 8.69974 23.5091 8.52399 23.8477 8.17248C24.1863 7.82098 24.3556 7.31956 24.3556 6.66824V0.155029H27.0695V6.65273C27.0695 7.62455 26.8579 8.44645 26.4347 9.11845C26.0114 9.79045 25.4401 10.297 24.7206 10.6382C24.0117 10.9794 23.2181 11.15 22.3399 11.15C21.4617 11.15 20.6735 10.9845 19.9751 10.6537C19.2874 10.3125 18.7425 9.80596 18.3404 9.13396C17.9383 8.45162 17.7373 7.62455 17.7373 6.65273V0.155029H20.4513Z" fill="#758B91"/>
<path d="M12.7767 8.99439H16.3318V11.0414H10.0627V0.155029H12.7767V8.99439Z" fill="#758B91"/>
<path d="M8.49105 3.65976C8.49105 4.2904 8.34292 4.86935 8.04665 5.39661C7.75039 5.91354 7.29542 6.33224 6.68174 6.65273C6.06806 6.97323 5.30624 7.13347 4.3963 7.13347H2.71396V11.0414H0V0.155029H4.3963C5.28508 0.155029 6.03631 0.304937 6.65 0.604751C7.26368 0.904565 7.72394 1.3181 8.03078 1.84536C8.33762 2.37262 8.49105 2.97742 8.49105 3.65976ZM4.18997 5.02443C4.70843 5.02443 5.09463 4.90554 5.34857 4.66775C5.6025 4.42997 5.72947 4.09397 5.72947 3.65976C5.72947 3.22554 5.6025 2.88955 5.34857 2.65176C5.09463 2.41398 4.70843 2.29508 4.18997 2.29508H2.71396V5.02443H4.18997Z" fill="#758B91"/>
</svg>
