<svg width="96" height="20" viewBox="0 0 96 20" fill="none" xmlns="http://www.w3.org/2000/svg">
<path d="M14.522 6.624C14.522 7.68133 14.2793 8.652 13.794 9.536C13.3087 10.4027 12.5633 11.1047 11.558 11.642C10.5527 12.1793 9.30467 12.448 7.814 12.448H5.058V19H0.612V0.747999H7.814C9.27 0.747999 10.5007 0.999333 11.506 1.502C12.5113 2.00467 13.2653 2.698 13.768 3.582C14.2707 4.466 14.522 5.48 14.522 6.624ZM7.476 8.912C8.32533 8.912 8.958 8.71267 9.374 8.314C9.79 7.91533 9.998 7.352 9.998 6.624C9.998 5.896 9.79 5.33267 9.374 4.934C8.958 4.53533 8.32533 4.336 7.476 4.336H5.058V8.912H7.476ZM21.5426 15.568H27.3666V19H17.0966V0.747999H21.5426V15.568ZM34.1152 0.747999V11.668C34.1152 12.76 34.3839 13.6007 34.9212 14.19C35.4586 14.7793 36.2472 15.074 37.2872 15.074C38.3272 15.074 39.1246 14.7793 39.6792 14.19C40.2339 13.6007 40.5112 12.76 40.5112 11.668V0.747999H44.9572V11.642C44.9572 13.2713 44.6106 14.6493 43.9172 15.776C43.2239 16.9027 42.2879 17.752 41.1092 18.324C39.9479 18.896 38.6479 19.182 37.2092 19.182C35.7706 19.182 34.4792 18.9047 33.3352 18.35C32.2086 17.778 31.3159 16.9287 30.6572 15.802C29.9986 14.658 29.6692 13.2713 29.6692 11.642V0.747999H34.1152ZM61.4693 0.747999V4.31H56.6333V19H52.1873V4.31H47.3513V0.747999H61.4693ZM68.3286 0.747999V11.668C68.3286 12.76 68.5973 13.6007 69.1346 14.19C69.6719 14.7793 70.4606 15.074 71.5006 15.074C72.5406 15.074 73.3379 14.7793 73.8926 14.19C74.4473 13.6007 74.7246 12.76 74.7246 11.668V0.747999H79.1706V11.642C79.1706 13.2713 78.8239 14.6493 78.1306 15.776C77.4373 16.9027 76.5013 17.752 75.3226 18.324C74.1613 18.896 72.8613 19.182 71.4226 19.182C69.9839 19.182 68.6926 18.9047 67.5486 18.35C66.4219 17.778 65.5293 16.9287 64.8706 15.802C64.2119 14.658 63.8826 13.2713 63.8826 11.642V0.747999H68.3286ZM89.1566 19.182C87.822 19.182 86.626 18.9653 85.5686 18.532C84.5113 18.0987 83.662 17.4573 83.0206 16.608C82.3966 15.7587 82.0673 14.736 82.0326 13.54H86.7646C86.834 14.216 87.068 14.736 87.4666 15.1C87.8653 15.4467 88.3853 15.62 89.0266 15.62C89.6853 15.62 90.2053 15.4727 90.5866 15.178C90.968 14.866 91.1586 14.4413 91.1586 13.904C91.1586 13.4533 91.0026 13.0807 90.6906 12.786C90.396 12.4913 90.0233 12.2487 89.5726 12.058C89.1393 11.8673 88.5153 11.6507 87.7006 11.408C86.522 11.044 85.56 10.68 84.8146 10.316C84.0693 9.952 83.428 9.41467 82.8906 8.704C82.3533 7.99333 82.0846 7.066 82.0846 5.922C82.0846 4.22333 82.7 2.89733 83.9306 1.944C85.1613 0.973333 86.7646 0.488 88.7406 0.488C90.7513 0.488 92.372 0.973333 93.6026 1.944C94.8333 2.89733 95.492 4.232 95.5786 5.948H90.7686C90.734 5.35867 90.5173 4.89933 90.1186 4.57C89.72 4.22333 89.2086 4.05 88.5846 4.05C88.0473 4.05 87.614 4.19733 87.2846 4.492C86.9553 4.76933 86.7906 5.17667 86.7906 5.714C86.7906 6.30333 87.068 6.76267 87.6226 7.092C88.1773 7.42133 89.044 7.77667 90.2226 8.158C91.4013 8.55667 92.3546 8.938 93.0826 9.302C93.828 9.666 94.4693 10.1947 95.0066 10.888C95.544 11.5813 95.8126 12.474 95.8126 13.566C95.8126 14.606 95.544 15.5507 95.0066 16.4C94.4866 17.2493 93.724 17.9253 92.7186 18.428C91.7133 18.9307 90.526 19.182 89.1566 19.182Z" fill="#4BB4D5"/>
</svg>
