<?xml version="1.0" encoding="UTF-8"?>
<svg width="103px" height="49px" viewBox="0 0 103 49" version="1.1" xmlns="http://www.w3.org/2000/svg" xmlns:xlink="http://www.w3.org/1999/xlink">
    <title>graphics/arrow-white</title>
    <g id="Pages" stroke="none" stroke-width="1" fill="none" fill-rule="evenodd">
        <g id="01-Marlowe-Home-Page-D" transform="translate(-848.000000, -2671.000000)" fill="#8701FC">
            <g id="Run" transform="translate(0.000000, 1278.000000)">
                <g id="Container" transform="translate(184.000000, 91.274346)">
                    <g id="CTA" transform="translate(440.000000, 1289.997399)">
                        <g id="Group" transform="translate(223.047444, 0.000000)">
                            <g id="graphics/arrow" transform="translate(54.362739, 39.000000) scale(-1, 1) rotate(-3.000000) translate(-54.362739, -39.000000) translate(1.897941, 2.605194)">
                                <path d="M107.760245,34.7387725 C99.4232385,31.1804049 91.023927,28.7458863 82.7958133,27.5027443 C75.1573482,26.3490802 66.6195829,26.1820207 56.6805077,27.0128558 C47.6319739,27.7634495 38.5016576,29.4286987 29.5433924,31.9623018 C22.6221954,33.919716 15.347892,36.1455476 8.44758048,39.1913362 C10.2977989,37.8621732 12.088624,36.3424157 13.4561019,34.472147 C13.6873466,34.1556921 13.6790276,33.7950819 13.4345775,33.554009 C13.169043,33.2914728 12.710493,33.2492979 12.3448405,33.4535245 C10.5743174,34.4402111 8.90587516,35.7295466 7.29205992,36.976721 C6.18898383,37.8294909 5.04838865,38.7106217 3.90013883,39.4739275 C3.36581614,39.8289042 2.83105273,40.1921266 2.29457295,40.5564807 C1.28924638,41.2392569 0.250114111,41.9448738 -0.787593735,42.5963859 C-1.38146014,42.8376621 -1.8682176,43.1353639 -2.23585148,43.4815695 C-2.71745582,43.8196664 -2.94060443,44.3208409 -2.83362085,44.8296121 C-2.70563857,45.4359891 -2.14671613,45.869525 -1.50435346,45.8608934 C-0.890429844,45.8532662 -0.213793583,45.637756 0.438982502,45.429865 C0.932223566,45.2729717 1.39800797,45.1247298 1.82468879,45.0639427 C3.23281394,44.8636872 4.68433333,44.7391039 6.13958308,44.6933455 L6.63797098,44.6771181 C8.80656845,44.6035194 11.5057963,44.5121258 13.2299102,45.4574021 C13.4659159,45.5866843 13.723991,45.6383254 13.9826213,45.6177676 C14.4009939,45.5845122 14.8205379,45.3623174 15.1477752,44.9745371 C15.655328,44.3728788 15.8342642,43.4579651 15.1659927,42.9470329 C13.8887031,41.9702207 11.9973376,41.6664829 10.1986212,41.5932425 C11.6745619,41.0474739 13.1504305,40.490017 14.5906402,39.9455957 C19.654441,38.0323162 24.8906027,36.0538327 30.1677284,34.5831478 C39.4041517,32.0090228 48.2860927,30.3580425 56.5665313,29.6757181 C66.9237794,28.8233375 75.0123086,28.9121509 82.0354349,29.9582253 C90.2090451,31.1763402 97.9700311,33.6103428 105.475153,35.9639156 L106.806581,36.3813304 C107.344906,36.5497797 107.853881,36.2416035 108.078355,35.8502976 C108.301591,35.4608317 108.264322,34.9539834 107.760245,34.7387725" id="Fill-1" transform="translate(52.674391, 36.177062) rotate(-148.000000) translate(-52.674391, -36.177062) "></path>
                            </g>
                        </g>
                    </g>
                </g>
            </g>
        </g>
    </g>
</svg>