<?xml version="1.0" encoding="UTF-8"?>
<svg width="361px" height="256px" viewBox="0 0 361 256" version="1.1" xmlns="http://www.w3.org/2000/svg" xmlns:xlink="http://www.w3.org/1999/xlink">
    <title>Circle</title>
    <g id="Pages" stroke="none" stroke-width="1" fill="none" fill-rule="evenodd" opacity="0.1">
        <g id="01-Marlowe-Home-Page-D" transform="translate(-1079.000000, -70.000000)" fill="#1C2636">
            <g id="Group-4" transform="translate(0.000000, 70.000000)">
                <path d="M1373.82832,169.32251 C1106.19684,169.32251 866.200486,93.0137691 776.619104,-20.5737151 C751.129851,-52.8857872 738.254656,-87.2936224 738.32251,-122.835466 C738.6861,-277.290329 1000.49308,-405.318482 1334.36256,-414.304425 L1334.61234,-414.304425 C1340.77745,-414.304425 1345.82988,-408.088908 1345.96613,-400.265683 C1346.10237,-392.327622 1341.11806,-385.767597 1334.85077,-385.595342 C1024.12032,-377.240999 761.34826,-256.863817 761.030354,-122.749339 C760.962231,-95.1168473 771.623437,-67.5561283 792.696067,-40.8423272 C878.29227,67.6923585 1111.83968,140.613428 1373.82832,140.613428 C1705.99473,140.613428 1986.61494,19.9922182 1986.61494,-122.792403 C1986.61494,-155.836556 1962.47678,-199.632262 1920.37694,-242.925558 C1712.42097,-456.822576 1343.1958,-482.115277 1088.15568,-415.151343 C1082.01328,-413.601052 1076.01848,-418.52466 1074.72415,-426.276112 C1073.45252,-434.041919 1077.40364,-441.649826 1083.54604,-443.257534 C1509.88076,-555.266019 1819.18063,-384.030697 1934.70542,-265.203806 C1982.82277,-215.709348 2009.32251,-165.123945 2009.32251,-122.792403 C2009.32251,41.0072665 1730.17829,169.32251 1373.82832,169.32251" id="Circle" style="mix-blend-mode: multiply;" transform="translate(1373.822510, -155.177490) rotate(-135.000000) translate(-1373.822510, 155.177490) "></path>
            </g>
        </g>
    </g>
</svg>