<?xml version="1.0" encoding="UTF-8"?>
<svg width="371px" height="258px" viewBox="0 0 371 258" version="1.1" xmlns="http://www.w3.org/2000/svg" xmlns:xlink="http://www.w3.org/1999/xlink">
    <title>Circle</title>
    <g id="Pages" stroke="none" stroke-width="1" fill="none" fill-rule="evenodd" opacity="0.1">
        <g id="01-Marlowe-Home-Page-D" transform="translate(0.000000, -1020.000000)" fill="#1C2636">
            <g id="Group-4" transform="translate(0.000000, 70.000000)">
                <path d="M-522.436836,1495.67222 C-547.926088,1463.36015 -560.801283,1428.95231 -560.733696,1393.41047 C-560.369839,1238.9556 -298.562856,1110.92745 35.3066169,1101.94151 L35.5564002,1101.94151 C41.7215068,1101.94151 46.7739422,1108.15703 46.9101876,1115.98025 C47.0464331,1123.91831 42.0621204,1130.47834 35.7948298,1130.65059 C-274.935624,1139.00493 -537.70768,1259.38212 -538.025586,1393.4966 C-538.093708,1421.12909 -527.432502,1448.68981 -506.359873,1475.40361 C-420.763669,1583.93829 -187.216262,1656.85936 74.7723819,1656.85936 C406.938786,1656.85936 687.558996,1536.23815 687.558996,1393.45353 C687.558996,1360.40938 663.420844,1316.61367 621.321,1273.32038 C413.36503,1059.42336 44.1398635,1034.13066 -210.900263,1101.09459 C-217.042662,1102.64488 -223.037462,1097.72127 -224.331793,1089.96982 C-225.603418,1082.20402 -221.6523,1074.59611 -215.509901,1072.9884 C210.824816,960.979915 520.124693,1132.21524 635.64948,1251.04213 C683.766831,1300.53659 710.266571,1351.12199 710.266571,1393.45353 C710.266571,1557.2532 431.122353,1685.56844 74.7723819,1685.56844 C-192.859095,1685.56844 -432.855453,1609.2597 -522.436836,1495.67222 Z" id="Circle" style="mix-blend-mode: multiply;" transform="translate(74.766437, 1361.068444) rotate(-315.000000) translate(-74.766437, -1361.068444) "></path>
            </g>
        </g>
    </g>
</svg>