<svg id="Layer_1" data-name="Layer 1" xmlns="http://www.w3.org/2000/svg" viewBox="0 0 1257.9 515.8"><defs><style>.cls-1{fill:#9400ff;}.cls-2{fill:#fff;}</style></defs><path class="cls-1" d="M42,426.09a42,42,0,0,1-40.33-53.8l78-266.86a42,42,0,0,1,40.14-30.22H120a42,42,0,0,1,40.22,29.9l17.05,56.65L215.75,30.21A42,42,0,0,1,255.91,0h.16a42,42,0,0,1,40.22,29.92l57.6,191.65a42,42,0,0,1-40.24,54.11,42.35,42.35,0,0,1-24.83-8.14,41.67,41.67,0,0,1-15.38-21.79l-16.83-56L218.16,321.17A42,42,0,0,1,178,351.37h-.17a42,42,0,0,1-40.22-29.89l-17-56.56L82.34,395.85a41.65,41.65,0,0,1-15.34,22A42.35,42.35,0,0,1,42,426.09Z"/><path class="cls-1" d="M494.44,334.1a4.41,4.41,0,0,0-4,2.45l-22,45.15-22.55-45.18a4.41,4.41,0,0,0-4-2.42,4.48,4.48,0,0,0-3.22,1.27,4.35,4.35,0,0,0-1.31,3.26v52.45a4.53,4.53,0,1,0,9.06,0V355.4L464,390.6a4.36,4.36,0,0,0,4.17,2.68,4.5,4.5,0,0,0,3.93-2.29l17.8-36.28v36.37a4.47,4.47,0,0,0,4.53,4.53,4.45,4.45,0,0,0,3.18-1.31,4.31,4.31,0,0,0,1.35-3.22V338.63a4.35,4.35,0,0,0-1.31-3.26A4.48,4.48,0,0,0,494.44,334.1Z"/><path class="cls-1" d="M547.37,354.82h0a21.47,21.47,0,0,0-11.09-2.9,21.7,21.7,0,0,0-11.14,2.9,21.45,21.45,0,0,0-7.85,7.89,22.1,22.1,0,0,0-2.9,11.25,23.41,23.41,0,0,0,2.66,11.19,20.61,20.61,0,0,0,7.26,7.86,20.09,20.09,0,0,0,20.83,0,20.53,20.53,0,0,0,4-3.33v1.55a4.45,4.45,0,1,0,8.9,0V374a22,22,0,0,0-2.9-11.25A21.42,21.42,0,0,0,547.37,354.82Zm-4.31,31.3a13.5,13.5,0,0,1-13.54,0,13.38,13.38,0,0,1-4.78-5A14.64,14.64,0,0,1,523,374a14.86,14.86,0,0,1,1.75-7.24,13.35,13.35,0,0,1,4.78-5,12.91,12.91,0,0,1,6.76-1.83,12.77,12.77,0,0,1,6.78,1.83,13,13,0,0,1,4.71,5,15.07,15.07,0,0,1,1.72,7.24,14.89,14.89,0,0,1-1.72,7.16,13.1,13.1,0,0,1-4.71,5Z"/><path class="cls-1" d="M601.2,353.36c-1.6-1.06-4-1.59-7.21-1.59a17.51,17.51,0,0,0-12.52,5.05v-.22a3.9,3.9,0,0,0-4.37-4.37,4,4,0,0,0-4.37,4.37v34.63a4.35,4.35,0,0,0,1.16,3.27,4.47,4.47,0,0,0,3.21,1.11,4.35,4.35,0,0,0,3.27-1.16,4.51,4.51,0,0,0,1.1-3.22V368.61a7.63,7.63,0,0,1,2.15-5.54,11.58,11.58,0,0,1,6-3,21.34,21.34,0,0,1,8.69.15,5,5,0,0,0,2.06.08,3.58,3.58,0,0,0,1.76-.85,3.43,3.43,0,0,0,1-1.92C603.57,355.89,602.91,354.49,601.2,353.36Z"/><path class="cls-1" d="M632.44,371.13l13.87-12.38a4.1,4.1,0,0,0,1.4-2.82,4.36,4.36,0,0,0-3.92-4.32,4,4,0,0,0-3,1.13l-18,16.06V338.4a4.3,4.3,0,1,0-8.59,0v52.91a4.3,4.3,0,1,0,8.59,0V379.7l3.3-2.95,14.41,17.82a4,4,0,0,0,2.86,1.54h.35a4.27,4.27,0,0,0,2.76-1,4,4,0,0,0,1.61-2.86,4.13,4.13,0,0,0-1-3Z"/><path class="cls-1" d="M688.22,354.67h0a19.92,19.92,0,0,0-10.64-2.75,21.76,21.76,0,0,0-11.1,2.82,20.1,20.1,0,0,0-7.58,7.78A23.35,23.35,0,0,0,656.16,374a22.25,22.25,0,0,0,2.9,11.37,20.63,20.63,0,0,0,8,7.77,24.16,24.16,0,0,0,19.3,1.47,22,22,0,0,0,6.7-3.48,3.25,3.25,0,0,0,1.43-2.83,4.17,4.17,0,0,0-1.57-2.91,3.87,3.87,0,0,0-2.7-.93,4.89,4.89,0,0,0-2.8,1,14.89,14.89,0,0,1-3.94,2,14.3,14.3,0,0,1-4.75.86,15.18,15.18,0,0,1-7.58-1.87A13.75,13.75,0,0,1,666,381.3a13.51,13.51,0,0,1-1.55-4.13H693.3a4,4,0,0,0,2.91-1.11,3.73,3.73,0,0,0,1.16-2.8,25,25,0,0,0-2.34-11A18,18,0,0,0,688.22,354.67Zm-10.64,4.91a11.28,11.28,0,0,1,6.31,1.7,11.47,11.47,0,0,1,4,4.64,15.08,15.08,0,0,1,1.24,4.05H664.56a15.19,15.19,0,0,1,1.15-3.43,12.15,12.15,0,0,1,4.58-5.1A13.71,13.71,0,0,1,677.58,359.58Z"/><path class="cls-1" d="M731.6,388.11h0a3.57,3.57,0,0,0-2.74-1.25h-2.63a4.72,4.72,0,0,1-3.8-1.91,7.5,7.5,0,0,1-1.59-4.87V361.44h6.09a4.27,4.27,0,0,0,3-1.06,3.55,3.55,0,0,0,1.17-2.69,3.73,3.73,0,0,0-1.17-2.85,4.27,4.27,0,0,0-3-1.06h-6.09V343.12a4.38,4.38,0,1,0-8.75,0v10.66H709a4.23,4.23,0,0,0-3,1.06,3.69,3.69,0,0,0-1.17,2.85,3.5,3.5,0,0,0,1.17,2.69,4.23,4.23,0,0,0,3,1.06h3.06v18.64a16.88,16.88,0,0,0,1.84,7.9,14.34,14.34,0,0,0,5.06,5.57,13.24,13.24,0,0,0,7.24,2.06h1.39a5.42,5.42,0,0,0,3.62-1.21,4,4,0,0,0,1.45-3.17A4.58,4.58,0,0,0,731.6,388.11Z"/><path class="cls-2" d="M441.59,503.94a11.48,11.48,0,0,1-4.75-4.45,12.87,12.87,0,0,1-1.67-6.64V479.51a12.87,12.87,0,0,1,1.67-6.64,11.31,11.31,0,0,1,4.75-4.43,15.57,15.57,0,0,1,7.13-1.57,15.81,15.81,0,0,1,7.07,1.52,11.15,11.15,0,0,1,4.76,4.26,12.08,12.08,0,0,1,1.67,6.37.6.6,0,0,1-.19.46.62.62,0,0,1-.46.19l-5,.27c-.43,0-.64-.2-.64-.59a6.88,6.88,0,0,0-2-5.13,8.12,8.12,0,0,0-10.56,0,6.82,6.82,0,0,0-2,5.13v13.77a6.75,6.75,0,0,0,2,5.07,8.17,8.17,0,0,0,10.56,0,6.81,6.81,0,0,0,2-5.1c0-.4.21-.6.64-.6l5,.22a.68.68,0,0,1,.46.16.49.49,0,0,1,.19.38,12.3,12.3,0,0,1-1.67,6.45,11.11,11.11,0,0,1-4.76,4.3,15.94,15.94,0,0,1-7.07,1.51A15.2,15.2,0,0,1,441.59,503.94Z"/><path class="cls-2" d="M472.67,503.38a11.39,11.39,0,0,1-4.29-6,20.08,20.08,0,0,1-.92-6.15,20.37,20.37,0,0,1,.86-6.16,11.08,11.08,0,0,1,4.32-5.88,12.74,12.74,0,0,1,7.4-2.11,12,12,0,0,1,7.1,2.11,11.21,11.21,0,0,1,4.24,5.83,17.49,17.49,0,0,1,1,6.15,19.2,19.2,0,0,1-.92,6.16,11.58,11.58,0,0,1-4.26,6,11.92,11.92,0,0,1-7.18,2.19A12.32,12.32,0,0,1,472.67,503.38ZM483.42,499a6.33,6.33,0,0,0,2.07-3.18,16,16,0,0,0,.54-4.54,14.93,14.93,0,0,0-.54-4.53,5.85,5.85,0,0,0-2.05-3.16,5.7,5.7,0,0,0-3.56-1.11,5.55,5.55,0,0,0-3.46,1.11,6.15,6.15,0,0,0-2.1,3.16,19.31,19.31,0,0,0,0,9.07A5.82,5.82,0,0,0,476.4,499a5.71,5.71,0,0,0,3.59,1.14A5.35,5.35,0,0,0,483.42,499Z"/><path class="cls-2" d="M534.34,479.59a9.86,9.86,0,0,1,2.35,7v17.88a.65.65,0,0,1-.65.65h-4.92a.65.65,0,0,1-.64-.65V487.88a5.59,5.59,0,0,0-1.33-3.94,4.54,4.54,0,0,0-3.53-1.46,4.8,4.8,0,0,0-3.62,1.46,5.36,5.36,0,0,0-1.41,3.89v16.63a.65.65,0,0,1-.18.46.66.66,0,0,1-.46.19H515a.65.65,0,0,1-.65-.65V487.88a5.56,5.56,0,0,0-1.35-3.94,4.62,4.62,0,0,0-3.56-1.46,4.85,4.85,0,0,0-3.37,1.19,4.8,4.8,0,0,0-1.54,3.24v17.55a.65.65,0,0,1-.65.65h-5a.66.66,0,0,1-.46-.19.62.62,0,0,1-.19-.46v-26.3a.62.62,0,0,1,.19-.46.66.66,0,0,1,.46-.19h5a.65.65,0,0,1,.65.65v1.78a.23.23,0,0,0,.1.22c.08,0,.15,0,.22-.11a7.19,7.19,0,0,1,2.94-2.24,10.07,10.07,0,0,1,3.92-.73,9.61,9.61,0,0,1,4.64,1.08,7.38,7.38,0,0,1,3.08,3.13c.11.15.23.15.38,0a7.37,7.37,0,0,1,3.29-3.18,10.53,10.53,0,0,1,4.7-1A8.5,8.5,0,0,1,534.34,479.59Z"/><path class="cls-2" d="M543.87,472.65a4.05,4.05,0,1,1,2.75,1.08A3.73,3.73,0,0,1,543.87,472.65Zm-.3,32.27a.62.62,0,0,1-.19-.46V478.11a.6.6,0,0,1,.19-.46.62.62,0,0,1,.46-.19h5a.62.62,0,0,1,.46.19.64.64,0,0,1,.19.46v26.35a.65.65,0,0,1-.65.65h-5A.66.66,0,0,1,543.57,504.92Z"/><path class="cls-2" d="M577.05,479.67a9.5,9.5,0,0,1,2.62,7.08v17.71a.62.62,0,0,1-.19.46.66.66,0,0,1-.46.19h-5a.66.66,0,0,1-.46-.19.65.65,0,0,1-.18-.46V488a5.73,5.73,0,0,0-1.41-4,4.79,4.79,0,0,0-3.72-1.54,4.94,4.94,0,0,0-3.76,1.51,5.6,5.6,0,0,0-1.43,4v16.47a.62.62,0,0,1-.19.46.64.64,0,0,1-.46.19h-5a.65.65,0,0,1-.65-.65v-26.3a.65.65,0,0,1,.65-.65h5a.64.64,0,0,1,.46.19.62.62,0,0,1,.19.46v1.73a.21.21,0,0,0,.11.21c.07,0,.13,0,.16-.1q2.22-2.92,6.7-2.92A9.51,9.51,0,0,1,577.05,479.67Z"/><path class="cls-2" d="M603.29,477.7a.66.66,0,0,1,.46-.19h5a.66.66,0,0,1,.46.19.62.62,0,0,1,.19.46v25.11q0,6.75-3.86,9.64t-10.13,2.89c-1.11,0-2.21-.06-3.29-.16-.4,0-.59-.27-.59-.71l.16-4.42q0-.6.75-.6a27.05,27.05,0,0,0,2.81.16q4,0,6-1.59c1.28-1.06,1.91-2.85,1.91-5.37v-.43c0-.11,0-.17-.1-.19a.22.22,0,0,0-.22.08,8.15,8.15,0,0,1-6.26,2.37,12.1,12.1,0,0,1-6.43-1.78,9.36,9.36,0,0,1-4.05-5.45,25.06,25.06,0,0,1-.7-6.54,21.17,21.17,0,0,1,.86-6.85,10.43,10.43,0,0,1,3.73-5.27,10.12,10.12,0,0,1,6.21-2,8.77,8.77,0,0,1,6.64,2.48c.07.11.14.15.22.11a.21.21,0,0,0,.1-.21v-1.3A.66.66,0,0,1,603.29,477.7ZM603,494.17c.06-.63.08-1.65.08-3.05s0-2.35-.08-2.94a8.19,8.19,0,0,0-.35-1.76,5.38,5.38,0,0,0-8.42-2.86,5.93,5.93,0,0,0-1.94,2.86,12.69,12.69,0,0,0-.65,4.75,14.1,14.1,0,0,0,.54,4.7,5.62,5.62,0,0,0,2,2.84,5.4,5.4,0,0,0,3.43,1.1,5.15,5.15,0,0,0,3.4-1.08,5.21,5.21,0,0,0,1.73-2.8A10.26,10.26,0,0,0,603,494.17Z"/><path class="cls-2" d="M634.29,499.6c0,.07.08.11.19.11h15.39a.65.65,0,0,1,.65.64v4.11a.65.65,0,0,1-.65.65H626.65a.66.66,0,0,1-.46-.19.62.62,0,0,1-.19-.46v-3.89a1.13,1.13,0,0,1,.32-.81q4.11-4.38,9.51-10.75l2.54-3q5-5.78,5-8.74a4.64,4.64,0,0,0-1.57-3.62,5.84,5.84,0,0,0-4-1.41,5.74,5.74,0,0,0-4,1.41,4.8,4.8,0,0,0-1.53,3.72v1.41a.65.65,0,0,1-.65.65h-5a.64.64,0,0,1-.46-.19.62.62,0,0,1-.19-.46v-2.32a9,9,0,0,1,1.67-5.08,10.29,10.29,0,0,1,4.24-3.35,14.56,14.56,0,0,1,6-1.19,14,14,0,0,1,6.32,1.35,10.05,10.05,0,0,1,4.15,3.7,9.73,9.73,0,0,1,1.46,5.27q0,4.43-4.7,10.2-2.58,3.24-8.53,9.72l-2,2.27A.23.23,0,0,0,634.29,499.6Z"/><path class="cls-2" d="M659.35,502.49a11.48,11.48,0,0,1-3.33-8.67V478.59a11.24,11.24,0,0,1,3.33-8.56q3.31-3.15,9-3.16a12.72,12.72,0,0,1,9,3.16,11.17,11.17,0,0,1,3.38,8.56v15.23a11.4,11.4,0,0,1-3.38,8.67,12.57,12.57,0,0,1-9,3.21Q662.67,505.7,659.35,502.49Zm13.47-3.89a6,6,0,0,0,1.67-4.46V478.38a6,6,0,0,0-1.67-4.46,6.11,6.11,0,0,0-4.48-1.65,5.92,5.92,0,0,0-4.4,1.65,6,6,0,0,0-1.65,4.46v15.76a6,6,0,0,0,1.65,4.46,5.92,5.92,0,0,0,4.4,1.65A6.11,6.11,0,0,0,672.82,498.6Z"/><path class="cls-2" d="M694.72,499.6c0,.07.08.11.18.11h15.39a.6.6,0,0,1,.46.19.58.58,0,0,1,.19.45v4.11a.62.62,0,0,1-.19.46.64.64,0,0,1-.46.19H687.07a.66.66,0,0,1-.46-.19.65.65,0,0,1-.18-.46v-3.89a1.09,1.09,0,0,1,.32-.81q4.11-4.38,9.5-10.75l2.54-3q5-5.78,5-8.74a4.61,4.61,0,0,0-1.57-3.62,5.81,5.81,0,0,0-4.05-1.41,5.73,5.73,0,0,0-4,1.41,4.81,4.81,0,0,0-1.54,3.72v1.41a.62.62,0,0,1-.19.46.64.64,0,0,1-.46.19h-5a.65.65,0,0,1-.65-.65v-2.32a9,9,0,0,1,1.68-5.08,10.16,10.16,0,0,1,4.24-3.35,14.55,14.55,0,0,1,6-1.19,14,14,0,0,1,6.32,1.35,10.08,10.08,0,0,1,4.16,3.7,9.81,9.81,0,0,1,1.46,5.27q0,4.43-4.7,10.2-2.6,3.24-8.53,9.72l-2.05,2.27A.21.21,0,0,0,694.72,499.6Z"/><path class="cls-2" d="M722.44,467.31h5.19a.65.65,0,0,1,.46.18.66.66,0,0,1,.19.46v36.51a.65.65,0,0,1-.65.65h-5a.66.66,0,0,1-.46-.19.62.62,0,0,1-.19-.46V473.79a.21.21,0,0,0-.11-.19.17.17,0,0,0-.21,0l-5.4,1.67a.54.54,0,0,1-.27.06.45.45,0,0,1-.35-.16.68.68,0,0,1-.14-.44l-.16-3.56a.78.78,0,0,1,.43-.76l5.83-2.91A2.28,2.28,0,0,1,722.44,467.31Z"/><path class="cls-2" d="M765.64,468.49a11.48,11.48,0,0,1,4.7,4.59,13.7,13.7,0,0,1,1.68,6.86v13a12.46,12.46,0,0,1-2.68,8.07,12,12,0,0,1-7.26,4.24.31.31,0,0,0-.22.33v4.53a.63.63,0,0,1-.18.46.62.62,0,0,1-.46.19h-5a.65.65,0,0,1-.65-.65v-4.53c0-.15-.09-.25-.27-.33a12.13,12.13,0,0,1-7.24-4.21,12.34,12.34,0,0,1-2.7-8.1v-13a13.7,13.7,0,0,1,1.68-6.86,11.53,11.53,0,0,1,4.67-4.59,15.72,15.72,0,0,1,13.9,0Zm.11,11.13a7.38,7.38,0,0,0-1.94-5.32,7.43,7.43,0,0,0-10.21,0,7.38,7.38,0,0,0-1.94,5.32v13.17a7.38,7.38,0,0,0,1.94,5.32,7.43,7.43,0,0,0,10.21,0,7.38,7.38,0,0,0,1.94-5.32Z"/><path class="cls-2" d="M800.47,493.06a14.53,14.53,0,0,1-.91,5.35,10.28,10.28,0,0,1-4.11,5.26,12.33,12.33,0,0,1-6.91,1.87,11.93,11.93,0,0,1-6.94-2,10.92,10.92,0,0,1-4.18-5.48,13.53,13.53,0,0,1-.76-4.37.58.58,0,0,1,.65-.65h5a.58.58,0,0,1,.65.65,8.5,8.5,0,0,0,.54,2.75,5,5,0,0,0,1.81,2.73,5.14,5.14,0,0,0,3.21,1,4.9,4.9,0,0,0,4.91-3.24,10,10,0,0,0,.7-4,11,11,0,0,0-.8-4.54,4.62,4.62,0,0,0-7.35-1.94.89.89,0,0,1-.38.11.73.73,0,0,1-.54-.33l-2.48-3.45a.91.91,0,0,1-.16-.44.66.66,0,0,1,.21-.48l8.91-8.75a.18.18,0,0,0,.06-.22.23.23,0,0,0-.22-.1H777.9a.65.65,0,0,1-.65-.65V468a.66.66,0,0,1,.19-.46.65.65,0,0,1,.46-.18h21.55a.65.65,0,0,1,.46.18.66.66,0,0,1,.19.46v4.7a1.07,1.07,0,0,1-.33.81l-7.72,7.78c-.15.14-.07.25.22.32a8.69,8.69,0,0,1,7.12,5.56A15.35,15.35,0,0,1,800.47,493.06Z"/><path class="cls-2" d="M804.74,504.92a.58.58,0,0,1,0-.57l13.23-36.5a.67.67,0,0,1,.7-.54h4.91a.63.63,0,0,1,.49.18.6.6,0,0,1,.05.57l-13.23,36.51a.68.68,0,0,1-.7.54h-4.91A.63.63,0,0,1,804.74,504.92Z"/><path class="cls-2" d="M849.23,468.49a11.48,11.48,0,0,1,4.7,4.59,13.7,13.7,0,0,1,1.68,6.86v13a12.41,12.41,0,0,1-2.68,8.07,12,12,0,0,1-7.26,4.24.31.31,0,0,0-.22.33v4.53a.63.63,0,0,1-.18.46.62.62,0,0,1-.46.19h-5a.62.62,0,0,1-.46-.19.6.6,0,0,1-.19-.46v-4.53c0-.15-.09-.25-.27-.33a12.07,12.07,0,0,1-7.23-4.21,12.29,12.29,0,0,1-2.71-8.1v-13a13.7,13.7,0,0,1,1.68-6.86,11.53,11.53,0,0,1,4.67-4.59,15.72,15.72,0,0,1,13.9,0Zm.11,11.13a7.38,7.38,0,0,0-1.94-5.32,7.43,7.43,0,0,0-10.21,0,7.38,7.38,0,0,0-1.94,5.32v13.17a7.38,7.38,0,0,0,1.94,5.32,7.43,7.43,0,0,0,10.21,0,7.38,7.38,0,0,0,1.94-5.32Z"/><path class="cls-2" d="M886.79,489.74a.62.62,0,0,1,.19.46v4.32a.6.6,0,0,1-.19.46.62.62,0,0,1-.46.19h-2.27a.24.24,0,0,0-.27.27v9a.65.65,0,0,1-.64.65h-5a.66.66,0,0,1-.46-.19.62.62,0,0,1-.19-.46v-9a.24.24,0,0,0-.27-.27H860.84a.58.58,0,0,1-.45-.19.6.6,0,0,1-.19-.46v-3.45a2.55,2.55,0,0,1,.16-.81l10.2-22.47a.78.78,0,0,1,.76-.48h5.29a.64.64,0,0,1,.52.18.61.61,0,0,1,0,.57l-9.61,21.17a.22.22,0,0,0,0,.22.16.16,0,0,0,.16.1h9.61a.24.24,0,0,0,.27-.27v-7.34a.62.62,0,0,1,.19-.46.66.66,0,0,1,.46-.19h5a.65.65,0,0,1,.64.65v7.34a.24.24,0,0,0,.27.27h2.27A.66.66,0,0,1,886.79,489.74Z"/><path class="cls-2" d="M564.15,130c-4.71,0-8.5,2.28-11.07,6.78L504,237.68,453.57,136.63a12.61,12.61,0,0,0-19.78-3.11,12,12,0,0,0-3.65,9V263.87a12.46,12.46,0,1,0,24.92,0V189.71L492,263.62A12.07,12.07,0,0,0,503.38,271a12.41,12.41,0,0,0,10.69-6.08l37.62-76.62v75.62a12.46,12.46,0,0,0,21.19,8.89,11.94,11.94,0,0,0,3.74-8.89V142.5a12,12,0,0,0-3.65-9A12.3,12.3,0,0,0,564.15,130Z"/><path class="cls-2" d="M687.65,178.25h0a51.88,51.88,0,0,0-26.69-7,52.42,52.42,0,0,0-26.77,7,51.76,51.76,0,0,0-18.88,19,53.16,53.16,0,0,0-7,27,56.17,56.17,0,0,0,6.38,26.85A49.85,49.85,0,0,0,632.22,270a48.52,48.52,0,0,0,50.31,0,49.22,49.22,0,0,0,6.35-4.74,11.75,11.75,0,0,0,3.48,7.71,12.28,12.28,0,0,0,21-8.76v-40a53.18,53.18,0,0,0-7-27A52,52,0,0,0,687.65,178.25Zm1.91,46a32.38,32.38,0,0,1-3.75,15.62,28.24,28.24,0,0,1-10.17,10.84,29.27,29.27,0,0,1-29.28,0A28.79,28.79,0,0,1,636,239.85a31.76,31.76,0,0,1-3.82-15.6A32.2,32.2,0,0,1,636,208.46a28.83,28.83,0,0,1,10.35-10.84,29.2,29.2,0,0,1,29.28,0,28.36,28.36,0,0,1,10.17,10.83A32.83,32.83,0,0,1,689.56,224.25Z"/><path class="cls-2" d="M812.3,174.93c-4.09-2.71-9.91-4-17.78-4a42.93,42.93,0,0,0-21.25,5.42,44.34,44.34,0,0,0-6.1,4.12,10.6,10.6,0,0,0-2.79-5.31c-2.1-2.09-5.11-3.15-8.94-3.15s-6.7,1.09-8.85,3.25-3.25,5.13-3.25,8.85v80.14c0,3.86,1.11,6.88,3.29,9s5.11,3.12,8.81,3.12c3.86,0,6.88-1.11,9-3.3a12.24,12.24,0,0,0,3.11-8.8V211.88a15.49,15.49,0,0,1,4.39-11.43c3.07-3.12,7.39-5.3,12.86-6.48a47.26,47.26,0,0,1,19.25.35,13.92,13.92,0,0,0,5.57.21,10.21,10.21,0,0,0,5-2.44,9.88,9.88,0,0,0,3-5.42C818.47,183.47,818.21,178.83,812.3,174.93Z"/><path class="cls-2" d="M870.36,252.12h-4.48c-1,0-2.33-.31-3.75-2.74a18.54,18.54,0,0,1-2.08-9.36V142.14a12.1,12.1,0,1,0-24.2,0V240a44.1,44.1,0,0,0,3.68,18.43,31.86,31.86,0,0,0,10.55,13,26.82,26.82,0,0,0,15.8,4.88h.35a17.49,17.49,0,0,0,10.65-3.13,10.83,10.83,0,0,0,4.68-9,12.41,12.41,0,0,0-3-8.55A10.62,10.62,0,0,0,870.36,252.12Z"/><path class="cls-2" d="M971.42,178.05h0a57.57,57.57,0,0,0-54.21,0,49.36,49.36,0,0,0-18.65,18.74c-4.49,7.92-6.77,17.15-6.77,27.46a54.5,54.5,0,0,0,6.77,27.27,49.46,49.46,0,0,0,18.65,18.75c7.85,4.5,17,6.78,27.2,6.78s19.34-2.28,27.19-6.78a48.79,48.79,0,0,0,18.57-18.76,55.08,55.08,0,0,0,6.68-27.26c0-10.3-2.28-19.54-6.78-27.46A49.41,49.41,0,0,0,971.42,178.05Zm1.57,46.2a33.29,33.29,0,0,1-3.66,15.9,27.14,27.14,0,0,1-10.05,10.63,30.68,30.68,0,0,1-29.76,0,27.83,27.83,0,0,1-10.16-10.65,32.69,32.69,0,0,1-3.74-15.88,33.16,33.16,0,0,1,3.75-16,27.58,27.58,0,0,1,10.15-10.72,30.61,30.61,0,0,1,29.76,0,27,27,0,0,1,10,10.69A33.83,33.83,0,0,1,973,224.25Z"/><path class="cls-2" d="M1131.85,172c-4.17,0-9.69,1.81-12.31,10.43l-16.35,51.26-13.47-52.46a12,12,0,0,0-4-6.62,13.21,13.21,0,0,0-15.83.05,13.34,13.34,0,0,0-4,6.4l-15.42,52.11-16.23-50.75c-1.15-3.6-2.67-6.15-4.65-7.81A11.55,11.55,0,0,0,1022,172c-6,0-8.53,2.92-9.6,5.38-1.3,3-1.38,6.71-.19,11.3l26.55,79.66a11.79,11.79,0,0,0,4.47,5.72,12.51,12.51,0,0,0,14.36,0,10.76,10.76,0,0,0,4.36-5.93L1077.25,214l14.65,54.16a10.55,10.55,0,0,0,4.48,5.95,12.5,12.5,0,0,0,7.14,2.25,12,12,0,0,0,7.23-2.31,10.8,10.8,0,0,0,4.17-5.75l26.52-79.55c1.61-4.53,1.61-8.41,0-11.53C1140.23,174.81,1137.58,172,1131.85,172Z"/><path class="cls-2" d="M1254.61,230.54a10.71,10.71,0,0,0,3.29-7.91,59.78,59.78,0,0,0-5.61-26.38,43.58,43.58,0,0,0-16.5-18.33c-7.17-4.41-15.81-6.65-25.67-6.65a52.3,52.3,0,0,0-26.68,6.79,48.64,48.64,0,0,0-18.29,18.76c-4.36,7.92-6.57,17.14-6.57,27.43a53.28,53.28,0,0,0,7,27.3,49.81,49.81,0,0,0,19.3,18.74,58,58,0,0,0,46.26,3.54,52.56,52.56,0,0,0,16.05-8.37,9.4,9.4,0,0,0,4.1-8.22,11.63,11.63,0,0,0-4.33-8.14,11.24,11.24,0,0,0-7.59-2.62,13.37,13.37,0,0,0-7.62,2.69,32.5,32.5,0,0,1-8.57,4.3,31,31,0,0,1-10.34,1.88,33.13,33.13,0,0,1-16.56-4.07,29.85,29.85,0,0,1-11.21-11,29.11,29.11,0,0,1-2.78-6.58h64.25A11.26,11.26,0,0,0,1254.61,230.54ZM1234.49,213h-52a31.87,31.87,0,0,1,1.93-5.09,25.6,25.6,0,0,1,9.85-11,29.75,29.75,0,0,1,15.83-4,24.21,24.21,0,0,1,13.51,3.61,23.94,23.94,0,0,1,8.58,10A32.18,32.18,0,0,1,1234.49,213Z"/></svg>