<?xml version="1.0" encoding="UTF-8"?>
<svg width="151px" height="70px" viewBox="0 0 151 70" version="1.1" xmlns="http://www.w3.org/2000/svg" xmlns:xlink="http://www.w3.org/1999/xlink">
    <title>logos/light/build</title>
    <defs>
        <polygon id="path-1" points="0 0 57.6273843 0 57.6273843 69.032683 0 69.032683"></polygon>
    </defs>
    <g id="Pages" stroke="none" stroke-width="1" fill="none" fill-rule="evenodd">
        <g id="01-Marlowe-Home-Page-D" transform="translate(-640.000000, -2916.000000)">
            <g id="Build" transform="translate(0.000000, 2831.000000)">
                <g id="Hero" transform="translate(185.500000, 85.380108)">
                    <g id="logos/light/build" transform="translate(455.000000, 0.000000)">
                        <g id="Group-3">
                            <mask id="mask-2" fill="white">
                                <use xlink:href="#path-1"></use>
                            </mask>
                            <g id="Clip-2"></g>
                            <path d="M6.81106215,69.032683 C6.16679683,69.032683 5.52391702,68.9405461 4.89974169,68.7583506 C3.15537601,68.2484804 1.713053,67.0894956 0.840177402,65.4954585 C-0.0333909554,63.9007286 -0.233598136,62.0621478 0.276272055,60.3170894 L12.9087217,17.0806514 C13.323684,15.6618822 14.166771,14.4419346 15.3479241,13.5524328 C16.5290771,12.6636238 17.9353767,12.1904698 19.4130304,12.1842349 L19.4414335,12.1842349 C20.9142379,12.1842349 22.3177664,12.6483831 23.500305,13.5274935 C24.6828437,14.4066039 25.5328582,15.6168529 25.9575191,17.0280018 L28.7202397,26.2056652 L34.9557581,4.89433818 C35.3707204,3.47556895 36.2145002,2.25562139 37.396346,1.36681235 C38.5774991,0.478003304 39.9837987,0.00554206729 41.4621451,0 L41.4870844,0 C42.9612743,0 44.3648029,0.464840894 45.5480343,1.34395132 C46.7305729,2.2237545 47.5805874,3.4346962 48.0045556,4.84653785 L57.3367041,35.8987409 C57.859044,37.63895 57.6733847,39.4796091 56.812286,41.0805738 C55.9511873,42.6815385 54.5185629,43.8516075 52.777661,44.3746401 C52.1389378,44.5665341 51.478739,44.6635203 50.816462,44.6642131 C49.3845303,44.6642131 47.9553697,44.1959084 46.7943066,43.3452011 C45.5930635,42.4653979 44.7312721,41.2447576 44.3017619,39.8155969 L41.5750648,30.7418473 L35.3450884,52.0337771 C34.9301261,53.4525463 34.0863463,54.6724938 32.9051932,55.5606101 C31.7240401,56.4494192 30.3184333,56.9225732 28.8400869,56.9281152 L28.8137621,56.9281152 C27.3402649,56.9281152 25.9367364,56.4639671 24.7541978,55.5848567 C23.5716592,54.706439 22.7223373,53.4954973 22.2969837,52.0850412 L19.5391124,42.9212329 L13.3410029,64.1341882 C12.9198058,65.5758185 12.0600926,66.8082357 10.854693,67.6977375 C9.68947335,68.5588362 8.25338516,69.032683 6.81106215,69.032683" id="Fill-1" fill="#00E39C" mask="url(#mask-2)"></path>
                        </g>
                        <path d="M72.9678278,30.582305 L72.9678278,24.8497292 L78.0533673,24.8497292 C79.0717222,24.8497292 79.9106526,25.0928874 80.5466049,25.5708907 C81.1486119,26.0246474 81.4402632,26.7215624 81.4402632,27.7011228 C81.4402632,28.6827614 81.1472264,29.3852185 80.5438338,29.8479811 C79.9085744,30.335683 79.0703367,30.582305 78.0533673,30.582305 L72.9678278,30.582305 Z M78.6789282,41.4253597 L72.9678278,41.4253597 L72.9678278,34.4118735 L78.6789282,34.4118735 C79.5227079,34.4118735 80.2722725,34.5448831 80.9061465,34.8067458 C81.5206232,35.0616809 81.9882351,35.4212225 82.3353071,35.9068462 C82.6706022,36.3765364 82.840328,36.9930914 82.840328,37.7398849 C82.840328,38.5545688 82.6664456,39.2376286 82.3221447,39.7703598 C81.9729944,40.3120969 81.5046897,40.7118185 80.890213,40.9923857 C80.2618812,41.2798804 79.5185514,41.4253597 78.6789282,41.4253597 L78.6789282,41.4253597 Z M83.112582,32.0627297 C83.6716381,31.654695 84.142021,31.1676859 84.5181888,30.6072443 C85.0966421,29.7454528 85.3896789,28.767278 85.3896789,27.7011228 C85.3896789,26.4035863 85.0689318,25.2342101 84.4364433,24.2262466 C83.8060332,23.2224396 82.9310793,22.4278457 81.8344427,21.8632476 C80.746812,21.3034988 79.4742148,21.0201607 78.0533673,21.0201607 L70.9338891,21.0201607 C70.369291,21.0201607 69.8850529,21.211362 69.4943372,21.5889153 C69.1001576,21.9706252 68.8992577,22.4631764 68.8992577,23.0540994 L68.8992577,43.2209895 C68.8992577,43.7883586 69.0980794,44.274675 69.4887951,44.6660835 C69.8795108,45.0567993 70.3658272,45.2549282 70.9338891,45.2549282 L78.6789282,45.2549282 C80.2410984,45.2549282 81.650169,44.9300245 82.8666528,44.2906085 C84.0914497,43.6463431 85.0613114,42.7506065 85.7499133,41.6276451 C86.4399007,40.5019127 86.7897437,39.1939848 86.7897437,37.7398849 C86.7897437,36.1202158 86.3498421,34.7811137 85.4825085,33.7613734 C84.8465563,33.0145798 84.0526552,32.4458251 83.112582,32.0627297 L83.112582,32.0627297 Z" id="Fill-4" fill="#FFFFFF"></path>
                        <path d="M76.4247361,57.3093305 C76.4247361,58.1135779 76.2545256,58.8357891 75.9184503,59.4561876 C75.5830993,60.0736563 75.1180986,60.5658733 74.535037,60.9167244 C73.9526997,61.2690404 73.270409,61.4470296 72.5069967,61.4470296 L70.8758728,61.4470296 L70.8758728,53.1862806 L72.5069967,53.1862806 C73.2711333,53.1862806 73.953424,53.3620724 74.5364856,53.7092612 C75.1188229,54.05645 75.5838236,54.5435397 75.9184503,55.1558811 C76.2545256,55.7711523 76.4247361,56.495561 76.4247361,57.3093305 M76.7115589,53.0368576 C76.1900628,52.5036225 75.5664404,52.0868495 74.8595235,51.7975255 C74.1547795,51.5096665 73.3631194,51.3631733 72.5069967,51.3631733 L69.8879274,51.3631733 C69.6134176,51.3631733 69.3780201,51.4569289 69.1882534,51.6429753 C68.9963139,51.8304865 68.8992577,52.0722002 68.8992577,52.3629891 L68.8992577,62.2703211 C68.8992577,62.5493906 68.9955896,62.7881744 69.1853562,62.9800805 C69.3751229,63.172719 69.6112447,63.2694044 69.8879274,63.2694044 L72.5069967,63.2694044 C73.3631194,63.2694044 74.1547795,63.1236438 74.8595235,62.8350522 C75.5664404,62.5464607 76.1900628,62.1296877 76.7115589,61.5964526 C77.2337793,61.0632175 77.640836,60.4259723 77.9211402,59.7008312 C78.2014443,58.97862 78.3426828,58.1736401 78.3426828,57.3093305 C78.3426828,56.4442884 78.2014443,55.6422384 77.9211402,54.9244219 C77.640836,54.2044081 77.2337793,53.5693602 76.7115589,53.0368576" id="Fill-9" fill="#FFFFFF"></path>
                        <path d="M82.4581562,57.6981965 C82.6428527,57.3121871 82.9050494,57.0162709 83.2599565,56.7950662 C83.611242,56.5753265 84.0443735,56.4647242 84.5470378,56.4647242 C84.9801693,56.4647242 85.3510109,56.5643395 85.647974,56.7621053 C85.9478343,56.961336 86.1825075,57.2367431 86.3461993,57.581002 C86.4287695,57.7538639 86.492508,57.9406427 86.5366903,58.1391409 L82.2937401,58.1391409 C82.3371981,57.9853231 82.3915206,57.8380975 82.4581562,57.6981965 M86.6098446,55.2700725 C86.034026,54.9111643 85.3401464,54.7295128 84.5470378,54.7295128 C83.7466861,54.7295128 83.0252832,54.9148266 82.4023851,55.2810595 C81.779487,55.6480248 81.28479,56.1614834 80.9327801,56.8060532 C80.5822189,57.4491582 80.404041,58.1992031 80.404041,59.0364115 C80.404041,59.8662952 80.5923591,60.6134103 80.963925,61.2565153 C81.3369396,61.9010851 81.85916,62.4138112 82.5161002,62.7793116 C83.1708675,63.1433471 83.9270369,63.3286609 84.7643278,63.3286609 C85.2322257,63.3286609 85.7269227,63.240765 86.2353814,63.0671706 C86.7467373,62.8935763 87.1820417,62.663582 87.5268086,62.3867099 C87.8114585,62.1662377 87.8599866,61.9084098 87.8505707,61.7304206 C87.836809,61.4894394 87.7230939,61.271897 87.5065281,61.0785261 C87.3363176,60.9334979 87.1356865,60.8631811 86.9068076,60.8690409 C86.6895176,60.8756331 86.4867136,60.9474147 86.302017,61.0843858 C86.128185,61.2162296 85.8935117,61.3348891 85.604516,61.4388992 C85.3176931,61.5414444 85.0352161,61.5934495 84.7643278,61.5934495 C84.258042,61.5934495 83.8053545,61.4806498 83.4193025,61.2587127 C83.0325262,61.0367755 82.7268716,60.7313373 82.5074086,60.3504551 C82.4067309,60.1753958 82.3292308,59.9871521 82.274184,59.7864565 L87.4847991,59.7864565 C87.7397528,59.7864565 87.9555942,59.7029554 88.1258048,59.5374181 C88.2981882,59.368951 88.3865528,59.1565359 88.3865528,58.9045677 C88.3865528,58.1010527 88.2344498,57.3795739 87.9353138,56.758443 C87.6325564,56.1299873 87.1863875,55.6289807 86.6098446,55.2700725" id="Fill-11" fill="#FFFFFF"></path>
                        <path d="M100.654821,55.1116402 C100.195615,54.8479525 99.6647026,54.7146437 99.0765709,54.7146437 C98.4123877,54.7146437 97.8112186,54.8626018 97.2904468,55.1541232 C97.0137641,55.3101384 96.7675021,55.4983821 96.5538336,55.7188543 C96.3503052,55.4727458 96.1105619,55.2698528 95.8353278,55.1116402 C95.3768458,54.8479525 94.8459338,54.7146437 94.2570778,54.7146437 C93.6472171,54.7146437 93.0945761,54.8640667 92.6158137,55.1592504 C92.5310706,55.2112555 92.4492247,55.2676554 92.3710003,55.3269851 C92.326818,55.2346944 92.2681497,55.1511933 92.1949953,55.0772143 C92.0153689,54.8948303 91.7792471,54.8025396 91.4938728,54.8025396 C91.2186388,54.8025396 90.9861384,54.8940978 90.8014419,55.0742844 C90.6145725,55.2566684 90.5196891,55.4969172 90.5196891,55.7869736 L90.5196891,62.2993268 C90.5196891,62.5791287 90.6138482,62.8157151 90.7985447,63.0024939 C90.9832412,63.1892727 91.2171902,63.2844932 91.4938728,63.2844932 C91.7806957,63.2844932 92.0175418,63.1885402 92.1986168,62.9995641 C92.3767947,62.8127853 92.4673322,62.5776638 92.4673322,62.2993268 L92.4673322,58.1726146 C92.4673322,57.6847924 92.6071221,57.2980505 92.8946693,56.9896824 C93.1785949,56.6857091 93.5298805,56.537751 93.9680821,56.537751 C94.3903491,56.537751 94.7191813,56.6615377 94.9748593,56.9157034 C95.2261914,57.1654742 95.3536682,57.5690628 95.3536682,58.1140174 L95.3536682,62.2993268 C95.3536682,62.5791287 95.447103,62.8157151 95.6317995,63.0024939 C95.816496,63.1892727 96.050445,63.2844932 96.3271276,63.2844932 C96.6139505,63.2844932 96.8515209,63.1885402 97.0318716,62.9995641 C97.2100495,62.8127853 97.300587,62.5769313 97.300587,62.2993268 L97.300587,58.1726146 C97.300587,57.68406 97.4389283,57.2965856 97.722854,56.9889499 C98.0017095,56.6849766 98.3493736,56.537751 98.7868509,56.537751 C99.2091179,56.537751 99.5386744,56.6615377 99.7943524,56.9157034 C100.04496,57.1654742 100.172437,57.5683304 100.172437,58.1140174 L100.172437,62.2993268 C100.172437,62.5791287 100.265872,62.8157151 100.451293,63.0024939 C100.635989,63.1892727 100.869938,63.2844932 101.145896,63.2844932 C101.433444,63.2844932 101.67029,63.1885402 101.85064,62.9995641 C102.028818,62.8127853 102.119356,62.5776638 102.119356,62.2993268 L102.119356,58.1140174 C102.119356,57.4071879 101.991879,56.7919166 101.739823,56.2872477 C101.48342,55.7737892 101.118373,55.3782577 100.654821,55.1116402" id="Fill-13" fill="#FFFFFF"></path>
                        <path d="M108.642258,61.534779 C108.185949,61.534779 107.778892,61.427839 107.431952,61.2176213 C107.084288,61.0066712 106.806157,60.7114875 106.605526,60.3408598 C106.404171,59.9694997 106.302044,59.5300202 106.302044,59.0363383 C106.302044,58.5419239 106.404171,58.100247 106.60625,57.7222947 C106.806881,57.3480047 107.085013,57.051356 107.432677,56.8404059 C107.778892,56.6294557 108.185949,56.5232482 108.642258,56.5232482 C109.098567,56.5232482 109.505624,56.6294557 109.852563,56.8404059 C110.199503,57.0506236 110.474013,57.3472722 110.670298,57.7208297 C110.868032,58.0987821 110.967986,58.5419239 110.967986,59.0363383 C110.967986,59.5307527 110.868032,59.9702321 110.670298,60.3430572 C110.474737,60.7129524 110.199503,61.0066712 109.852563,61.2176213 C109.505624,61.427839 109.098567,61.534779 108.642258,61.534779 M112.313011,56.8037826 C111.950861,56.1592127 111.446748,55.6464867 110.814434,55.2802538 C110.18212,54.9147534 109.452025,54.7294395 108.642258,54.7294395 C107.823074,54.7294395 107.08791,54.9147534 106.455596,55.2802538 C105.823282,55.6464867 105.319169,56.1592127 104.957019,56.8037826 C104.595593,57.4468875 104.412345,58.1983974 104.412345,59.0363383 C104.412345,59.864757 104.595593,60.6111397 104.957019,61.2542446 C105.319169,61.8988145 105.823282,62.4115405 106.455596,62.777041 C107.087186,63.1432738 107.823074,63.3285877 108.642258,63.3285877 C109.461441,63.3285877 110.19733,63.1432738 110.82892,62.777041 C111.461958,62.4108081 111.963174,61.898082 112.320978,61.2527797 C112.677334,60.6096747 112.857685,59.8640246 112.857685,59.0363383 C112.857685,58.1983974 112.674437,57.44762 112.313011,56.8037826" id="Fill-15" fill="#FFFFFF"></path>
                        <path d="M105.548048,27.9607686 C104.98345,27.9607686 104.504061,28.1471206 104.123044,28.5142826 C103.738563,28.8862939 103.543205,29.3746885 103.543205,29.9649187 L103.543205,38.3653072 C103.543205,38.985326 103.376943,39.5291413 103.034028,40.0265419 C102.684878,40.5322555 102.208953,40.9402902 101.620108,41.2395619 C101.026414,41.5409118 100.333656,41.6933186 99.5605372,41.6933186 C98.7444677,41.6933186 98.003909,41.5346769 97.3596437,41.2208574 C96.7285408,40.9139654 96.2408388,40.4518955 95.8695203,39.8062447 C95.4975091,39.1599011 95.3090788,38.3140431 95.3090788,37.2929172 L95.3090788,29.9649187 C95.3090788,29.3975496 95.1157992,28.9160825 94.7347821,28.5343726 C94.3530722,28.1540482 93.8722978,27.9607686 93.3049287,27.9607686 C92.736174,27.9607686 92.2553997,28.1540482 91.8743826,28.5350654 C91.4933655,28.9153897 91.3007786,29.3968568 91.3007786,29.9649187 L91.3007786,37.2929172 C91.3007786,39.0158074 91.6367664,40.4983104 92.2990435,41.6981679 C92.9682481,42.9077241 93.8951589,43.8394842 95.0548364,44.4664305 C96.2034299,45.0885276 97.5189781,45.4037327 98.9647649,45.4037327 C100.37245,45.4037327 101.649204,45.0926841 102.759003,44.479593 C103.070744,44.3070961 103.365166,44.1165875 103.641577,43.9080673 C103.734407,44.198333 103.893741,44.4567319 104.117502,44.6804929 C104.497826,45.06151 104.979293,45.2547896 105.548048,45.2547896 C106.138971,45.2547896 106.627366,45.0594317 106.998684,44.6742581 C107.365846,44.2946265 107.552198,43.8152376 107.552198,43.2506395 L107.552198,29.9649187 C107.552198,29.3774596 107.364461,28.8918359 106.992449,28.5198247 C106.621131,28.1485062 106.135507,27.9607686 105.548048,27.9607686" id="Fill-6" fill="#FFFFFF"></path>
                        <path d="M115.735476,27.9905572 C115.170878,27.9905572 114.691489,28.1769093 114.311165,28.5440712 C113.925991,28.9160825 113.730633,29.4044772 113.730633,29.9947073 L113.730633,43.2506395 C113.730633,43.8193942 113.923913,44.3001685 114.30493,44.6804929 C114.685254,45.06151 115.166722,45.2547896 115.735476,45.2547896 C116.326399,45.2547896 116.814794,45.0594317 117.186112,44.6749508 C117.553274,44.2953192 117.739626,43.8159304 117.739626,43.2506395 L117.739626,29.9947073 C117.739626,29.4072482 117.551889,28.9209318 117.179877,28.5496133 C116.808559,28.1782948 116.322935,27.9905572 115.735476,27.9905572" id="Fill-8" fill="#FFFFFF"></path>
                        <path d="M115.735476,21.4072741 C115.069043,21.4072741 114.487126,21.6504323 114.007044,22.1298211 C113.527655,22.6099027 113.283804,23.1918197 113.283804,23.8582533 C113.283804,24.5246869 113.527655,25.106604 114.007044,25.5866856 C114.487126,26.0660744 115.06835,26.3092326 115.735476,26.3092326 C116.402603,26.3092326 116.983827,26.0660744 117.463908,25.5859928 C117.943297,25.1059112 118.186455,24.5246869 118.186455,23.8582533 C118.186455,23.1918197 117.943297,22.6099027 117.463908,22.1298211 C116.983827,21.6504323 116.40191,21.4072741 115.735476,21.4072741" id="Fill-10" fill="#FFFFFF"></path>
                        <path d="M129.020712,41.3062052 L128.275997,41.3062052 C128.113891,41.3062052 127.87004,41.2570194 127.622033,40.8316657 C127.389959,40.4326369 127.271497,39.9040622 127.271497,39.2591041 L127.271497,22.9945221 C127.271497,22.427153 127.08376,21.951228 126.711748,21.5785239 C126.34043,21.2078982 125.864505,21.0201607 125.297136,21.0201607 C124.729074,21.0201607 124.253149,21.2078982 123.88183,21.5792167 C123.510512,21.9505352 123.322081,22.4264602 123.322081,22.9945221 L123.322081,39.2591041 C123.322081,40.3973062 123.527831,41.4218959 123.932402,42.3051629 C124.3439,43.2043633 124.928588,43.9262175 125.672611,44.4513284 C126.427717,44.9847524 127.303364,45.2549282 128.275997,45.2549282 L128.335574,45.2549282 C129.034567,45.2549282 129.622719,45.0824313 130.082711,44.7429797 C130.58219,44.375125 130.846131,43.8694113 130.846131,43.2805667 C130.846131,42.7235889 130.679868,42.2545915 130.350115,41.8846585 C130.011357,41.5064124 129.552058,41.3062052 129.020712,41.3062052" id="Fill-12" fill="#FFFFFF"></path>
                        <path d="M141.323201,41.7232458 C140.424,41.7232458 139.601696,41.5008703 138.878456,41.063047 C138.15106,40.6238382 137.56845,40.0086687 137.14656,39.2348576 C136.721207,38.4575826 136.505759,37.5736229 136.505759,36.6079177 C136.505759,35.6242007 136.720514,34.7416265 137.143789,33.9844416 C137.566372,33.2293349 138.149675,32.6231713 138.878456,32.1818842 C139.602389,31.7440609 140.425386,31.5223782 141.323201,31.5223782 C142.240413,31.5223782 143.066874,31.7440609 143.780415,32.1804987 C144.498113,32.6204003 145.071717,33.2258711 145.485293,33.9809778 C145.900256,34.7388555 146.110854,35.6228152 146.110854,36.6079177 C146.110854,37.5743157 145.899563,38.4596609 145.482522,39.2390141 C145.068946,40.0121325 144.496727,40.6266092 143.780415,41.0644325 C143.067567,41.5015631 142.241106,41.7232458 141.323201,41.7232458 M149.440251,21.5785239 C149.068933,21.2078982 148.582616,21.0201607 147.99585,21.0201607 C147.430559,21.0201607 146.951863,21.2058199 146.571539,21.5736746 C146.187058,21.9449931 145.9917,22.4333878 145.9917,23.0243107 L145.9917,29.8583725 C145.45689,29.3810619 144.853498,28.9771838 144.187064,28.6502018 C143.1313,28.133404 141.967466,27.8715413 140.727429,27.8715413 C139.191583,27.8715413 137.791519,28.2622571 136.566722,29.0332972 C135.34816,29.8008735 134.374141,30.8538663 133.672377,32.1638725 C132.971305,33.4690293 132.616613,34.9646947 132.616613,36.6079177 C132.616613,38.2566827 133.004558,39.761354 133.769363,41.0810587 C134.533476,42.4000708 135.58439,43.4565273 136.893011,44.2206399 C138.203017,44.9854451 139.69314,45.3740826 141.323201,45.3740826 C142.953261,45.3740826 144.439228,44.9854451 145.739536,44.2199471 C147.037765,43.4551418 148.083137,42.399378 148.84725,41.0810587 C149.612055,39.7606612 150,38.2552972 150,36.6079177 L150,23.0243107 C150,22.4368516 149.81157,21.9505352 149.440251,21.5785239" id="Fill-14" fill="#FFFFFF"></path>
                    </g>
                </g>
            </g>
        </g>
    </g>
</svg>