<svg id="Layer_1" data-name="Layer 1" xmlns="http://www.w3.org/2000/svg" viewBox="0 0 1257.9 515.8"><defs><style>.cls-1{fill:#00e39c;}.cls-2{fill:#fff;}</style></defs><path class="cls-1" d="M42,426.09a42,42,0,0,1-40.33-53.8l78-266.86a42,42,0,0,1,40.14-30.22H120a42,42,0,0,1,40.22,29.9l17.05,56.65L215.75,30.21A42,42,0,0,1,255.91,0h.16a42,42,0,0,1,40.22,29.92l57.6,191.65a42,42,0,0,1-40.24,54.11,42.35,42.35,0,0,1-24.83-8.14,41.67,41.67,0,0,1-15.38-21.79l-16.83-56L218.16,321.17A42,42,0,0,1,178,351.37h-.17a42,42,0,0,1-40.22-29.89l-17-56.56L82.34,395.85a41.65,41.65,0,0,1-15.34,22A42.35,42.35,0,0,1,42,426.09Z"/><path class="cls-1" d="M468,336.72h0a21.06,21.06,0,0,0-10.55-2.62H441.92a4.48,4.48,0,0,0-3.22,1.27,4.35,4.35,0,0,0-1.31,3.26v52.45a4.58,4.58,0,0,0,7.79,3.21,4.47,4.47,0,0,0,1.27-3.21V374.61h11A21.55,21.55,0,0,0,468,372.07a18.42,18.42,0,0,0,7.2-7.08,20.51,20.51,0,0,0,2.58-10.32A21.66,21.66,0,0,0,475.16,344,18.73,18.73,0,0,0,468,336.72Zm-4.52,28a11.93,11.93,0,0,1-6,1.48h-11V342.54h11a11.46,11.46,0,0,1,6,1.56,11.14,11.14,0,0,1,4.08,4.26,13,13,0,0,1,1.49,6.31,11.81,11.81,0,0,1-1.49,5.95A10.75,10.75,0,0,1,463.44,364.69Z"/><path class="cls-1" d="M501.26,386.86h-1.94a2.73,2.73,0,0,1-2.36-1.61,8.9,8.9,0,0,1-1-4.48V338.48a4.38,4.38,0,1,0-8.75,0v42.29a18.14,18.14,0,0,0,1.52,7.61,12.94,12.94,0,0,0,4.27,5.28,10.77,10.77,0,0,0,6.33,1.95h.16a6.7,6.7,0,0,0,4.09-1.19,3.81,3.81,0,0,0,1.67-3.19,4.53,4.53,0,0,0-1.09-3.12A3.72,3.72,0,0,0,501.26,386.86Z"/><path class="cls-1" d="M544.35,354.82h0a21.95,21.95,0,0,0-30.08,7.88,22.16,22.16,0,0,0-2.9,11.26,23.37,23.37,0,0,0,2.66,11.2,20.57,20.57,0,0,0,7.26,7.85,20.09,20.09,0,0,0,20.83,0,20.19,20.19,0,0,0,4-3.33v1.55a4.46,4.46,0,1,0,8.91,0V374a22.19,22.19,0,0,0-2.9-11.26A21.62,21.62,0,0,0,544.35,354.82ZM540,386.12a13.5,13.5,0,0,1-13.54,0,13.31,13.31,0,0,1-4.78-5A14.54,14.54,0,0,1,520,374a14.75,14.75,0,0,1,1.76-7.24,13.28,13.28,0,0,1,4.78-5,13.44,13.44,0,0,1,13.54,0,13,13,0,0,1,4.7,5,15,15,0,0,1,1.73,7.24,14.78,14.78,0,0,1-1.73,7.16,13.08,13.08,0,0,1-4.7,5Z"/><path class="cls-1" d="M605.29,354.91a4.26,4.26,0,0,0-2.51-2.25h0c-2.47-1-4.38-.31-5.53,2.11l-12,27.16-13.72-27.24a4.28,4.28,0,0,0-7.77.13,3.63,3.63,0,0,0,.21,3.26l17.3,32.85-7.62,17.21a4.16,4.16,0,0,0-.34,3.25,4.29,4.29,0,0,0,2.45,2.3,5.33,5.33,0,0,0,2.06.51,3.64,3.64,0,0,0,3.48-2.7L605,358.2A4.2,4.2,0,0,0,605.29,354.91Z"/><path class="cls-2" d="M442.24,504a11.48,11.48,0,0,1-4.78-4.45,13,13,0,0,1-1.7-6.67V468a.62.62,0,0,1,.19-.46.65.65,0,0,1,.46-.18h5a.62.62,0,0,1,.64.64v25a7,7,0,0,0,2,5.18,8,8,0,0,0,10.59,0,7,7,0,0,0,2-5.18V468a.66.66,0,0,1,.19-.46.65.65,0,0,1,.46-.18h5a.65.65,0,0,1,.46.18.62.62,0,0,1,.19.46v24.9a13,13,0,0,1-1.68,6.67,11.23,11.23,0,0,1-4.75,4.45,16.84,16.84,0,0,1-14.2,0Z"/><path class="cls-2" d="M494.19,491.39a21,21,0,0,1-.92,6.59,11.22,11.22,0,0,1-3.81,5.56,10.59,10.59,0,0,1-6.61,2,7.65,7.65,0,0,1-6.16-2.76.16.16,0,0,0-.21,0,.21.21,0,0,0-.11.22v11.71a.64.64,0,0,1-.19.46.62.62,0,0,1-.46.19h-5a.62.62,0,0,1-.46-.19.64.64,0,0,1-.19-.46v-36.5a.65.65,0,0,1,.65-.65h5a.65.65,0,0,1,.65.65v1.62a.21.21,0,0,0,.11.22c.07,0,.14,0,.21-.11a7.77,7.77,0,0,1,6.21-2.81,10.44,10.44,0,0,1,6.48,2,11.16,11.16,0,0,1,3.84,5.56A20.68,20.68,0,0,1,494.19,491.39Zm-6.37-.11a12.58,12.58,0,0,0-1.3-6.21,5,5,0,0,0-4.59-2.64,4.51,4.51,0,0,0-4.21,2.59,16.32,16.32,0,0,0,.11,12.74,4.43,4.43,0,0,0,4.05,2.38,4.83,4.83,0,0,0,4.32-2.27A11.91,11.91,0,0,0,487.82,491.28Z"/><path class="cls-2" d="M517.33,467.49a.63.63,0,0,1,.46-.18h5a.63.63,0,0,1,.46.18.62.62,0,0,1,.19.46v36.51a.62.62,0,0,1-.19.46.64.64,0,0,1-.46.19h-5a.64.64,0,0,1-.46-.19.62.62,0,0,1-.19-.46v-1.62a.23.23,0,0,0-.11-.22c-.07,0-.14,0-.22.11a7.74,7.74,0,0,1-6.21,2.81,10.48,10.48,0,0,1-6.48-2,11.19,11.19,0,0,1-3.83-5.56,22,22,0,0,1-1-6.75,20.71,20.71,0,0,1,.92-6.59,11.14,11.14,0,0,1,3.83-5.56,10.72,10.72,0,0,1,6.64-2,7.74,7.74,0,0,1,6.1,2.7.24.24,0,0,0,.22.08c.07,0,.11-.08.11-.19V468A.62.62,0,0,1,517.33,467.49Zm-.25,23.79a12.42,12.42,0,0,0-1.35-6.42,4.56,4.56,0,0,0-4.1-2.38,5,5,0,0,0-4.32,2.27,11.57,11.57,0,0,0-1.62,6.59,13.06,13.06,0,0,0,1.3,6.21,5,5,0,0,0,4.59,2.59,4.72,4.72,0,0,0,4.26-2.59A13,13,0,0,0,517.08,491.28Z"/><path class="cls-2" d="M546.73,478.27a9.45,9.45,0,0,1,4,3.26,8.32,8.32,0,0,1,1.4,4.73v18.2a.62.62,0,0,1-.19.46.66.66,0,0,1-.46.19h-5a.65.65,0,0,1-.65-.65v-1.73c0-.11,0-.17-.1-.19a.22.22,0,0,0-.22.08q-2.64,2.92-7.67,2.92a10.55,10.55,0,0,1-6.67-2.05,7.31,7.31,0,0,1-2.61-6.11,7.94,7.94,0,0,1,2.94-6.56c2-1.56,4.72-2.35,8.29-2.35h5.77a.24.24,0,0,0,.27-.27v-1.29a4.25,4.25,0,0,0-1.24-3.27,5.3,5.3,0,0,0-3.72-1.16,6.56,6.56,0,0,0-3.32.73,3.19,3.19,0,0,0-1.6,2c-.1.44-.36.62-.75.54l-5.24-.64a1.27,1.27,0,0,1-.46-.19.3.3,0,0,1-.13-.35,7.52,7.52,0,0,1,3.53-5.4,13.56,13.56,0,0,1,7.81-2.11A14.29,14.29,0,0,1,546.73,478.27ZM544,499.17a4.28,4.28,0,0,0,1.88-3.57v-2.54a.24.24,0,0,0-.27-.27h-4.53a8.15,8.15,0,0,0-4.51,1.08A3.47,3.47,0,0,0,534.9,497a3.17,3.17,0,0,0,1.27,2.68,5.35,5.35,0,0,0,3.27.94A7.47,7.47,0,0,0,544,499.17Z"/><path class="cls-2" d="M572.41,482.4a.62.62,0,0,1-.46.19h-5.51a.24.24,0,0,0-.27.27v13a4.17,4.17,0,0,0,.89,3,3.81,3.81,0,0,0,2.83.92h1.62a.6.6,0,0,1,.46.19.62.62,0,0,1,.19.46v4a.66.66,0,0,1-.65.7l-2.8,0c-2.85,0-5-.48-6.38-1.45s-2.12-2.81-2.16-5.51V482.86a.24.24,0,0,0-.27-.27h-3.07a.6.6,0,0,1-.46-.19.62.62,0,0,1-.19-.46v-3.78a.62.62,0,0,1,.19-.46.64.64,0,0,1,.46-.19h3.07a.24.24,0,0,0,.27-.27v-6.32a.66.66,0,0,1,.19-.46.65.65,0,0,1,.46-.18h4.7a.65.65,0,0,1,.46.18.62.62,0,0,1,.19.46v6.32a.24.24,0,0,0,.27.27H572a.66.66,0,0,1,.46.19.65.65,0,0,1,.18.46v3.78A.65.65,0,0,1,572.41,482.4Z"/><path class="cls-2" d="M601.11,491.23l-.06,1.67a.57.57,0,0,1-.65.65H583.5a.24.24,0,0,0-.27.27,7.61,7.61,0,0,0,.49,2.43c.86,2.59,3,3.91,6.32,3.94a6.82,6.82,0,0,0,5.83-3,.62.62,0,0,1,.54-.33.53.53,0,0,1,.38.17l3.34,2.75a.57.57,0,0,1,.17.86,11,11,0,0,1-4.46,3.68,14.48,14.48,0,0,1-6.18,1.29,13,13,0,0,1-7.16-1.89,10.87,10.87,0,0,1-4.29-5.29,21.17,21.17,0,0,1-1.24-8.1,16.21,16.21,0,0,1,.65-5.08,10.82,10.82,0,0,1,4.07-6,11.89,11.89,0,0,1,7.21-2.19q10.64,0,12,11.12A19.75,19.75,0,0,1,601.11,491.23Zm-15.53-7.75a5.3,5.3,0,0,0-1.86,2.78,9.08,9.08,0,0,0-.43,2.38c-.08.18,0,.27.21.27h11a.24.24,0,0,0,.27-.27,10.51,10.51,0,0,0-.32-2.06,5.2,5.2,0,0,0-1.92-3,5.78,5.78,0,0,0-3.59-1.08A5.33,5.33,0,0,0,585.58,483.48Z"/><path class="cls-2" d="M622,503.41a11.05,11.05,0,0,1-4.21-5.76,24.16,24.16,0,0,1,0-12.85,10.49,10.49,0,0,1,4.18-5.64,12.48,12.48,0,0,1,7.21-2.08,12.82,12.82,0,0,1,7.35,2.11,10,10,0,0,1,4.15,5.29,9.56,9.56,0,0,1,.38,1.73v.1a.62.62,0,0,1-.59.65l-4.86.7h-.11a.65.65,0,0,1-.65-.54,1.63,1.63,0,0,0,0-.43c-.07-.29-.15-.54-.22-.75a4.66,4.66,0,0,0-1.94-2.49,6.1,6.1,0,0,0-3.46-1,5.7,5.7,0,0,0-3.48,1,5.09,5.09,0,0,0-1.92,2.89,16.84,16.84,0,0,0-.54,4.81,19,19,0,0,0,.49,4.8,5.67,5.67,0,0,0,1.94,3,5.5,5.5,0,0,0,3.51,1.11,6,6,0,0,0,3.54-1.05,4.77,4.77,0,0,0,1.92-2.84.68.68,0,0,0,0-.27.21.21,0,0,0,.05-.16c.11-.43.36-.61.76-.54l4.86.75a.91.91,0,0,1,.46.25.54.54,0,0,1,.13.51c-.11.58-.2,1-.27,1.24a9.61,9.61,0,0,1-4.15,5.48,13.25,13.25,0,0,1-7.35,2A12.16,12.16,0,0,1,622,503.41Z"/><path class="cls-2" d="M650.43,503.38a11.44,11.44,0,0,1-4.29-6,20.39,20.39,0,0,1-.92-6.15,20.05,20.05,0,0,1,.87-6.16,11,11,0,0,1,4.32-5.88,12.72,12.72,0,0,1,7.4-2.11,12,12,0,0,1,7.1,2.11,11.26,11.26,0,0,1,4.24,5.83,17.72,17.72,0,0,1,1,6.15,19.49,19.49,0,0,1-.92,6.16,11.6,11.6,0,0,1-4.27,6,11.9,11.9,0,0,1-7.18,2.19A12.37,12.37,0,0,1,650.43,503.38ZM661.18,499a6.35,6.35,0,0,0,2.08-3.18,16,16,0,0,0,.54-4.54,14.93,14.93,0,0,0-.54-4.53,5.9,5.9,0,0,0-2-3.16,5.71,5.71,0,0,0-3.57-1.11,5.52,5.52,0,0,0-3.45,1.11,6.16,6.16,0,0,0-2.11,3.16,19.31,19.31,0,0,0,0,9.07,5.92,5.92,0,0,0,2.08,3.18,5.73,5.73,0,0,0,3.59,1.14A5.33,5.33,0,0,0,661.18,499Z"/><path class="cls-2" d="M712.1,479.59a9.82,9.82,0,0,1,2.35,7v17.88a.62.62,0,0,1-.19.46.64.64,0,0,1-.46.19h-4.91a.66.66,0,0,1-.46-.19.62.62,0,0,1-.19-.46V487.88a5.64,5.64,0,0,0-1.32-3.94,4.55,4.55,0,0,0-3.54-1.46,4.81,4.81,0,0,0-3.62,1.46,5.39,5.39,0,0,0-1.4,3.89v16.63a.62.62,0,0,1-.19.46.66.66,0,0,1-.46.19H692.8a.64.64,0,0,1-.46-.19.62.62,0,0,1-.19-.46V487.88a5.56,5.56,0,0,0-1.35-3.94,4.64,4.64,0,0,0-3.56-1.46,4.67,4.67,0,0,0-4.92,4.43v17.55a.62.62,0,0,1-.19.46.64.64,0,0,1-.46.19h-5a.64.64,0,0,1-.46-.19.62.62,0,0,1-.19-.46v-26.3a.62.62,0,0,1,.19-.46.64.64,0,0,1,.46-.19h5a.64.64,0,0,1,.46.19.62.62,0,0,1,.19.46v1.78a.23.23,0,0,0,.11.22c.07,0,.14,0,.22-.11a7.11,7.11,0,0,1,2.94-2.24,10,10,0,0,1,3.91-.73,9.62,9.62,0,0,1,4.65,1.08,7.38,7.38,0,0,1,3.08,3.13c.1.15.23.15.37,0a7.39,7.39,0,0,1,3.3-3.18,10.5,10.5,0,0,1,4.7-1A8.47,8.47,0,0,1,712.1,479.59Z"/><path class="cls-2" d="M721.63,472.65a4.05,4.05,0,1,1,2.76,1.08A3.73,3.73,0,0,1,721.63,472.65Zm-.29,32.27a.62.62,0,0,1-.19-.46V478.11a.6.6,0,0,1,.19-.46.59.59,0,0,1,.46-.19h5a.65.65,0,0,1,.65.65v26.35a.62.62,0,0,1-.19.46.64.64,0,0,1-.46.19h-5A.63.63,0,0,1,721.34,504.92Z"/><path class="cls-2" d="M754.82,479.67a9.54,9.54,0,0,1,2.62,7.08v17.71a.65.65,0,0,1-.65.65h-5a.66.66,0,0,1-.46-.19.62.62,0,0,1-.19-.46V488a5.75,5.75,0,0,0-1.4-4,4.8,4.8,0,0,0-3.73-1.54,4.91,4.91,0,0,0-3.75,1.51,5.55,5.55,0,0,0-1.43,4v16.47a.65.65,0,0,1-.65.65h-5a.66.66,0,0,1-.46-.19.62.62,0,0,1-.19-.46v-26.3a.62.62,0,0,1,.19-.46.66.66,0,0,1,.46-.19h5a.65.65,0,0,1,.65.65v1.73c0,.11,0,.18.1.21s.13,0,.17-.1q2.21-2.92,6.69-2.92A9.51,9.51,0,0,1,754.82,479.67Z"/><path class="cls-2" d="M781.06,477.7a.64.64,0,0,1,.46-.19h5a.66.66,0,0,1,.46.19.65.65,0,0,1,.18.46v25.11q0,6.75-3.86,9.64t-10.12,2.89c-1.12,0-2.22-.06-3.3-.16a.61.61,0,0,1-.59-.71l.16-4.42c0-.4.25-.6.76-.6a26.91,26.91,0,0,0,2.81.16c2.7,0,4.68-.53,6-1.59s1.92-2.85,1.92-5.37v-.43c0-.11,0-.17-.11-.19a.21.21,0,0,0-.21.08,8.17,8.17,0,0,1-6.27,2.37,12,12,0,0,1-6.42-1.78,9.28,9.28,0,0,1-4.05-5.45,25,25,0,0,1-.71-6.54,20.86,20.86,0,0,1,.87-6.85,10.47,10.47,0,0,1,3.72-5.27,10.16,10.16,0,0,1,6.21-2,8.79,8.79,0,0,1,6.65,2.48c.07.11.14.15.21.11a.21.21,0,0,0,.11-.21v-1.3A.62.62,0,0,1,781.06,477.7Zm-.27,16.47c.05-.63.08-1.65.08-3.05s0-2.35-.08-2.94a8.19,8.19,0,0,0-.35-1.76,5.39,5.39,0,0,0-8.43-2.86,6,6,0,0,0-1.94,2.86,12.9,12.9,0,0,0-.65,4.75,14.1,14.1,0,0,0,.54,4.7,5.68,5.68,0,0,0,2,2.84,5.44,5.44,0,0,0,3.43,1.1,4.94,4.94,0,0,0,5.13-3.88A9.36,9.36,0,0,0,780.79,494.17Z"/><path class="cls-2" d="M812.06,499.6c0,.07.08.11.18.11h15.39a.6.6,0,0,1,.46.19.58.58,0,0,1,.19.45v4.11a.62.62,0,0,1-.19.46.64.64,0,0,1-.46.19H804.41a.66.66,0,0,1-.46-.19.65.65,0,0,1-.18-.46v-3.89a1.09,1.09,0,0,1,.32-.81q4.11-4.38,9.5-10.75l2.54-3q5-5.78,5-8.74a4.61,4.61,0,0,0-1.57-3.62,5.81,5.81,0,0,0-4-1.41,5.73,5.73,0,0,0-4,1.41,4.81,4.81,0,0,0-1.54,3.72v1.41a.62.62,0,0,1-.19.46.64.64,0,0,1-.46.19h-5a.65.65,0,0,1-.65-.65v-2.32a9,9,0,0,1,1.68-5.08,10.22,10.22,0,0,1,4.24-3.35,14.55,14.55,0,0,1,6-1.19,14,14,0,0,1,6.32,1.35,10.08,10.08,0,0,1,4.16,3.7,9.81,9.81,0,0,1,1.46,5.27q0,4.43-4.7,10.2-2.6,3.24-8.53,9.72l-2.05,2.27A.21.21,0,0,0,812.06,499.6Z"/><path class="cls-2" d="M837.11,502.49a11.51,11.51,0,0,1-3.32-8.67V478.59a11.27,11.27,0,0,1,3.32-8.56q3.32-3.15,9-3.16a12.74,12.74,0,0,1,9,3.16,11.16,11.16,0,0,1,3.37,8.56v15.23a11.4,11.4,0,0,1-3.37,8.67,12.59,12.59,0,0,1-9,3.21Q840.43,505.7,837.11,502.49Zm13.47-3.89a6,6,0,0,0,1.68-4.46V478.38a6,6,0,0,0-1.68-4.46,6.1,6.1,0,0,0-4.48-1.65,6,6,0,0,0-4.4,1.65,6,6,0,0,0-1.65,4.46v15.76a6,6,0,0,0,1.65,4.46,6,6,0,0,0,4.4,1.65A6.1,6.1,0,0,0,850.58,498.6Z"/><path class="cls-2" d="M872.48,499.6c0,.07.08.11.19.11h15.39a.65.65,0,0,1,.65.64v4.11a.65.65,0,0,1-.65.65H864.84a.66.66,0,0,1-.46-.19.62.62,0,0,1-.19-.46v-3.89a1.1,1.1,0,0,1,.33-.81q4.1-4.38,9.5-10.75l2.54-3q5-5.78,5-8.74a4.64,4.64,0,0,0-1.57-3.62,5.84,5.84,0,0,0-4.05-1.41,5.7,5.7,0,0,0-4,1.41,4.78,4.78,0,0,0-1.54,3.72v1.41a.65.65,0,0,1-.65.65h-5a.64.64,0,0,1-.46-.19.62.62,0,0,1-.19-.46v-2.32a9,9,0,0,1,1.67-5.08,10.29,10.29,0,0,1,4.24-3.35,14.56,14.56,0,0,1,6-1.19,14,14,0,0,1,6.32,1.35,10.05,10.05,0,0,1,4.15,3.7,9.73,9.73,0,0,1,1.46,5.27q0,4.43-4.69,10.2-2.6,3.24-8.54,9.72l-2.05,2.27A.23.23,0,0,0,872.48,499.6Z"/><path class="cls-2" d="M900.21,467.31h5.18a.63.63,0,0,1,.46.18.62.62,0,0,1,.19.46v36.51a.62.62,0,0,1-.19.46.64.64,0,0,1-.46.19h-5a.65.65,0,0,1-.65-.65V473.79a.23.23,0,0,0-.11-.19.18.18,0,0,0-.22,0l-5.4,1.67a.54.54,0,0,1-.27.06.46.46,0,0,1-.35-.16.68.68,0,0,1-.13-.44l-.16-3.56a.78.78,0,0,1,.43-.76l5.83-2.91A2.28,2.28,0,0,1,900.21,467.31Z"/><path class="cls-2" d="M943.41,468.49a11.6,11.6,0,0,1,4.7,4.59,13.8,13.8,0,0,1,1.67,6.86v13a12.46,12.46,0,0,1-2.67,8.07,12,12,0,0,1-7.27,4.24.3.3,0,0,0-.21.33v4.53a.6.6,0,0,1-.19.46.62.62,0,0,1-.46.19h-5a.62.62,0,0,1-.46-.19.64.64,0,0,1-.19-.46v-4.53c0-.15-.09-.25-.27-.33a12.1,12.1,0,0,1-7.23-4.21,12.34,12.34,0,0,1-2.7-8.1v-13a13.8,13.8,0,0,1,1.67-6.86,11.65,11.65,0,0,1,4.67-4.59,14.37,14.37,0,0,1,6.94-1.62A14.55,14.55,0,0,1,943.41,468.49Zm.11,11.13a7.34,7.34,0,0,0-1.95-5.32,6.77,6.77,0,0,0-5.13-2,6.7,6.7,0,0,0-5.07,2,7.34,7.34,0,0,0-2,5.32v13.17a7.34,7.34,0,0,0,2,5.32,6.7,6.7,0,0,0,5.07,2,6.77,6.77,0,0,0,5.13-2,7.34,7.34,0,0,0,1.95-5.32Z"/><path class="cls-2" d="M978.24,493.06a14.52,14.52,0,0,1-.92,5.35,10.38,10.38,0,0,1-4.1,5.27,12.43,12.43,0,0,1-6.91,1.86,11.93,11.93,0,0,1-6.94-2,10.93,10.93,0,0,1-4.19-5.48,13.84,13.84,0,0,1-.75-4.37.57.57,0,0,1,.64-.65h5a.57.57,0,0,1,.64.65,8.77,8.77,0,0,0,.54,2.75,5.08,5.08,0,0,0,1.81,2.73,5.15,5.15,0,0,0,3.22,1,4.91,4.91,0,0,0,4.91-3.24,10,10,0,0,0,.7-4,11,11,0,0,0-.81-4.54,4.61,4.61,0,0,0-7.34-1.94.93.93,0,0,1-.38.11.73.73,0,0,1-.54-.33l-2.49-3.45a1,1,0,0,1-.16-.44.67.67,0,0,1,.22-.48l8.91-8.75a.18.18,0,0,0,0-.22c0-.07-.1-.1-.21-.1h-13.5a.64.64,0,0,1-.46-.19.62.62,0,0,1-.19-.46V468a.62.62,0,0,1,.19-.46.63.63,0,0,1,.46-.18h21.54a.63.63,0,0,1,.46.18.62.62,0,0,1,.19.46v4.7a1.1,1.1,0,0,1-.32.81l-7.72,7.78c-.15.14-.08.25.21.32a8.7,8.7,0,0,1,7.13,5.56A15.35,15.35,0,0,1,978.24,493.06Z"/><path class="cls-2" d="M982.5,504.92a.63.63,0,0,1,0-.57l13.23-36.5a.68.68,0,0,1,.7-.54h4.92a.62.62,0,0,1,.48.18.6.6,0,0,1,.06.57l-13.23,36.51a.69.69,0,0,1-.71.54H983A.63.63,0,0,1,982.5,504.92Z"/><path class="cls-2" d="M1027,468.49a11.54,11.54,0,0,1,4.7,4.59,13.8,13.8,0,0,1,1.67,6.86v13a12.46,12.46,0,0,1-2.67,8.07,12,12,0,0,1-7.26,4.24.3.3,0,0,0-.22.33v4.53a.6.6,0,0,1-.19.46.62.62,0,0,1-.46.19h-5a.62.62,0,0,1-.46-.19.63.63,0,0,1-.18-.46v-4.53c0-.15-.1-.25-.27-.33a12.1,12.1,0,0,1-7.24-4.21,12.34,12.34,0,0,1-2.7-8.1v-13a13.8,13.8,0,0,1,1.67-6.86,11.65,11.65,0,0,1,4.67-4.59,14.37,14.37,0,0,1,6.94-1.62A14.55,14.55,0,0,1,1027,468.49Zm.11,11.13a7.34,7.34,0,0,0-1.95-5.32,7.42,7.42,0,0,0-10.2,0,7.34,7.34,0,0,0-2,5.32v13.17a7.34,7.34,0,0,0,2,5.32,7.42,7.42,0,0,0,10.2,0,7.34,7.34,0,0,0,1.95-5.32Z"/><path class="cls-2" d="M1064.56,489.74a.66.66,0,0,1,.19.46v4.32a.64.64,0,0,1-.19.46.62.62,0,0,1-.46.19h-2.27a.24.24,0,0,0-.27.27v9a.62.62,0,0,1-.19.46.66.66,0,0,1-.46.19h-5a.65.65,0,0,1-.64-.65v-9a.24.24,0,0,0-.27-.27h-16.42a.62.62,0,0,1-.46-.19.6.6,0,0,1-.19-.46v-3.45a2.87,2.87,0,0,1,.16-.81l10.21-22.47a.77.77,0,0,1,.76-.48h5.29a.6.6,0,0,1,.51.18.58.58,0,0,1,0,.57l-9.61,21.17a.28.28,0,0,0,0,.22.17.17,0,0,0,.16.1H1055a.24.24,0,0,0,.27-.27v-7.34a.65.65,0,0,1,.64-.65h5a.66.66,0,0,1,.46.19.62.62,0,0,1,.19.46v7.34a.24.24,0,0,0,.27.27h2.27A.66.66,0,0,1,1064.56,489.74Z"/><path class="cls-2" d="M564.15,130c-4.71,0-8.5,2.28-11.07,6.78L504,237.68,453.57,136.63a12.61,12.61,0,0,0-19.78-3.11,12,12,0,0,0-3.65,9V263.87a12.46,12.46,0,1,0,24.92,0V189.71L492,263.62A12.07,12.07,0,0,0,503.38,271a12.41,12.41,0,0,0,10.69-6.08l37.62-76.62v75.62a12.46,12.46,0,0,0,21.19,8.89,11.94,11.94,0,0,0,3.74-8.89V142.5a12,12,0,0,0-3.65-9A12.3,12.3,0,0,0,564.15,130Z"/><path class="cls-2" d="M687.65,178.25h0a51.88,51.88,0,0,0-26.69-7,52.42,52.42,0,0,0-26.77,7,51.76,51.76,0,0,0-18.88,19,53.16,53.16,0,0,0-7,27,56.17,56.17,0,0,0,6.38,26.85A49.85,49.85,0,0,0,632.22,270a48.52,48.52,0,0,0,50.31,0,49.22,49.22,0,0,0,6.35-4.74,11.75,11.75,0,0,0,3.48,7.71,12.28,12.28,0,0,0,21-8.76v-40a53.18,53.18,0,0,0-7-27A52,52,0,0,0,687.65,178.25Zm1.91,46a32.38,32.38,0,0,1-3.75,15.62,28.24,28.24,0,0,1-10.17,10.84,29.27,29.27,0,0,1-29.28,0A28.79,28.79,0,0,1,636,239.85a31.76,31.76,0,0,1-3.82-15.6A32.2,32.2,0,0,1,636,208.46a28.83,28.83,0,0,1,10.35-10.84,29.2,29.2,0,0,1,29.28,0,28.36,28.36,0,0,1,10.17,10.83A32.83,32.83,0,0,1,689.56,224.25Z"/><path class="cls-2" d="M812.3,174.93c-4.09-2.71-9.91-4-17.78-4a42.93,42.93,0,0,0-21.25,5.42,44.34,44.34,0,0,0-6.1,4.12,10.6,10.6,0,0,0-2.79-5.31c-2.1-2.09-5.11-3.15-8.94-3.15s-6.7,1.09-8.85,3.25-3.25,5.13-3.25,8.85v80.14c0,3.86,1.11,6.88,3.29,9s5.11,3.12,8.81,3.12c3.86,0,6.88-1.11,9-3.3a12.24,12.24,0,0,0,3.11-8.8V211.88a15.49,15.49,0,0,1,4.39-11.43c3.07-3.12,7.39-5.3,12.86-6.48a47.26,47.26,0,0,1,19.25.35,13.92,13.92,0,0,0,5.57.21,10.21,10.21,0,0,0,5-2.44,9.88,9.88,0,0,0,3-5.42C818.47,183.47,818.21,178.83,812.3,174.93Z"/><path class="cls-2" d="M870.36,252.12h-4.48c-1,0-2.33-.31-3.75-2.74a18.54,18.54,0,0,1-2.08-9.36V142.14a12.1,12.1,0,1,0-24.2,0V240a44.1,44.1,0,0,0,3.68,18.43,31.86,31.86,0,0,0,10.55,13,26.82,26.82,0,0,0,15.8,4.88h.35a17.49,17.49,0,0,0,10.65-3.13,10.83,10.83,0,0,0,4.68-9,12.41,12.41,0,0,0-3-8.55A10.62,10.62,0,0,0,870.36,252.12Z"/><path class="cls-2" d="M971.42,178.05h0a57.57,57.57,0,0,0-54.21,0,49.36,49.36,0,0,0-18.65,18.74c-4.49,7.92-6.77,17.15-6.77,27.46a54.5,54.5,0,0,0,6.77,27.27,49.46,49.46,0,0,0,18.65,18.75c7.85,4.5,17,6.78,27.2,6.78s19.34-2.28,27.19-6.78a48.79,48.79,0,0,0,18.57-18.76,55.08,55.08,0,0,0,6.68-27.26c0-10.3-2.28-19.54-6.78-27.46A49.41,49.41,0,0,0,971.42,178.05Zm1.57,46.2a33.29,33.29,0,0,1-3.66,15.9,27.14,27.14,0,0,1-10.05,10.63,30.68,30.68,0,0,1-29.76,0,27.83,27.83,0,0,1-10.16-10.65,32.69,32.69,0,0,1-3.74-15.88,33.16,33.16,0,0,1,3.75-16,27.58,27.58,0,0,1,10.15-10.72,30.61,30.61,0,0,1,29.76,0,27,27,0,0,1,10,10.69A33.83,33.83,0,0,1,973,224.25Z"/><path class="cls-2" d="M1131.85,172c-4.17,0-9.69,1.81-12.31,10.43l-16.35,51.26-13.47-52.46a12,12,0,0,0-4-6.62,13.21,13.21,0,0,0-15.83.05,13.34,13.34,0,0,0-4,6.4l-15.42,52.11-16.23-50.75c-1.15-3.6-2.67-6.15-4.65-7.81A11.55,11.55,0,0,0,1022,172c-6,0-8.53,2.92-9.6,5.38-1.3,3-1.38,6.71-.19,11.3l26.55,79.66a11.79,11.79,0,0,0,4.47,5.72,12.51,12.51,0,0,0,14.36,0,10.76,10.76,0,0,0,4.36-5.93L1077.25,214l14.65,54.16a10.55,10.55,0,0,0,4.48,5.95,12.5,12.5,0,0,0,7.14,2.25,12,12,0,0,0,7.23-2.31,10.8,10.8,0,0,0,4.17-5.75l26.52-79.55c1.61-4.53,1.61-8.41,0-11.53C1140.23,174.81,1137.58,172,1131.85,172Z"/><path class="cls-2" d="M1254.61,230.54a10.71,10.71,0,0,0,3.29-7.91,59.78,59.78,0,0,0-5.61-26.38,43.58,43.58,0,0,0-16.5-18.33c-7.17-4.41-15.81-6.65-25.67-6.65a52.3,52.3,0,0,0-26.68,6.79,48.64,48.64,0,0,0-18.29,18.76c-4.36,7.92-6.57,17.14-6.57,27.43a53.28,53.28,0,0,0,7,27.3,49.81,49.81,0,0,0,19.3,18.74,58,58,0,0,0,46.26,3.54,52.56,52.56,0,0,0,16.05-8.37,9.4,9.4,0,0,0,4.1-8.22,11.63,11.63,0,0,0-4.33-8.14,11.24,11.24,0,0,0-7.59-2.62,13.37,13.37,0,0,0-7.62,2.69,32.5,32.5,0,0,1-8.57,4.3,31,31,0,0,1-10.34,1.88,33.13,33.13,0,0,1-16.56-4.07,29.85,29.85,0,0,1-11.21-11,29.11,29.11,0,0,1-2.78-6.58h64.25A11.26,11.26,0,0,0,1254.61,230.54ZM1234.49,213h-52a31.87,31.87,0,0,1,1.93-5.09,25.6,25.6,0,0,1,9.85-11,29.75,29.75,0,0,1,15.83-4,24.21,24.21,0,0,1,13.51,3.61,23.94,23.94,0,0,1,8.58,10A32.18,32.18,0,0,1,1234.49,213Z"/></svg>