<svg xmlns="http://www.w3.org/2000/svg" xmlns:xlink="http://www.w3.org/1999/xlink" width="394" height="509" viewBox="0 0 394 509">
    <defs>
        <linearGradient id="rywgasxwcc" x1="33.018%" x2="70.289%" y1="14.636%" y2="91.122%">
            <stop offset=".091%" stop-color="#FFF" stop-opacity=".638"/>
            <stop offset="100%" stop-color="#FFF" stop-opacity=".1"/>
            <stop offset="100%" stop-color="#FFF" stop-opacity=".1"/>
        </linearGradient>
        <filter id="f4o0l2vvha" width="120.4%" height="115.3%" x="-10.2%" y="-7.2%" filterUnits="objectBoundingBox">
            <feMorphology in="SourceAlpha" radius=".5" result="shadowSpreadOuter1"/>
            <feOffset dy="2" in="shadowSpreadOuter1" result="shadowOffsetOuter1"/>
            <feGaussianBlur in="shadowOffsetOuter1" result="shadowBlurOuter1" stdDeviation="12"/>
            <feColorMatrix in="shadowBlurOuter1" values="0 0 0 0 0 0 0 0 0 0 0 0 0 0 0 0 0 0 0.2 0"/>
        </filter>
        <path id="rwbt4xpmjb" d="M20 0h308c11.046 0 20 8.954 20 20v423c0 11.046-8.954 20-20 20H20c-11.046 0-20-8.954-20-20V20C0 8.954 8.954 0 20 0z"/>
    </defs>
    <g fill="none" fill-rule="evenodd">
        <g>
            <g transform="translate(2 -4925) translate(21 4946)">
                <g>
                    <use fill="#000" filter="url(#f4o0l2vvha)" xlink:href="#rwbt4xpmjb"/>
                    <use fill="url(#rywgasxwcc)" xlink:href="#rwbt4xpmjb"/>
                </g>
                <rect width="326" height="412" x="11" y="40" fill="#273245" rx="12"/>
                <circle cx="25" cy="21" r="4" fill="#EC6A5E"/>
                <circle cx="38" cy="21" r="4" fill="#F3BE50"/>
                <circle cx="51" cy="21" r="4" fill="#61C654"/>
                <text font-family="SourceCodePro-Semibold, Source Code Pro" font-size="9" font-weight="500" letter-spacing=".2">
                    <tspan x="29" y="66" fill="#60D1FA">When</tspan> <tspan x="51.4" y="66" fill="#FFF"> </tspan> <tspan x="57" y="66" fill="#00E39C">[</tspan>  <tspan x="29" y="82" fill="#FFF">..</tspan> <tspan x="40.2" y="82" fill="#00E39C">(</tspan> <tspan x="45.8" y="82" fill="#60D1FA">Case</tspan>  <tspan x="29" y="98" fill="#FFF">....</tspan> <tspan x="51.4" y="98" fill="#00E39C">(</tspan> <tspan x="57" y="98" fill="#60D1FA">Deposit</tspan>  <tspan x="29" y="114" fill="#FFF">........</tspan> <tspan x="73.8" y="114" fill="#00E39C">(</tspan> <tspan x="79.4" y="114" fill="#60D1FA">Role</tspan> <tspan x="101.8" y="114" fill="#FFF">.</tspan> <tspan x="107.4" y="114" fill="#EC6A5E">”Seller&quot;</tspan> <tspan x="152.2" y="114" fill="#00E39C">)</tspan>  <tspan x="29" y="130" fill="#FFF">........</tspan> <tspan x="73.8" y="130" fill="#00E39C">(</tspan> <tspan x="79.4" y="130" fill="#60D1FA">Role</tspan> <tspan x="101.8" y="130" fill="#FFF">.</tspan> <tspan x="107.4" y="130" fill="#EC6A5E">”Buyer&quot;</tspan> <tspan x="146.6" y="130" fill="#00E39C">)</tspan>  <tspan x="29" y="146" fill="#FFF">........</tspan> <tspan x="73.8" y="146" fill="#00E39C">(</tspan> <tspan x="79.4" y="146" fill="#60D1FA">Token</tspan> <tspan x="107.4" y="146" fill="#FFF">.</tspan> <tspan x="113" y="146" fill="#EC6A5E">””</tspan> <tspan x="124.2" y="146" fill="#FFF">.</tspan> <tspan x="129.8" y="146" fill="#EC6A5E">””</tspan> <tspan x="141" y="146" fill="#00E39C">)</tspan>  <tspan x="29" y="162" fill="#FFF">........</tspan> <tspan x="73.8" y="162" fill="#00E39C">(</tspan> <tspan x="79.4" y="162" fill="#60D1FA">ConstantParam</tspan> <tspan x="152.2" y="162" fill="#FFF">.</tspan> <tspan x="157.8" y="162" fill="#EC6A5E">”Price&quot;</tspan> <tspan x="197" y="162" fill="#00E39C">))</tspan>  <tspan x="29" y="178" fill="#FFF">.....</tspan> <tspan x="57" y="178" fill="#00E39C">(</tspan> <tspan x="62.6" y="178" fill="#60D1FA">When</tspan> <tspan x="85" y="178" fill="#FFF">.</tspan> <tspan x="90.6" y="178" fill="#00E39C">[</tspan>  <tspan x="29" y="194" fill="#FFF">...........</tspan> <tspan x="90.6" y="194" fill="#00E39C">(</tspan> <tspan x="96.2" y="194" fill="#60D1FA">Case</tspan>  <tspan x="29" y="210" fill="#FFF">..............</tspan> <tspan x="107.4" y="210" fill="#00E39C">(</tspan> <tspan x="113" y="210" fill="#60D1FA">Choice</tspan>  <tspan x="29" y="226" fill="#FFF">.................</tspan> <tspan x="124.2" y="226" fill="#00E39C">(</tspan> <tspan x="129.8" y="226" fill="#60D1FA">ChoiceId</tspan> <tspan x="174.6" y="226" fill="#FFF">.</tspan> <tspan x="180.2" y="226" fill="#EC6A5E">”Everything</tspan> <tspan x="241.8" y="226" fill="#FFF">.</tspan> <tspan x="247.4" y="226" fill="#EC6A5E">is</tspan> <tspan x="258.6" y="226" fill="#FFF">.</tspan> <tspan x="264.2" y="226" fill="#EC6A5E">alright&quot;</tspan>  <tspan x="29" y="242" fill="#FFF">....................</tspan> <tspan x="141" y="242" fill="#00E39C">(</tspan> <tspan x="146.6" y="242" fill="#60D1FA">Role</tspan> <tspan x="169" y="242" fill="#FFF">.</tspan> <tspan x="174.6" y="242" fill="#EC6A5E">”Buyer”</tspan> <tspan x="213.8" y="242" fill="#00E39C">))</tspan> <tspan x="225" y="242" fill="#FFF">.</tspan> <tspan x="230.6" y="242" fill="#00E39C">[</tspan>  <tspan x="29" y="258" fill="#FFF">.................</tspan> <tspan x="124.2" y="258" fill="#00E39C">(</tspan> <tspan x="129.8" y="258" fill="#60D1FA">Bound</tspan> <tspan x="157.8" y="258" fill="#FFF">.</tspan> <tspan x="163.4" y="258" fill="#8701FC">0</tspan> <tspan x="169" y="258" fill="#FFF">.</tspan> <tspan x="174.6" y="258" fill="#8701FC">0</tspan> <tspan x="180.2" y="258" fill="#00E39C">)])</tspan> <tspan x="197" y="258" fill="#FFF">.</tspan> <tspan x="202.6" y="258" fill="#60D1FA">Close</tspan> <tspan x="230.6" y="258" fill="#00E39C">)</tspan>  <tspan x="29" y="274" fill="#FFF">...........</tspan> <tspan x="90.6" y="274" fill="#00E39C">,</tspan>  <tspan x="29" y="290" fill="#FFF">...........</tspan> <tspan x="90.6" y="290" fill="#00E39C">(</tspan> <tspan x="96.2" y="290" fill="#60D1FA">Case</tspan>  <tspan x="29" y="306" fill="#FFF">..............</tspan> <tspan x="107.4" y="306" fill="#00E39C">(</tspan> <tspan x="113" y="306" fill="#60D1FA">Choice</tspan>  <tspan x="29" y="322" fill="#FFF">.................</tspan> <tspan x="124.2" y="322" fill="#00E39C">(</tspan> <tspan x="129.8" y="322" fill="#60D1FA">ChoiceId</tspan> <tspan x="174.6" y="322" fill="#FFF">.</tspan> <tspan x="180.2" y="322" fill="#EC6A5E">”Report</tspan> <tspan x="219.4" y="322" fill="#FFF">.</tspan> <tspan x="225" y="322" fill="#EC6A5E">problem&quot;</tspan>  <tspan x="29" y="338" fill="#FFF">....................</tspan> <tspan x="141" y="338" fill="#00E39C">(</tspan> <tspan x="146.6" y="338" fill="#60D1FA">Role</tspan> <tspan x="169" y="338" fill="#FFF">.</tspan> <tspan x="174.6" y="338" fill="#EC6A5E">”Buyer”</tspan> <tspan x="213.8" y="338" fill="#00E39C">))</tspan> <tspan x="225" y="338" fill="#FFF">.</tspan> <tspan x="230.6" y="338" fill="#00E39C">[</tspan>  <tspan x="29" y="354" fill="#FFF">.................</tspan> <tspan x="124.2" y="354" fill="#00E39C">(</tspan> <tspan x="129.8" y="354" fill="#60D1FA">Bound</tspan> <tspan x="157.8" y="354" fill="#FFF">.</tspan> <tspan x="163.4" y="354" fill="#8701FC">1</tspan> <tspan x="169" y="354" fill="#FFF">.</tspan> <tspan x="174.6" y="354" fill="#8701FC">1</tspan> <tspan x="180.2" y="354" fill="#00E39C">)])</tspan>  <tspan x="29" y="370" fill="#FFF">...............</tspan> <tspan x="113" y="370" fill="#00E39C">(</tspan> <tspan x="118.6" y="370" fill="#60D1FA">Pay</tspan>  <tspan x="29" y="386" fill="#FFF">.................</tspan> <tspan x="124.2" y="386" fill="#00E39C">(</tspan> <tspan x="129.8" y="386" fill="#60D1FA">Role</tspan> <tspan x="152.2" y="386" fill="#FFF">.</tspan> <tspan x="157.8" y="386" fill="#EC6A5E">”Seller&quot;</tspan> <tspan x="202.6" y="386" fill="#00E39C">)</tspan>  <tspan x="29" y="402" fill="#FFF">.................</tspan> <tspan x="124.2" y="402" fill="#00E39C">(</tspan> <tspan x="129.8" y="402" fill="#60D1FA">Account</tspan>  <tspan x="29" y="418" fill="#FFF">....................</tspan> <tspan x="141" y="418" fill="#00E39C">(</tspan> <tspan x="146.6" y="418" fill="#60D1FA">Role</tspan> <tspan x="169" y="418" fill="#FFF">.</tspan> <tspan x="174.6" y="418" fill="#EC6A5E">”Buyer&quot;</tspan> <tspan x="213.8" y="418" fill="#00E39C">))</tspan>  <tspan x="29" y="434" fill="#FFF">.................</tspan> <tspan x="124.2" y="434" fill="#00E39C">(</tspan> <tspan x="129.8" y="434" fill="#60D1FA">Token</tspan> <tspan x="157.8" y="434" fill="#FFF">.</tspan> <tspan x="163.4" y="434" fill="#EC6A5E">””</tspan> <tspan x="174.6" y="434" fill="#FFF">.</tspan> <tspan x="180.2" y="434" fill="#EC6A5E">””</tspan> <tspan x="191.4" y="434" fill="#00E39C">)</tspan>
                </text>
            </g>
        </g>
    </g>
</svg>
