<?xml version="1.0" encoding="UTF-8"?>
<svg width="125px" height="69px" viewBox="0 0 125 69" version="1.1" xmlns="http://www.w3.org/2000/svg" xmlns:xlink="http://www.w3.org/1999/xlink">
    <title>logos/light/logo-demo-2</title>
    <g id="Pages" stroke="none" stroke-width="1" fill="none" fill-rule="evenodd">
        <g id="01-Marlowe-Home-Page-D" transform="translate(-652.000000, -1369.000000)">
            <g id="Run" transform="translate(0.000000, 1278.000000)">
                <g id="Container" transform="translate(184.000000, 91.274346)">
                    <g id="Group" transform="translate(468.000000, 0.000000)">
                        <path d="M6.70524324,68.7256544 C6.07099376,68.7256544 5.43810826,68.6339273 4.82363646,68.4525422 C3.10638894,67.9449397 1.6864885,66.7911095 0.826500765,65.204162 C-0.0328049794,63.6165248 -0.22989971,61.7861213 0.272043963,60.0488241 L12.7081077,17.0046838 C13.1159369,15.5922246 13.9465991,14.3777029 15.1093898,13.4921572 C16.2721805,12.6073012 17.6559356,12.1362516 19.1112994,12.1300445 L19.139261,12.1300445 C20.5891689,12.1300445 21.970878,12.5921283 23.1350327,13.4673289 C24.2991874,14.3418397 25.1359875,15.5473956 25.5540465,16.9522683 L28.2738174,26.0891133 L34.4117156,4.8725702 C34.8209088,3.46011107 35.651571,2.24558932 36.8150437,1.36073333 C37.9778344,0.475877345 39.3622715,0.00551741849 40.8176353,0 L40.8421869,0 C42.2934589,0 43.6751679,0.462773476 44.8400046,1.33797398 C46.0041593,2.21386417 46.8402774,3.41942011 47.2583365,4.82498247 L56.4447241,35.7390783 C56.9596255,37.4715477 56.7768526,39.3040203 55.9291406,40.8978645 C55.0814287,42.4917088 53.6710761,43.6558841 51.9572385,44.1772802 C51.327763,44.3683208 50.6785097,44.4648756 50.0265286,44.4655653 C48.616176,44.4655653 47.2099153,43.9993434 46.0669023,43.1524197 C44.8843339,42.2765295 44.0359399,41.0613181 43.613107,39.6385138 L40.9281175,30.6051204 L34.7956752,51.8023525 C34.387164,53.2148116 33.5565018,54.4293334 32.3937111,55.3134997 C31.2309204,56.1983557 29.8471653,56.6694053 28.3918015,56.6749227 L28.3652039,56.6749227 C26.915296,56.6749227 25.5335869,56.2128389 24.3694322,55.3376384 C23.2052775,54.4631276 22.3684774,53.2575716 21.9511003,51.852699 L19.2347394,42.7303372 L13.1329866,63.8489461 C12.7183375,65.2841646 11.8726715,66.5111005 10.6860112,67.3966462 C9.53822424,68.2539151 8.12514369,68.7256544 6.70524324,68.7256544" id="Fill-1" fill="#00E39C"></path>
                        <path d="M79.2065057,28.7047145 C79.2065057,29.4088751 79.0387365,30.0171704 78.6950142,30.5661536 C78.3471999,31.1192748 77.8814017,31.5379089 77.2710218,31.8461947 C76.657232,32.1572391 75.92955,32.3144856 75.1091177,32.3144856 L71.832844,32.3144856 L71.832844,24.73907 L75.1091177,24.73907 C75.9234122,24.73907 76.6463202,24.9094203 77.2567,25.2439138 C77.8691259,25.5797866 78.3362881,26.0356633 78.6861483,26.6363723 C79.0312346,27.2301844 79.2065057,27.9260688 79.2065057,28.7047145 L79.2065057,28.7047145 Z M79.3776848,35.1035406 C80.51456,34.4780033 81.420241,33.6179757 82.0708582,32.5455275 C82.7501189,31.4248018 83.0945232,30.1330362 83.0945232,28.7047145 C83.0945232,27.181907 82.7514829,25.8218634 82.0749501,24.6632055 C81.3970533,23.5045476 80.4422692,22.5817594 79.2371952,21.9189795 C78.0375771,21.2610273 76.6490481,20.9265338 75.1091177,20.9265338 L69.8305252,20.9265338 C69.2747044,20.9265338 68.7979944,21.1168847 68.4133527,21.4920692 C68.0253012,21.8727711 67.8282064,22.3631316 67.8282064,22.9514264 L67.8282064,43.0286226 C67.8282064,43.594158 68.0232552,44.0783115 68.4078968,44.4672895 C68.7925384,44.8562675 69.2712945,45.0535152 69.8305252,45.0535152 C70.4122616,45.0535152 70.8978375,44.8548881 71.2736133,44.4610824 C71.6452971,44.072794 71.832844,43.5900199 71.832844,43.0286226 L71.832844,36.1270217 L75.1091177,36.1270217 C75.2032321,36.1270217 75.2966645,36.1256424 75.389415,36.1235734 L80.2745,44.0824495 C80.4763686,44.4134946 80.7307504,44.6617785 81.0321894,44.8204043 C81.3240806,44.974892 81.6500711,45.0535152 82.0006133,45.0535152 C83.0174585,45.0535152 83.5112183,44.4990146 83.7458224,44.0334824 C83.9756526,43.5776057 84.13251,42.8451684 83.5794171,41.9437602 L79.3776848,35.1035406 Z" id="Fill-3" fill="#273245"></path>
                        <path d="M101.238218,27.8365487 C100.682398,27.8365487 100.210461,28.0220719 99.8353677,28.3869112 C99.4568639,28.7572679 99.2645431,29.2441801 99.2645431,29.8317852 L99.2645431,38.1948123 C99.2645431,38.8120735 99.1008659,39.3527805 98.7632815,39.8486585 C98.4195592,40.3521229 97.9510329,40.7583428 97.3713425,41.0555937 C96.7868782,41.3562931 96.1048896,41.5080221 95.3437902,41.5080221 C94.5404075,41.5080221 93.8113616,41.3493963 93.1771121,41.0376621 C92.5558204,40.7321351 92.0757004,40.2714306 91.7101545,39.6293411 C91.3439265,38.9858721 91.1584256,38.1437761 91.1584256,37.1271918 L91.1584256,29.8317852 C91.1584256,29.2669395 90.9681508,28.7876137 90.593057,28.4076015 C90.2172812,28.028279 89.7439811,27.8365487 89.1854323,27.8365487 C88.6255196,27.8365487 88.1522195,28.0289687 87.7771257,28.4076015 C87.4020319,28.7869241 87.2124391,29.2662498 87.2124391,29.8317852 L87.2124391,37.1271918 C87.2124391,38.8424193 87.5432036,40.3183287 88.1951848,41.5128498 C88.8539858,42.7170264 89.7664867,43.6439527 90.9081358,44.2688003 C92.038873,44.8881306 93.3339695,45.2019337 94.7572799,45.2019337 C96.1430809,45.2019337 97.3999861,44.8922686 98.4925319,44.2819042 C98.7994269,44.1101746 99.089272,43.9205133 99.3613855,43.7129204 C99.452772,44.0018952 99.6096294,44.2591449 99.8299118,44.4819106 C100.204324,44.8612331 100.678306,45.0536531 101.238218,45.0536531 C101.819955,45.0536531 102.300757,44.8591641 102.666303,44.4757035 C103.027757,44.0977604 103.211212,43.6205037 103.211212,43.0584167 L103.211212,29.8317852 C103.211212,29.2469388 103.026393,28.763475 102.660165,28.3924286 C102.294619,28.0234513 101.816545,27.8365487 101.238218,27.8365487" id="Fill-5" fill="#273245"></path>
                        <path d="M124.016572,31.4071461 C123.358453,30.2036592 122.445952,29.2760432 121.303621,28.6505059 C120.17152,28.0311757 118.876424,27.7173725 117.454477,27.7173725 C116.089818,27.7173725 114.838369,28.0270376 113.736275,28.6367123 C113.425288,28.808442 113.132715,28.9987929 112.857873,29.2063858 C112.769215,28.9063762 112.615085,28.6436091 112.396167,28.4222227 C112.030621,28.0532453 111.552547,27.8663428 110.973539,27.8663428 C110.417718,27.8663428 109.945782,28.0511763 109.572052,28.4167053 C109.192866,28.787062 109.000545,29.2725948 109.000545,29.8615792 L109.000545,43.0882107 C109.000545,43.6544358 109.191502,44.1330718 109.565914,44.511015 C109.939644,44.8910272 110.413626,45.0834472 110.973539,45.0834472 C111.555957,45.0834472 112.036759,44.8889582 112.402305,44.5061873 C112.763759,44.1275544 112.947214,43.6502977 112.947214,43.0882107 L112.947214,34.7251836 C112.947214,34.0886115 113.110209,33.5444561 113.447112,33.0596129 C113.78947,32.565804 114.26277,32.1637221 114.85269,31.8650918 C115.448066,31.5643925 116.125963,31.4112842 116.868649,31.4112842 C117.689081,31.4112842 118.421537,31.5692203 119.046921,31.8809544 C119.661393,32.1871711 120.137421,32.6444272 120.502967,33.277551 C120.868513,33.9113644 121.053331,34.7569088 121.053331,35.7921144 L121.053331,43.0882107 C121.053331,43.6544358 121.244288,44.1330718 121.618018,44.511015 C121.99243,44.8910272 122.466412,45.0834472 123.026325,45.0834472 C123.586237,45.0834472 124.059538,44.8910272 124.434631,44.5117047 C124.809725,44.1323822 125,43.6530564 125,43.0882107 L125,35.7921144 C125,34.076887 124.669235,32.6009775 124.016572,31.4071461" id="Fill-7" fill="#273245"></path>
                        <path d="M75.0839523,55.9727901 C75.0839523,56.7300558 74.9236849,57.4100777 74.6072422,57.9942343 C74.2914814,58.5756323 73.8536447,59.0390955 73.3046438,59.3694509 C72.7563249,59.7011857 72.1138915,59.8687773 71.3950755,59.8687773 L69.859237,59.8687773 L69.859237,52.0905966 L71.3950755,52.0905966 C72.1145735,52.0905966 72.7570069,52.2561191 73.3060078,52.5830262 C73.8543267,52.9099332 74.2921634,53.3685686 74.6072422,53.9451388 C74.9236849,54.5244678 75.0839523,55.2065587 75.0839523,55.9727901 M75.3540198,51.9499024 C74.8629879,51.4478173 74.2757957,51.0553909 73.6101747,50.7829684 C72.9465997,50.5119252 72.2011861,50.3739897 71.3950755,50.3739897 L68.9290044,50.3739897 C68.6705307,50.3739897 68.4488843,50.4622684 68.2702033,50.6374465 C68.0894763,50.8140039 67.9980898,51.0415974 67.9980898,51.3153993 L67.9980898,60.6439746 C67.9980898,60.9067416 68.0887943,61.1315764 68.2674754,61.3122719 C68.4461564,61.493657 68.6684847,61.5846944 68.9290044,61.5846944 L71.3950755,61.5846944 C72.2011861,61.5846944 72.9465997,61.4474486 73.6101747,61.1757158 C74.2757957,60.9039829 74.8629879,60.5115565 75.3540198,60.0094714 C75.8457336,59.5073864 76.2290113,58.9073671 76.4929409,58.2245866 C76.7568705,57.5445647 76.8898583,56.7866094 76.8898583,55.9727901 C76.8898583,55.1582812 76.7568705,54.4030846 76.4929409,53.7272008 C76.2290113,53.049248 75.8457336,52.4512978 75.3540198,51.9499024" id="Fill-9" fill="#273245"></path>
                        <path d="M80.764918,56.3389398 C80.9388251,55.9754799 81.1857051,55.6968503 81.5198795,55.4885677 C81.850644,55.2816645 82.2584733,55.1775232 82.7317734,55.1775232 C83.1396026,55.1775232 83.4887808,55.2713194 83.7683962,55.4575322 C84.0507395,55.6451245 84.2717039,55.9044431 84.4258333,56.2285915 C84.50358,56.3913553 84.563595,56.567223 84.6051963,56.7541256 L80.6101066,56.7541256 C80.6510259,56.6092933 80.7021751,56.4706682 80.764918,56.3389398 M84.6740772,54.0526595 C84.1318962,53.7147177 83.478551,53.5436777 82.7317734,53.5436777 C81.9781759,53.5436777 81.2989152,53.718166 80.7124049,54.0630047 C80.1258946,54.408533 79.6600964,54.8919968 79.3286499,55.4989129 C78.9985673,56.1044495 78.8307981,56.8106791 78.8307981,57.5989803 C78.8307981,58.3803847 79.0081152,59.0838555 79.3579754,59.6893922 C79.7091995,60.2963082 80.2009134,60.7790824 80.8194771,61.1232313 C81.4359949,61.466001 82.1479911,61.6404893 82.93637,61.6404893 C83.3769347,61.6404893 83.842733,61.557728 84.321489,61.3942745 C84.802973,61.230821 85.2128482,61.0142623 85.5374749,60.7535643 C85.8054964,60.5459714 85.8511897,60.303205 85.8423238,60.1356134 C85.829366,59.9087096 85.7222938,59.7038754 85.5183792,59.5218006 C85.3581118,59.3852445 85.169201,59.3190355 84.9536925,59.3245529 C84.7490959,59.33076 84.5581391,59.3983484 84.384232,59.527318 C84.2205547,59.65146 83.9995904,59.7631877 83.7274769,59.8611219 C83.4574094,59.9576767 83.1914338,60.0066438 82.93637,60.0066438 C82.4596599,60.0066438 82.033417,59.9004335 81.669917,59.6914612 C81.3057351,59.482489 81.0179358,59.1948936 80.8112933,58.8362614 C80.7164968,58.6714285 80.643524,58.4941814 80.5916929,58.3052098 L85.4979195,58.3052098 C85.7379795,58.3052098 85.9412122,58.2265866 86.1014795,58.0707196 C86.2637928,57.9120938 86.3469954,57.7120874 86.3469954,57.4748384 C86.3469954,56.7182623 86.2037778,56.0389302 85.9221165,55.4540838 C85.6370452,54.8623407 85.2169402,54.3906014 84.6740772,54.0526595" id="Fill-11" fill="#273245"></path>
                        <path d="M97.898588,53.9034823 C97.4662072,53.6551985 96.9663095,53.5296772 96.4125346,53.5296772 C95.787151,53.5296772 95.2211004,53.6689921 94.7307505,53.9434836 C94.4702309,54.0903849 94.2383547,54.267632 94.0371681,54.4752248 C93.8455292,54.2434933 93.619791,54.0524526 93.3606353,53.9034823 C92.9289364,53.6551985 92.4290387,53.5296772 91.8745819,53.5296772 C91.3003475,53.5296772 90.7799901,53.6703714 90.3291956,53.9483114 C90.2494029,53.9972785 90.1723382,54.0503836 90.0986834,54.1062475 C90.0570821,54.0193481 90.001841,53.9407249 89.9329601,53.8710675 C89.7638269,53.6993379 89.5414986,53.6124385 89.2727951,53.6124385 C89.0136394,53.6124385 88.794721,53.6986482 88.6208139,53.8683088 C88.4448608,54.0400384 88.3555203,54.2662526 88.3555203,54.5393648 L88.3555203,60.6712858 C88.3555203,60.9347425 88.4441788,61.1575083 88.618086,61.333376 C88.7919931,61.5092437 89.0122754,61.5989018 89.2727951,61.5989018 C89.5428626,61.5989018 89.7658729,61.508554 89.9363701,61.3306173 C90.1041393,61.1547496 90.1893879,60.9333632 90.1893879,60.6712858 L90.1893879,56.7856438 C90.1893879,56.3263187 90.3210117,55.9621691 90.5917612,55.671815 C90.8591008,55.3855989 91.1898653,55.2462841 91.6024684,55.2462841 C92.0000678,55.2462841 92.3096907,55.3628395 92.5504327,55.6021576 C92.7870828,55.8373375 92.9071128,56.2173497 92.9071128,56.7304696 L92.9071128,60.6712858 C92.9071128,60.9347425 92.9950893,61.1575083 93.1689965,61.333376 C93.3429036,61.5092437 93.5631859,61.5989018 93.8237056,61.5989018 C94.0937731,61.5989018 94.3174654,61.508554 94.4872806,61.3306173 C94.6550498,61.1547496 94.7402984,60.9326735 94.7402984,60.6712858 L94.7402984,56.7856438 C94.7402984,56.3256291 94.8705582,55.9607898 95.1378978,55.6711253 C95.4004634,55.3849092 95.727818,55.2462841 96.1397392,55.2462841 C96.5373386,55.2462841 96.8476434,55.3628395 97.0883854,55.6021576 C97.3243535,55.8373375 97.4443835,56.21666 97.4443835,56.7304696 L97.4443835,60.6712858 C97.4443835,60.9347425 97.5323601,61.1575083 97.7069492,61.333376 C97.8808563,61.5092437 98.1011386,61.5989018 98.3609763,61.5989018 C98.6317258,61.5989018 98.8547361,61.508554 99.0245513,61.3306173 C99.1923205,61.1547496 99.2775691,60.9333632 99.2775691,60.6712858 L99.2775691,56.7304696 C99.2775691,56.064931 99.1575391,55.4856021 98.920207,55.0104144 C98.6787831,54.5269506 98.3350608,54.1545249 97.898588,53.9034823" id="Fill-13" fill="#273245"></path>
                        <path d="M105.419423,59.9514006 C104.98977,59.9514006 104.606492,59.8507077 104.27982,59.6527703 C103.952465,59.4541433 103.690582,59.1762033 103.501671,58.8272266 C103.312078,58.4775602 103.215917,58.0637538 103.215917,57.5989113 C103.215917,57.1333791 103.312078,56.7175037 103.502353,56.3616302 C103.691263,56.0092051 103.953147,55.7298858 104.280502,55.5312587 C104.606492,55.3326317 104.98977,55.2326285 105.419423,55.2326285 C105.849076,55.2326285 106.232353,55.3326317 106.559026,55.5312587 C106.885699,55.7291961 107.144172,56.0085154 107.328991,56.3602509 C107.515174,56.7161243 107.609289,57.1333791 107.609289,57.5989113 C107.609289,58.0644435 107.515174,58.4782499 107.328991,58.8292956 C107.144854,59.1775827 106.885699,59.4541433 106.559026,59.6527703 C106.232353,59.8507077 105.849076,59.9514006 105.419423,59.9514006 M108.875741,55.4967749 C108.534747,54.8898588 108.060083,54.4070847 107.464707,54.0622461 C106.869331,53.7180971 106.181886,53.5436087 105.419423,53.5436087 C104.648094,53.5436087 103.955875,53.7180971 103.360499,54.0622461 C102.765123,54.4070847 102.290459,54.8898588 101.949464,55.4967749 C101.609152,56.1023115 101.436609,56.8099205 101.436609,57.5989113 C101.436609,58.3789363 101.609152,59.0817175 101.949464,59.6872542 C102.290459,60.2941702 102.765123,60.7769444 103.360499,61.1210933 C103.955193,61.465932 104.648094,61.6404204 105.419423,61.6404204 C106.190752,61.6404204 106.883653,61.465932 107.478347,61.1210933 C108.074405,60.7762547 108.546341,60.2934806 108.883243,59.6858749 C109.218782,59.0803382 109.388597,58.3782467 109.388597,57.5989113 C109.388597,56.8099205 109.216054,56.1030012 108.875741,55.4967749" id="Fill-15" fill="#273245"></path>
                    </g>
                </g>
            </g>
        </g>
    </g>
</svg>