<?xml version="1.0" encoding="UTF-8"?>
<svg width="203px" height="70px" viewBox="0 0 203 70" version="1.1" xmlns="http://www.w3.org/2000/svg" xmlns:xlink="http://www.w3.org/1999/xlink">
    <title>logos/light/marlowe</title>
    <g id="Pages" stroke="none" stroke-width="1" fill="none" fill-rule="evenodd">
        <g id="01-Marlowe-Home-Page-D" transform="translate(-618.000000, -150.000000)">
            <g id="Group-4" transform="translate(0.000000, 70.000000)">
                <g id="logos/light/marlowe" transform="translate(618.148366, 80.000000)">
                    <path d="M6.7784652,69.1670606 C6.13728965,69.1670606 5.49749298,69.0740502 4.87631107,68.8921942 C3.1396216,68.3806374 1.70490513,67.2200907 0.83552624,65.6229506 C-0.0331632132,64.0251165 -0.232410239,62.1829567 0.275014712,60.4345014 L12.8468815,17.1139002 C13.2591643,15.6923693 14.0988974,14.470047 15.2743859,13.5788137 C16.4498745,12.6882745 17.8487402,12.2141995 19.3199968,12.2079525 L19.3475743,12.2079525 C20.8140048,12.2079525 22.2108023,12.6730042 23.3876697,13.5538258 C24.564537,14.4339534 25.4097857,15.6472523 25.8330994,17.0611481 L28.5825705,26.2566766 L34.7874952,4.9038654 C35.2011568,3.48164032 36.0408899,2.26001213 37.2163784,1.36947296 C38.3925564,0.478933776 39.7921116,0.00555285537 41.2633682,0 L41.2881879,0 C42.7553079,0 44.1521054,0.465745744 45.3296622,1.34656743 C46.5065296,2.22808322 47.3517782,3.44138211 47.7744025,4.85597202 L57.0611064,35.9679265 C57.5816306,37.7122172 57.3968618,39.5564593 56.5398927,41.1605404 C55.6829237,42.7646215 54.2571699,43.936274 52.524617,44.4610188 C51.8882675,44.6532864 51.2319244,44.7504614 50.5728235,44.7504614 C49.1470697,44.7511555 47.7254525,44.2819392 46.5699577,43.4295759 C45.3744755,42.5480602 44.516817,41.3250438 44.0893667,39.8931012 L41.3750568,30.8016887 L35.1756477,52.1350649 C34.7626755,53.5565959 33.9229423,54.7789182 32.7474538,55.6687633 C31.5719653,56.5593025 30.1730995,57.0333775 28.7018429,57.0389303 L28.6749549,57.0389303 C27.2092138,57.0389303 25.8124163,56.5738787 24.635549,55.693057 C23.4586816,54.8129294 22.6127435,53.5996306 22.1901192,52.1857348 L19.4447848,43.0047825 L13.2764002,64.2590305 C12.8572231,65.703467 12.0023223,66.9375891 10.8027036,67.8295165 C9.64238265,68.6922914 8.21387111,69.1670606 6.7784652,69.1670606" id="Fill-1" fill="#00E39C"></path>
                    <path d="M90.9634359,21.1086244 C90.2036774,21.1086244 89.5921476,21.4792775 89.1791754,22.2101721 L81.2678964,38.5834602 L73.1339296,22.1796314 C72.7354356,21.4792775 72.1239058,21.1086244 71.3648366,21.1086244 C70.8077723,21.1086244 70.3293037,21.2988097 69.9432195,21.6736274 C69.5536881,22.053998 69.3558199,22.5440375 69.3558199,23.131252 L69.3558199,42.8334769 C69.3558199,43.3991741 69.5516198,43.8822725 69.937704,44.2709724 C70.3237882,44.6596722 70.8043251,44.8567986 71.3648366,44.8567986 C71.9253482,44.8567986 72.4058851,44.6596722 72.7919693,44.2709724 C73.1780535,43.8829666 73.3738534,43.3991741 73.3738534,42.8334769 L73.3738534,30.7955806 L79.3216184,42.7939128 C79.6952927,43.5720067 80.3330211,43.9836121 81.164481,43.9836121 C81.8725319,43.9836121 82.4695835,43.6421115 82.8887606,42.9958979 L88.9544192,30.558196 L88.9544192,42.8334769 C88.9544192,43.3991741 89.1502191,43.8822725 89.5363033,44.2709724 C89.9223875,44.6596722 90.4029244,44.8567986 90.9634359,44.8567986 C91.5018855,44.8567986 91.9755281,44.6617545 92.370575,44.2765252 C92.7704479,43.8871312 92.9731421,43.4019505 92.9731421,42.8334769 L92.9731421,23.131252 C92.9731421,22.5440375 92.7752739,22.053998 92.3850531,21.6729333 C91.9996584,21.2988097 91.5211897,21.1086244 90.9634359,21.1086244" id="Fill-22" fill="#FFFFFF"></path>
                    <path d="M111.183631,36.402021 C111.183631,37.3397595 110.980937,38.193511 110.579685,38.9389818 C110.181191,39.680288 109.628952,40.2716671 108.939516,40.6971546 C108.253527,41.1205599 107.457229,41.3350389 106.573372,41.3350389 C105.70744,41.3350389 104.915278,41.1198658 104.218948,40.6957664 C103.518481,40.2695848 102.95659,39.6768175 102.549823,38.9348172 C102.140987,38.1907345 101.933467,37.3390654 101.933467,36.402021 C101.933467,35.4469299 102.140987,34.5848491 102.549823,33.8393783 C102.95659,33.0994603 103.517791,32.5073871 104.218948,32.0798172 C104.915967,31.6550238 105.708129,31.4405447 106.573372,31.4405447 C107.456539,31.4405447 108.252838,31.6550238 108.939516,32.078429 C109.629642,32.5046106 110.181191,33.0966839 110.579685,33.8359077 C110.980247,34.5820727 111.183631,35.4462358 111.183631,36.402021 M110.876832,28.9355129 L110.876832,28.9348188 C109.60758,28.183101 108.159075,27.8020363 106.573372,27.8020363 C104.986979,27.8020363 103.534338,28.183101 102.256812,28.9341246 C100.980666,29.6844542 99.9561643,30.7207559 99.2122628,32.0145712 C98.4669824,33.3090806 98.0891714,34.785446 98.0891714,36.402021 C98.0891714,38.0137373 98.4352683,39.4803852 99.11781,40.7610125 C99.8010412,42.0458044 100.750395,43.0793296 101.938982,43.8324356 C103.132396,44.5890121 104.49748,44.9735474 105.994935,44.9735474 C107.49239,44.9735474 108.856784,44.5890121 110.050887,43.8324356 C110.413531,43.6026862 110.754802,43.3458666 111.07401,43.062671 C111.109172,43.5547928 111.297388,43.9747275 111.635211,44.3148399 C112.011644,44.6938223 112.486665,44.8853958 113.048555,44.8853958 C113.609067,44.8853958 114.084088,44.6938223 114.46121,44.3148399 C114.837642,43.9358575 115.028616,43.4569238 115.028616,42.8919207 L115.028616,36.402021 C115.028616,34.7861401 114.650805,33.3097747 113.905524,32.0145712 C113.160933,30.7207559 112.141947,29.6851483 110.876832,28.9355129" id="Fill-24" fill="#FFFFFF"></path>
                    <path d="M130.974307,28.3964 C130.314517,27.9570303 129.377573,27.7439395 128.108321,27.7439395 C126.870094,27.7439395 125.717357,28.0396291 124.681134,28.6240671 C124.33228,28.8211935 124.003419,29.0446959 123.697999,29.2931862 C123.621471,28.9447445 123.471174,28.655996 123.247797,28.4311054 C122.909284,28.090993 122.42461,27.9181603 121.806875,27.9181603 C121.207066,27.9181603 120.726529,28.0958517 120.379743,28.4463757 C120.031578,28.7962056 119.855771,29.279304 119.855771,29.883177 L119.855771,42.892129 C119.855771,43.5189075 120.034335,44.0103352 120.385948,44.3497535 C120.732045,44.6863953 121.209824,44.8571456 121.806875,44.8571456 C122.428747,44.8571456 122.916178,44.6766778 123.255381,44.3219892 C123.589068,43.9721593 123.75798,43.4911432 123.75798,42.892129 L123.75798,34.3934838 C123.75798,33.6334367 123.98963,33.0267873 124.46603,32.5395242 C124.959667,32.0328262 125.657376,31.6788316 126.538475,31.4872581 C127.447841,31.2894377 128.496474,31.3095668 129.641627,31.5441749 C129.959457,31.6170561 130.260741,31.6281618 130.540652,31.577492 C130.843314,31.5226576 131.114952,31.3893891 131.347981,31.1818511 C131.59411,30.9632074 131.760264,30.6598827 131.836102,30.3017235 C131.969163,29.7825315 131.927108,29.0301196 130.974307,28.3964" id="Fill-26" fill="#FFFFFF"></path>
                    <path d="M140.335539,40.9274593 L139.61301,40.9274593 C139.452371,40.9274593 139.238646,40.8767895 139.009064,40.4818427 C138.786376,40.0980015 138.673309,39.5871388 138.673309,38.9631367 L138.673309,23.072947 C138.673309,22.5093322 138.48785,22.0359512 138.120381,21.6652981 C137.753601,21.2960333 137.283405,21.1086244 136.722204,21.1086244 C136.161003,21.1086244 135.690119,21.2960333 135.324028,21.6652981 C134.957248,22.034563 134.7711,22.5086381 134.7711,23.072947 L134.7711,38.9631367 C134.7711,40.0806489 134.971037,41.0871039 135.366084,41.9540435 C135.767335,42.8390298 136.340257,43.5491012 137.066233,44.0648226 C137.805998,44.5902615 138.662278,44.8567986 139.61301,44.8567986 L139.670923,44.8567986 C140.356911,44.8567986 140.934659,44.6860483 141.386929,44.3494064 C141.881255,43.982918 142.142551,43.4789964 142.142551,42.8917819 C142.142551,42.3378846 141.977776,41.8714447 141.652362,41.5042622 C141.316606,41.126668 140.860889,40.9274593 140.335539,40.9274593" id="Fill-28" fill="#FFFFFF"></path>
                    <path d="M156.884349,36.402021 C156.884349,37.3793236 156.685791,38.2483454 156.294192,38.9840988 C155.906728,39.712911 155.360695,40.2931844 154.673327,40.7089545 C153.98527,41.1247245 153.17794,41.3350389 152.27409,41.3350389 C151.36886,41.3350389 150.56222,41.1247245 149.874852,40.7089545 C149.185416,40.2924903 148.634557,39.7115228 148.236752,38.9806282 C147.836879,38.245569 147.634185,37.3779353 147.634185,36.402021 C147.634185,35.4254126 147.837569,34.5522261 148.238131,33.8067552 C148.635936,33.0675314 149.186106,32.4823992 149.874852,32.0659351 C150.561531,31.6508591 151.368171,31.4405447 152.27409,31.4405447 C153.17863,31.4405447 153.98596,31.6508591 154.672638,32.0659351 C155.360006,32.4817051 155.90535,33.065449 156.292813,33.8025906 C156.685102,34.5494496 156.884349,35.4240244 156.884349,36.402021 M156.629947,28.9021957 L156.629257,28.9021957 C155.361385,28.1719952 153.895643,27.8020363 152.27409,27.8020363 C150.631853,27.8020363 149.157149,28.1719952 147.888587,28.9021957 C146.619335,29.6344785 145.607932,30.6575921 144.881267,31.9451605 C144.157359,33.2299524 143.789889,34.7299174 143.789889,36.402021 C143.789889,38.0560778 144.157359,39.5456313 144.881267,40.8297291 C145.607932,42.1179915 146.619335,43.1417992 147.888587,43.8726938 C149.155081,44.6028943 150.630474,44.9735474 152.27409,44.9735474 C153.916326,44.9735474 155.39172,44.6028943 156.658903,43.8726938 C157.928155,43.1411051 158.935421,42.1166033 159.653124,40.8269526 C160.36669,39.5435489 160.729334,38.0546896 160.729334,36.402021 C160.729334,34.7299174 160.361864,33.2306465 159.637267,31.9451605 C158.910601,30.6575921 157.898509,29.6344785 156.629947,28.9021957" id="Fill-30" fill="#FFFFFF"></path>
                    <path d="M182.49814,27.9183686 C181.82594,27.9183686 180.935878,28.213364 180.512564,29.6119895 L177.87685,37.9329432 L175.705816,29.4169454 C175.603779,28.9796581 175.387296,28.6187225 175.061882,28.343162 C174.727506,28.0613546 174.302124,27.9183686 173.796767,27.9183686 C173.268659,27.9183686 172.835693,28.0634369 172.51028,28.3501031 C172.206238,28.6173342 171.989755,28.9671641 171.866346,29.3891811 L169.37955,37.8482622 L166.76314,29.6106013 C166.576993,29.0268573 166.332243,28.6117814 166.013723,28.343162 C165.679347,28.0613546 165.263617,27.9183686 164.778254,27.9183686 C163.811665,27.9183686 163.402829,28.3938318 163.23047,28.7922492 C163.020881,29.2753476 163.007093,29.8819971 163.199445,30.6267738 L167.481533,43.5579857 C167.613215,43.9307211 167.855897,44.2430693 168.200615,44.4860067 C168.908665,44.9899283 169.84492,44.9656346 170.517809,44.488089 C170.873558,44.2368223 171.109345,43.9133685 171.219655,43.5260568 L173.69542,34.7331103 L176.056739,43.5260568 C176.166359,43.9161449 176.410419,44.2409869 176.778578,44.4915595 C177.13157,44.7338028 177.519722,44.8566598 177.930626,44.8566598 C178.367039,44.8566598 178.759328,44.7303323 179.095773,44.4825361 C179.438423,44.2305753 179.667315,43.9092038 179.769352,43.5482682 L184.044545,30.6357972 C184.303773,29.9000438 184.304462,29.2697948 184.046613,28.7624026 C183.850124,28.3778674 183.421984,27.9183686 182.49814,27.9183686" id="Fill-32" fill="#FFFFFF"></path>
                    <g id="Group-36" transform="translate(186.807736, 27.801967)" fill="#FFFFFF">
                        <path d="M12.2395586,6.78142462 L3.85808427,6.78142462 C3.94150604,6.49128793 4.04630032,6.21433926 4.17039881,5.95474328 C4.53579993,5.19330798 5.0549453,4.61095228 5.75817009,4.17366492 C6.45450053,3.7412363 7.31353788,3.52189852 8.31046244,3.52189852 C9.16881035,3.52189852 9.90237034,3.71902488 10.4897699,4.10703065 C11.0916476,4.50614213 11.5446071,5.0343575 11.8727786,5.72152335 C12.0292806,6.04983592 12.1520002,6.40452456 12.2395586,6.78142462 M15.4840448,9.62171014 C15.8308311,9.28506828 16.0149106,8.84222807 16.0149106,8.33830644 C16.0149106,6.73630767 15.7108693,5.29464759 15.1110599,4.05497263 C14.5022878,2.79933321 13.6067104,1.79843103 12.4498366,1.08003037 C11.2936523,0.36301792 9.90099146,0 8.31046244,0 C6.7061447,0 5.25901838,0.370653096 4.00907077,1.10224179 C2.75912317,1.8352187 1.76702466,2.85972051 1.06035268,4.14867707 C0.357127887,5.43277487 0,6.9299635 0,8.59998475 C0,10.256818 0.378500405,11.7484537 1.1237808,13.0332457 C1.87112951,14.3215081 2.9183829,15.3446217 4.23658468,16.0748222 C5.54927096,16.8022462 7.06603033,17.1715111 8.74480717,17.1715111 C9.68106136,17.1715111 10.6738493,16.9959021 11.6955936,16.6495427 C12.7200956,16.3024893 13.5929216,15.8429905 14.2837366,15.2911755 C14.8649312,14.8434765 14.96421,14.3187317 14.9442163,13.9550196 C14.9173283,13.4670625 14.6842989,13.0249164 14.2458176,12.6348283 C13.8983418,12.3398328 13.4839907,12.2037879 13.0220686,12.2086466 C12.5822084,12.2218347 12.1699256,12.3675971 11.7941829,12.6452399 C11.4508438,12.9041418 10.9861638,13.1387499 10.4111742,13.3442056 C9.8423894,13.5461907 9.28187787,13.6496126 8.74480717,13.6496126 C7.73960937,13.6496126 6.84127417,13.4268043 6.07531069,12.9888228 C5.30934721,12.5508413 4.70126459,11.9483565 4.2676093,11.1959446 C4.07663551,10.8655497 3.92633844,10.5080847 3.81878642,10.1284082 L14.1789423,10.1284082 C14.6980877,10.1284082 15.1372584,9.95765789 15.4840448,9.62171014" id="Fill-34"></path>
                    </g>
                </g>
            </g>
        </g>
    </g>
</svg>