<?xml version="1.0" encoding="UTF-8"?>
<svg width="157px" height="56px" viewBox="0 0 157 56" version="1.1" xmlns="http://www.w3.org/2000/svg" xmlns:xlink="http://www.w3.org/1999/xlink">
    <title>marlowe-prototype-logo@1x</title>
    <defs>
        <polygon id="path-1" points="0 -3.79205318e-15 7.67776736 -3.79205318e-15 7.67776736 11.4097342 0 11.4097342"></polygon>
        <polygon id="path-3" points="0 0 12.3967331 0 12.3967331 13.2028095 0 13.2028095"></polygon>
    </defs>
    <g id="Marlowe-Phase-01" stroke="none" stroke-width="1" fill="none" fill-rule="evenodd">
        <g id="Marlowe---Phase-One---Single-Page---Desktop---Final-02" transform="translate(-136.000000, -26.000000)">
            <g id="marlowe-prototype-logo" transform="translate(136.000000, 26.000000)">
                <path d="M5.24712708,53.1810809 C4.75080092,53.1810809 4.25554213,53.1095672 3.77469281,52.969742 C2.43034271,52.5764169 1.31974623,51.6840972 0.646770652,50.4560902 C-0.0256712381,49.2275495 -0.179905926,47.8111521 0.212885528,46.466802 L9.944614,13.1585137 C10.2637571,12.0655288 10.9137842,11.1257112 11.8237155,10.4404609 C12.7336468,9.75574425 13.8164917,9.39123805 14.9553734,9.3864349 L14.9767208,9.3864349 C16.1118668,9.3864349 17.1931106,9.7440032 18.1041093,10.4212482 C19.0151079,11.0979596 19.6694046,12.0308393 19.9970866,13.1179537 L22.1254185,20.1881999 L26.9285749,3.77047774 C27.2487853,2.67695914 27.8988125,1.73767523 28.8087438,1.05295861 C29.7192087,0.368241988 30.8025873,0.00426947232 31.9414691,0 L31.9606817,0 C33.0963613,0 34.1776052,0.358101991 35.0891375,1.03534704 C36.0001362,1.71312577 36.6544328,2.64600547 36.9815811,3.73365354 L44.1703052,27.6549733 C44.5732366,28.9961213 44.4302093,30.4141198 43.76684,31.6474636 C43.1034708,32.8808074 41.9998122,33.781666 40.6586642,34.1851312 C40.1660738,34.3329617 39.6580066,34.4076774 39.1478047,34.4076774 C38.0441461,34.4082111 36.9436896,34.0474407 36.0492351,33.3920767 C35.123827,32.714298 34.4599241,31.7739467 34.12904,30.6729565 L32.0279259,23.682763 L27.229039,40.0855419 C26.9093623,41.1785268 26.2593351,42.1183444 25.3494038,42.8025274 C24.4394725,43.487244 23.3566276,43.8517502 22.2177459,43.8560197 L22.1969322,43.8560197 C21.0623199,43.8560197 19.9810761,43.4984514 19.0700774,42.8212063 C18.1590787,42.144495 17.5042484,41.2116153 17.1771001,40.1245009 L15.0519703,33.0654621 L10.2770992,49.4074011 C9.95261926,50.5179975 9.29085105,51.4668878 8.36224082,52.1526718 C7.46405058,52.816041 6.35825725,53.1810809 5.24712708,53.1810809" id="Fill-1" fill="#00E39C"></path>
                <path d="M59.3097473,46.1177193 C59.1165537,46.4560749 58.850779,46.7213159 58.5124233,46.9145095 C58.1740676,47.1082368 57.7828772,47.2043 57.3383184,47.2043 L55.1950433,47.2043 L55.1950433,42.596472 L57.3383184,42.596472 C57.7828772,42.596472 58.1740676,42.6984056 58.5124233,42.9006719 C58.850779,43.1034718 59.1165537,43.3815212 59.3097473,43.7342863 C59.5029409,44.0870515 59.599004,44.4947861 59.599004,44.9585575 C59.599004,45.3929763 59.5029409,45.7798973 59.3097473,46.1177193 M59.2665189,41.6833386 C58.7056169,41.3647292 58.0630614,41.2056914 57.3383184,41.2056914 L54.4404141,41.2056914 C54.2280078,41.2056914 54.0492237,41.275604 53.9040616,41.4154292 C53.7599669,41.5557881 53.6873859,41.7372407 53.6873859,41.9592532 L53.6873859,51.7688996 C53.6873859,51.9818395 53.7599669,52.16009 53.9040616,52.305252 C54.0492237,52.4498804 54.2280078,52.5224614 54.4404141,52.5224614 C54.6629603,52.5224614 54.8438792,52.4498804 54.9847718,52.305252 C55.124597,52.16009 55.1950433,51.9818395 55.1950433,51.7688996 L55.1950433,48.5956143 L57.3383184,48.5956143 C58.0630614,48.5956143 58.7056169,48.4408459 59.2665189,48.1318428 C59.8263534,47.8228398 60.2634407,47.3932241 60.5772469,46.8424622 C60.8910531,46.2917003 61.0484899,45.6635541 61.0484899,44.9585575 C61.0484899,44.224742 60.8910531,43.5747148 60.5772469,43.0095434 C60.2634407,42.444372 59.8263534,42.0024816 59.2665189,41.6833386" id="Fill-3" fill="#00E39C"></path>
                <path d="M68.4746499,44.7918346 C68.189129,44.6034442 67.7573786,44.5095158 67.1777977,44.5095158 C66.5982168,44.5095158 66.0666675,44.6445378 65.5842172,44.914582 C65.2570688,45.0976356 64.9795531,45.3276534 64.7436648,45.5966302 L64.7436648,45.3207155 C64.7436648,45.0789566 64.6833585,44.8980378 64.5611449,44.7768915 C64.441066,44.6562789 64.2601471,44.5959726 64.0189219,44.5959726 C63.7862356,44.5959726 63.6079852,44.6589473 63.4825694,44.7843631 C63.3571537,44.9097788 63.2941789,45.0890966 63.2941789,45.3207155 L63.2941789,51.797505 C63.2941789,52.0397976 63.3571537,52.2201828 63.4825694,52.3418627 C63.6079852,52.4624753 63.7862356,52.5227816 64.0189219,52.5227816 C64.2601471,52.5227816 64.441066,52.4598069 64.5611449,52.3343912 C64.6833585,52.2089754 64.7436648,52.0296576 64.7436648,51.797505 L64.7436648,47.566458 C64.7436648,47.1224328 64.8850911,46.7552582 65.170612,46.4654678 C65.456133,46.1756773 65.8451887,45.9782143 66.3372453,45.8714774 C66.829302,45.7652743 67.3854008,45.7748806 68.0034069,45.9002964 C68.1288227,45.929649 68.2446321,45.9344522 68.3513689,45.9147059 C68.457572,45.8954932 68.5520341,45.8495964 68.6347551,45.7775491 C68.7158751,45.704968 68.7713783,45.6008996 68.8007309,45.4653439 C68.8685087,45.2049061 68.7585698,44.9802251 68.4746499,44.7918346" id="Fill-5" fill="#00E39C"></path>
                <path d="M76.3141483,49.972359 C76.0964052,50.3779588 75.7948737,50.6965682 75.4084864,50.9287208 C75.0220992,51.1603397 74.5780741,51.2766828 74.0758774,51.2766828 C73.5726133,51.2766828 73.1285882,51.1603397 72.742201,50.9287208 C72.3558137,50.6965682 72.0516138,50.3779588 71.8290676,49.972359 C71.6075887,49.5662254 71.4955151,49.0981845 71.4955151,48.5666352 C71.4955151,48.0356196 71.6075887,47.5649103 71.8290676,47.1539736 C72.0516138,46.7435705 72.3558137,46.4222927 72.742201,46.1901402 C73.1285882,45.9585213 73.5726133,45.8427119 74.0758774,45.8427119 C74.5780741,45.8427119 75.0220992,45.9585213 75.4084864,46.1901402 C75.7948737,46.4222927 76.0964052,46.7435705 76.3141483,47.1539736 C76.5318914,47.5649103 76.6402292,48.0356196 76.6402292,48.5666352 C76.6402292,49.0981845 76.5318914,49.5662254 76.3141483,49.972359 M76.1332294,45.0528595 C75.5339022,44.7102343 74.8486519,44.5383881 74.0758774,44.5383881 C73.2929629,44.5383881 72.6013084,44.7102343 72.0035823,45.0528595 C71.4042551,45.3954847 70.9330121,45.8693961 70.5898532,46.4729927 C70.2477618,47.0760557 70.0753818,47.7746481 70.0753818,48.5666352 C70.0753818,49.349016 70.2477618,50.0422716 70.5898532,50.6458682 C70.9330121,51.2494649 71.4042551,51.7233763 72.0035823,52.0660015 C72.6013084,52.4091603 73.2929629,52.5804729 74.0758774,52.5804729 C74.8571908,52.5804729 75.5488453,52.4091603 76.1476388,52.0660015 C76.7458987,51.7233763 77.2150069,51.2494649 77.5533626,50.6458682 C77.8906509,50.0422716 78.0603624,49.349016 78.0603624,48.5666352 C78.0603624,47.7746481 77.8879825,47.0760557 77.545891,46.4729927 C77.2027322,45.8693961 76.7314892,45.3954847 76.1332294,45.0528595" id="Fill-7" fill="#00E39C"></path>
                <path d="M84.3629575,51.0735626 L83.8709008,51.0735626 C83.5618977,51.0735626 83.3009262,50.9433437 83.0879863,50.6823722 C82.8750464,50.4214007 82.7693769,50.0979882 82.7693769,49.711601 L82.7693769,46.1321821 L84.0011197,46.1321821 C84.2044533,46.1321821 84.3677606,46.0740105 84.4937101,45.9582011 C84.6185921,45.8423917 84.6815669,45.6977633 84.6815669,45.5232486 C84.6815669,45.330055 84.6185921,45.1758203 84.4937101,45.0600109 C84.3677606,44.9436677 84.2044533,44.8860299 84.0011197,44.8860299 L82.7693769,44.8860299 L82.7693769,42.799859 C82.7693769,42.586919 82.7015991,42.4134717 82.566577,42.277916 C82.4310213,42.1423602 82.2575739,42.0745823 82.044634,42.0745823 C81.8316941,42.0745823 81.6582468,42.1423602 81.522691,42.277916 C81.387669,42.4134717 81.3198911,42.586919 81.3198911,42.799859 L81.3198911,44.8860299 L80.6543871,44.8860299 C80.4510535,44.8860299 80.2861451,44.9436677 80.1607293,45.0600109 C80.0353136,45.1758203 79.9723389,45.330055 79.9723389,45.5232486 C79.9723389,45.6977633 80.0353136,45.8423917 80.1607293,45.9582011 C80.2861451,46.0740105 80.4510535,46.1321821 80.6543871,46.1321821 L81.3198911,46.1321821 L81.3198911,49.711601 C81.3198911,50.2431503 81.4319647,50.7213312 81.6534436,51.1461437 C81.8759899,51.5714898 82.1801898,51.9066434 82.566577,52.1526718 C82.9529642,52.3992338 83.3868494,52.5225148 83.8709008,52.5225148 L84.1313386,52.5225148 C84.3827038,52.5225148 84.5881721,52.4547369 84.7466763,52.3197149 C84.9067815,52.1846928 84.9868341,52.0107118 84.9868341,51.7977719 C84.9868341,51.5853656 84.9265278,51.4119183 84.8059152,51.2768962 C84.6842353,51.1413405 84.5380058,51.0735626 84.3629575,51.0735626" id="Fill-9" fill="#00E39C"></path>
                <path d="M93.3542527,49.972359 C93.1365096,50.3779588 92.8349781,50.6965682 92.4485909,50.9287208 C92.0622037,51.1603397 91.6181785,51.2766828 91.1159818,51.2766828 C90.6127178,51.2766828 90.1686927,51.1603397 89.7823054,50.9287208 C89.3959182,50.6965682 89.0917183,50.3779588 88.869172,49.972359 C88.6476932,49.5662254 88.5356195,49.0981845 88.5356195,48.5666352 C88.5356195,48.0356196 88.6476932,47.5649103 88.869172,47.1539736 C89.0917183,46.7435705 89.3959182,46.4222927 89.7823054,46.1901402 C90.1686927,45.9585213 90.6127178,45.8427119 91.1159818,45.8427119 C91.6181785,45.8427119 92.0622037,45.9585213 92.4485909,46.1901402 C92.8349781,46.4222927 93.1365096,46.7435705 93.3542527,47.1539736 C93.5719958,47.5649103 93.6803337,48.0356196 93.6803337,48.5666352 C93.6803337,49.0981845 93.5719958,49.5662254 93.3542527,49.972359 M93.1733338,45.0528595 C92.5740066,44.7102343 91.8887563,44.5383881 91.1159818,44.5383881 C90.333601,44.5383881 89.6419465,44.7102343 89.0436867,45.0528595 C88.4443595,45.3954847 87.9731165,45.8693961 87.6299577,46.4729927 C87.2878662,47.0760557 87.1154863,47.7746481 87.1154863,48.5666352 C87.1154863,49.349016 87.2878662,50.0422716 87.6299577,50.6458682 C87.9731165,51.2494649 88.4443595,51.7233763 89.0436867,52.0660015 C89.6419465,52.4091603 90.333601,52.5804729 91.1159818,52.5804729 C91.8972953,52.5804729 92.5889498,52.4091603 93.188277,52.0660015 C93.7865368,51.7233763 94.2551114,51.2494649 94.5934671,50.6458682 C94.9307554,50.0422716 95.1004669,49.349016 95.1004669,48.5666352 C95.1004669,47.7746481 94.9280869,47.0760557 94.5859955,46.4729927 C94.2428366,45.8693961 93.7715936,45.3954847 93.1733338,45.0528595" id="Fill-11" fill="#00E39C"></path>
                <path d="M101.403062,51.0735626 L100.911005,51.0735626 C100.602002,51.0735626 100.341031,50.9433437 100.128091,50.6823722 C99.9151508,50.4214007 99.8094814,50.0979882 99.8094814,49.711601 L99.8094814,46.1321821 L101.041224,46.1321821 C101.244558,46.1321821 101.407865,46.0740105 101.533815,45.9582011 C101.658697,45.8423917 101.721671,45.6977633 101.721671,45.5232486 C101.721671,45.330055 101.658697,45.1758203 101.533815,45.0600109 C101.407865,44.9436677 101.244558,44.8860299 101.041224,44.8860299 L99.8094814,44.8860299 L99.8094814,42.799859 C99.8094814,42.586919 99.7417035,42.4134717 99.6066815,42.277916 C99.4711257,42.1423602 99.2976784,42.0745823 99.0847385,42.0745823 C98.8717985,42.0745823 98.6983512,42.1423602 98.5633292,42.277916 C98.4277734,42.4134717 98.3599955,42.586919 98.3599955,42.799859 L98.3599955,44.8860299 L97.6944915,44.8860299 C97.4911579,44.8860299 97.3262495,44.9436677 97.2008338,45.0600109 C97.075418,45.1758203 97.0124433,45.330055 97.0124433,45.5232486 C97.0124433,45.6977633 97.075418,45.8423917 97.2008338,45.9582011 C97.3262495,46.0740105 97.4911579,46.1321821 97.6944915,46.1321821 L98.3599955,46.1321821 L98.3599955,49.711601 C98.3599955,50.2431503 98.4720692,50.7213312 98.6935481,51.1461437 C98.9160943,51.5714898 99.2202942,51.9066434 99.6066815,52.1526718 C99.9930687,52.3992338 100.427488,52.5225148 100.911005,52.5225148 L101.171443,52.5225148 C101.422808,52.5225148 101.628277,52.4547369 101.787314,52.3197149 C101.946886,52.1846928 102.026939,52.0107118 102.026939,51.7977719 C102.026939,51.5853656 101.966632,51.4119183 101.84602,51.2768962 C101.72434,51.1413405 101.57811,51.0735626 101.403062,51.0735626" id="Fill-13" fill="#00E39C"></path>
                <g id="Group-17" transform="translate(103.392955, 44.590266)">
                    <mask id="mask-2" fill="white">
                        <use xlink:href="#path-1"></use>
                    </mask>
                    <g id="Clip-16"></g>
                    <path d="M7.22683032,0.0786079994 C6.81055677,-0.0953729976 6.50689055,0.0209701231 6.31369693,0.426036309 L3.98469978,5.68709358 L1.32908799,0.412160524 C1.24156381,0.228039531 1.11614806,0.105292201 0.952307063,0.0423174847 C0.787398694,-0.020657232 0.613951381,-0.0131856555 0.430897755,0.0636648463 C0.247310446,0.141049032 0.119226276,0.264330045 0.0466452467,0.433507886 C-0.0259357827,0.602685727 -0.0136610498,0.77880146 0.0824020774,0.96238877 L3.33840841,7.14671943 L1.89372571,10.4101973 C1.70053209,10.8254035 1.81634152,11.1296034 2.2416877,11.322797 C2.37724345,11.3809686 2.49305289,11.4097875 2.59018338,11.4097875 C2.85115488,11.4097875 3.03901166,11.260356 3.1548211,10.9604256 L7.5886681,0.991741392 C7.78186172,0.566395212 7.66071545,0.262195309 7.22683032,0.0786079994" id="Fill-15" fill="#00E39C" mask="url(#mask-2)"></path>
                </g>
                <path d="M119.320543,49.9508515 C119.094261,50.3612545 118.787926,50.6846671 118.401539,50.9216228 C118.015152,51.1580448 117.574862,51.2765227 117.082272,51.2765227 C116.598754,51.2765227 116.162201,51.1580448 115.770477,50.9216228 C115.379286,50.6846671 115.072952,50.3612545 114.850405,49.9508515 C114.628393,49.5399148 114.51792,49.0788118 114.51792,48.5664751 C114.51792,48.0445321 114.628393,47.5791596 114.850405,47.1687566 C115.072952,46.7578199 115.379286,46.4338737 115.770477,46.1979853 C116.162201,45.9610296 116.598754,45.8425518 117.082272,45.8425518 C117.574862,45.8425518 118.015152,45.9610296 118.401539,46.1979853 C118.787926,46.4338737 119.094261,46.7578199 119.320543,47.1687566 C119.548426,47.5791596 119.661567,48.0445321 119.661567,48.5664751 C119.661567,49.0788118 119.548426,49.5399148 119.320543,49.9508515 M119.124681,45.0671089 C118.526955,44.7148774 117.84544,44.538228 117.082272,44.538228 C116.329244,44.538228 115.652533,44.7148774 115.053205,45.0671089 C114.453878,45.419874 113.981568,45.9007233 113.633072,46.5091231 C113.286178,47.1175229 113.106326,47.8038406 113.097787,48.5664751 L113.097787,55.1745509 C113.097787,55.3864235 113.166632,55.5630729 113.306991,55.7034318 C113.44735,55.843257 113.623466,55.9131696 113.836406,55.9131696 C114.058952,55.9131696 114.237202,55.843257 114.372758,55.7034318 C114.50778,55.5630729 114.575558,55.3864235 114.575558,55.1745509 L114.575558,51.2621132 C114.912846,51.6671794 115.321648,51.9889909 115.799829,52.2254129 C116.277477,52.4623686 116.801554,52.5803128 117.372596,52.5803128 C118.076525,52.5803128 118.710008,52.404197 119.270377,52.0519656 C119.830211,51.6992004 120.273169,51.2204858 120.596581,50.6174229 C120.920528,50.0132925 121.0817,49.330177 121.0817,48.5664751 C121.0817,47.8038406 120.905585,47.1175229 120.552286,46.5091231 C120.200588,45.9007233 119.724008,45.419874 119.124681,45.0671089" id="Fill-18" fill="#00E39C"></path>
                <path d="M126.102066,46.1466449 C126.493256,45.9054198 126.964499,45.7842735 127.514728,45.7842735 C127.998245,45.7842735 128.408115,45.8958134 128.74647,46.117826 C129.084826,46.3398386 129.345798,46.6419037 129.528851,47.0234878 C129.658003,47.2924646 129.728449,47.5950634 129.771677,47.9142065 L124.96692,47.9142065 C125.016553,47.6388255 125.095538,47.3789214 125.211347,47.1392973 C125.414147,46.7187542 125.710876,46.3884038 126.102066,46.1466449 M130.935642,48.8924493 C131.059991,48.7718367 131.123499,48.6202705 131.123499,48.4361495 C131.123499,47.6729813 130.981006,46.999472 130.695485,46.415088 C130.411031,45.8301703 129.99796,45.371202 129.45627,45.0381832 C128.916182,44.7051643 128.268823,44.5386549 127.514728,44.5386549 C126.75156,44.5386549 126.075916,44.7099675 125.486728,45.0525927 C124.897541,45.3952178 124.435904,45.8691292 124.102352,46.4727259 C123.768799,47.0763225 123.602824,47.7749149 123.602824,48.5663684 C123.602824,49.3487492 123.778406,50.0425384 124.132238,50.6461351 C124.483936,51.2497317 124.972257,51.7231095 125.595066,52.0662683 C126.217342,52.4094271 126.930344,52.580206 127.732471,52.580206 C128.176496,52.580206 128.642936,52.4985524 129.130189,52.3341777 C129.61851,52.169803 130.026245,51.9568631 130.35446,51.696959 C130.519369,51.5715432 130.596753,51.4210443 130.587147,51.2470633 C130.57754,51.073616 130.490016,50.9140445 130.326175,50.7688824 C130.200759,50.663213 130.052929,50.6119793 129.884285,50.6173161 C129.715107,50.6221193 129.558738,50.6776224 129.413576,50.7838256 C129.219848,50.9284539 128.966882,51.0570718 128.652542,51.1675444 C128.338736,51.2790844 128.031334,51.3345875 127.732471,51.3345875 C127.182243,51.3345875 126.693922,51.2139749 126.269109,50.972216 C125.843763,50.7309908 125.51021,50.4022415 125.268985,49.9865016 C125.107813,49.7089859 125.005345,49.4037186 124.951977,49.0739019 L130.456928,49.0739019 C130.649588,49.0739019 130.808626,49.0135956 130.935642,48.8924493" id="Fill-20" fill="#00E39C"></path>
                <path d="M70.4136841,16.2299721 C69.8255643,16.2299721 69.3521866,16.5149594 69.0325099,17.0769286 L62.9084855,29.6660015 L56.6120812,17.0534466 C56.3036118,16.5149594 55.8302341,16.2299721 55.2426479,16.2299721 C54.8114312,16.2299721 54.4410545,16.3762015 54.1421915,16.6643909 C53.84066,16.9568497 53.6874927,17.3336307 53.6874927,17.7851274 L53.6874927,32.9337488 C53.6874927,33.3687013 53.8390589,33.7401454 54.137922,34.0390085 C54.436785,34.3378716 54.8087628,34.4894378 55.2426479,34.4894378 C55.6765331,34.4894378 56.0485108,34.3378716 56.3473739,34.0390085 C56.646237,33.7406791 56.7978032,33.3687013 56.7978032,32.9337488 L56.7978032,23.6780665 L61.4018954,32.9033289 C61.6911522,33.5015887 62.1848099,33.8180633 62.8284329,33.8180633 C63.3765264,33.8180633 63.8386968,33.5554908 64.1631767,33.0586309 L68.8585289,23.4955466 L68.8585289,32.9337488 C68.8585289,33.3687013 69.0100951,33.7401454 69.3089582,34.0390085 C69.6078212,34.3378716 69.979799,34.4894378 70.4136841,34.4894378 C70.8304914,34.4894378 71.1971323,34.3394726 71.5029333,34.043278 C71.81247,33.7438812 71.9693731,33.3708361 71.9693731,32.9337488 L71.9693731,17.7851274 C71.9693731,17.3336307 71.8162058,16.9568497 71.5141406,16.6638572 C71.2158113,16.3762015 70.8454345,16.2299721 70.4136841,16.2299721" id="Fill-22" fill="#273245"></path>
                <path d="M86.0658899,27.9887393 C86.0658899,28.7097464 85.9089868,29.3661778 85.5983827,29.9393544 C85.2899133,30.509329 84.8624324,30.9640278 84.3287483,31.2911761 C83.7977327,31.6167234 83.1813276,31.7816317 82.4971447,31.7816317 C81.8268376,31.7816317 81.2136346,31.6161897 80.6746137,31.2901087 C80.1323907,30.9624267 79.6974382,30.5066606 79.3825647,29.9361523 C79.06609,29.364043 78.9054511,28.7092127 78.9054511,27.9887393 C78.9054511,27.25439 79.06609,26.5915545 79.3825647,26.0183778 C79.6974382,25.4494706 80.131857,24.9942381 80.6746137,24.6654887 C81.2141683,24.3388741 81.8273712,24.1739657 82.4971447,24.1739657 C83.180794,24.1739657 83.797199,24.3388741 84.3287483,24.6644214 C84.8629661,24.9921034 85.2899133,25.4473359 85.5983827,26.0157094 C85.9084531,26.5894197 86.0658899,27.2538563 86.0658899,27.9887393 M85.8284005,22.2479 L85.8284005,22.2473664 C84.8458882,21.6693865 83.724618,21.376394 82.4971447,21.376394 C81.2691377,21.376394 80.1446655,21.6693865 79.1557489,22.2468327 C78.1678998,22.8237451 77.3748453,23.6205354 76.7990002,24.6153224 C76.2220878,25.6106432 75.9296289,26.7457891 75.9296289,27.9887393 C75.9296289,29.2279536 76.1975383,30.355628 76.7258855,31.340275 C77.2547664,32.3281242 77.9896493,33.1227797 78.9097206,33.7018269 C79.8335277,34.2835425 80.8902221,34.5792035 82.0493838,34.5792035 C83.2085455,34.5792035 84.2647062,34.2835425 85.189047,33.7018269 C85.4697648,33.5251775 85.7339384,33.3277144 85.9810341,33.1099713 C86.008252,33.4883533 86.1539477,33.8112321 86.4154529,34.0727373 C86.7068444,34.3641288 87.0745527,34.5114256 87.5095052,34.5114256 C87.9433903,34.5114256 88.3110986,34.3641288 88.6030238,34.0727373 C88.8944153,33.7813458 89.0422458,33.4131038 89.0422458,32.978685 L89.0422458,27.9887393 C89.0422458,26.7463228 88.7497869,25.6111769 88.1728745,24.6153224 C87.5964957,23.6205354 86.8077107,22.8242788 85.8284005,22.2479" id="Fill-24" fill="#273245"></path>
                <path d="M101.38561,21.8333877 C100.874875,21.4955657 100.149598,21.3317247 99.1670859,21.3317247 C98.2085894,21.3317247 97.3162697,21.5590741 96.5141425,22.008436 C96.2440984,22.1600023 95.9895311,22.3318485 95.7531091,22.5229074 C95.6938702,22.254998 95.5775271,22.0329855 95.4046134,21.8600719 C95.1425746,21.5985667 94.7673947,21.4656794 94.2892138,21.4656794 C93.8249087,21.4656794 93.4529309,21.6023025 93.1844878,21.8718129 C92.9149774,22.1407897 92.7788879,22.5122338 92.7788879,22.9765389 L92.7788879,32.9788451 C92.7788879,33.4607618 92.9171121,33.8386101 93.189291,34.0995816 C93.4572004,34.3584184 93.8270434,34.4897047 94.2892138,34.4897047 C94.7705968,34.4897047 95.1479114,34.3509468 95.4104839,34.0782343 C95.668787,33.8092575 95.7995396,33.4394145 95.7995396,32.9788451 L95.7995396,26.4444178 C95.7995396,25.8600337 95.9788575,25.3935939 96.3476331,25.0189477 C96.7297509,24.6293583 97.2698391,24.3571795 97.9518873,24.2098827 C98.6558166,24.0577827 99.46755,24.0732596 100.353999,24.2536448 C100.600028,24.3096816 100.833247,24.3182205 101.049923,24.2792616 C101.28421,24.2371006 101.494482,24.1346332 101.674867,23.9750617 C101.865392,23.8069512 101.99401,23.5737313 102.052716,23.2983503 C102.155717,22.8991547 102.123162,22.3206412 101.38561,21.8333877" id="Fill-26" fill="#273245"></path>
                <path d="M108.632026,31.4682525 L108.072725,31.4682525 C107.948376,31.4682525 107.782934,31.4292935 107.605218,31.1256273 C107.432838,30.8305 107.345314,30.4377086 107.345314,29.9579266 L107.345314,17.7402979 C107.345314,17.3069465 107.201752,16.942974 106.917299,16.6579867 C106.633379,16.3740668 106.269406,16.2299721 105.834988,16.2299721 C105.400569,16.2299721 105.036063,16.3740668 104.752676,16.6579867 C104.468757,16.9419066 104.324662,17.3064128 104.324662,17.7402979 L104.324662,29.9579266 C104.324662,30.8171579 104.47943,31.5909998 104.785231,32.2575712 C105.095835,32.9380183 105.539327,33.4839771 106.101296,33.8805043 C106.673939,34.2845031 107.336775,34.4894378 108.072725,34.4894378 L108.117554,34.4894378 C108.64857,34.4894378 109.095797,34.3581515 109.445894,34.0993148 C109.828545,33.8175296 110.030812,33.430075 110.030812,32.9785783 C110.030812,32.5526984 109.903261,32.1940628 109.651362,31.9117439 C109.391458,31.6214198 109.038693,31.4682525 108.632026,31.4682525" id="Fill-28" fill="#273245"></path>
                <path d="M121.442257,27.9887393 C121.442257,28.7401664 121.288556,29.4083388 120.985424,29.9740439 C120.685493,30.5344121 120.262815,30.980572 119.730732,31.3002487 C119.198116,31.6199255 118.573172,31.7816317 117.873512,31.7816317 C117.172785,31.7816317 116.548375,31.6199255 116.016292,31.3002487 C115.482608,30.9800383 115.056194,30.5333448 114.748258,29.9713755 C114.438722,29.4062041 114.281818,28.739099 114.281818,27.9887393 C114.281818,27.2378458 114.439255,26.5664713 114.749326,25.9932946 C115.057261,25.4249211 115.483141,24.9750255 116.016292,24.6548151 C116.547841,24.335672 117.172251,24.1739657 117.873512,24.1739657 C118.573705,24.1739657 119.19865,24.335672 119.730199,24.6548151 C120.262282,24.9744918 120.684426,25.4233201 120.984356,25.9900925 C121.288023,26.5643366 121.442257,27.2367785 121.442257,27.9887393 M121.245328,22.2222832 L121.244794,22.2222832 C120.263349,21.6608476 119.128737,21.376394 117.873512,21.376394 C116.602277,21.376394 115.460726,21.6608476 114.478748,22.2222832 C113.496236,22.7853199 112.713321,23.5719702 112.150818,24.561954 C111.59045,25.5498032 111.305996,26.7030944 111.305996,27.9887393 C111.305996,29.2605083 111.59045,30.4057943 112.150818,31.3931098 C112.713321,32.3836273 113.496236,33.1708113 114.478748,33.7327806 C115.459125,34.2942162 116.601209,34.5792035 117.873512,34.5792035 C119.144747,34.5792035 120.286831,34.2942162 121.267743,33.7327806 C122.250255,33.1702776 123.029967,32.38256 123.585532,31.390975 C124.137895,30.4041932 124.418613,29.259441 124.418613,27.9887393 C124.418613,26.7030944 124.13416,25.5503369 123.573258,24.561954 C123.010755,23.5719702 122.227306,22.7853199 121.245328,22.2222832" id="Fill-30" fill="#273245"></path>
                <path d="M141.26958,21.4658395 C140.749238,21.4658395 140.060252,21.6926552 139.73257,22.7680285 L137.692296,29.1658328 L136.011725,22.6180633 C135.93274,22.2818424 135.765163,22.0043267 135.513264,21.7924541 C135.254427,21.5757784 134.925144,21.4658395 134.533954,21.4658395 C134.125152,21.4658395 133.789998,21.5773794 133.538099,21.7977909 C133.302745,22.0032593 133.135168,22.272236 133.039638,22.5967159 L131.11464,29.1007233 L129.089309,22.7669611 C128.945214,22.3181329 128.755757,21.9989898 128.509195,21.7924541 C128.250358,21.5757784 127.928546,21.4658395 127.552833,21.4658395 C126.804608,21.4658395 126.488133,21.831413 126.354712,22.1377477 C126.192472,22.5091918 126.181798,22.9756316 126.330696,23.5482746 L129.645408,33.4908082 C129.747342,33.7773966 129.935198,34.0175544 130.20204,34.2043438 C130.750134,34.5917984 131.474877,34.5731195 131.995752,34.2059449 C132.271133,34.0127512 132.453653,33.7640545 132.539043,33.4662588 L134.455502,26.7055494 L136.28337,33.4662588 C136.368226,33.7661892 136.55715,34.0159533 136.842137,34.2086133 C137.115383,34.394869 137.415847,34.4893311 137.733923,34.4893311 C138.071745,34.4893311 138.375411,34.3922006 138.635849,34.2016754 C138.90109,34.0079481 139.078273,33.7608524 139.157258,33.4833367 L142.466633,23.5552125 C142.667298,22.9895074 142.667832,22.5049223 142.468234,22.1147992 C142.316134,21.8191383 141.984717,21.4658395 141.26958,21.4658395" id="Fill-32" fill="#273245"></path>
                <g id="Group-36" transform="translate(144.605585, 21.376341)">
                    <mask id="mask-4" fill="white">
                        <use xlink:href="#path-3"></use>
                    </mask>
                    <g id="Clip-35"></g>
                    <path d="M9.47449276,5.21409307 L2.98649589,5.21409307 C3.05107166,4.99101314 3.13219163,4.77807321 3.22825476,4.57847538 C3.5111073,3.99302399 3.91297138,3.54526308 4.4573291,3.20904213 C4.99634998,2.87655698 5.6613203,2.70791282 6.43302742,2.70791282 C7.09746405,2.70791282 7.66530387,2.85947909 8.12000267,3.15780846 C8.58590884,3.46467679 8.93653925,3.87081034 9.19057285,4.39915754 C9.31171913,4.65159009 9.40671489,4.92430264 9.47449276,5.21409307 M11.9860099,7.39792816 C12.2544529,7.1390914 12.3969466,6.79860099 12.3969466,6.41114637 C12.3969466,5.17940361 12.1615919,4.07094186 11.6972868,3.11778216 C11.2260438,2.15234773 10.5327882,1.38277535 9.63726639,0.830412366 C8.74227826,0.279116753 7.6642365,0 6.43302742,0 C5.19114466,0 4.07094186,0.284987277 3.10337269,0.847490256 C2.13580353,1.4110606 1.36783219,2.19877824 0.820806054,3.18982951 C0.276448333,4.17714498 0,5.32830146 0,6.61234526 C0,7.88624906 0.292992538,9.03313606 0.869904985,10.0209852 C1.44841848,11.0115028 2.25908454,11.7981531 3.27948843,12.3595887 C4.29562284,12.9188896 5.46972773,13.2028095 6.76924836,13.2028095 C7.49399129,13.2028095 8.26249631,13.0677874 9.05341605,12.8014791 C9.84647054,12.534637 10.5221145,12.1813382 11.0568659,11.7570594 C11.5067616,11.4128332 11.5836121,11.0093681 11.5681353,10.7297176 C11.5473216,10.3545377 11.3669364,10.014581 11.0275133,9.71465058 C10.7585366,9.48783486 10.4377925,9.38323279 10.0802241,9.38696858 C9.73973373,9.39710858 9.42059067,9.50918222 9.12973287,9.72265584 C8.86395822,9.92171999 8.50425518,10.1021052 8.05916269,10.2600757 C7.61887335,10.4153777 7.18498823,10.4948966 6.76924836,10.4948966 C5.99113703,10.4948966 5.29574673,10.3235841 4.70282376,9.98682944 C4.10990079,9.65007481 3.63919147,9.18683706 3.30350421,8.60832357 C3.15567373,8.35428996 3.03933061,8.07944268 2.9560759,7.78751751 L10.975746,7.78751751 C11.37761,7.78751751 11.7175668,7.65623124 11.9860099,7.39792816" id="Fill-34" fill="#273245" mask="url(#mask-4)"></path>
                </g>
            </g>
        </g>
    </g>
</svg>