<?xml version="1.0" encoding="UTF-8"?>
<svg width="85px" height="39px" viewBox="0 0 85 39" version="1.1" xmlns="http://www.w3.org/2000/svg" xmlns:xlink="http://www.w3.org/1999/xlink">
    <title>logos/dark/build</title>
    <defs>
        <polygon id="path-1" points="0 0 32.2713352 0 32.2713352 38.6583025 0 38.6583025"></polygon>
    </defs>
    <g id="Pages" stroke="none" stroke-width="1" fill="none" fill-rule="evenodd">
        <g id="01-Marlowe-Home-Page-D" transform="translate(-212.000000, -4333.000000)">
            <g id="Build" transform="translate(0.000000, 2831.000000)">
                <g id="Code" transform="translate(185.500000, 1484.324667)">
                    <g id="logos/dark/build" transform="translate(27.000000, 17.798126)">
                        <g id="Group-3">
                            <mask id="mask-2" fill="white">
                                <use xlink:href="#path-1"></use>
                            </mask>
                            <g id="Clip-2"></g>
                            <path d="M3.8141948,38.6583025 C3.45340622,38.6583025 3.09339353,38.6067058 2.74385535,38.5046764 C1.76701057,38.219149 0.95930968,37.5701175 0.470499345,36.6774568 C-0.018698935,35.784408 -0.130814956,34.7548028 0.154712351,33.7775701 L7.22888415,9.56516478 C7.46126303,8.77065401 7.93339174,8.08748338 8.59483747,7.58936237 C9.2562832,7.09162931 10.043811,6.82666307 10.871297,6.82317157 L10.8872028,6.82317157 C11.7119732,6.82317157 12.4979492,7.08309452 13.1601708,7.57539636 C13.8223924,8.0676982 14.2984006,8.74543761 14.5362107,9.53568098 L16.0833342,14.6751725 L19.5752246,2.74082938 C19.8076034,1.94631861 20.2801201,1.26314798 20.9419538,0.765414914 C21.6033995,0.26768185 22.3909273,0.00310355768 23.2188013,0 L23.2327673,0 C24.0583136,0 24.8442896,0.260310901 25.5068992,0.752612738 C26.1691208,1.24530252 26.645129,1.92342987 26.8825511,2.71406119 L32.1085543,20.1032949 C32.4010646,21.077812 32.2970954,22.1085811 31.8148802,23.0051213 C31.3326649,23.9016616 30.5303952,24.5569002 29.5554902,24.8497984 C29.1978052,24.9572591 28.8280938,25.0115714 28.4572187,25.0119593 C27.655337,25.0119593 26.855007,24.7497087 26.2048117,24.2733126 C25.5321156,23.7806228 25.0495124,23.0970642 24.8089866,22.2967343 L23.2820363,17.2154345 L19.7932495,29.1389151 C19.5608706,29.9334259 19.0883539,30.6165966 18.4269082,31.1139417 C17.7654625,31.6116747 16.9783227,31.876641 16.1504487,31.8797445 L16.1357068,31.8797445 C15.3105484,31.8797445 14.5245724,31.6198216 13.8623508,31.1275197 C13.2001291,30.6356058 12.7245089,29.9574785 12.4863109,29.1676231 L10.941903,24.0358904 L7.47096165,35.9151454 C7.23509126,36.7224584 6.75365188,37.412612 6.07862808,37.910733 C5.42610508,38.3929483 4.62189569,38.6583025 3.8141948,38.6583025" id="Fill-1" fill="#00E39C" mask="url(#mask-2)"></path>
                        </g>
                        <path d="M40.8619836,17.1260908 L40.8619836,13.9158483 L43.7098857,13.9158483 C44.2801644,13.9158483 44.7499655,14.0520169 45.1060987,14.3196988 C45.4432227,14.5738026 45.6065474,14.9640749 45.6065474,15.5126288 C45.6065474,16.0623464 45.4424468,16.4557223 45.1045469,16.7148694 C44.7488016,16.9879825 44.2793885,17.1260908 43.7098857,17.1260908 L40.8619836,17.1260908 Z M44.0601998,23.1982014 L40.8619836,23.1982014 L40.8619836,19.2706492 L44.0601998,19.2706492 C44.5327164,19.2706492 44.9524726,19.3451345 45.307442,19.4917777 C45.651549,19.6345413 45.9134117,19.8358846 46.107772,20.1078339 C46.2955372,20.3708604 46.3905837,20.7161312 46.3905837,21.1343356 C46.3905837,21.5905585 46.2932095,21.973072 46.100401,22.2714015 C45.9048769,22.5747743 45.6426263,22.7986184 45.2985193,22.955736 C44.9466534,23.116733 44.5303888,23.1982014 44.0601998,23.1982014 L44.0601998,23.1982014 Z M46.5430459,17.9551287 C46.8561173,17.7266292 47.1195318,17.4539041 47.3301857,17.1400568 C47.6541196,16.6574536 47.8182202,16.1096757 47.8182202,15.5126288 C47.8182202,14.7860083 47.6386018,14.1311576 47.2844083,13.5666981 C46.9313786,13.0045662 46.4414044,12.5595936 45.8272879,12.2434187 C45.2182147,11.9299594 44.5055603,11.77129 43.7098857,11.77129 L39.7229779,11.77129 C39.406803,11.77129 39.1356296,11.8783627 38.9168288,12.0897926 C38.6960883,12.3035501 38.5835843,12.5793788 38.5835843,12.9102956 L38.5835843,24.2037541 C38.5835843,24.5214808 38.6949244,24.793818 38.9137253,25.0130068 C39.1325261,25.2318076 39.4048633,25.3427598 39.7229779,25.3427598 L44.0601998,25.3427598 C44.9350151,25.3427598 45.7240946,25.1608137 46.4053256,24.8027407 C47.0912118,24.4419522 47.6343344,23.9403396 48.0199514,23.3114813 C48.4063444,22.6810711 48.6022565,21.9486315 48.6022565,21.1343356 C48.6022565,20.2273208 48.3559116,19.4774237 47.8702048,18.9063691 C47.5140715,18.4881647 47.0694869,18.1696621 46.5430459,17.9551287 L46.5430459,17.9551287 Z" id="Fill-4" fill="#FFFFFF"></path>
                        <path d="M59.1069069,15.6580304 C58.790732,15.6580304 58.5222743,15.7623876 58.3089047,15.9679983 C58.0935954,16.1763246 57.9841949,16.4498256 57.9841949,16.7803545 L57.9841949,21.484572 C57.9841949,21.8317826 57.8910882,22.1363192 57.6990556,22.4148635 C57.5035315,22.6980631 57.2370134,22.9265625 56.9072604,23.0941546 C56.5747918,23.2629106 56.1868471,23.3482584 55.7539008,23.3482584 C55.2969019,23.3482584 54.882189,23.2594191 54.5214005,23.0836801 C54.1679828,22.9118206 53.8948698,22.6530615 53.6869314,22.291497 C53.4786051,21.9295446 53.3730841,21.4558641 53.3730841,20.8840336 L53.3730841,16.7803545 C53.3730841,16.4626278 53.2648475,16.1930062 53.051478,15.9792487 C52.8377204,15.766267 52.5684868,15.6580304 52.2507601,15.6580304 C51.9322575,15.6580304 51.6630238,15.766267 51.4496542,15.9796366 C51.2362847,16.1926182 51.128436,16.4622398 51.128436,16.7803545 L51.128436,20.8840336 C51.128436,21.8488521 51.3165892,22.6790538 51.6874644,23.350974 C52.0622189,24.0283255 52.581289,24.5501111 53.2307084,24.9012011 C53.8739207,25.2495755 54.6106277,25.4260903 55.4202684,25.4260903 C56.208572,25.4260903 56.9235541,25.2519031 57.5450415,24.9085721 C57.7196167,24.8119738 57.8844932,24.705289 58.0392831,24.5885177 C58.0912677,24.7510665 58.180495,24.8957699 58.3058011,25.021076 C58.5187828,25.2344456 58.7884043,25.3426822 59.1069069,25.3426822 C59.4378238,25.3426822 59.7113248,25.2332818 59.9192632,25.0175845 C60.1248739,24.8049908 60.229231,24.5365331 60.229231,24.2203581 L60.229231,16.7803545 C60.229231,16.4513774 60.124098,16.1794281 59.9157717,15.9711018 C59.7078333,15.7631634 59.4358841,15.6580304 59.1069069,15.6580304" id="Fill-6" fill="#FFFFFF"></path>
                        <path d="M64.8118667,15.6747121 C64.4956917,15.6747121 64.227234,15.7790692 64.0142523,15.9846799 C63.7985551,16.1930062 63.6891547,16.4665072 63.6891547,16.7970361 L63.6891547,24.2203581 C63.6891547,24.5388607 63.7973913,24.8080944 64.0107608,25.021076 C64.2237425,25.2344456 64.4933641,25.3426822 64.8118667,25.3426822 C65.1427835,25.3426822 65.4162845,25.2332818 65.6242229,25.0179725 C65.8298336,24.8053788 65.9341907,24.536921 65.9341907,24.2203581 L65.9341907,16.7970361 C65.9341907,16.468059 65.8290577,16.1957218 65.6207314,15.9877834 C65.412793,15.7798451 65.1408438,15.6747121 64.8118667,15.6747121" id="Fill-8" fill="#FFFFFF"></path>
                        <path d="M64.8118667,11.9880735 C64.4386639,11.9880735 64.1127903,12.1242421 63.8439446,12.3926998 C63.5754869,12.6615455 63.4389303,12.987419 63.4389303,13.3606219 C63.4389303,13.7338247 63.5754869,14.0596982 63.8439446,14.3285439 C64.1127903,14.5970016 64.4382759,14.7331702 64.8118667,14.7331702 C65.1854574,14.7331702 65.510943,14.5970016 65.7797887,14.328156 C66.0482465,14.0593103 66.1844151,13.7338247 66.1844151,13.3606219 C66.1844151,12.987419 66.0482465,12.6615455 65.7797887,12.3926998 C65.510943,12.1242421 65.1850695,11.9880735 64.8118667,11.9880735" id="Fill-10" fill="#FFFFFF"></path>
                        <path d="M72.2515988,23.1314749 L71.8345582,23.1314749 C71.7437791,23.1314749 71.6072226,23.1039308 71.4683384,22.8657328 C71.3383769,22.6422766 71.2720384,22.3462748 71.2720384,21.9850983 L71.2720384,12.8769324 C71.2720384,12.5592057 71.1669054,12.2926877 70.9585791,12.0839734 C70.7506407,11.876423 70.4841227,11.77129 70.166396,11.77129 C69.8482813,11.77129 69.5817633,11.876423 69.3738249,12.0843613 C69.1658865,12.2922997 69.0603656,12.5588177 69.0603656,12.8769324 L69.0603656,21.9850983 C69.0603656,22.6224915 69.1755852,23.1962617 69.4021449,23.6908912 C69.632584,24.1944434 69.9600094,24.5986818 70.376662,24.8927439 C70.7995217,25.1914613 71.2898838,25.3427598 71.8345582,25.3427598 L71.8679215,25.3427598 C72.2593577,25.3427598 72.5887227,25.2461615 72.846318,25.0560686 C73.1260261,24.85007 73.2738331,24.5668704 73.2738331,24.2371173 C73.2738331,23.9252098 73.1807264,23.6625712 72.9960647,23.4554088 C72.8063597,23.2435909 72.5491524,23.1314749 72.2515988,23.1314749" id="Fill-12" fill="#FFFFFF"></path>
                        <path d="M79.1409925,23.3650176 C78.6374403,23.3650176 78.1769499,23.2404874 77.7719356,22.9953063 C77.3645937,22.7493494 77.0383322,22.4048545 76.8020738,21.9715202 C76.5638758,21.5362463 76.443225,21.0412288 76.443225,20.5004339 C76.443225,19.9495524 76.5634878,19.4553108 76.8005221,19.0312873 C77.0371683,18.6084275 77.3638178,18.2689759 77.7719356,18.0218551 C78.1773378,17.7766741 78.6382162,17.6525318 79.1409925,17.6525318 C79.6546313,17.6525318 80.1174493,17.7766741 80.5170324,18.0210793 C80.9189431,18.2674241 81.2401613,18.6064878 81.4717643,19.0293476 C81.7041432,19.4537591 81.8220784,19.9487765 81.8220784,20.5004339 C81.8220784,21.0416168 81.7037553,21.5374101 81.4702125,21.9738479 C81.2386096,22.4067942 80.9181672,22.7509012 80.5170324,22.9960822 C80.1178373,23.2408753 79.6550192,23.3650176 79.1409925,23.3650176 M83.6865407,12.0839734 C83.4786023,11.876423 83.2062651,11.77129 82.877676,11.77129 C82.5611131,11.77129 82.2930433,11.8752591 82.0800616,12.0812578 C81.8647523,12.2891962 81.7553519,12.5626972 81.7553519,12.893614 L81.7553519,16.7206886 C81.4558586,16.4533947 81.1179587,16.2272229 80.7447559,16.044113 C80.1535282,15.7547063 79.5017811,15.6080632 78.8073601,15.6080632 C77.9472866,15.6080632 77.1632504,15.826864 76.4773641,16.2586464 C75.7949694,16.6884892 75.2495191,17.2781651 74.8565311,18.0117686 C74.4639311,18.7426564 74.2653034,19.580229 74.2653034,20.5004339 C74.2653034,21.4237423 74.4825524,22.2663582 74.9108434,23.0053929 C75.3387464,23.7440396 75.9272585,24.3356553 76.6600861,24.7635583 C77.3936895,25.1918493 78.2281586,25.4094863 79.1409925,25.4094863 C80.0538264,25.4094863 80.8859678,25.1918493 81.61414,24.7631704 C82.3411484,24.3348794 82.926557,23.7436517 83.35446,23.0053929 C83.782751,22.2659703 84,21.4229664 84,20.5004339 L84,12.893614 C84,12.5646369 83.894479,12.2922997 83.6865407,12.0839734" id="Fill-14" fill="#FFFFFF"></path>
                    </g>
                </g>
            </g>
        </g>
    </g>
</svg>