<?xml version="1.0" encoding="UTF-8"?>
<svg width="110px" height="38px" viewBox="0 0 110 38" version="1.1" xmlns="http://www.w3.org/2000/svg" xmlns:xlink="http://www.w3.org/1999/xlink">
    <title>logos/light/marlowe</title>
    <defs>
        <polygon id="path-1" points="0 0 8.68579228 0 8.68579228 9.28203969 0 9.28203969"></polygon>
    </defs>
    <g id="Pages" stroke="none" stroke-width="1" fill="none" fill-rule="evenodd">
        <g id="01-Marlowe-Home-Page-D" transform="translate(-75.000000, -17.000000)">
            <g id="Header-nav" transform="translate(75.000000, 7.000000)">
                <g id="logos/light/marlowe" transform="translate(0.000000, 10.409460)">
                    <path d="M3.67640858,37.3881714 C3.3286568,37.3881714 2.98165289,37.3378948 2.64474499,37.2395928 C1.70282379,36.9630713 0.924682455,36.3357392 0.453160966,35.4724071 C-0.0179865969,34.6086997 -0.126051395,33.6129225 0.14915861,32.6677971 L6.96771084,9.2508982 C7.19131896,8.48249134 7.64676161,7.8217665 8.28430652,7.34001142 C8.92185144,6.85863153 9.68054859,6.60237085 10.478508,6.59899406 L10.4934651,6.59899406 C11.2888071,6.59899406 12.0463824,6.85037716 12.6846752,7.32650426 C13.322968,7.80225617 13.781402,8.45810343 14.010993,9.2223831 L15.5022124,14.193015 L18.8675521,2.65077854 C19.0919081,1.88199649 19.5473508,1.22164684 20.1848957,0.740266959 C20.8228145,0.258887076 21.5818856,0.00300158929 22.379845,0 L22.3933064,0 C23.1890223,0 23.9465976,0.251758302 24.5852643,0.727885403 C25.2235571,1.2043877 25.6819912,1.86023496 25.9112082,2.62488984 L30.948,19.4424194 C31.2303146,20.3852937 31.1301023,21.3821965 30.6653115,22.2492806 C30.2005206,23.1163647 29.4272404,23.7497001 28.4875627,24.0333503 C28.1424284,24.1372803 27.7864503,24.1898081 27.4289764,24.1898081 C26.6556961,24.1901833 25.8846594,23.936549 25.2579584,23.4758051 C24.6095696,22.9993028 24.1444048,22.3382027 23.9125703,21.5641679 L22.4404211,16.6498158 L19.0780728,28.1815467 C18.8540908,28.9499535 18.3986481,29.6106784 17.7611032,30.0916831 C17.1235583,30.5730629 16.3648612,30.8293236 15.5669017,30.8323252 L15.5523186,30.8323252 C14.7573505,30.8323252 13.9997752,30.5809421 13.3614824,30.104815 C12.7231896,29.6290631 12.2643816,28.9732158 12.0351646,28.2089362 L10.5461888,23.2461835 L7.20066713,34.7351417 C6.97331974,35.5159301 6.50965071,36.1830333 5.85901836,36.6651636 C5.22969983,37.1315355 4.45492384,37.3881714 3.67640858,37.3881714" id="Fill-1" fill="#00E39C"></path>
                    <path d="M49.3354684,11.4102415 C48.9234013,11.4102415 48.5917284,11.6105976 48.3677463,12.0056818 L44.0769381,20.856243 L39.6653517,11.9891731 C39.4492221,11.6105976 39.1175492,11.4102415 38.7058559,11.4102415 C38.4037232,11.4102415 38.1442181,11.513046 37.9348192,11.7156532 C37.7235507,11.9212621 37.6162337,12.1861524 37.6162337,12.5035704 L37.6162337,23.1535844 C37.6162337,23.4593714 37.7224289,23.7205096 37.9318278,23.9306209 C38.1412267,24.1407321 38.4018536,24.2472885 38.7058559,24.2472885 C39.0098583,24.2472885 39.2704852,24.1407321 39.4798841,23.9306209 C39.689283,23.7208848 39.7954782,23.4593714 39.7954782,23.1535844 L39.7954782,16.6465141 L43.0213433,23.1321981 C43.2240115,23.5527958 43.5698936,23.7752886 44.0208492,23.7752886 C44.4048718,23.7752886 44.7286923,23.5906909 44.9560397,23.2413809 L48.2458462,16.5181961 L48.2458462,23.1535844 C48.2458462,23.4593714 48.3520414,23.7205096 48.5614403,23.9306209 C48.7708392,24.1407321 49.0314661,24.2472885 49.3354684,24.2472885 C49.6275051,24.2472885 49.8843927,24.1418577 50.0986527,23.9336225 C50.3155302,23.723136 50.4254646,23.4608721 50.4254646,23.1535844 L50.4254646,12.5035704 C50.4254646,12.1861524 50.3181476,11.9212621 50.1065052,11.715278 C49.8974802,11.513046 49.6379751,11.4102415 49.3354684,11.4102415" id="Fill-22" fill="#273245"></path>
                    <path d="M60.3022132,19.6770687 C60.3022132,20.1839621 60.1922788,20.6454564 59.9746535,21.0484198 C59.7585239,21.449132 59.4590086,21.7688012 59.085082,21.998798 C58.713025,22.2276692 58.2811397,22.3436056 57.8017658,22.3436056 C57.3321139,22.3436056 56.9024722,22.227294 56.5248063,21.9980476 C56.1448969,21.7676756 55.8401467,21.447256 55.6195299,21.0461686 C55.3977914,20.6439556 55.2852395,20.1835869 55.2852395,19.6770687 C55.2852395,19.1607953 55.3977914,18.6947986 55.6195299,18.2918352 C55.8401467,17.8918735 56.1445229,17.571829 56.5248063,17.3407066 C56.9028462,17.111085 57.3324879,16.9951487 57.8017658,16.9951487 C58.2807658,16.9951487 58.7126511,17.111085 59.085082,17.3399562 C59.4593826,17.5703282 59.7585239,17.8903727 59.9746535,18.2899592 C60.1919049,18.6932978 60.3022132,19.1604201 60.3022132,19.6770687 M60.1358159,15.6410567 L60.1358159,15.6406815 C59.4474169,15.2343413 58.6617971,15.0283573 57.8017658,15.0283573 C56.9413606,15.0283573 56.1534972,15.2343413 55.4606111,15.6403063 C54.7684729,16.045896 54.2128179,16.6060676 53.8093511,17.3054379 C53.4051364,18.0051835 53.2002246,18.803231 53.2002246,19.6770687 C53.2002246,20.54828 53.3879358,21.3410748 53.7581231,22.0333163 C54.1286844,22.727809 54.6435814,23.2864798 55.2882309,23.6935704 C55.9354979,24.1025369 56.6758727,24.310397 57.4880413,24.310397 C58.30021,24.310397 59.0402108,24.1025369 59.6878517,23.6935704 C59.8845372,23.5693796 60.0696308,23.4305561 60.2427589,23.277475 C60.2618291,23.5434909 60.3639111,23.7704861 60.5471352,23.9543334 C60.7512991,24.1591919 61.0089346,24.2627467 61.3136848,24.2627467 C61.6176871,24.2627467 61.8753226,24.1591919 62.0798604,23.9543334 C62.2840244,23.749475 62.3876021,23.4905879 62.3876021,23.1851762 L62.3876021,19.6770687 C62.3876021,18.8036062 62.1826903,18.0055587 61.7784756,17.3054379 C61.3746348,16.6060676 60.8219712,16.0462712 60.1358159,15.6410567" id="Fill-24" fill="#273245"></path>
                    <path d="M71.0360017,15.3496399 C70.6781539,15.1121391 70.1699876,14.9969531 69.4815887,14.9969531 C68.8100164,14.9969531 68.1848111,15.1567878 67.6227993,15.472705 C67.4335925,15.5792615 67.2552295,15.7000754 67.08958,15.8343966 C67.0480741,15.6460468 66.9665581,15.4899642 66.8454059,15.3683998 C66.6618079,15.1845525 66.3989375,15.091128 66.0638992,15.091128 C65.738583,15.091128 65.4779561,15.1871789 65.2898711,15.3766542 C65.1010381,15.5657543 65.0056868,15.8268926 65.0056868,16.1533154 L65.0056868,23.1852887 C65.0056868,23.5240931 65.1025338,23.7897338 65.2932364,23.9732059 C65.4809476,24.1551773 65.7400787,24.2474761 66.0638992,24.2474761 C66.401181,24.2474761 66.6655471,24.1499245 66.8495191,23.958198 C67.0304995,23.7690979 67.1221116,23.5090852 67.1221116,23.1852887 L67.1221116,18.5913563 C67.1221116,18.1805138 67.2477509,17.8525902 67.5061342,17.5892007 C67.7738657,17.3153057 68.1522795,17.1239544 68.6301577,17.0203995 C69.1233669,16.9134679 69.6921093,16.9243487 70.3132015,17.0511658 C70.4855817,17.0905617 70.6489876,17.0965649 70.8008018,17.0691754 C70.9649556,17.0395347 71.1122827,16.9674965 71.2386699,16.8553121 C71.3721617,16.7371245 71.462278,16.5731627 71.50341,16.3795602 C71.5755778,16.0989116 71.5527683,15.6921963 71.0360017,15.3496399" id="Fill-26" fill="#273245"></path>
                    <path d="M76.113215,22.1232889 L75.7213398,22.1232889 C75.6342149,22.1232889 75.5182977,22.0958994 75.3937801,21.8824114 C75.2730018,21.6749265 75.2116778,21.3987803 75.2116778,21.0614767 L75.2116778,12.4720537 C75.2116778,12.1673924 75.1110916,11.9115069 74.9117887,11.7111509 C74.7128597,11.5115452 74.4578417,11.4102415 74.1534654,11.4102415 C73.8490892,11.4102415 73.5936973,11.5115452 73.3951422,11.7111509 C73.1962133,11.9107566 73.0952531,12.1670172 73.0952531,12.4720537 L73.0952531,21.0614767 C73.0952531,21.6655466 73.2036918,22.2095846 73.4179518,22.6782077 C73.6355771,23.156586 73.9463101,23.5404143 74.3400548,23.8191869 C74.7412781,24.1032123 75.205695,24.2472885 75.7213398,24.2472885 L75.7527497,24.2472885 C76.1248067,24.2472885 76.4381572,24.1549897 76.6834531,23.9730183 C76.9515585,23.7749134 77.0932767,23.5025192 77.0932767,23.1851011 C77.0932767,22.8856926 77.0039082,22.6335591 76.8274148,22.435079 C76.6453126,22.2309709 76.398147,22.1232889 76.113215,22.1232889" id="Fill-28" fill="#273245"></path>
                    <path d="M85.0887256,19.6770687 C85.0887256,20.2053484 84.9810347,20.6750971 84.7686444,21.0728077 C84.5584976,21.4667663 84.2623477,21.7804324 83.8895429,22.0051764 C83.5163641,22.2299204 83.078496,22.3436056 82.5882782,22.3436056 C82.0973125,22.3436056 81.6598183,22.2299204 81.2870135,22.0051764 C80.9130868,21.7800572 80.6143195,21.4660159 80.3985638,21.0709317 C80.1816863,20.6735963 80.0717519,20.204598 80.0717519,19.6770687 C80.0717519,19.1491642 80.1820603,18.6771643 80.3993116,18.2742009 C80.6150673,17.8746143 80.9134608,17.5583218 81.2870135,17.3332026 C81.6594444,17.1088338 82.0969386,16.9951487 82.5882782,16.9951487 C83.0788699,16.9951487 83.516738,17.1088338 83.8891689,17.3332026 C84.2619738,17.5579466 84.5577498,17.8734887 84.7678965,18.2719497 C84.9806608,18.6756635 85.0887256,19.1484138 85.0887256,19.6770687 M84.9507467,15.6230471 L84.9503727,15.6230471 C84.2627216,15.2283382 83.4677536,15.0283573 82.5882782,15.0283573 C81.6975849,15.0283573 80.8977558,15.2283382 80.2097308,15.6230471 C79.5213319,16.0188817 78.9727815,16.5719246 78.5786628,17.2679181 C78.1860399,17.9624108 77.986737,18.7732151 77.986737,19.6770687 C77.986737,20.5711671 78.1860399,21.3763434 78.5786628,22.0704609 C78.9727815,22.7668297 79.5213319,23.3202477 80.2097308,23.7153319 C80.8966341,24.1100409 81.6968371,24.310397 82.5882782,24.310397 C83.4789714,24.310397 84.2791744,24.1100409 84.9664516,23.7153319 C85.6548505,23.3198725 86.2011573,22.7660793 86.590415,22.0689602 C86.977429,21.3752178 87.1741144,20.5704167 87.1741144,19.6770687 C87.1741144,18.7732151 86.9748115,17.962786 86.5818147,17.2679181 C86.187696,16.5719246 85.6387717,16.0188817 84.9507467,15.6230471" id="Fill-30" fill="#273245"></path>
                    <path d="M98.9807732,15.0912406 C98.6161948,15.0912406 98.1334555,15.2507 97.9038645,16.0067253 L96.474343,20.5046069 L95.296848,15.9012945 C95.2415069,15.6649193 95.1240939,15.469816 94.9476005,15.3208621 C94.7662461,15.1685315 94.5355334,15.0912406 94.2614451,15.0912406 C93.9750173,15.0912406 93.7401914,15.1696571 93.563698,15.3246141 C93.3987964,15.4690656 93.2813834,15.6581657 93.2144506,15.8862865 L91.8656972,20.4588326 L90.4466456,16.0059749 C90.3456854,15.6904328 90.2129414,15.466064 90.0401873,15.3208621 C89.8588329,15.1685315 89.6333552,15.0912406 89.3701108,15.0912406 C88.8458657,15.0912406 88.6241272,15.3482516 88.5306455,15.5636157 C88.4169718,15.8247539 88.4094933,16.1526776 88.5138188,16.5552657 L90.8362771,23.5452168 C90.9076971,23.7466985 91.0393193,23.9155379 91.2262826,24.0468574 C91.6103053,24.3192516 92.1180977,24.3061197 92.4830501,24.047983 C92.6759962,23.9121611 92.8038791,23.7373185 92.8637074,23.5279577 L94.2064779,18.774941 L95.4871767,23.5279577 C95.546631,23.7388193 95.679001,23.9144123 95.8786778,24.049859 C96.0701283,24.1808033 96.280649,24.2472135 96.5035093,24.2472135 C96.7402048,24.2472135 96.9529691,24.1789273 97.1354453,24.0449814 C97.3212868,23.9087843 97.4454305,23.7350673 97.5007716,23.539964 L99.8194907,16.5601433 C99.9600871,16.1624327 99.960461,15.8217524 99.8206125,15.5474821 C99.7140434,15.3396221 99.4818349,15.0912406 98.9807732,15.0912406" id="Fill-32" fill="#273245"></path>
                    <g id="Group-36" transform="translate(101.318151, 15.028320)">
                        <mask id="mask-2" fill="white">
                            <use xlink:href="#path-1"></use>
                        </mask>
                        <g id="Clip-35"></g>
                        <path d="M6.63831959,3.66569092 L2.09249346,3.66569092 C2.13773858,3.50885788 2.19457543,3.35915362 2.26188223,3.21882932 C2.46006334,2.80723639 2.7416301,2.49244471 3.12303527,2.25606955 C3.50070118,2.02232079 3.96661377,1.90375801 4.50731168,1.90375801 C4.97285035,1.90375801 5.37070829,2.01031443 5.68929378,2.22005048 C6.01573174,2.43578971 6.26140154,2.72131589 6.43939062,3.09276257 C6.52427196,3.27023153 6.5908309,3.46195805 6.63831959,3.66569092 M8.39801834,5.20100385 C8.58610344,5.0190325 8.68594185,4.77965575 8.68594185,4.50726152 C8.68594185,3.64130301 8.5210402,2.86201539 8.19572403,2.19191058 C7.86554681,1.5131762 7.37981611,0.972139732 6.75236721,0.583809117 C6.12529224,0.1962289 5.36996043,0 4.50731168,0 C3.6371844,0 2.85231239,0.200356085 2.17438339,0.595815475 C1.4964544,0.992025261 0.958373971,1.54581849 0.575099168,2.2425624 C0.193693998,2.93667992 0,3.74598344 0,4.64871142 C0,5.54431062 0.205285724,6.35061255 0.609500418,7.04510527 C1.01483689,7.74147398 1.58283145,8.29451681 2.29777918,8.6892258 C3.0097355,9.082434 3.8323741,9.28203969 4.74288546,9.28203969 C5.25067784,9.28203969 5.78913219,9.18711443 6.34329147,8.9998903 C6.89894645,8.81229096 7.37233758,8.56390945 7.74701207,8.26562651 C8.06223222,8.02362338 8.11607766,7.73997319 8.10523378,7.54336909 C8.09065065,7.27960443 7.96426344,7.04060288 7.7264461,6.82974124 C7.53798708,6.67028181 7.31325717,6.59674287 7.06272632,6.59936926 C6.82416113,6.60649803 6.600553,6.68528975 6.39676298,6.83536922 C6.21054751,6.97531832 5.95852096,7.10213547 5.64666615,7.21319427 C5.33817667,7.32237708 5.03417431,7.37828168 4.74288546,7.37828168 C4.19770043,7.37828168 3.71047402,7.25784291 3.29504153,7.02109255 C2.87960903,6.7843422 2.54980574,6.45866976 2.31460588,6.05195441 C2.2110282,5.87335985 2.1295122,5.68013254 2.07117964,5.47489887 L7.69017522,5.47489887 C7.97174197,5.47489887 8.20993324,5.3826 8.39801834,5.20100385" id="Fill-34" fill="#273245" mask="url(#mask-2)"></path>
                    </g>
                </g>
            </g>
        </g>
    </g>
</svg>