<?xml version="1.0" encoding="UTF-8"?>
<svg width="1032px" height="1975px" viewBox="0 0 1032 1975" version="1.1" xmlns="http://www.w3.org/2000/svg" xmlns:xlink="http://www.w3.org/1999/xlink">
    <title>Fill 1</title>
    <g id="Pages" stroke="none" stroke-width="1" fill="none" fill-rule="evenodd">
        <g id="01-Marlowe-Home-Page-D" transform="translate(-408.000000, -2831.000000)" fill="#212B3E">
            <g id="Build" transform="translate(0.000000, 2831.000000)">
                <path d="M1266.25737,-123.541792 L1265.12074,-123.541792 C1211.1197,-123.319877 1159.66257,-105.99971 1116.43251,-73.4540333 C1073.19705,-40.9083565 1042.32385,3.75061222 1027.14705,55.6948763 L494.422007,1878.99429 C475.76494,1942.86241 483.088123,2010.17291 515.054657,2068.52564 C547.02119,2126.87836 599.798987,2169.29653 663.661692,2187.9536 C686.5189,2194.63269 710.05809,2198.01554 733.635167,2198.01554 C786.402139,2198.01554 838.968847,2180.65748 881.652234,2149.13478 C925.75371,2116.57286 957.206051,2071.47548 972.626412,2018.71392 L1233.99856,1124.14352 C1238.70207,1108.04118 1253.42962,1096.95086 1270.20854,1096.88049 L1270.3655,1096.88049 C1287.07405,1096.88049 1301.81784,1107.8355 1306.64043,1123.84583 L1422.97782,1510.275 C1438.52267,1561.92157 1469.6232,1606.22872 1512.91279,1638.40093 C1556.19156,1670.56773 1607.56751,1687.56856 1661.48735,1687.56315 L1662.52656,1687.56315 C1716.57631,1687.35206 1768.02803,1670.04271 1811.2635,1637.51328 C1854.49897,1604.98384 1885.37758,1560.34652 1900.57061,1508.41308 L2163.27425,610.508546 C2167.98317,594.411616 2182.72155,583.321296 2199.49505,583.261758 L2199.63577,583.261758 C2216.35515,583.261758 2231.10435,594.222176 2235.91611,610.243331 L2350.91661,992.899951 C2366.64007,1045.22309 2398.18443,1089.89289 2442.13435,1122.08134 C2484.66077,1153.22516 2536.95685,1170.37754 2589.37742,1170.37213 C2613.60401,1170.36671 2637.76023,1166.79984 2661.1641,1159.76352 C2724.88608,1140.61391 2777.33371,1097.79521 2808.85101,1039.19892 C2840.37371,980.59722 2847.17729,913.238007 2828.02768,849.516029 L2434.50265,-459.958978 C2418.96863,-511.638027 2387.87352,-555.972242 2344.57851,-588.166103 C2301.2835,-620.354552 2249.89132,-637.366203 2195.95524,-637.366203 L2194.98639,-637.366203 C2140.91499,-637.165939 2089.45245,-619.867422 2046.20615,-587.33257 C2002.95445,-554.803131 1972.06501,-510.154987 1956.86657,-458.216136 L1693.93019,440.500279 C1689.22127,456.602622 1674.4883,467.687529 1657.7148,467.75248 C1640.70856,467.703767 1626.12174,456.846187 1621.28833,440.787145 L1504.77231,53.7463575 C1489.22205,2.09978378 1458.12153,-42.207369 1414.83193,-74.3795797 C1371.55316,-106.540965 1320.17722,-123.541792 1266.25737,-123.541792 M733.635167,2273.79127 C702.864808,2273.79127 672.170224,2269.38004 642.412011,2260.68748 C559.118245,2236.35264 490.286818,2181.03636 448.59934,2104.93046 C406.90645,2028.82457 397.353295,1941.03838 421.68813,1857.7392 L954.413174,34.4451961 C974.206878,-33.298308 1014.47085,-91.5427829 1070.85882,-133.99343 C1127.23597,-176.438665 1194.3462,-199.025246 1264.92588,-199.317524 L1266.21407,-199.317524 C1336.58266,-199.317524 1403.58465,-177.14771 1460.03216,-135.200429 C1516.49049,-93.2423243 1557.05216,-35.4579164 1577.33299,31.9067091 L1657.04906,296.710416 L1884.1381,-479.492879 C1903.95887,-547.23097 1944.24991,-605.46462 2000.65411,-647.888205 C2057.05291,-690.317202 2124.17397,-712.882132 2194.75365,-713.141935 L2195.85781,-713.141935 C2266.30218,-713.141935 2333.32581,-690.950471 2389.78956,-648.970715 C2446.25872,-606.985547 2486.80956,-549.168664 2507.06874,-481.771563 L2900.59918,827.708856 C2925.57269,910.807771 2916.69611,998.664319 2875.58777,1075.08956 C2834.48485,1151.51479 2766.08102,1207.36151 2682.97669,1232.33503 C2652.4932,1241.49848 2621.00297,1246.14245 2589.38825,1246.14786 C2520.979,1246.15327 2452.78625,1223.80484 2397.36172,1183.21611 C2340.0049,1141.2093 2298.85327,1082.94317 2278.34511,1014.70712 L2200.1229,754.412073 L1973.29907,1529.68982 C1953.48372,1597.41709 1913.20892,1655.63991 1856.82095,1698.0635 C1800.43298,1740.49249 1733.32816,1763.06284 1662.76471,1763.33888 L1661.57936,1763.33888 C1591.16747,1763.34429 1524.16008,1741.16906 1467.71257,1699.22178 C1411.25424,1657.25827 1370.69257,1599.47927 1350.41715,1532.12006 L1270.90676,1268.00374 L1045.35488,2039.9636 C1025.25266,2108.76796 984.214687,2167.59699 926.668431,2210.09094 C871.038219,2251.1668 802.488245,2273.79127 733.635167,2273.79127" id="Fill-1"></path>
            </g>
        </g>
    </g>
</svg>