<svg xmlns="http://www.w3.org/2000/svg" width="31" height="37" viewBox="0 0 31 37">
    <g fill="none" fill-rule="evenodd">
        <g fill="#00E39C">
            <g>
                <path d="M3.56 36.087c-.336 0-.672-.048-.999-.143C1.65 35.677.896 35.07.44 34.238c-.456-.834-.561-1.795-.295-2.707L6.748 8.929c.217-.742.658-1.38 1.275-1.844.618-.465 1.352-.712 2.125-.716h.015c.77 0 1.504.243 2.122.703.618.459 1.062 1.092 1.284 1.83l1.445 4.797 3.259-11.14c.217-.742.658-1.38 1.276-1.844C20.167.25 20.902.003 21.675 0h.013c.77 0 1.504.243 2.122.703.619.46 1.063 1.093 1.285 1.83l4.878 16.233c.273.91.176 1.872-.274 2.71-.45.836-1.2 1.447-2.11 1.721-.333.1-.678.151-1.024.151-.75 0-1.496-.244-2.103-.69-.628-.459-1.078-1.097-1.303-1.844l-1.426-4.744-3.256 11.13c-.217.743-.658 1.38-1.276 1.845-.617.464-1.352.712-2.125.714h-.014c-.77 0-1.503-.242-2.122-.702-.618-.459-1.062-1.092-1.284-1.83l-1.442-4.79-3.24 11.09c-.22.753-.67 1.397-1.3 1.862-.61.45-1.36.698-2.113.698" transform="translate(-21 -24) translate(21 24)"/>
            </g>
        </g>
    </g>
</svg>
