<?xml version="1.0" encoding="UTF-8"?>
<svg width="280px" height="403px" viewBox="0 0 280 403" version="1.1" xmlns="http://www.w3.org/2000/svg" xmlns:xlink="http://www.w3.org/1999/xlink">
    <title>Fill 1 Copy 2</title>
    <g id="Pages" stroke="none" stroke-width="1" fill="none" fill-rule="evenodd">
        <g id="01-Marlowe-Home-Page-D" transform="translate(0.000000, -5782.000000)" fill="#8701FC">
            <g id="Background" transform="translate(0.000000, 5782.000000)">
                <path d="M-268.70202,-53.7803195 L-269.080294,-53.7803195 C-287.051907,-53.706466 -304.176907,-47.9422922 -318.563925,-37.1110495 C-332.952743,-26.2798067 -343.227383,-11.4172449 -348.278241,5.86987255 L-525.569815,612.666247 C-531.778911,633.921638 -529.341747,656.322658 -518.703243,675.74252 C-508.06474,695.162382 -490.500222,709.279203 -469.246632,715.488299 C-461.639724,717.711109 -453.805852,718.836924 -445.95937,718.836924 C-428.398455,718.836924 -410.904187,713.060141 -396.699102,702.569345 C-382.022074,691.732698 -371.554695,676.724231 -366.422779,659.165116 L-279.437794,361.450945 C-277.87246,356.092065 -272.971111,352.401192 -267.387068,352.377775 L-267.33483,352.377775 C-261.774204,352.377775 -256.867451,356.023615 -255.262489,361.351873 L-216.545254,489.955994 C-211.371908,507.14404 -201.021614,521.889517 -186.614782,532.596469 C-172.211553,543.301621 -155.113572,548.959518 -137.168979,548.957716 L-136.823128,548.957716 C-118.835303,548.887466 -101.712105,543.126894 -87.3232859,532.301056 C-72.9344671,521.475217 -62.6580261,506.61986 -57.6017649,489.336345 L29.8263408,190.51257 C31.3934756,185.155491 36.2984272,181.464619 41.8806692,181.444804 L41.9275032,181.444804 C47.4917321,181.444804 52.4002864,185.092446 54.0016459,190.424306 L92.2739585,317.772918 C97.5067475,335.186127 108.004749,350.052291 122.63134,360.764648 C136.784188,371.129353 154.18839,376.837686 171.634022,376.835885 C179.69666,376.834084 187.735881,375.647024 195.524721,373.305329 C216.731477,366.932314 234.186115,352.682196 244.67511,333.181275 C255.165907,313.678553 257.430146,291.261321 251.057132,270.054566 L120.091501,-165.740389 C114.921757,-182.939242 104.573264,-197.693726 90.1646311,-208.407884 C75.755998,-219.12024 58.6526136,-224.78174 40.7026162,-224.78174 L40.3801828,-224.78174 C22.3851528,-224.715091 5.25835142,-218.958123 -9.13406997,-208.130483 C-23.5282927,-197.304644 -33.8083363,-182.445685 -38.8663988,-165.160369 L-126.371961,133.933602 C-127.939095,139.292482 -132.842246,142.981554 -138.424488,143.003169 C-144.084186,142.986958 -148.938701,139.373541 -150.547266,134.029071 L-189.323943,5.221403 C-194.499091,-11.9666427 -204.849385,-26.7121197 -219.256217,-37.4190725 C-233.659446,-48.1224227 -250.757427,-53.7803195 -268.70202,-53.7803195 M-445.95937,744.055184 C-456.199785,744.055184 -466.414982,742.587121 -476.318553,739.694227 C-504.038825,731.595563 -526.946012,713.186233 -540.819658,687.858093 C-554.695105,662.529953 -557.874407,633.314598 -549.775743,605.592525 L-372.484168,-1.20204815 C-365.896798,-23.7471728 -352.496895,-43.1310084 -333.730907,-57.2586381 C-314.968521,-71.3844665 -292.634149,-78.9013093 -269.145141,-78.9985798 L-268.716431,-78.9985798 C-245.297673,-78.9985798 -222.999327,-71.6204373 -204.213525,-57.660329 C-185.42412,-43.696618 -171.925145,-24.4658932 -165.175658,-2.04685987 L-138.646048,86.0801519 L-63.0705248,-172.241296 C-56.4741484,-194.784619 -43.0652392,-214.164852 -24.293847,-228.283475 C-5.52425614,-242.4039 16.8137185,-249.913537 40.3027267,-250 L40.6701927,-250 C64.1141683,-250 86.4197195,-242.614652 105.210926,-228.643736 C124.003934,-214.671019 137.499306,-195.429486 144.241588,-172.999645 L275.20902,262.797111 C283.520238,290.452536 280.566099,319.691307 266.885193,345.125724 C253.206088,370.560141 230.441204,389.145999 202.783978,397.457217 C192.639032,400.506825 182.159043,402.052344 171.637625,402.054145 C148.87094,402.055947 126.176307,394.618361 107.730951,381.11038 C88.642529,367.130457 74.9472124,347.739417 68.1220703,325.030373 L42.0896205,238.403848 L-33.397639,496.417273 C-39.992214,518.956993 -53.3957193,538.333624 -72.1617076,552.452247 C-90.9276958,566.572671 -113.260267,574.08411 -136.743871,574.175977 L-137.138356,574.175977 C-160.571524,574.177778 -182.871671,566.797834 -201.657474,552.837726 C-220.446879,538.872214 -233.945854,519.64329 -240.69354,497.226058 L-267.1547,409.327812 L-342.218653,666.237037 C-348.908697,689.135217 -362.566186,708.713594 -381.717654,722.855634 C-400.231459,736.525732 -423.044978,744.055184 -445.95937,744.055184" id="Fill-1-Copy-2"></path>
            </g>
        </g>
    </g>
</svg>