<?xml version="1.0" encoding="UTF-8"?>
<svg width="287px" height="400px" viewBox="0 0 287 400" version="1.1" xmlns="http://www.w3.org/2000/svg" xmlns:xlink="http://www.w3.org/1999/xlink">
    <title>Fill 1</title>
    <g id="Pages" stroke="none" stroke-width="1" fill="none" fill-rule="evenodd">
        <g id="01-Marlowe-Home-Page-D" transform="translate(-1153.000000, -5797.000000)" fill="#8701FC">
            <g id="Background" transform="translate(0.000000, 5782.000000)">
                <path d="M1351.29798,40.2196805 L1350.91971,40.2196805 C1332.94809,40.293534 1315.82309,46.0577078 1301.43608,56.8889505 C1287.04726,67.7201933 1276.77262,82.5827551 1271.72176,99.8698726 L1094.43018,706.666247 C1088.22109,727.921638 1090.65825,750.322658 1101.29676,769.74252 C1111.93526,789.162382 1129.49978,803.279203 1150.75337,809.488299 C1158.36028,811.711109 1166.19415,812.836924 1174.04063,812.836924 C1191.60155,812.836924 1209.09581,807.060141 1223.3009,796.569345 C1237.97793,785.732698 1248.44531,770.724231 1253.57722,753.165116 L1340.56221,455.450945 C1342.12754,450.092065 1347.02889,446.401192 1352.61293,446.377775 L1352.66517,446.377775 C1358.2258,446.377775 1363.13255,450.023615 1364.73751,455.351873 L1403.45475,583.955994 C1408.62809,601.14404 1418.97839,615.889517 1433.38522,626.596469 C1447.78845,637.301621 1464.88643,642.959518 1482.83102,642.957716 L1483.17687,642.957716 C1501.1647,642.887466 1518.2879,637.126894 1532.67671,626.301056 C1547.06553,615.475217 1557.34197,600.61986 1562.39824,583.336345 L1649.82634,284.51257 C1651.39348,279.155491 1656.29843,275.464619 1661.88067,275.444804 L1661.9275,275.444804 C1667.49173,275.444804 1672.40029,279.092446 1674.00165,284.424306 L1712.27396,411.772918 C1717.50675,429.186127 1728.00475,444.052291 1742.63134,454.764648 C1756.78419,465.129353 1774.18839,470.837686 1791.63402,470.835885 C1799.69666,470.834084 1807.73588,469.647024 1815.52472,467.305329 C1836.73148,460.932314 1854.18612,446.682196 1864.67511,427.181275 C1875.16591,407.678553 1877.43015,385.261321 1871.05713,364.054566 L1740.0915,-71.7403885 C1734.92176,-88.939242 1724.57326,-103.693726 1710.16463,-114.407884 C1695.756,-125.12024 1678.65261,-130.78174 1660.70262,-130.78174 L1660.38018,-130.78174 C1642.38515,-130.715091 1625.25835,-124.958123 1610.86593,-114.130483 C1596.47171,-103.304644 1586.19166,-88.4456847 1581.1336,-71.1603686 L1493.62804,227.933602 C1492.0609,233.292482 1487.15775,236.981554 1481.57551,237.003169 C1475.91581,236.986958 1471.0613,233.373541 1469.45273,228.029071 L1430.67606,99.221403 C1425.50091,82.0333573 1415.15061,67.2878803 1400.74378,56.5809275 C1386.34055,45.8775773 1369.24257,40.2196805 1351.29798,40.2196805 M1174.04063,838.055184 C1163.80021,838.055184 1153.58502,836.587121 1143.68145,833.694227 C1115.96117,825.595563 1093.05399,807.186233 1079.18034,781.858093 C1065.3049,756.529953 1062.12559,727.314598 1070.22426,699.592525 L1247.51583,92.7979519 C1254.1032,70.2528272 1267.5031,50.8689916 1286.26909,36.7413619 C1305.03148,22.6155335 1327.36585,15.0986907 1350.85486,15.0014202 L1351.28357,15.0014202 C1374.70233,15.0014202 1397.00067,22.3795627 1415.78648,36.339671 C1434.57588,50.303382 1448.07485,69.5341068 1454.82434,91.9531401 L1481.35395,180.080152 L1556.92948,-78.2412958 C1563.52585,-100.784619 1576.93476,-120.164852 1595.70615,-134.283475 C1614.47574,-148.4039 1636.81372,-155.913537 1660.30273,-156 L1660.67019,-156 C1684.11417,-156 1706.41972,-148.614652 1725.21093,-134.643736 C1744.00393,-120.671019 1757.49931,-101.429486 1764.24159,-78.9996449 L1895.20902,356.797111 C1903.52024,384.452536 1900.5661,413.691307 1886.88519,439.125724 C1873.20609,464.560141 1850.4412,483.145999 1822.78398,491.457217 C1812.63903,494.506825 1802.15904,496.052344 1791.63762,496.054145 C1768.87094,496.055947 1746.17631,488.618361 1727.73095,475.11038 C1708.64253,461.130457 1694.94721,441.739417 1688.12207,419.030373 L1662.08962,332.403848 L1586.60236,590.417273 C1580.00779,612.956993 1566.60428,632.333624 1547.83829,646.452247 C1529.0723,660.572671 1506.73973,668.08411 1483.25613,668.175977 L1482.86164,668.175977 C1459.42848,668.177778 1437.12833,660.797834 1418.34253,646.837726 C1399.55312,632.872214 1386.05415,613.64329 1379.30646,591.226058 L1352.8453,503.327812 L1277.78135,760.237037 C1271.0913,783.135217 1257.43381,802.713594 1238.28235,816.855634 C1219.76854,830.525732 1196.95502,838.055184 1174.04063,838.055184" id="Fill-1"></path>
            </g>
        </g>
    </g>
</svg>