<svg xmlns="http://www.w3.org/2000/svg" width="118" height="82" viewBox="0 0 118 82">
    <g fill="none" fill-rule="evenodd">
        <g fill="#00E39C">
            <g>
                <path d="M107.905 44.033c-9.023-6.527-17.865-11.596-26.28-15.067-7.813-3.223-16.303-5.355-25.965-6.496-8.799-1.047-17.48-.914-25.805.393-6.431 1.01-13.155 2.293-19.33 4.732 1.545-1.325 2.99-2.912 3.941-5.053.161-.363.075-.836-.219-1.207-.32-.403-.783-.56-1.1-.376-1.541.895-2.915 2.208-4.244 3.479-.909.868-1.848 1.766-2.82 2.507-.453.345-.905.7-1.357 1.057-.848.668-1.725 1.359-2.612 1.979-.536.183-.954.463-1.244.834-.404.334-.517.94-.301 1.63.257.822.904 1.515 1.539 1.648.606.127 1.23-.003 1.831-.129.455-.094.884-.184 1.293-.168 1.351.054 2.762.216 4.193.482l.49.09c2.132.39 4.785.876 6.696 2.5.261.222.528.348.78.379.407.05.774-.147 1.015-.581.373-.674.352-1.83-.42-2.65-1.475-1.564-3.413-2.386-5.21-2.885 1.344-.383 2.685-.782 3.994-1.172 4.602-1.368 9.36-2.784 14.268-3.526 8.591-1.298 17.03-1.467 25.083-.504 10.072 1.207 18.1 3.136 25.28 6.08 8.356 3.426 16.566 8.352 24.505 13.115l1.409.844c.57.342 1.007.052 1.145-.41.137-.46-.01-1.13-.555-1.525" transform="translate(-60 -2083) rotate(172 13.834 1080.92) rotate(24 54.485 33.5)"/>
            </g>
        </g>
    </g>
</svg>
